<?xml version="1.0" encoding="UTF-8"?>
<svg id="Layer_2" data-name="Layer 2" xmlns="http://www.w3.org/2000/svg" viewBox="0 0 497.95 334.39">
  <defs>
    <style>
      .cls-1 {
        fill: #6d98ac;
      }

      .cls-2 {
        fill: #80c7bc;
      }

      .cls-3 {
        fill: #b9dbe5;
      }

      .cls-4 {
        fill: #6fb1c8;
      }

      .cls-5 {
        fill: #231f20;
      }
    </style>
  </defs>
  <g id="Layer_1-2" data-name="Layer 1">
    <polygon class="cls-1" points="2.48 214.34 71.53 247.31 140.1 117.51 2.48 214.34"/>
    <path class="cls-5" d="m138.7,115.42L1.08,212.25c-.73.51-1.14,1.38-1.07,2.29.08.91.62,1.7,1.43,2.09l69.05,32.97c1.18.57,2.6.1,3.22-1.08l68.57-129.81c.54-1.03.33-2.3-.51-3.09-.86-.78-2.13-.86-3.07-.2Zm-5.67,10.13c-8.29,15.69-60.56,114.67-62.57,118.44-3.74-1.78-56.25-26.86-63.01-30.08,6.34-4.46,111.06-78.15,125.58-88.36Z"/>
    <polygon class="cls-4" points="267.05 140.75 71.53 247.31 341.66 272.97 267.05 140.75"/>
    <path class="cls-5" d="m265.88,138.51l-195.52,106.57c-.97.53-1.48,1.64-1.26,2.72.22,1.1,1.11,1.93,2.2,2.04l270.12,25.66c.93.08,1.82-.37,2.32-1.16.5-.8.53-1.81.06-2.63l-74.61-132.23c-.67-1.19-2.13-1.62-3.32-.97Zm.22,5.63c2.24,3.97,66.6,118.05,71.03,125.85-8.92-.84-241.94-22.99-257.14-24.42,13.38-7.29,182.12-99.27,186.11-101.43Z"/>
    <polygon class="cls-1" points="26.46 273.21 171.37 331.85 71.53 247.31 26.46 273.21"/>
    <path class="cls-5" d="m70.32,245.1l-45.07,25.9c-.84.49-1.32,1.42-1.26,2.39.06.97.67,1.83,1.56,2.18l144.9,58.64c1.14.46,2.43,0,3.05-1.07.62-1.07.39-2.44-.56-3.25l-99.82-84.53c-.79-.67-1.9-.78-2.8-.27Zm.95,5.27c2.24,1.91,68.18,57.74,86.49,73.25-22.63-9.15-117.45-47.53-125.55-50.81,7.07-4.06,36.56-21.01,39.06-22.44Z"/>
    <polygon class="cls-3" points="140.1 117.51 267.05 140.75 71.53 247.31 140.1 117.51"/>
    <path class="cls-5" d="m137.92,116.31l-68.57,129.79c-.51.99-.34,2.2.42,2.99.78.8,1.96.99,2.93.46l195.52-106.57c.93-.51,1.45-1.57,1.28-2.63-.16-1.07-.97-1.9-2.01-2.09l-126.95-23.24c-1.04-.19-2.1.33-2.62,1.29Zm3.5,4.02c3.25.6,105.77,19.36,118.15,21.62-11.37,6.2-168.96,92.08-181.95,99.17,6.85-12.97,62.24-117.82,63.8-120.79Z"/>
    <polygon class="cls-2" points="2.48 214.34 26.46 273.21 71.53 247.31 2.48 214.34"/>
    <path class="cls-5" d="m.77,212.51c-.75.72-.97,1.84-.58,2.8l23.98,58.87c.26.67.81,1.19,1.48,1.43.67.24,1.4.16,2.02-.19l45.07-25.9c.81-.48,1.29-1.35,1.26-2.31-.03-.96-.58-1.8-1.43-2.2L3.53,212.04c-.92-.44-2.02-.25-2.76.47Zm6.46,6.89c9.05,4.32,51.9,24.79,58.88,28.12-6.51,3.74-34.51,19.83-38.43,22.09-1.74-4.3-16.69-40.97-20.45-50.21Z"/>
    <polygon class="cls-2" points="341.66 272.97 71.53 247.31 171.37 331.85 341.66 272.97"/>
    <path class="cls-5" d="m69.24,246.34c-.42,1.04-.12,2.21.72,2.93l99.82,84.54c.67.56,1.57.73,2.38.45l170.29-58.88c1.11-.38,1.81-1.5,1.67-2.69-.14-1.19-1.06-2.12-2.23-2.23l-270.12-25.66c-1.09-.11-2.1.53-2.52,1.54Zm10.06,4.25c14.37,1.37,229.9,21.86,250.52,23.81-19.17,6.62-155.52,53.77-157.94,54.6-1.95-1.66-81.83-69.31-92.58-78.41Z"/>
    <path class="cls-5" d="m415.72,97.93l-24.45,21.49c-.92.8-1.21,2.12-.73,3.26.48,1.13,1.62,1.81,2.82,1.68l87.27-9.62c1.37-.15,2.41-1.31,2.46-2.7.05-1.39-.9-2.62-2.26-2.87l-62.81-11.86c-.83-.16-1.67.07-2.3.63Zm2.6,5.15c1.73.33,25.1,4.74,42.98,8.12-20.13,2.22-48.88,5.39-59.72,6.59,6.66-5.87,15.42-13.55,16.74-14.71Z"/>
    <polygon class="cls-2" points="267.05 140.75 393.06 121.55 341.66 272.97 267.05 140.75"/>
    <path class="cls-5" d="m392.7,119.04l-126.01,19.2c-.81.13-1.51.65-1.87,1.41-.36.75-.33,1.64.08,2.36l74.61,132.23c.48.86,1.42,1.35,2.38,1.26s1.79-.76,2.12-1.69l51.41-151.43c.28-.84.11-1.77-.44-2.44-.56-.68-1.42-1.02-2.27-.89Zm-3.32,5.63c-2.46,7.23-45.07,132.73-48.29,142.23-4.91-8.69-66.75-118.29-70.08-124.2,6.57-1,111-16.91,118.37-18.04Z"/>
    <polygon class="cls-3" points="480.33 111.93 341.66 272.97 393.06 121.55 480.33 111.93"/>
    <path class="cls-5" d="m480.07,109.4l-87.27,9.62c-.95.11-1.76.76-2.07,1.7l-51.41,151.42c-.39,1.15.06,2.42,1.09,3.02,1.03.6,2.32.4,3.11-.51l138.68-161.06c.67-.79.81-1.91.34-2.84-.48-.92-1.45-1.46-2.48-1.35Zm-5.81,5.74c-7.43,8.63-111.86,129.92-126.12,146.47,6.93-20.39,45.83-134.99,46.76-137.72,2.79-.31,68.68-7.58,79.36-8.75Z"/>
    <polygon class="cls-1" points="140.1 117.51 267.05 140.75 393.06 121.55 417.53 100.07 140.1 117.51"/>
    <path class="cls-5" d="m417.37,97.54l-277.43,17.44c-1.25.09-2.24,1.11-2.32,2.39-.06,1.28.81,2.41,2.04,2.64l126.95,23.23c.26.05.54.06.81.02l126.01-19.2c.47-.07.89-.27,1.25-.58l24.45-21.49c.81-.71,1.09-1.87.68-2.87-.41-1.01-1.39-1.65-2.44-1.58Zm-7.05,5.52c-6.46,5.68-17.52,15.4-18.33,16.1-1.39.21-124.1,18.9-124.89,19.02-.67-.12-77.61-14.21-106.21-19.44,34.34-2.16,236.55-14.88,249.43-15.69Z"/>
    <polygon class="cls-2" points="495.48 2.53 417.53 100.07 480.33 111.93 495.48 2.53"/>
    <path class="cls-5" d="m493.55.93l-77.96,97.53c-.54.69-.7,1.63-.41,2.48.3.84,1.01,1.46,1.88,1.62l62.82,11.86c.65.13,1.34-.03,1.88-.44.54-.41.92-1.02,1.01-1.7l15.14-109.39c.16-1.12-.44-2.22-1.45-2.67-1.03-.46-2.21-.16-2.93.72Zm-1.78,10.24c-2.04,14.75-12.89,93.22-13.53,97.79-4.36-.82-49.27-9.3-56.16-10.6,4.58-5.72,60.38-75.52,69.69-87.18Z"/>
    <path class="cls-5" d="m393.79,11.21c-1.06.64-1.56,1.92-1.25,3.13l22.32,86.44c.25,1.02,1.06,1.81,2.07,2.03,1.01.23,2.06-.15,2.71-.97l29.99-37.51c.92-1.15.81-2.85-.28-3.85l-52.28-48.93c-.9-.84-2.24-.98-3.29-.33Zm6.48,10.95c9.97,9.33,40.38,37.79,43.45,40.67-2.58,3.23-19.89,24.88-24.92,31.18-2.15-8.33-15-58.1-18.53-71.85Z"/>
  </g>
</svg>