<?xml version="1.0" encoding="UTF-8"?>
<svg xmlns="http://www.w3.org/2000/svg" viewBox="0 0 300 300">
  <defs>
    <style>
      .cls-1 {
        fill: #e8b994;
      }

      .cls-1, .cls-2, .cls-3, .cls-4, .cls-5, .cls-6, .cls-7, .cls-8, .cls-9, .cls-10, .cls-11, .cls-12, .cls-13, .cls-14, .cls-15, .cls-16, .cls-17, .cls-18, .cls-19, .cls-20, .cls-21, .cls-22, .cls-23, .cls-24, .cls-25, .cls-26, .cls-27 {
        stroke-width: 0px;
      }

      .cls-2, .cls-24 {
        fill: #5fb2fc;
      }

      .cls-3 {
        fill: #6c4832;
      }

      .cls-4 {
        opacity: .38;
      }

      .cls-4, .cls-12, .cls-14 {
        fill: #fff;
      }

      .cls-5 {
        fill: #fcc58e;
      }

      .cls-6, .cls-7 {
        fill: #2e3370;
      }

      .cls-6, .cls-8, .cls-10, .cls-14, .cls-18, .cls-20, .cls-21, .cls-24, .cls-26, .cls-27 {
        fill-rule: evenodd;
      }

      .cls-28 {
        isolation: isolate;
      }

      .cls-8, .cls-19 {
        fill: #373d87;
      }

      .cls-9 {
        fill: #1d3655;
      }

      .cls-10 {
        fill: #bfbfbf;
      }

      .cls-29 {
        opacity: .44;
      }

      .cls-11 {
        fill: #e2b17f;
      }

      .cls-30 {
        stroke: #43253d;
        stroke-width: .61px;
      }

      .cls-30, .cls-31 {
        fill: none;
        stroke-miterlimit: 10;
      }

      .cls-13, .cls-18 {
        fill: #ffcc30;
      }

      .cls-31 {
        stroke: #2e3370;
      }

      .cls-15 {
        fill: #fce5e2;
      }

      .cls-16 {
        fill: #43253d;
      }

      .cls-17, .cls-20 {
        fill: #231f20;
      }

      .cls-21 {
        fill: #e6e7e8;
      }

      .cls-22 {
        fill: #f8d2a1;
      }

      .cls-23 {
        fill: #56a1e5;
      }

      .cls-25 {
        fill: #940b00;
      }

      .cls-26 {
        fill: #3c425c;
      }

      .cls-26, .cls-27 {
        mix-blend-mode: multiply;
        opacity: .39;
      }

      .cls-27 {
        fill: #81425c;
      }
    </style>
  </defs>
  <g class="cls-28">
    <g id="Layer_2" data-name="Layer 2">
      <g id="OBJECTS">
        <g>
          <g>
            <path class="cls-1" d="m155.48,72.42c1.67,9.94,4.06,24.71,7.99,33.94,13.95-.46,20.4,1.18,32.83-2.59,0,0,6.02-1.31,9.03-1.77s4.27,4.24,5.97,6.03c1.71,1.79-.05,3.7-.75,6.28-1.36-1.57-6.17-4.81-7.5-3.52-1.33,1.29-1.92,3.52.77,5.34.61.41-1.13,1.18-3.6,0-1.9-.91-2.89-3.01-7.4-1.81-15.8,4.19-28.41,11.49-38.22,5.85-5.8-3.34-16.06-33.28-16.86-45.33,5.61.45,12.07-2.96,17.73-2.41Z"/>
            <path class="cls-13" d="m145.13,91.27c-1.99.66-3.74,1.53-5.67,1.77-4.09-8.62-9.14-32.34-3.22-38.85,8.14-8.95,13.96-2.52,17.3,6.03,1.82,4.65,2.81,16.1,4.45,22.23.18.67,1.04,3.63,1.3,4.51-4.62,1.71-9.56,2.77-14.17,4.31Z"/>
          </g>
          <g>
            <path class="cls-6" d="m10.85,257.42c-3.45,3.63-6.7,5.06-6.31,11.81l4.74,1.02s-1.33-3.33,5.26-5.98l-3.7-6.85Z"/>
            <path class="cls-2" d="m154.31,179.36v1.67c0,9.72-4.21,18.88-11.43,25.27-1.59,1.4-3.1,2.86-4.34,4.29-1.11,1.25-1.99,2.48-2.56,3.6-.67,1.37-1.13,3.14-1.37,5.15-1.08,8.62-.65,23.02-.65,23.02l-7.09-.43c-1.35,9.23-2.24,17.23-2.24,17.23l-30.65.35-.94-36.47-2.83,1.69-30.44-2.17-45.23-3.22s.54-5.34,3.5-12.9c3.15-8.04,9.01-18.6,19.84-27.88,1.89-1.62,3.94-3.2,6.15-4.71.45-.32.89-.63,1.35-.93h46.53l-.22-2.49,46.56,2.43,5.83,5.02,1.72,1.48h8.51Z"/>
            <path class="cls-18" d="m40.55,188.67l-9.58,16.79c-2.02,3.54-6.49,4.75-9.99,2.71l-2.95-1.72c3.15-8.04,9.01-18.6,19.84-27.88h0c3.49,2.04,4.69,6.57,2.67,10.1Z"/>
            <path class="cls-18" d="m231.27,123.8h-6.33c-4.56,0-8.26-3.74-8.26-8.36h0c0-4.62,3.7-8.36,8.26-8.36h6.33c4.56,0,8.26,3.74,8.26,8.36h0c0,4.62-3.7,8.36-8.26,8.36Z"/>
            <path class="cls-6" d="m205.15,136.91h18.48l-8.54-30.84-5.4.78c-4.47.65-8.58,2.85-11.61,6.24l-2.45,2.74c-1.85,2.07-2.01,5.17-.38,7.42l9.91,13.65Z"/>
            <path class="cls-24" d="m203.31,111.51c-1.1,1.19-1.73,2.67-1.73,4.21,0,1.19.35,2.38,1.07,3.41l.08.11c.79,1.14,1.65,2.2,2.59,3.19,5.01,5.31,11.97,8.36,19.35,8.36h1.56v.1h7.15v-29.25s-19.5-1.54-30.06,9.87Z"/>
            <path class="cls-8" d="m201.38,112.81c-2.4-.24-4.54,1.53-4.77,3.96l-1.07,8.59c-.24,2.43,1.51,4.59,3.91,4.83,2.4.24,4.54-1.53,4.77-3.96l1.07-8.59c.24-2.43-1.51-4.59-3.91-4.83Z"/>
            <g>
              <path class="cls-20" d="m256.19,242.92c-11.51,3.48-18.05,15.72-14.61,27.34,3.43,11.62,15.54,18.22,27.05,14.74,11.5-3.48,18.05-15.72,14.61-27.34-3.43-11.62-15.54-18.22-27.05-14.74Z"/>
              <path class="cls-6" d="m252.21,229.44c-18.87,5.71-29.61,25.79-23.98,44.86,5.63,19.06,25.5,29.89,44.38,24.18,18.87-5.71,29.61-25.79,23.97-44.86-5.63-19.06-25.5-29.89-44.37-24.18Z"/>
              <path class="cls-18" d="m254.75,238.03c-14.18,4.29-22.25,19.38-18.01,33.7,4.23,14.32,19.16,22.46,33.34,18.17,14.18-4.29,22.25-19.38,18.01-33.7-4.23-14.32-19.16-22.45-33.34-18.16Z"/>
              <ellipse class="cls-12" cx="262.41" cy="263.96" rx="15.32" ry="15.17" transform="translate(-14.38 512.79) rotate(-87.12)"/>
              <path class="cls-6" d="m259.93,255.55c-4.6,1.39-7.22,6.28-5.84,10.93,1.37,4.65,6.21,7.28,10.81,5.89,4.6-1.39,7.22-6.29,5.84-10.93-1.37-4.65-6.21-7.28-10.81-5.89Z"/>
              <path class="cls-26" d="m252.1,229.48c-17.53,5.3-28.04,23.01-24.93,40.78l69.94-14.13c-.18-.82-.39-1.65-.64-2.47-5.63-19.06-25.5-29.89-44.37-24.18Z"/>
            </g>
            <g>
              <ellipse class="cls-17" cx="59.32" cy="263.96" rx="21.74" ry="21.96"/>
              <path class="cls-6" d="m94.98,263.95c0,6.29-1.59,12.19-4.4,17.34-6.06,11.15-17.79,18.69-31.25,18.69-18.9,0-34.37-14.85-35.58-33.62-.06-.79-.1-1.61-.1-2.41,0-19.88,15.96-36.02,35.67-36.02s35.66,16.13,35.66,36.02Z"/>
              <path class="cls-18" d="m59.32,236.89c-14.8,0-26.8,12.12-26.8,27.07s12,27.07,26.8,27.07,26.8-12.12,26.8-27.07-12-27.07-26.8-27.07Z"/>
              <ellipse class="cls-12" cx="59.32" cy="263.96" rx="15.17" ry="15.32"/>
              <path class="cls-6" d="m59.32,255.18c-4.8,0-8.69,3.93-8.69,8.78s3.89,8.78,8.69,8.78,8.69-3.93,8.69-8.78-3.89-8.78-8.69-8.78Z"/>
              <path class="cls-26" d="m94.98,263.95c0,6.29-1.59,12.19-4.4,17.34-3.1-.61-6.18-1.24-9.27-1.88-16.18-3.35-32.32-6.95-48.39-10.81-3.05-.74-6.12-1.48-9.17-2.24-.06-.79-.1-1.61-.1-2.41,0-19.88,15.96-36.02,35.67-36.02s35.66,16.13,35.66,36.02Z"/>
            </g>
            <g>
              <polygon class="cls-2" points="255.95 239.77 263.09 235.92 274.34 257.27 267.2 261.12 255.95 239.77"/>
              <polygon class="cls-2" points="247.3 236.33 250.38 234.66 266.88 265.99 263.79 267.65 247.3 236.33"/>
              <polygon class="cls-7" points="254.41 240.61 264.64 235.09 248.72 204.86 238.49 210.38 254.41 240.61"/>
            </g>
            <path class="cls-24" d="m260.3,265.75c1.5,1.91,4.24,2.23,6.12.71l2.88-2.32,8.58-6.89c1.89-1.5,2.21-4.28.71-6.19-.44-.57-1-1-1.62-1.28-1.45-.66-3.18-.5-4.51.57l-7.7,6.2-3.77,3.02c-1.89,1.51-2.2,4.29-.7,6.19Z"/>
            <path class="cls-26" d="m264.77,256.54c1.52,2.53,3.02,5.06,4.53,7.59l8.58-6.89c1.89-1.5,2.21-4.28.71-6.19-.44-.57-1-1-1.62-1.28-1.45-.66-3.18-.5-4.51.57l-7.7,6.2Z"/>
            <path class="cls-24" d="m300,235.82c-8.35,1.85-16.99,2.2-25.4.68-7.69-1.4-14.75-.5-20.98,1.58-7.3,2.45-13.45,6.53-18.14,10.46-8.14,6.8-18.25,10.7-28.81,10.7h-.99c-.19-3.22-.24-6.24-.17-9.07.97-36.61,23.04-41.47,37.79-44.78,13.13-2.93,23.69-.84,31.95,3.38,9.81,4.99,16.41,12.92,20.3,18.9,3.05,4.68,4.45,8.17,4.45,8.17Z"/>
            <path class="cls-6" d="m206.67,259.22c.3,0,.59-.01.89-.02,21.29-18.64,14.68-37.05,68.39-50.08-.23-.12-.46-.25-.69-.37-8.27-4.21-18.82-6.31-31.95-3.38-14.75,3.31-36.82,8.17-37.79,44.78-.06,2.83-.02,5.86.17,9.07h.99Z"/>
            <path class="cls-7" d="m106.17,277.87c-3.8,0-6.7-.06-8.67-.19-6.07-.4-10.23-4.39-12.08-6.6l-18.14-3.86,1.63-7.87,21.19,4.5.9,1.4s2.79,4.12,7.02,4.4c2.29.15,6.07.21,11.24.16,4.82-.04,9.23-2.54,11.79-6.69l1.96-3.18,6.74,4.26-1.96,3.18c-4.01,6.5-10.92,10.42-18.47,10.48-1.11,0-2.16.01-3.15.01Z"/>
            <g>
              <path class="cls-20" d="m99.37,259.52c-3.58,0-6.48,2.93-6.48,6.55s2.9,6.55,6.48,6.55,6.49-2.93,6.49-6.55-2.9-6.55-6.49-6.55Z"/>
              <path class="cls-6" d="m99.37,250.25c-8.65,0-15.67,7.09-15.67,15.83s7.02,15.83,15.67,15.83,15.67-7.09,15.67-15.83-7.02-15.83-15.67-15.83Z"/>
              <path class="cls-14" d="m99.37,258c-4.41,0-7.99,3.61-7.99,8.07s3.58,8.07,7.99,8.07,7.99-3.61,7.99-8.07-3.58-8.07-7.99-8.07Z"/>
              <path class="cls-10" d="m99.37,260.32c-3.15,0-5.7,2.58-5.7,5.75s2.55,5.75,5.7,5.75,5.7-2.58,5.7-5.75-2.55-5.75-5.7-5.75Z"/>
            </g>
            <path class="cls-24" d="m274.69,207.09s-28,3.55-28.35,3.75c-6.26,3.44-18.17-53.63-18.17-53.63l-14.31-28.63,1.05-2.04.54-1.06s.57.47,1.59,1.35c1.53,1.32,4.1,3.57,7.3,6.53,7.7,7.1,30.62,37.12,42.32,52.66,4.6,6.11,7.38,13.42,8.03,21.07h0Z"/>
            <path class="cls-7" d="m5.43,233.3l-.79,3.13c-.46,1.82.64,3.66,2.44,4.1l106.26,16.42,3.93-15.62-111.84-8.04Z"/>
            <path class="cls-7" d="m240.11,203.74s-22.18,38.78-32.59,54.82c-1.24,1.93-2.32,3.54-3.18,4.7-7.95,10.86-28.62,7.24-41.33,7.93-12.72.69-54.45-4.97-54.45-4.97,0,0,.97-2.98,2.53-7.66.35-1.01.72-2.11,1.11-3.27,1.45-4.3,5.07-13.98,5.07-13.98l16.69,1.05c.32.64.64,1.27,1,1.88,4.07,6.79,11.35,10.95,19.2,11.02l24.63.19c7.71.06,14.93-3.88,19.12-10.41l23.81-37.05c3.99-6.23,4.77-14.01,2.07-20.91l-9.84-25.21-.06-.16c-4.71-13.93-9.55-26.82-9.55-26.82l9.54-6.35,5.96,18.88,20.27,56.3Z"/>
            <path class="cls-24" d="m255.22,201.92c-3.51,3.14-27.11,35.98-41.79,56.64-1.46,2.03-2.81,3.96-4.07,5.71-4.91,6.92-12.81,10.97-21.21,10.89l-65.02-.55c-5.96-.06-11.46-3.22-14.56-8.38h77.77c2.21,0,4.34-.53,6.26-1.51,1.69-.85,3.18-2.06,4.42-3.59.64-.79,1.32-1.64,2.07-2.57,12.21-15.27,37.8-48.95,35.07-59.94-3.58-14.38-15.5-47.97-20.27-57.22-4.77-9.25,0-12.84,0-12.84,0,0,1.46,1.64,3.82,4.36h.02c.24.26.49.56.78.9,5.98,7.17,22.97,30.15,32.51,43.63,1.27,1.8,2.42,3.43,3.37,4.83.64.92,1.18,1.72,1.64,2.41l2.78,4.83c1.72,5.13-2.96,11.86-3.58,12.4Z"/>
            <path class="cls-18" d="m254.37,182.28h-12.8c-1.32,0-2.38-1.08-2.38-2.41s1.07-2.41,2.38-2.41h9.43c1.27,1.8,2.42,3.43,3.37,4.83Z"/>
            <path class="cls-18" d="m258.79,189.52h-17.22c-1.32,0-2.38-1.08-2.38-2.41s1.07-2.41,2.38-2.41h14.44l2.78,4.83Z"/>
            <path class="cls-24" d="m2.21,234.44l99.94,9.09s20.05-3.38,23.26-34.17c3.21-30.79-53.34-37.55-85.82-21.78C7.1,203.35,2.21,234.44,2.21,234.44Z"/>
            <g>
              <path class="cls-24" d="m16.77,243.32c-9.22,5.04-12.23,11.29-9.37,17.73,3.55,8.01,17.79,9.72,38.9,11.64,19.21,1.74,29.95-.45,32.78-1.91v-7.33s-4.41-4.46-15.76-12.12c-11.35-7.65-37.98-12.69-46.55-8.01Z"/>
              <path class="cls-14" d="m28.39,248.86c-9.36,3.16-11.66,10.2-7.25,12.76,4.41,2.55,23.64,6.38,34.98,6.38s13.56-4.15,7.89-7.97c-5.68-3.83-25.22-14.67-35.62-11.16Z"/>
              <path class="cls-7" d="m45.66,263.74l-13.76-2.83c-.74-.15-1.21-.88-1.06-1.63h0c.15-.75.87-1.23,1.61-1.08l13.76,2.83c.74.15,1.21.88,1.06,1.63h0c-.15.75-.87,1.23-1.61,1.08Z"/>
              <path class="cls-7" d="m46.75,258.73l-13.76-2.83c-.74-.15-1.21-.88-1.06-1.63h0c.15-.75.87-1.23,1.61-1.08l13.76,2.83c.74.15,1.21.88,1.06,1.63h0c-.15.75-.87,1.23-1.61,1.08Z"/>
            </g>
            <path class="cls-4" d="m16.77,223.64s26.04-49.69,91.79-28.85c0,0,8.09,17.64,0,14.38-61.27-24.76-84.73,15.36-91.79,14.48h0Z"/>
            <path class="cls-27" d="m220.6,117.09h-8.71c-.9,0-1.64-.74-1.64-1.65h0c0-.91.73-1.66,1.64-1.66h8.71c.9,0,1.64.74,1.64,1.66h0c0,.91-.73,1.65-1.64,1.65Z"/>
            <path class="cls-21" d="m189.61,79.5h0l.99,20.6h0c-2.08,0-3.77-1.71-3.77-3.82v-13.97c0-1.55,1.25-2.81,2.78-2.81Z"/>
            <path class="cls-6" d="m189.61,79.5l1.36,1.03c2.52,1.91,4,4.92,4,8.1v7.65c0,2.11-1.69,3.82-3.77,3.82h-1.59v-20.6Z"/>
            <path class="cls-18" d="m157.01,181.24c.15,1.91-1.25,3.57-3.14,3.72-7.13.58-23.68,1.28-31.88-3.81-10.62-6.58-44.18-3.81-64.39-4.5-13.2-.45-18.22-7.42-20.11-12.18-.43-1.09-.7-3.09-.86-5.02-.02-.1-.02-.18-.02-.27-.08-2.56,1.94-4.71,4.5-4.71h96.72c5.17,0,9.87,2.16,13.21,5.65,2.94,3.04,4.86,7.08,5.21,11.6l.74,9.53Z"/>
            <g>
              <path class="cls-7" d="m91.74,231.64l-50.98-5.47c-1.09-.12-1.88-1.11-1.77-2.21h0c.12-1.1,1.09-1.9,2.19-1.79l50.98,5.47c1.09.12,1.88,1.11,1.77,2.21h0c-.12,1.1-1.09,1.9-2.19,1.79Z"/>
              <path class="cls-7" d="m92.62,223.24l-50.98-5.47c-1.09-.12-1.88-1.11-1.77-2.21h0c.12-1.1,1.09-1.9,2.19-1.79l50.98,5.47c1.09.12,1.88,1.11,1.77,2.21h0c-.12,1.1-1.09,1.9-2.19,1.79Z"/>
              <path class="cls-7" d="m94.34,214.95l-50.98-5.47c-1.09-.12-1.88-1.11-1.77-2.21h0c.12-1.1,1.09-1.9,2.19-1.79l50.98,5.47c1.09.12,1.88,1.11,1.77,2.21h0c-.12,1.1-1.09,1.9-2.19,1.79Z"/>
            </g>
          </g>
          <path class="cls-31" d="m194.11,91.75h0c4.13,4.81,6.72,10.78,7.41,17.12l1.12,10.27"/>
          <rect class="cls-19" x="9.28" y="154.74" width="79" height="6.3"/>
          <polygon class="cls-19" points="88.28 161.04 60.9 161.04 77.64 178.57 88.28 178.57 88.28 161.04"/>
          <g>
            <g>
              <path class="cls-7" d="m182.73,256.84l-1.62,4.61s-17.39,3.75-28.04-1.17c-10.65-4.92-18.74-7.27-18.74-7.27l2.8-4.21c9.24,1.29,11.03-2.57,26.19,7.45,7.1,4.69,8.75-2.99,19.4.59Z"/>
              <path class="cls-7" d="m158.95,243.5c-5.64-1.04-15.39-7.33-15.39-7.33l-6.42,12.63s12.18,3.42,20.78,7.22c8.61,3.8,24.81.82,24.81.82,0,0-5.57-3-12.78-5.87-1.96-.78-11-7.47-11-7.47Z"/>
              <path class="cls-7" d="m189.89,170.47s-48.39-39.11-53.42-41.31c-10.51-4.61-4.83-14.61-4.83-14.61,0,0-28.71,11.85-30.85,17.83-.41,1.16-1.08,18.63,21.74,27.86l46.25,17.04-24.66,57.27,12.49,6.29,39.87-60.78-6.6-9.6Z"/>
              <polygon class="cls-23" points="144.22 228.57 163.41 232.72 157.68 245.2 141.11 240.98 144.22 228.57"/>
            </g>
            <path class="cls-19" d="m172.78,260.1l-1.62,4.61s-17.39,3.75-28.04-1.17c-10.65-4.92-18.74-7.27-18.74-7.27l2.8-4.21c9.24,1.29,11.03-2.57,26.19,7.45,7.1,4.69,8.75-2.99,19.4.59Z"/>
            <path class="cls-19" d="m149,246.76c-5.64-1.04-15.39-7.33-15.39-7.33l-6.42,12.63s12.18,3.42,20.78,7.22c8.61,3.8,24.81.82,24.81.82,0,0-5.57-3-12.77-5.87-1.96-.78-11-7.47-11-7.47Z"/>
            <path class="cls-19" d="m183.01,175.28s-48.39-46.89-53.42-49.09c-10.51-4.61-7.91-8.38-7.91-8.38,0,0-28.71,11.85-30.85,17.83-.41,1.16-1.08,18.63,21.74,27.86l46.25,17.04-24.66,57.27,12.49,6.29,39.87-60.78-3.53-8.04Z"/>
            <polygon class="cls-2" points="134.27 231.84 153.46 235.98 147.73 248.46 131.16 244.24 134.27 231.84"/>
            <path class="cls-22" d="m147.63,43.12s-3.9,6.07-9.78,11.54l16.56,13.81s4.34-12.32,13.66-15.87l-20.44-9.48Z"/>
            <path class="cls-22" d="m178.75,29.82c.92.86,3.9,4.43,4.08,5.42.26,1.37-2.95.64-3.31,1.96-.58,2.13-1.25,2.54-1.13,4.68.29,5.31.02,9.34-4.7,10.53-15.12,3.81-27.94-4.95-31.15-16.05-1.15-3.97-.18-8.94,1.49-12.6,1.96-4.3,8.26-6.72,12.68-7.08,2.66-.22,9.95-4.42,12.37-3.37,2.19.95,4.99,3.25,6.6,5.06,0,0,1.01,9.53,3.07,11.46Z"/>
            <path class="cls-16" d="m174.31,28.32c.26.8-.17,1.65-.96,1.92-.79.26-1.64-.17-1.89-.97-.26-.8.17-1.65.96-1.92s1.64.17,1.89.97Z"/>
            <path class="cls-25" d="m164.74,20.94c5.65-1.59,3.93-.35,9.4-2.57-.88-1.06-3.19-17.27-22.69-9.5-3.45,1.38-7.15,3.21-8.21,8.22-8.68,4.32-8.61,10.83-6.62,16.67,2.81,8.24,9.3,9.65,10.47,10.58,1.56,1.23,2.65,1.89,4.72,3.05.53-2.17,2.23-6.59,2.05-8.8,0,0-3.21.04-4.91-3.91-1.1-2.55.96-6.12,3.6-4.34,2.86,1.93,1.81,5.12,5.47,5.54.03-.47-.96-5.64-1.33-7.43-.49-2.41-.81-5.02,8.06-7.51Z"/>
            <path class="cls-30" d="m172.65,38.5s1.35,3.49,5.5,1.89"/>
            <g>
              <path class="cls-2" d="m98.87,105.78c-8.71,17.88-8.03,29.87-8.03,29.87,0,0,.16,2.66,12.97,2.54,7.67-.07,34.04-10.38,34.04-10.38,0,0,12.12-46.38,23.3-50.66,0,0-14.22-24.49-18.24-26.91-4.02-2.44-31.67,30.13-44.05,55.54Z"/>
              <path class="cls-13" d="m157.98,64.08c-1.8-5.34-16.84-15.89-16.84-15.89l-.99,1.68,16.18,21.59,1.65-7.38Z"/>
            </g>
            <g>
              <path class="cls-22" d="m149.81,80.59c1.67,9.94,4.06,24.71,7.99,33.94,13.95-.46,20.4,1.18,32.83-2.59,0,0,6.02-1.31,9.03-1.77,3.01-.46,4.27,4.24,5.97,6.03,1.71,1.79-.05,3.7-.75,6.28-1.36-1.57-6.17-4.81-7.5-3.52-1.33,1.29-1.92,3.52.77,5.34.61.41-1.13,1.18-3.6,0-1.9-.91-2.89-3.01-7.4-1.81-15.8,4.19-28.41,11.49-38.22,5.85-5.8-3.34-16.06-33.28-16.86-45.33,5.61.45,12.07-2.96,17.73-2.41Z"/>
              <path class="cls-13" d="m139.47,99.44c-1.99.66-3.74,1.53-5.67,1.77-4.09-8.62-9.14-32.34-3.22-38.85,8.14-8.95,13.96-2.52,17.3,6.03,1.82,4.65,2.81,16.1,4.45,22.23.18.67,1.04,3.63,1.31,4.51-4.62,1.71-9.56,2.77-14.17,4.31Z"/>
            </g>
            <g>
              <path class="cls-7" d="m162.01,43.82c.33,1.97,7.27,8.65,9.18,9.51,0,0-2.08,1.02-3.71,1.22,0,0-6.58-3.22-9.49-9.56l4.02-1.16Z"/>
              <path class="cls-2" d="m146.13,48.67c4.13,3.07,9.39.04,13.02-1.21,3.63-1.25,9.87-7.74,8.08-14.23-1.77-6.49-8.07-9.22-4.83-11.24,3.22-2.03,9.09,3.01,18.41-3.7,0,0-.26-1.3-1.15-3.27-1.32-2.92-4-7.29-9.28-11.12-8.87-6.42-28.38-6.07-35.89,9.72-9.76,20.53,9.14,33.18,11.65,35.04Z"/>
              <path class="cls-9" d="m145.91,34.62c.27,3.63,3.4,6.35,6.99,6.07,3.59-.28,6.27-3.45,6-7.07-.27-3.63-3.4-6.35-6.99-6.07-3.59.28-6.27,3.45-6,7.07Z"/>
              <path class="cls-7" d="m178.23,12.34s17.16,3.37,17.36,4.37c.2,1-19.22,5.1-23.22,5.11,0,0-.29-3.88,2.6-5.83,2.9-1.96,3.26-3.64,3.26-3.64Z"/>
            </g>
          </g>
          <g>
            <polygon class="cls-11" points="88.28 154.74 79.2 154.74 79.2 73.49 88.28 77.57 88.28 154.74"/>
            <rect class="cls-5" y="73.49" width="79.2" height="81.25"/>
            <rect class="cls-15" x="27.39" y="73.49" width="15.4" height="22.98"/>
            <g class="cls-29">
              <path class="cls-3" d="m55.18,138.89v-5.87h-2.12l-.5,1.17,1.39-.28-2.31,5.03.64-3.14-1.36.44.6-3.22h-2.42v5.87c0,1.55,1.14,2.83,2.61,3.04v3.94c0,.7-.41,1.33-1.04,1.61l-.99.44h4.9l-.99-.44c-.63-.28-1.04-.91-1.04-1.61v-3.94c1.48-.21,2.61-1.49,2.61-3.04Z"/>
              <g>
                <rect class="cls-3" x="54.63" y="93.51" width="12.57" height="2.4"/>
                <polygon class="cls-3" points="60.78 86.09 57.15 81.45 53.53 86.09 55.52 86.09 55.52 91.42 58.79 91.42 58.79 86.09 60.78 86.09"/>
                <polygon class="cls-3" points="68.3 86.09 64.67 81.45 61.05 86.09 63.04 86.09 63.04 91.42 66.31 91.42 66.31 86.09 68.3 86.09"/>
              </g>
              <path class="cls-3" d="m66.81,132.89l-.07-.64c-.02-.15-.14-.27-.29-.27s-.28.11-.29.27l-.06.59h-.08v.02c-3.3.1-5.99,2.42-6.51,5.45.53-.44,1.2-.71,1.94-.71.98,0,1.84.47,2.4,1.19.52-.66,1.29-1.1,2.18-1.17v6.74c-.06.06-.11.15-.11.25v2.96c0,.64.43,1.23,1.05,1.36.86.18,1.61-.48,1.61-1.32v-1.19c0-.19-.15-.34-.34-.34s-.34.15-.34.34v1.19c0,.4-.35.72-.76.65-.32-.05-.54-.36-.54-.69v-2.96c0-.1-.05-.19-.12-.26v-6.73c.88.07,1.66.5,2.18,1.17.56-.72,1.42-1.19,2.4-1.19.74,0,1.41.27,1.94.71-.5-2.93-3.04-5.17-6.19-5.42Z"/>
            </g>
          </g>
        </g>
      </g>
    </g>
  </g>
</svg>