<?xml version="1.0" encoding="UTF-8"?>
<svg xmlns="http://www.w3.org/2000/svg" xmlns:xlink="http://www.w3.org/1999/xlink" viewBox="0 0 500 500">
  <defs>
    <style>
      .cls-1 {
        fill: #f47952;
      }

      .cls-1, .cls-2, .cls-3, .cls-4, .cls-5, .cls-6, .cls-7, .cls-8, .cls-9, .cls-10, .cls-11, .cls-12 {
        stroke-width: 0px;
      }

      .cls-2, .cls-3, .cls-10 {
        fill: #f89777;
      }

      .cls-13 {
        isolation: isolate;
      }

      .cls-3 {
        opacity: .5;
      }

      .cls-3, .cls-10 {
        mix-blend-mode: multiply;
      }

      .cls-4 {
        fill: none;
      }

      .cls-14 {
        stroke: #104478;
        stroke-linecap: round;
        stroke-linejoin: round;
        stroke-width: 1.05px;
      }

      .cls-14, .cls-5 {
        fill: #fff;
      }

      .cls-6 {
        fill: #2b5d8f;
      }

      .cls-15 {
        clip-path: url(#clippath);
      }

      .cls-7 {
        fill: #d92e68;
      }

      .cls-8 {
        fill: #f7bfc3;
      }

      .cls-16 {
        font-family: Arial-Black, Arial;
        font-size: 25.72px;
        font-weight: 800;
      }

      .cls-16, .cls-12 {
        fill: #104478;
      }

      .cls-9 {
        fill: #0172c8;
      }

      .cls-11 {
        fill: #f9f0e5;
      }
    </style>
    <clipPath id="clippath">
      <rect class="cls-4" width="500" height="500"/>
    </clipPath>
  </defs>
  <g class="cls-13">
    <g id="Layer_2" data-name="Layer 2">
      <g id="OBJECTS">
        <g>
          <g class="cls-15">
            <g>
              <rect class="cls-8" x="90.22" y="384.3" width="124.1" height="205.41"/>
              <g>
                <g>
                  <path class="cls-2" d="m153.29,322.45h0c-15.42-4.99-23.87-21.54-18.88-36.95l32.89-101.64c4.99-15.42,21.54-23.87,36.95-18.88h0c15.42,4.99,23.87,21.54,18.88,36.95l-32.89,101.64c-4.99,15.42-21.53,23.87-36.95,18.88Z"/>
                  <path class="cls-2" d="m287.6,89.51h0c12.05,10.83,13.04,29.39,2.21,41.44l-71.42,79.45c-10.83,12.05-29.39,13.04-41.44,2.2h0c-12.05-10.83-13.04-29.39-2.2-41.44l71.42-79.45c10.83-12.05,29.39-13.04,41.44-2.2Z"/>
                </g>
                <rect class="cls-8" x="281.12" y="281.29" width="145.35" height="197.62" rx="41.82" ry="41.82" transform="translate(707.59 760.19) rotate(180)"/>
                <rect class="cls-8" x="79.89" y="258.06" width="151.77" height="197.62" rx="41.82" ry="41.82"/>
                <rect class="cls-2" x="109.37" y="258.06" width="105.78" height="177.48" rx="37.56" ry="37.56"/>
                <rect class="cls-8" x="303.03" y="384.3" width="124.1" height="205.41"/>
                <rect class="cls-2" x="289.68" y="291.52" width="109.47" height="148.84" rx="31.5" ry="31.5" transform="translate(688.83 731.87) rotate(180)"/>
                <path class="cls-2" d="m334.52,225.02h-20.37c-21.01,0-38.04,17.03-38.04,38.04v103.68c0,21.01,17.03,38.04,38.04,38.04h20.37v-179.76Z"/>
                <path class="cls-2" d="m317.79,403.44c.78,1.45,1.66,2.79,2.61,4.03v42.55c0,25.83,18.72,46.77,41.82,46.77h0c23.1,0,41.82-20.94,41.82-46.77v-47.23c0-6.57-1.22-12.82-3.4-18.49h-93.12l10.27,19.14Z"/>
                <path class="cls-8" d="m412.5,348.75h0c14.2-7.82,19.37-25.66,11.56-39.86l-51.52-93.59c-7.82-14.2-25.66-19.37-39.86-11.56h0c-14.2,7.82-19.37,25.66-11.56,39.86l51.52,93.59c7.82,14.2,25.66,19.37,39.86,11.56Z"/>
                <path class="cls-8" d="m266.23,115.82h0c-13.22,9.38-16.32,27.7-6.94,40.91l61.84,87.11c9.38,13.22,27.7,16.32,40.91,6.94h0c13.22-9.38,16.32-27.7,6.94-40.91l-61.84-87.11c-9.38-13.22-27.7-16.32-40.91-6.94Z"/>
                <path class="cls-2" d="m281.12,323.11v81.21h51.07c10.54,0,19.08-8.54,19.08-19.08v-200.33l-44.12-62.16c-9.38-13.21-27.7-16.32-40.91-6.94-13.22,9.38-16.32,27.7-6.94,40.91l61.84,87.11c.15.2.3.4.45.6l20.28,36.84h-18.92c-23.1,0-41.82,18.72-41.82,41.82Z"/>
                <g>
                  <path class="cls-8" d="m101.02,322.45h0c-15.42-4.99-23.87-21.54-18.88-36.95l32.89-101.64c4.99-15.42,21.54-23.87,36.95-18.88h0c15.42,4.99,23.87,21.54,18.88,36.95l-32.89,101.64c-4.99,15.42-21.54,23.87-36.95,18.88Z"/>
                  <path class="cls-8" d="m235.33,89.51h0c12.05,10.83,13.04,29.39,2.2,41.44l-71.42,79.45c-10.83,12.05-29.39,13.04-41.44,2.2h0c-12.05-10.83-13.04-29.39-2.21-41.44l71.42-79.45c10.83-12.05,29.39-13.04,41.44-2.2Z"/>
                </g>
                <path class="cls-2" d="m235.33,89.51c-12.05-10.84-30.61-9.85-41.44,2.2l-40.49,45.05v119.16l15.87-49.03,68.27-75.95c10.83-12.05,9.85-30.61-2.21-41.44Z"/>
                <g>
                  <g>
                    <rect class="cls-12" x="159.84" y="61.36" width="184.78" height="342.97" rx="19.08" ry="19.08"/>
                    <g>
                      <rect class="cls-6" x="159.95" y="54.48" width="184.78" height="342.97" rx="19.08" ry="19.08"/>
                      <rect class="cls-11" x="166.5" y="95.29" width="171.69" height="265.94" rx="3.87" ry="3.87"/>
                      <g>
                        <path class="cls-12" d="m264.72,77.86h-35.31c-2.03,0-3.67-1.64-3.67-3.67h0c0-2.03,1.64-3.67,3.67-3.67h35.31c2.03,0,3.67,1.64,3.67,3.67h0c0,2.03-1.64,3.67-3.67,3.67Z"/>
                        <path class="cls-12" d="m278.93,74.42c0,1.9-1.54,3.44-3.44,3.44s-3.44-1.54-3.44-3.44,1.54-3.44,3.44-3.44,3.44,1.54,3.44,3.44Z"/>
                      </g>
                      <path class="cls-12" d="m267.7,392.4h-30.72c-5.7,0-10.32-4.62-10.32-10.32h0c0-5.7,4.62-10.32,10.32-10.32h30.72c5.7,0,10.32,4.62,10.32,10.32h0c0,5.7-4.62,10.32-10.32,10.32Z"/>
                    </g>
                  </g>
                  <path class="cls-3" d="m344.73,112.5l-4.15-3.92h-176.49l-4.14,3.91v43.76c5.46-.19,9.88-4.46,10.28-9.87.41,5.53,5.02,9.88,10.65,9.88h2.15c5.65,0,10.26-4.37,10.66-9.91.4,5.54,5.01,9.91,10.65,9.91h2.16c5.64,0,10.24-4.37,10.65-9.9.4,5.54,5.01,9.9,10.66,9.9h2.15c5.64,0,10.24-4.36,10.65-9.89.41,5.53,5.02,9.89,10.65,9.89h2.16c5.62,0,10.21-4.34,10.65-9.85.43,5.51,5.03,9.85,10.66,9.85h2.15c5.62,0,10.22-4.33,10.65-9.84.44,5.51,5.03,9.84,10.64,9.84h2.16c5.62,0,10.23-4.35,10.65-9.88.42,5.52,5.02,9.88,10.66,9.88h2.15c5.67,0,10.28-4.4,10.65-9.97.37,5.45,4.79,9.76,10.29,9.95v-43.75Z"/>
                  <g>
                    <rect class="cls-8" x="223.46" y="177.41" width="45.5" height="45.5"/>
                    <rect class="cls-12" x="241.84" y="177.41" width="7.87" height="45.5"/>
                    <rect class="cls-2" x="268.96" y="177.41" width="17" height="45.5" transform="translate(554.92 400.31) rotate(180)"/>
                    <g>
                      <path class="cls-14" d="m297.72,175.67c-6.34,1.99-6.74,3.89-1.63,8.09-6.57-.74-7.63.82-4.45,6.6-5.79-3.18-7.34-2.12-6.6,4.45-4.19-5.11-6.09-4.71-8.09,1.63-1.99-6.34-3.89-6.74-8.09-1.63.74-6.57-.82-7.63-6.6-4.45,3.18-5.79,2.12-7.34-4.45-6.6,5.11-4.19,4.71-6.09-1.63-8.09,6.34-1.99,6.74-3.89,1.63-8.09,6.57.74,7.63-.82,4.45-6.6,5.79,3.18,7.34,2.12,6.6-4.45,4.19,5.11,6.09,4.71,8.09-1.63,1.99,6.34,3.89,6.74,8.09,1.63-.74,6.57.82,7.63,6.6,4.45-3.18,5.79-2.12,7.34,4.45,6.6-5.11,4.19-4.71,6.09,1.63,8.09Z"/>
                      <path class="cls-12" d="m267.05,170.79c0-1.58.35-2.76,1.04-3.52.69-.76,1.64-1.14,2.83-1.14s2.19.38,2.89,1.14c.69.76,1.04,1.93,1.04,3.52s-.35,2.75-1.04,3.52c-.69.76-1.64,1.14-2.82,1.14s-2.19-.38-2.89-1.14c-.69-.76-1.04-1.93-1.04-3.52Zm2.64-.02c0,1.15.13,1.92.4,2.31.2.29.48.43.83.43s.64-.14.84-.43c.26-.39.39-1.17.39-2.31s-.13-1.92-.39-2.3c-.2-.3-.48-.45-.84-.45s-.63.14-.83.43c-.27.39-.4,1.16-.4,2.31Zm3.81,14h-2.51l9.41-18.64h2.43l-9.34,18.64Zm5.47-4.64c0-1.58.35-2.76,1.04-3.52.69-.76,1.65-1.15,2.85-1.15s2.17.38,2.86,1.15c.69.76,1.04,1.94,1.04,3.52s-.35,2.77-1.04,3.53c-.7.76-1.64,1.14-2.83,1.14s-2.19-.38-2.89-1.14c-.69-.76-1.04-1.94-1.04-3.53Zm2.64-.01c0,1.15.13,1.92.4,2.3.2.3.48.45.83.45s.64-.14.83-.43c.27-.39.4-1.17.4-2.31s-.13-1.92-.39-2.31c-.2-.29-.48-.43-.84-.43s-.64.14-.83.43c-.27.39-.4,1.16-.4,2.31Z"/>
                    </g>
                  </g>
                  <g>
                    <g>
                      <path class="cls-2" d="m170.27,111.12v20.7c0,5.91-4.79,10.69-10.69,10.69h-2.15c-5.91,0-10.69-4.78-10.69-10.69v-20.7h23.54Z"/>
                      <path class="cls-5" d="m193.73,111.12v20.7c0,5.91-4.79,10.69-10.7,10.69h-2.15c-5.91,0-10.69-4.78-10.69-10.69v-20.7h23.54Z"/>
                      <path class="cls-2" d="m217.19,111.12v20.7c0,5.91-4.78,10.69-10.69,10.69h-2.16c-5.9,0-10.69-4.78-10.69-10.69v-20.7h23.54Z"/>
                      <path class="cls-5" d="m240.65,111.12v20.7c0,5.91-4.78,10.69-10.69,10.69h-2.15c-5.91,0-10.7-4.78-10.7-10.69v-20.7h23.54Z"/>
                      <path class="cls-2" d="m264.11,111.12v20.7c0,5.91-4.78,10.69-10.69,10.69h-2.16c-5.9,0-10.69-4.78-10.69-10.69v-20.7h23.54Z"/>
                      <path class="cls-5" d="m287.57,111.12v20.7c0,5.91-4.79,10.69-10.7,10.69h-2.15c-5.91,0-10.7-4.78-10.7-10.69v-20.7h23.55Z"/>
                      <path class="cls-2" d="m311.02,111.12v20.7c0,5.91-4.79,10.69-10.69,10.69h-2.16c-5.9,0-10.69-4.78-10.69-10.69v-20.7h23.54Z"/>
                      <path class="cls-5" d="m334.48,111.12v20.7c0,5.91-4.78,10.69-10.69,10.69h-2.15c-5.91,0-10.7-4.78-10.7-10.69v-20.7h23.54Z"/>
                      <path class="cls-2" d="m357.94,111.12v20.7c0,5.91-4.79,10.69-10.69,10.69h-2.16c-5.91,0-10.69-4.78-10.69-10.69v-20.7h23.54Z"/>
                    </g>
                    <g>
                      <polygon class="cls-1" points="183.68 94.83 164.08 94.83 146.76 111.2 170.2 111.2 183.68 94.83"/>
                      <polygon class="cls-5" points="193.67 111.2 203.3 94.83 183.76 94.83 170.29 111.2 193.67 111.2"/>
                      <polygon class="cls-5" points="170.29 111.2 183.76 94.83 183.68 94.83 170.2 111.2 170.29 111.2"/>
                      <polygon class="cls-1" points="217.11 111.2 222.89 94.83 203.36 94.83 193.74 111.2 217.11 111.2"/>
                      <polygon class="cls-7" points="193.74 111.2 203.36 94.83 203.3 94.83 193.67 111.2 193.74 111.2"/>
                      <polygon class="cls-5" points="240.57 111.2 242.5 94.83 222.96 94.83 217.19 111.2 240.57 111.2"/>
                      <polygon class="cls-5" points="217.19 111.2 222.96 94.83 222.89 94.83 217.11 111.2 217.19 111.2"/>
                      <polygon class="cls-1" points="264.02 111.2 262.1 94.83 242.57 94.83 240.64 111.2 264.02 111.2"/>
                      <polygon class="cls-7" points="240.64 111.2 242.57 94.83 242.5 94.83 240.57 111.2 240.64 111.2"/>
                      <polygon class="cls-5" points="287.47 111.2 281.7 94.83 262.16 94.83 264.1 111.2 287.47 111.2"/>
                      <polygon class="cls-5" points="264.1 111.2 262.16 94.83 262.1 94.83 264.02 111.2 264.1 111.2"/>
                      <polygon class="cls-1" points="310.92 111.2 301.3 94.83 281.77 94.83 287.55 111.2 310.92 111.2"/>
                      <polygon class="cls-7" points="287.55 111.2 281.77 94.83 281.7 94.83 287.47 111.2 287.55 111.2"/>
                      <polygon class="cls-5" points="334.37 111.2 320.91 94.83 301.37 94.83 311 111.2 334.37 111.2"/>
                      <polygon class="cls-5" points="311 111.2 301.37 94.83 301.3 94.83 310.92 111.2 311 111.2"/>
                      <polygon class="cls-1" points="357.91 111.2 340.58 94.83 320.98 94.83 334.46 111.2 357.91 111.2"/>
                      <polygon class="cls-7" points="334.46 111.2 320.98 94.83 320.91 94.83 334.37 111.2 334.46 111.2"/>
                    </g>
                  </g>
                </g>
                <g>
                  <rect class="cls-2" x="198.23" y="237.88" width="108.21" height="39.13" rx="14.51" ry="14.51"/>
                  <path class="cls-11" d="m247.29,207.93h10.1c5.48,0,9.93,4.45,9.93,9.93v79.18c0,5.48-4.45,9.93-9.93,9.93h-10.1c-5.48,0-9.93-4.45-9.93-9.93v-79.18c0-5.48,4.45-9.93,9.93-9.93Z" transform="translate(509.78 5.11) rotate(90)"/>
                  <text class="cls-16" transform="translate(212.34 266.68)"><tspan x="0" y="0">SHOP</tspan></text>
                </g>
                <path class="cls-10" d="m340.88,449.74v-132.14l-38.78-38.99c-10.52-10.57-27.61-10.62-38.18-.1h0c-10.57,10.52-10.62,27.61-.1,38.18l32.57,32.75c.59,3.44,1.81,6.84,3.72,10.02l27.77,46.27c.87,1.45,1.85,2.79,2.92,4.03v54.76c0,.68.02,1.35.05,2.02,5.97-3.22,10.03-9.54,10.03-16.8Z"/>
                <path class="cls-10" d="m175.38,404.32h2.63v-27.05c0-8.44-2.25-16.35-6.16-23.19l21.29-21.29h9.32c24.23,0,43.87-19.64,43.87-43.87v-2.9h-87.32l-.61-.61-2.09,2.09v97.73c0,10.54,8.54,19.08,19.08,19.08Z"/>
                <g>
                  <path class="cls-8" d="m80.55,309.64h83c16.03,0,29.04,13.01,29.04,29.04h0c0,16.03-13.01,29.04-29.04,29.04h-83v-58.07h0Z" transform="translate(472.61 481.59) rotate(135)"/>
                  <path class="cls-8" d="m155.54,279.15h88.03v2.9c0,24.21-19.66,43.87-43.87,43.87h-44.17v-46.77h0Z"/>
                  <path class="cls-11" d="m196.73,281.44h38.84v1.28c0,10.68-8.67,19.35-19.35,19.35h-10.43c-5,0-9.06-4.06-9.06-9.06v-11.58h0Z"/>
                  <rect class="cls-8" x="81.72" y="323.62" width="93.54" height="140.76" rx="46.77" ry="46.77"/>
                </g>
                <g>
                  <g>
                    <path class="cls-8" d="m383.02,365.76l-27.77-46.27c-8.25-13.75-26.09-18.21-39.84-9.96h0c-13.75,8.25-18.21,26.09-9.96,39.84l27.77,46.27c8.25,13.75,26.09,18.21,39.84,9.96h0c13.75-8.25,18.21-26.09,9.96-39.84Z"/>
                    <path class="cls-8" d="m269.17,306.6l40.28,40.5c10.52,10.57,27.61,10.62,38.18.1h0c10.57-10.52,10.62-27.61.1-38.18l-40.28-40.5c-10.52-10.57-27.61-10.62-38.18-.1h0c-10.57,10.52-10.62,27.61-.1,38.18Z"/>
                    <rect class="cls-8" x="336.14" y="348.23" width="93.54" height="140.76" rx="46.77" ry="46.77" transform="translate(765.82 837.22) rotate(-180)"/>
                  </g>
                  <path class="cls-11" d="m300.55,288.84c3.35-3.34,3.33-8.77-.05-12.08l-4.05-3.96c-6.31-6.35-16.57-6.37-22.92-.06h0c-6.35,6.31-6.37,16.57-.06,22.92l4.23,4.13c3.32,3.24,8.62,3.22,11.91-.05l10.95-10.9Z"/>
                </g>
              </g>
            </g>
          </g>
          <g>
            <g>
              <path class="cls-1" d="m101.04,116.65h-9.69c-.22,0-.42-.16-.46-.38l-1.3-6.73c-.03-.14,0-.28.1-.39.09-.11.22-.17.36-.17h11.73c.26,0,.47.21.47.47s-.21.47-.47.47h-11.16l1.12,5.79h9.3c.26,0,.47.21.47.47s-.21.47-.47.47Z"/>
              <g>
                <path class="cls-1" d="m101.08,116.65s-.03,0-.05,0c-.26-.02-.45-.25-.42-.51l.65-6.73c.03-.26.26-.45.51-.42.26.02.45.25.42.51l-.65,6.73c-.02.24-.23.42-.47.42Z"/>
                <path class="cls-1" d="m97.62,116.65c-.26,0-.47-.21-.47-.47v-6.73c0-.26.21-.47.47-.47s.47.21.47.47v6.73c0,.26-.21.47-.47.47Z"/>
                <path class="cls-1" d="m94.81,116.65c-.24,0-.44-.18-.47-.42l-.65-6.73c-.02-.26.16-.49.42-.51.26-.02.49.16.51.42l.65,6.73c.02.26-.16.49-.42.51-.02,0-.03,0-.05,0Z"/>
              </g>
              <path class="cls-1" d="m97.99,119.04h-5.34c-.92,0-1.67-.75-1.67-1.67s.75-1.67,1.67-1.67c.26,0,.47.21.47.47s-.21.47-.47.47c-.4,0-.73.33-.73.73s.33.73.73.73h5.34c.26,0,.47.21.47.47s-.21.47-.47.47Z"/>
              <path class="cls-1" d="m92.63,122.6c-.9,0-1.64-.73-1.64-1.64s.74-1.64,1.64-1.64,1.64.74,1.64,1.64-.74,1.64-1.64,1.64Zm0-2.34c-.39,0-.7.32-.7.7s.31.7.7.7.7-.31.7-.7-.31-.7-.7-.7Z"/>
              <path class="cls-1" d="m99.44,122.6c-.9,0-1.64-.73-1.64-1.64s.74-1.64,1.64-1.64,1.64.74,1.64,1.64-.74,1.64-1.64,1.64Zm0-2.34c-.39,0-.7.32-.7.7s.31.7.7.7.7-.31.7-.7-.31-.7-.7-.7Z"/>
              <path class="cls-1" d="m90.05,109.92c-.21,0-.39-.14-.45-.35l-.47-1.72c-.07-.25.08-.51.33-.57.25-.07.51.08.57.33l.47,1.72c.07.25-.08.51-.33.57-.04.01-.08.02-.12.02Z"/>
              <path class="cls-1" d="m89.59,108.2h-1.56c-.26,0-.47-.21-.47-.47s.21-.47.47-.47h1.56c.26,0,.47.21.47.47s-.21.47-.47.47Z"/>
            </g>
            <g>
              <path class="cls-9" d="m195.54,29.32h-9.69c-.22,0-.42-.16-.46-.38l-1.3-6.73c-.03-.14,0-.28.1-.39.09-.11.22-.17.36-.17h11.73c.26,0,.47.21.47.47s-.21.47-.47.47h-11.16l1.12,5.79h9.3c.26,0,.47.21.47.47s-.21.47-.47.47Z"/>
              <g>
                <path class="cls-9" d="m195.58,29.32s-.03,0-.05,0c-.26-.02-.45-.25-.42-.51l.65-6.73c.03-.26.26-.45.51-.42.26.02.45.25.42.51l-.65,6.73c-.02.24-.23.42-.47.42Z"/>
                <path class="cls-9" d="m192.12,29.32c-.26,0-.47-.21-.47-.47v-6.73c0-.26.21-.47.47-.47s.47.21.47.47v6.73c0,.26-.21.47-.47.47Z"/>
                <path class="cls-9" d="m189.31,29.32c-.24,0-.44-.18-.47-.42l-.65-6.73c-.02-.26.16-.49.42-.51.26-.02.49.16.51.42l.65,6.73c.02.26-.16.49-.42.51-.02,0-.03,0-.05,0Z"/>
              </g>
              <path class="cls-9" d="m192.49,31.72h-5.34c-.92,0-1.67-.75-1.67-1.67s.75-1.67,1.67-1.67c.26,0,.47.21.47.47s-.21.47-.47.47c-.4,0-.73.33-.73.73s.33.73.73.73h5.34c.26,0,.47.21.47.47s-.21.47-.47.47Z"/>
              <path class="cls-9" d="m187.12,35.28c-.9,0-1.64-.73-1.64-1.64s.74-1.64,1.64-1.64,1.64.74,1.64,1.64-.74,1.64-1.64,1.64Zm0-2.34c-.39,0-.7.32-.7.7s.31.7.7.7.7-.31.7-.7-.31-.7-.7-.7Z"/>
              <path class="cls-9" d="m193.94,35.28c-.9,0-1.64-.73-1.64-1.64s.74-1.64,1.64-1.64,1.64.74,1.64,1.64-.74,1.64-1.64,1.64Zm0-2.34c-.39,0-.7.32-.7.7s.31.7.7.7.7-.31.7-.7-.31-.7-.7-.7Z"/>
              <path class="cls-9" d="m184.55,22.6c-.21,0-.39-.14-.45-.35l-.47-1.72c-.07-.25.08-.51.33-.57.25-.07.51.08.57.33l.47,1.72c.07.25-.08.51-.33.57-.04.01-.08.02-.12.02Z"/>
              <path class="cls-9" d="m184.08,20.88h-1.56c-.26,0-.47-.21-.47-.47s.21-.47.47-.47h1.56c.26,0,.47.21.47.47s-.21.47-.47.47Z"/>
            </g>
            <g>
              <path class="cls-9" d="m468.52,132.1h-9.69c-.22,0-.42-.16-.46-.38l-1.3-6.73c-.03-.14,0-.28.1-.39.09-.11.22-.17.36-.17h11.73c.26,0,.47.21.47.47s-.21.47-.47.47h-11.16l1.12,5.79h9.3c.26,0,.47.21.47.47s-.21.47-.47.47Z"/>
              <g>
                <path class="cls-9" d="m468.56,132.1s-.03,0-.05,0c-.26-.02-.45-.25-.42-.51l.65-6.73c.03-.26.26-.45.51-.42.26.02.45.25.42.51l-.65,6.73c-.02.24-.23.42-.47.42Z"/>
                <path class="cls-9" d="m465.1,132.1c-.26,0-.47-.21-.47-.47v-6.73c0-.26.21-.47.47-.47s.47.21.47.47v6.73c0,.26-.21.47-.47.47Z"/>
                <path class="cls-9" d="m462.3,132.1c-.24,0-.44-.18-.47-.42l-.65-6.73c-.02-.26.16-.49.42-.51.26-.02.49.16.51.42l.65,6.73c.02.26-.16.49-.42.51-.02,0-.03,0-.05,0Z"/>
              </g>
              <path class="cls-9" d="m465.48,134.49h-5.34c-.92,0-1.67-.75-1.67-1.67s.75-1.67,1.67-1.67c.26,0,.47.21.47.47s-.21.47-.47.47c-.4,0-.73.33-.73.73s.33.73.73.73h5.34c.26,0,.47.21.47.47s-.21.47-.47.47Z"/>
              <path class="cls-9" d="m460.11,138.05c-.9,0-1.64-.73-1.64-1.64s.74-1.64,1.64-1.64,1.64.74,1.64,1.64-.74,1.64-1.64,1.64Zm0-2.34c-.39,0-.7.32-.7.7s.31.7.7.7.7-.31.7-.7-.31-.7-.7-.7Z"/>
              <path class="cls-9" d="m466.92,138.05c-.9,0-1.64-.73-1.64-1.64s.74-1.64,1.64-1.64,1.64.74,1.64,1.64-.74,1.64-1.64,1.64Zm0-2.34c-.39,0-.7.32-.7.7s.31.7.7.7.7-.31.7-.7-.31-.7-.7-.7Z"/>
              <path class="cls-9" d="m457.54,125.37c-.21,0-.39-.14-.45-.35l-.47-1.72c-.07-.25.08-.51.33-.57.25-.07.51.08.57.33l.47,1.72c.07.25-.08.51-.33.57-.04.01-.08.02-.12.02Z"/>
              <path class="cls-9" d="m457.07,123.65h-1.56c-.26,0-.47-.21-.47-.47s.21-.47.47-.47h1.56c.26,0,.47.21.47.47s-.21.47-.47.47Z"/>
            </g>
            <g>
              <path class="cls-9" d="m394.54,91.85h-9.69c-.22,0-.42-.16-.46-.38l-1.3-6.73c-.03-.14,0-.28.1-.39.09-.11.22-.17.36-.17h11.73c.26,0,.47.21.47.47s-.21.47-.47.47h-11.16l1.12,5.79h9.3c.26,0,.47.21.47.47s-.21.47-.47.47Z"/>
              <g>
                <path class="cls-9" d="m394.57,91.85s-.03,0-.05,0c-.26-.02-.45-.25-.42-.51l.65-6.73c.03-.26.26-.45.51-.42.26.02.45.25.42.51l-.65,6.73c-.02.24-.23.42-.47.42Z"/>
                <path class="cls-9" d="m391.11,91.85c-.26,0-.47-.21-.47-.47v-6.73c0-.26.21-.47.47-.47s.47.21.47.47v6.73c0,.26-.21.47-.47.47Z"/>
                <path class="cls-9" d="m388.31,91.85c-.24,0-.44-.18-.47-.42l-.65-6.73c-.02-.26.16-.49.42-.51.26-.02.49.16.51.42l.65,6.73c.02.26-.16.49-.42.51-.02,0-.03,0-.05,0Z"/>
              </g>
              <path class="cls-9" d="m391.49,94.24h-5.34c-.92,0-1.67-.75-1.67-1.67s.75-1.67,1.67-1.67c.26,0,.47.21.47.47s-.21.47-.47.47c-.4,0-.73.33-.73.73s.33.73.73.73h5.34c.26,0,.47.21.47.47s-.21.47-.47.47Z"/>
              <path class="cls-9" d="m386.12,97.8c-.9,0-1.64-.73-1.64-1.64s.74-1.64,1.64-1.64,1.64.74,1.64,1.64-.74,1.64-1.64,1.64Zm0-2.34c-.39,0-.7.32-.7.7s.31.7.7.7.7-.31.7-.7-.31-.7-.7-.7Z"/>
              <path class="cls-9" d="m392.93,97.8c-.9,0-1.64-.73-1.64-1.64s.74-1.64,1.64-1.64,1.64.74,1.64,1.64-.74,1.64-1.64,1.64Zm0-2.34c-.39,0-.7.32-.7.7s.31.7.7.7.7-.31.7-.7-.31-.7-.7-.7Z"/>
              <path class="cls-9" d="m383.55,85.12c-.21,0-.39-.14-.45-.35l-.47-1.72c-.07-.25.08-.51.33-.57.25-.07.51.08.57.33l.47,1.72c.07.25-.08.51-.33.57-.04.01-.08.02-.12.02Z"/>
              <path class="cls-9" d="m383.08,83.4h-1.56c-.26,0-.47-.21-.47-.47s.21-.47.47-.47h1.56c.26,0,.47.21.47.47s-.21.47-.47.47Z"/>
            </g>
            <g>
              <path class="cls-9" d="m404.87,208.65h-9.69c-.22,0-.42-.16-.46-.38l-1.3-6.73c-.03-.14,0-.28.1-.39.09-.11.22-.17.36-.17h11.73c.26,0,.47.21.47.47s-.21.47-.47.47h-11.16l1.12,5.79h9.3c.26,0,.47.21.47.47s-.21.47-.47.47Z"/>
              <g>
                <path class="cls-9" d="m404.91,208.65s-.03,0-.05,0c-.26-.02-.45-.25-.42-.51l.65-6.73c.03-.26.26-.45.51-.42.26.02.45.25.42.51l-.65,6.73c-.02.24-.23.42-.47.42Z"/>
                <path class="cls-9" d="m401.45,208.65c-.26,0-.47-.21-.47-.47v-6.73c0-.26.21-.47.47-.47s.47.21.47.47v6.73c0,.26-.21.47-.47.47Z"/>
                <path class="cls-9" d="m398.64,208.65c-.24,0-.44-.18-.47-.42l-.65-6.73c-.02-.26.16-.49.42-.51.26-.02.49.16.51.42l.65,6.73c.02.26-.16.49-.42.51-.02,0-.03,0-.05,0Z"/>
              </g>
              <path class="cls-9" d="m401.82,211.04h-5.34c-.92,0-1.67-.75-1.67-1.67s.75-1.67,1.67-1.67c.26,0,.47.21.47.47s-.21.47-.47.47c-.4,0-.73.33-.73.73s.33.73.73.73h5.34c.26,0,.47.21.47.47s-.21.47-.47.47Z"/>
              <path class="cls-9" d="m396.46,214.6c-.9,0-1.64-.73-1.64-1.64s.74-1.64,1.64-1.64,1.64.74,1.64,1.64-.74,1.64-1.64,1.64Zm0-2.34c-.39,0-.7.32-.7.7s.31.7.7.7.7-.31.7-.7-.31-.7-.7-.7Z"/>
              <path class="cls-9" d="m403.27,214.6c-.9,0-1.64-.73-1.64-1.64s.74-1.64,1.64-1.64,1.64.74,1.64,1.64-.74,1.64-1.64,1.64Zm0-2.34c-.39,0-.7.32-.7.7s.31.7.7.7.7-.31.7-.7-.31-.7-.7-.7Z"/>
              <path class="cls-9" d="m393.88,201.92c-.21,0-.39-.14-.45-.35l-.47-1.72c-.07-.25.08-.51.33-.57.25-.07.51.08.57.33l.47,1.72c.07.25-.08.51-.33.57-.04.01-.08.02-.12.02Z"/>
              <path class="cls-9" d="m393.41,200.2h-1.56c-.26,0-.47-.21-.47-.47s.21-.47.47-.47h1.56c.26,0,.47.21.47.47s-.21.47-.47.47Z"/>
            </g>
            <g>
              <path class="cls-1" d="m59.03,286.42h-9.69c-.22,0-.42-.16-.46-.38l-1.3-6.73c-.03-.14,0-.28.1-.39.09-.11.22-.17.36-.17h11.73c.26,0,.47.21.47.47s-.21.47-.47.47h-11.16l1.12,5.79h9.3c.26,0,.47.21.47.47s-.21.47-.47.47Z"/>
              <g>
                <path class="cls-1" d="m59.06,286.42s-.03,0-.05,0c-.26-.02-.45-.25-.42-.51l.65-6.73c.03-.26.26-.45.51-.42.26.02.45.25.42.51l-.65,6.73c-.02.24-.23.42-.47.42Z"/>
                <path class="cls-1" d="m55.6,286.42c-.26,0-.47-.21-.47-.47v-6.73c0-.26.21-.47.47-.47s.47.21.47.47v6.73c0,.26-.21.47-.47.47Z"/>
                <path class="cls-1" d="m52.8,286.42c-.24,0-.44-.18-.47-.42l-.65-6.73c-.02-.26.16-.49.42-.51.26-.02.49.16.51.42l.65,6.73c.02.26-.16.49-.42.51-.02,0-.03,0-.05,0Z"/>
              </g>
              <path class="cls-1" d="m55.98,288.82h-5.34c-.92,0-1.67-.75-1.67-1.67s.75-1.67,1.67-1.67c.26,0,.47.21.47.47s-.21.47-.47.47c-.4,0-.73.33-.73.73s.33.73.73.73h5.34c.26,0,.47.21.47.47s-.21.47-.47.47Z"/>
              <path class="cls-1" d="m50.61,292.37c-.9,0-1.64-.73-1.64-1.64s.74-1.64,1.64-1.64,1.64.74,1.64,1.64-.74,1.64-1.64,1.64Zm0-2.34c-.39,0-.7.32-.7.7s.31.7.7.7.7-.31.7-.7-.31-.7-.7-.7Z"/>
              <path class="cls-1" d="m57.42,292.37c-.9,0-1.64-.73-1.64-1.64s.74-1.64,1.64-1.64,1.64.74,1.64,1.64-.74,1.64-1.64,1.64Zm0-2.34c-.39,0-.7.32-.7.7s.31.7.7.7.7-.31.7-.7-.31-.7-.7-.7Z"/>
              <path class="cls-1" d="m48.04,279.7c-.21,0-.39-.14-.45-.35l-.47-1.72c-.07-.25.08-.51.33-.57.25-.07.51.08.57.33l.47,1.72c.07.25-.08.51-.33.57-.04.01-.08.02-.12.02Z"/>
              <path class="cls-1" d="m47.57,277.98h-1.56c-.26,0-.47-.21-.47-.47s.21-.47.47-.47h1.56c.26,0,.47.21.47.47s-.21.47-.47.47Z"/>
            </g>
            <path class="cls-9" d="m119.72,70.45c.63,0,1.16.22,1.59.67.43.45.64.99.64,1.62s-.22,1.15-.67,1.59c-.45.45-.98.67-1.59.67s-1.14-.23-1.59-.68c-.45-.45-.68-.99-.68-1.61s.22-1.19.66-1.62c.44-.43.98-.64,1.63-.64Zm0,.94c-.41,0-.74.12-1,.37-.26.25-.38.57-.38.96s.13.7.4.97c.26.27.58.41.96.41s.7-.14.95-.42c.25-.28.38-.62.38-1.01,0-.35-.13-.65-.38-.9-.25-.25-.56-.38-.92-.38Zm-.1,8.85l4.32-9.63h.94s-4.32,9.63-4.32,9.63h-.94Zm5.18-4.4c.63,0,1.16.23,1.59.68.43.46.64,1,.64,1.63s-.22,1.16-.66,1.6c-.44.44-.98.66-1.6.66s-1.15-.22-1.59-.67c-.45-.45-.67-.98-.67-1.59,0-.65.22-1.2.66-1.65.44-.45.98-.67,1.63-.67Zm0,.91c-.4,0-.73.13-.99.4-.26.27-.39.6-.39,1,0,.37.13.69.4.94.26.26.58.38.96.38s.7-.13.96-.4c.26-.27.39-.59.39-.98s-.13-.68-.39-.95c-.26-.27-.57-.4-.94-.4Z"/>
            <path class="cls-1" d="m39.97,172.92c.63,0,1.16.22,1.59.67.43.45.64.99.64,1.62s-.22,1.15-.67,1.59c-.45.45-.98.67-1.59.67s-1.14-.23-1.59-.68c-.45-.45-.68-.99-.68-1.61s.22-1.19.66-1.62c.44-.43.98-.64,1.63-.64Zm0,.94c-.41,0-.74.12-1,.37-.26.25-.38.57-.38.96s.13.7.4.97c.26.27.58.41.96.41s.7-.14.95-.42c.25-.28.38-.62.38-1.01,0-.35-.13-.65-.38-.9-.25-.25-.56-.38-.92-.38Zm-.1,8.85l4.32-9.63h.94s-4.32,9.63-4.32,9.63h-.94Zm5.18-4.4c.63,0,1.16.23,1.59.68.43.46.64,1,.64,1.63s-.22,1.16-.66,1.6c-.44.44-.98.66-1.6.66s-1.15-.22-1.59-.67c-.45-.45-.67-.98-.67-1.59,0-.65.22-1.2.66-1.65.44-.45.98-.67,1.63-.67Zm0,.91c-.4,0-.73.13-.99.4-.26.27-.39.6-.39,1,0,.37.13.69.4.94.26.26.58.38.96.38s.7-.13.96-.4c.26-.27.39-.59.39-.98s-.13-.68-.39-.95c-.26-.27-.57-.4-.94-.4Z"/>
            <path class="cls-1" d="m424.31,263.64c.63,0,1.16.22,1.59.67.43.45.64.99.64,1.62s-.22,1.15-.67,1.59c-.45.45-.98.67-1.59.67s-1.14-.23-1.59-.68c-.45-.45-.68-.99-.68-1.61s.22-1.19.66-1.62c.44-.43.98-.64,1.63-.64Zm0,.94c-.41,0-.74.12-1,.37-.26.25-.38.57-.38.96s.13.7.4.97c.26.27.58.41.96.41s.7-.14.95-.42c.25-.28.38-.62.38-1.01,0-.35-.13-.65-.38-.9-.25-.25-.56-.38-.92-.38Zm-.1,8.85l4.32-9.63h.94s-4.32,9.63-4.32,9.63h-.94Zm5.18-4.4c.63,0,1.16.23,1.59.68.43.46.64,1,.64,1.63s-.22,1.16-.66,1.6c-.44.44-.98.66-1.6.66s-1.15-.22-1.59-.67c-.45-.45-.67-.98-.67-1.59,0-.65.22-1.2.66-1.65.44-.45.98-.67,1.63-.67Zm0,.91c-.4,0-.73.13-.99.4-.26.27-.39.6-.39,1,0,.37.13.69.4.94.26.26.58.38.96.38s.7-.13.96-.4c.26-.27.39-.59.39-.98s-.13-.68-.39-.95c-.26-.27-.57-.4-.94-.4Z"/>
            <path class="cls-1" d="m376.47,35.36c.63,0,1.16.22,1.59.67.43.45.64.99.64,1.62s-.22,1.15-.67,1.59c-.45.45-.98.67-1.59.67s-1.14-.23-1.59-.68c-.45-.45-.68-.99-.68-1.61s.22-1.19.66-1.62c.44-.43.98-.64,1.63-.64Zm0,.94c-.41,0-.74.12-1,.37-.26.25-.38.57-.38.96s.13.7.4.97c.26.27.58.41.96.41s.7-.14.95-.42c.25-.28.38-.62.38-1.01,0-.35-.13-.65-.38-.9-.25-.25-.56-.38-.92-.38Zm-.1,8.85l4.32-9.63h.94s-4.32,9.63-4.32,9.63h-.94Zm5.18-4.4c.63,0,1.16.23,1.59.68.43.46.64,1,.64,1.63s-.22,1.16-.66,1.6c-.44.44-.98.66-1.6.66s-1.15-.22-1.59-.67c-.45-.45-.67-.98-.67-1.59,0-.65.22-1.2.66-1.65.44-.45.98-.67,1.63-.67Zm0,.91c-.4,0-.73.13-.99.4-.26.27-.39.6-.39,1,0,.37.13.69.4.94.26.26.58.38.96.38s.7-.13.96-.4c.26-.27.39-.59.39-.98s-.13-.68-.39-.95c-.26-.27-.57-.4-.94-.4Z"/>
            <path class="cls-1" d="m301.41,18.42c.63,0,1.16.22,1.59.67.43.45.64.99.64,1.62s-.22,1.15-.67,1.59c-.45.45-.98.67-1.59.67s-1.14-.23-1.59-.68c-.45-.45-.68-.99-.68-1.61s.22-1.19.66-1.62c.44-.43.98-.64,1.63-.64Zm0,.94c-.41,0-.74.12-1,.37-.26.25-.38.57-.38.96s.13.7.4.97c.26.27.58.41.96.41s.7-.14.95-.42c.25-.28.38-.62.38-1.01,0-.35-.13-.65-.38-.9-.25-.25-.56-.38-.92-.38Zm-.1,8.85l4.32-9.63h.94s-4.32,9.63-4.32,9.63h-.94Zm5.18-4.4c.63,0,1.16.23,1.59.68.43.46.64,1,.64,1.63s-.22,1.16-.66,1.6c-.44.44-.98.66-1.6.66s-1.15-.22-1.59-.67c-.45-.45-.67-.98-.67-1.59,0-.65.22-1.2.66-1.65.44-.45.98-.67,1.63-.67Zm0,.91c-.4,0-.73.13-.99.4-.26.27-.39.6-.39,1,0,.37.13.69.4.94.26.26.58.38.96.38s.7-.13.96-.4c.26-.27.39-.59.39-.98s-.13-.68-.39-.95c-.26-.27-.57-.4-.94-.4Z"/>
            <path class="cls-9" d="m52.73,32.18c.63,0,1.16.22,1.59.67.43.45.64.99.64,1.62s-.22,1.15-.67,1.59-.98.67-1.59.67-1.14-.23-1.59-.68c-.45-.45-.68-.99-.68-1.61s.22-1.19.66-1.62c.44-.43.98-.64,1.63-.64Zm0,.94c-.41,0-.74.12-1,.37-.26.25-.38.57-.38.96s.13.7.4.97c.26.27.58.41.96.41s.7-.14.95-.42c.25-.28.38-.62.38-1.01,0-.35-.13-.65-.38-.9-.25-.25-.56-.38-.92-.38Zm-.1,8.85l4.32-9.63h.94s-4.32,9.63-4.32,9.63h-.94Zm5.18-4.4c.63,0,1.16.23,1.59.68.43.46.64,1,.64,1.63s-.22,1.16-.66,1.6c-.44.44-.98.66-1.6.66s-1.15-.22-1.59-.67c-.45-.45-.67-.98-.67-1.59,0-.65.22-1.2.66-1.65.44-.45.98-.67,1.63-.67Zm0,.91c-.4,0-.73.13-.99.4-.26.27-.39.6-.39,1,0,.37.13.69.4.94.26.26.58.38.96.38s.7-.13.96-.4c.26-.27.39-.59.39-.98s-.13-.68-.39-.95c-.26-.27-.57-.4-.94-.4Z"/>
            <g>
              <path class="cls-9" d="m38.75,133.84c-1.53,0-2.78-1.25-2.78-2.78,0-.26.21-.47.47-.47s.47.21.47.47c0,1.02.83,1.84,1.84,1.84s1.84-.82,1.84-1.84-.83-1.84-1.84-1.84c-1.42,0-2.58-1.16-2.58-2.58s1.16-2.58,2.58-2.58,2.58,1.16,2.58,2.58c0,.26-.21.47-.47.47s-.47-.21-.47-.47c0-.9-.74-1.64-1.64-1.64s-1.64.73-1.64,1.64.74,1.64,1.64,1.64c1.53,0,2.78,1.25,2.78,2.78s-1.25,2.78-2.78,2.78Z"/>
              <path class="cls-9" d="m38.75,125.01c-.26,0-.47-.21-.47-.47v-1.24c0-.26.21-.47.47-.47s.47.21.47.47v1.24c0,.26-.21.47-.47.47Z"/>
              <path class="cls-9" d="m38.75,135.08c-.26,0-.47-.21-.47-.47v-1.24c0-.26.21-.47.47-.47s.47.21.47.47v1.24c0,.26-.21.47-.47.47Z"/>
            </g>
            <g>
              <path class="cls-9" d="m433.98,39.05c-1.53,0-2.78-1.25-2.78-2.78,0-.26.21-.47.47-.47s.47.21.47.47c0,1.02.83,1.84,1.84,1.84s1.84-.82,1.84-1.84-.83-1.84-1.84-1.84c-1.42,0-2.58-1.16-2.58-2.58s1.16-2.58,2.58-2.58,2.58,1.16,2.58,2.58c0,.26-.21.47-.47.47s-.47-.21-.47-.47c0-.9-.74-1.64-1.64-1.64s-1.64.73-1.64,1.64.74,1.64,1.64,1.64c1.53,0,2.78,1.25,2.78,2.78s-1.25,2.78-2.78,2.78Z"/>
              <path class="cls-9" d="m433.98,30.21c-.26,0-.47-.21-.47-.47v-1.24c0-.26.21-.47.47-.47s.47.21.47.47v1.24c0,.26-.21.47-.47.47Z"/>
              <path class="cls-9" d="m433.98,40.28c-.26,0-.47-.21-.47-.47v-1.24c0-.26.21-.47.47-.47s.47.21.47.47v1.24c0,.26-.21.47-.47.47Z"/>
            </g>
            <g>
              <path class="cls-9" d="m464.88,237.61c-1.53,0-2.78-1.25-2.78-2.78,0-.26.21-.47.47-.47s.47.21.47.47c0,1.02.83,1.84,1.84,1.84s1.84-.82,1.84-1.84-.83-1.84-1.84-1.84c-1.42,0-2.58-1.16-2.58-2.58s1.16-2.58,2.58-2.58,2.58,1.16,2.58,2.58c0,.26-.21.47-.47.47s-.47-.21-.47-.47c0-.9-.74-1.64-1.64-1.64s-1.64.73-1.64,1.64.74,1.64,1.64,1.64c1.53,0,2.78,1.25,2.78,2.78s-1.25,2.78-2.78,2.78Z"/>
              <path class="cls-9" d="m464.88,228.78c-.26,0-.47-.21-.47-.47v-1.24c0-.26.21-.47.47-.47s.47.21.47.47v1.24c0,.26-.21.47-.47.47Z"/>
              <path class="cls-9" d="m464.88,238.85c-.26,0-.47-.21-.47-.47v-1.24c0-.26.21-.47.47-.47s.47.21.47.47v1.24c0,.26-.21.47-.47.47Z"/>
            </g>
            <g>
              <path class="cls-1" d="m82.54,209.79c-1.53,0-2.78-1.25-2.78-2.78,0-.26.21-.47.47-.47s.47.21.47.47c0,1.02.83,1.84,1.84,1.84s1.84-.82,1.84-1.84-.83-1.84-1.84-1.84c-1.42,0-2.58-1.16-2.58-2.58s1.16-2.58,2.58-2.58,2.58,1.16,2.58,2.58c0,.26-.21.47-.47.47s-.47-.21-.47-.47c0-.9-.74-1.64-1.64-1.64s-1.64.73-1.64,1.64.74,1.64,1.64,1.64c1.53,0,2.78,1.25,2.78,2.78s-1.25,2.78-2.78,2.78Z"/>
              <path class="cls-1" d="m82.54,200.96c-.26,0-.47-.21-.47-.47v-1.24c0-.26.21-.47.47-.47s.47.21.47.47v1.24c0,.26-.21.47-.47.47Z"/>
              <path class="cls-1" d="m82.54,211.03c-.26,0-.47-.21-.47-.47v-1.24c0-.26.21-.47.47-.47s.47.21.47.47v1.24c0,.26-.21.47-.47.47Z"/>
            </g>
            <path class="cls-9" d="m98.45,52.84c0,1.52-1.23,2.75-2.75,2.75s-2.75-1.24-2.75-2.75,1.24-2.75,2.75-2.75,2.75,1.24,2.75,2.75Zm-1.36,0c0-.77-.62-1.39-1.39-1.39s-1.39.62-1.39,1.39.62,1.39,1.39,1.39,1.39-.62,1.39-1.39Z"/>
            <path class="cls-9" d="m76.12,169.65c0,1.52-1.23,2.75-2.75,2.75s-2.75-1.24-2.75-2.75,1.24-2.75,2.75-2.75,2.75,1.24,2.75,2.75Zm-1.36,0c0-.77-.62-1.39-1.39-1.39s-1.39.62-1.39,1.39.62,1.39,1.39,1.39,1.39-.62,1.39-1.39Z"/>
            <path class="cls-9" d="m361.39,51.63c0,1.52-1.23,2.75-2.75,2.75s-2.75-1.24-2.75-2.75,1.24-2.75,2.75-2.75,2.75,1.24,2.75,2.75Zm-1.36,0c0-.77-.62-1.39-1.39-1.39s-1.39.62-1.39,1.39.62,1.39,1.39,1.39,1.39-.62,1.39-1.39Z"/>
            <path class="cls-9" d="m132.94,133.17c0,1.52-1.23,2.75-2.75,2.75s-2.75-1.24-2.75-2.75,1.24-2.75,2.75-2.75,2.75,1.24,2.75,2.75Zm-1.36,0c0-.77-.62-1.39-1.39-1.39s-1.39.62-1.39,1.39.62,1.39,1.39,1.39,1.39-.62,1.39-1.39Z"/>
            <path class="cls-9" d="m405.46,134.56c0,1.52-1.23,2.75-2.75,2.75s-2.75-1.24-2.75-2.75,1.24-2.75,2.75-2.75,2.75,1.24,2.75,2.75Zm-1.36,0c0-.77-.62-1.39-1.39-1.39s-1.39.62-1.39,1.39.62,1.39,1.39,1.39,1.39-.62,1.39-1.39Z"/>
            <path class="cls-1" d="m472.14,63c0,1.52-1.23,2.75-2.75,2.75s-2.75-1.24-2.75-2.75,1.24-2.75,2.75-2.75,2.75,1.24,2.75,2.75Zm-1.36,0c0-.77-.62-1.39-1.39-1.39s-1.39.62-1.39,1.39.62,1.39,1.39,1.39,1.39-.62,1.39-1.39Z"/>
            <path class="cls-9" d="m430.55,236.64c0,1.52-1.23,2.75-2.75,2.75s-2.75-1.24-2.75-2.75,1.24-2.75,2.75-2.75,2.75,1.24,2.75,2.75Zm-1.36,0c0-.77-.62-1.39-1.39-1.39s-1.39.62-1.39,1.39.62,1.39,1.39,1.39,1.39-.62,1.39-1.39Z"/>
            <path class="cls-1" d="m57.75,68.23s.65,4.63-4.76,4.53c0,0,4.65.05,4.53,4.4,0,0,.42-3.42,4.68-4.19,0,0-3.61.83-4.45-4.74Z"/>
            <path class="cls-9" d="m49.02,225.14s.65,4.63-4.76,4.53c0,0,4.65.05,4.53,4.4,0,0,.42-3.42,4.68-4.19,0,0-3.61.83-4.45-4.74Z"/>
            <path class="cls-9" d="m135.17,34.69s.65,4.63-4.76,4.53c0,0,4.65.05,4.53,4.4,0,0,.42-3.42,4.68-4.19,0,0-3.6.83-4.45-4.74Z"/>
            <path class="cls-9" d="m429.19,59.81s.65,4.63-4.76,4.53c0,0,4.65.05,4.53,4.4,0,0,.42-3.42,4.68-4.19,0,0-3.61.83-4.45-4.74Z"/>
            <path class="cls-9" d="m94.48,142.6s.65,4.63-4.76,4.53c0,0,4.65.05,4.53,4.4,0,0,.42-3.42,4.68-4.19,0,0-3.61.83-4.45-4.74Z"/>
            <path class="cls-1" d="m372.01,150.72s.65,4.63-4.76,4.53c0,0,4.65.05,4.53,4.4,0,0,.42-3.42,4.68-4.19,0,0-3.61.83-4.45-4.74Z"/>
            <path class="cls-9" d="m443.76,178.23s.65,4.63-4.76,4.53c0,0,4.65.05,4.53,4.4,0,0,.42-3.42,4.68-4.19,0,0-3.61.83-4.45-4.74Z"/>
          </g>
        </g>
      </g>
    </g>
  </g>
</svg>