<?xml version="1.0" encoding="UTF-8"?>
<svg id="Layer_2" data-name="Layer 2" xmlns="http://www.w3.org/2000/svg" viewBox="0 0 2882.59 1637.4">
  <defs>
    <style>
      .cls-1 {
        fill: #2e3552;
      }

      .cls-1, .cls-2, .cls-3, .cls-4, .cls-5, .cls-6, .cls-7, .cls-8, .cls-9, .cls-10, .cls-11, .cls-12, .cls-13, .cls-14, .cls-15, .cls-16, .cls-17, .cls-18, .cls-19, .cls-20, .cls-21, .cls-22, .cls-23, .cls-24, .cls-25, .cls-26, .cls-27, .cls-28, .cls-29, .cls-30 {
        stroke-width: 0px;
      }

      .cls-2 {
        fill: #86d1cd;
      }

      .cls-3 {
        fill: #ffc261;
      }

      .cls-4 {
        fill: #72a9f7;
      }

      .cls-5 {
        fill: #ffbe55;
      }

      .cls-6 {
        fill: #ffa15a;
      }

      .cls-7 {
        fill: #4a75cb;
      }

      .cls-8 {
        fill: #afcdfb;
      }

      .cls-9 {
        fill: #6bb7bf;
      }

      .cls-10 {
        fill: #fa9712;
      }

      .cls-11 {
        fill: #3969b7;
      }

      .cls-12 {
        fill: #b64c41;
      }

      .cls-13 {
        fill: #dfebfd;
      }

      .cls-14 {
        fill: #cde0fb;
      }

      .cls-15 {
        fill: #f78639;
      }

      .cls-16 {
        fill: #fff;
      }

      .cls-17 {
        fill: #88b3ff;
      }

      .cls-18 {
        fill: #ffa412;
      }

      .cls-19 {
        fill: #ebf3fa;
      }

      .cls-20 {
        fill: #5685d8;
      }

      .cls-21 {
        fill: #233862;
      }

      .cls-22 {
        fill: #ffb27d;
      }

      .cls-23 {
        fill: #f1a34f;
      }

      .cls-24 {
        fill: #f69b34;
      }

      .cls-25 {
        fill: #ffb93e;
      }

      .cls-26 {
        fill: #739af0;
      }

      .cls-27 {
        fill: #2b478b;
      }

      .cls-28 {
        fill: #f99746;
      }

      .cls-29 {
        fill: #ed975d;
      }

      .cls-30 {
        fill: #ed7d2b;
      }
    </style>
  </defs>
  <g id="_Слой_1" data-name="Слой 1">
    <g>
      <path class="cls-19" d="m196.83,1633.28s-320.97-344.61-54.28-717.71c236.62-331.03,512.5-308.41,714.9-174.07,86.21,57.22,334.75,7.05,546.3-329.79,288.49-459.36,1288.49-180.76,1106.16,525.98-88.24,342.01,268.54,354.44,86.75,696.31l-2399.83-.72Z"/>
      <path class="cls-13" d="m2799.64,1175.85c-22.6-83.45-163.42-57.37-163.42-57.37,0,0-95.62,146.03-123.43,149.51-27.82,3.48,57.37-140.82,57.37-140.82-53.89-5.21-191.23,60.85-191.23,60.85,0,0,8.69,170.37-19.12,166.9-27.82-3.48,0-151.25,0-151.25-52.16,15.65-100.83,76.49-100.83,76.49-60.85,99.09,69.54,172.11,69.54,172.11,0,0,1.74,59.11-34.77,126.91h0s-8.24,12.52-16.61,33.8h14.22c1.16-3.81,2.44-7.5,3.86-11.04,0-.03,0-.05.03-.06.02-.05.04-.1.06-.15.97-2.2,2.37-5.32,4.12-9.13,0,0,0,0,0-.01,0,0,0,0,0-.02,4.34-8.5,7.28-14.79,9.13-19.32,0-.01.01-.03.01-.04,13.02-26.69,31.77-61.48,44.27-68.77,0,0-1.57-2.21-3.04-6.52.97,2.08,1.98,4.25,3.04,6.52,24.34,52.16,146.03,60.85,213.84,46.94,67.8-13.91,38.25-33.03,1.74-64.07-36.51-31.04-113-22.86-135.6-35.03-22.6-12.17,10.43-24.34,55.63-20.86,45.2,3.48,67.8,48.68,140.82,55.63,73.02,6.95,128.65-130.39,128.65-130.39-50.42,15.65-140.82-12.17-144.29-29.55-3.48-17.38,130.39-15.65,151.25-20.86,20.86-5.22,57.37-46.94,34.77-130.39Z"/>
      <path class="cls-8" d="m880.53,1198.62s6.21,49.57-3.08,50.16c-9.3.59-2.94-55.74-2.94-55.74,0,0-44.2-24.71-62.18-24.07,0,0,25.31,49.59,16.16,47.87-9.15-1.72-37.89-52.1-37.89-52.1,0,0-46.17-11.52-55.36,15.7-9.19,27.21,2.06,41.79,8.88,43.95,6.81,2.15,51.24,4.3,49.73,10-1.51,5.69-32.05,13.08-48.46,6.86,0,0,15.65,46.68,40.01,45.86,24.36-.82,32.77-15.35,47.83-15.58,15.06-.23,25.77,4.48,18.02,8.05-7.74,3.58-32.94-.7-45.68,8.85-12.74,9.55-22.93,15.29-.73,21.28,22.2,5.99,62.74,5.59,71.87-11.21.4-.73.78-1.43,1.14-2.1-.58,1.4-1.14,2.1-1.14,2.1,4,2.67,9.51,14.6,13.28,23.71.52,1.54,1.37,3.69,2.64,6.61h0c.51,1.32.91,2.39,1.19,3.14,6.71,20.32.41,54.31.41,54.31l4.72,1.59c12.76-33.86-4.17-63.36-4.17-63.36-10.73-23.23-8.95-42.8-8.95-42.8,0,0,44.73-21.56,26.57-55.66,0,0-14.9-21.17-31.88-27.42Z"/>
      <path class="cls-14" d="m546.05,1419.87c-4.01-61.15,96.41-75.99,96.41-75.99,0,0,97.65,75.97,117.1,71.91,19.45-4.05-70.8-81.25-70.8-81.25,34.94-15.87,142.2-3.11,142.2-3.11,0,0,33.29,116.24,51.14,107.52,17.85-8.72-34.73-101.42-34.73-101.42,38.57-1.48,85.18,28.14,85.18,28.14,63.55,52.48-7.11,131.38-7.11,131.38,0,0,12.41,40.03,52.45,77.12h0s8.4,6.5,18.9,18.85l-9.53,3.26c-1.65-2.29-3.36-4.47-5.12-6.51,0-.02-.02-.03-.03-.04-.03-.03-.05-.06-.08-.09-1.16-1.25-2.81-3.02-4.86-5.18,0,0,0,0,0,0,0,0,0,0-.01-.01-4.87-4.71-8.28-8.24-10.56-10.86,0,0-.01-.02-.02-.03-14.86-14.91-35.42-33.93-45.48-35.95,0,0,.55-1.84.54-5.07-.17,1.62-.35,3.3-.54,5.07-4.35,40.56-83.95,74.33-132.61,80.57-48.66,6.24-33.23-13.37-15.88-42.56,17.35-29.19,70.53-41.27,82.89-54.62,12.36-13.35-12.58-13.93-42.09-1.22-29.51,12.71-34.29,48.21-81.65,69.64-47.37,21.43-116.2-57.89-116.2-57.89,37.4-1.08,91.63-40.49,89.97-52.95-1.66-12.46-91.02,19.45-106.21,20.74-15.19,1.29-49.25-18.3-53.25-79.45Z"/>
      <g>
        <path class="cls-9" d="m2426.61,323.2s-10.7-8.08-13.47-20.16c-2.05-8.96,3.09-20.21,3.51-20.72l-14.34-2.86s-4.25,19.03,2.94,31.69c2.2,3.88,8.6,9.22,12.71,11.21,4.53,2.2,8.64.83,8.64.83Z"/>
        <path class="cls-2" d="m2451.53,314.47l13.05,14.93s-36.88,9.79-57.96-16.3c0,0,31.05,10.5,44.92,1.37Z"/>
      </g>
      <g>
        <path class="cls-28" d="m1779.02,127.08s13.31-22.09,36.8-8.57l12.87-14s-13.44-8.9-41.86,10.45c-18.6,12.66-7.8,12.12-7.8,12.12Z"/>
        <path class="cls-28" d="m1765.86,148.74s-4.47-24.08,35.18-41.85c0,0-14.22,8.07-17.19,32.55l-17.98,9.3Z"/>
      </g>
      <g>
        <path class="cls-20" d="m957.81,844.13s-21.8-8.59-13.24-31.66l-14.48-9.41s-5.94,13.38,15.69,35.91c14.15,14.74,12.03,5.16,12.03,5.16Z"/>
        <path class="cls-26" d="m979.2,852.63s-20.89,7.64-42.8-25.18c0,0,9.37,11.52,31.75,10.48l11.05,14.7Z"/>
      </g>
      <path class="cls-23" d="m1020.62,541.86s12.03-7.6,13.3-16.78c0,0,11.71.63,14.25,4.43,0,0-5.38,15.2-11.71,18.05,0,0-14.25.95-15.83-5.7Z"/>
      <path class="cls-23" d="m230.91,1091.07s-12.83-8.11-14.19-17.9c0,0-12.5.68-15.2,4.73,0,0,5.74,16.21,12.5,19.25,0,0,15.2,1.01,16.89-6.08Z"/>
      <path class="cls-2" d="m1669.08,375.42s-17.93-11.32-19.81-25c0,0-17.46.94-21.23,6.6,0,0,8.02,22.64,17.45,26.89,0,0,21.23,1.42,23.59-8.49Z"/>
      <g>
        <path class="cls-14" d="m2769.76,322.78l111.44,348.92c4.92,15.39-3.66,32.02-19.05,36.94l-612.1,195.5c-15.39,4.92-32.02-3.66-36.94-19.05l-111.44-348.92c-4.92-15.39,3.66-32.02,19.05-36.94l612.1-195.5c15.39-4.92,32.02,3.66,36.94,19.05Z"/>
        <g>
          <path class="cls-8" d="m2417.75,766.31l-163.14,52.11c-6.9,2.2-14.35-1.64-16.56-8.54l-.5-1.57c-2.21-6.9,1.64-14.35,8.54-16.56l163.14-52.11c6.9-2.2,14.35,1.64,16.56,8.54l.5,1.57c2.2,6.9-1.64,14.35-8.54,16.56Z"/>
          <path class="cls-8" d="m2632.73,697.64l-163.14,52.11c-6.9,2.2-14.35-1.64-16.56-8.54l-.5-1.57c-2.2-6.9,1.64-14.35,8.54-16.56l163.14-52.11c6.9-2.2,14.35,1.64,16.56,8.54l.5,1.57c2.2,6.9-1.64,14.35-8.54,16.56Z"/>
          <g>
            <path class="cls-8" d="m2438.55,579.77c1.9,5.95,2.42,11.15,1.56,15.61-1.08,5.63-4.34,9.31-9.79,11.05-5.45,1.74-10.24.63-14.38-3.33-3.29-3.14-5.88-7.68-7.78-13.63-1.9-5.95-2.43-11.12-1.6-15.54,1.08-5.63,4.36-9.32,9.85-11.07,5.49-1.75,10.3-.65,14.44,3.31,3.24,3.11,5.8,7.64,7.7,13.59Zm-7.49,2.36c-1.19-3.73-2.61-6.73-4.27-8.99-2.52-3.39-5.26-4.61-8.21-3.67-3.03.97-4.58,3.54-4.64,7.71-.07,2.82.49,6.11,1.7,9.88,3.24,10.15,7.45,14.4,12.63,12.74,2.99-.96,4.51-3.56,4.55-7.81.05-2.77-.54-6.06-1.75-9.86Z"/>
            <path class="cls-8" d="m2472.05,569.07c1.9,5.95,2.42,11.15,1.56,15.61-1.08,5.63-4.34,9.31-9.79,11.05-5.45,1.74-10.24.63-14.38-3.33-3.29-3.14-5.88-7.68-7.78-13.63-1.9-5.95-2.43-11.12-1.6-15.54,1.08-5.63,4.36-9.32,9.85-11.07,5.49-1.75,10.3-.65,14.44,3.31,3.23,3.11,5.8,7.64,7.7,13.59Zm-7.49,2.36c-1.19-3.73-2.61-6.73-4.27-8.99-2.52-3.39-5.26-4.61-8.21-3.67-3.03.97-4.58,3.54-4.64,7.71-.07,2.82.49,6.11,1.7,9.88,3.24,10.15,7.45,14.4,12.63,12.74,2.99-.96,4.51-3.56,4.55-7.81.05-2.77-.54-6.06-1.75-9.86Z"/>
            <path class="cls-8" d="m2522.81,552.85c1.9,5.95,2.42,11.15,1.56,15.61-1.08,5.63-4.34,9.31-9.79,11.05-5.45,1.74-10.24.63-14.38-3.33-3.29-3.14-5.88-7.68-7.78-13.63-1.9-5.95-2.43-11.12-1.6-15.54,1.08-5.63,4.36-9.32,9.85-11.07,5.49-1.75,10.3-.65,14.44,3.31,3.23,3.11,5.8,7.64,7.7,13.59Zm-7.49,2.36c-1.19-3.73-2.62-6.73-4.27-8.99-2.52-3.39-5.26-4.61-8.21-3.67-3.03.97-4.58,3.54-4.64,7.71-.07,2.82.49,6.11,1.7,9.88,3.24,10.15,7.45,14.4,12.63,12.74,2.99-.96,4.51-3.56,4.55-7.81.04-2.77-.54-6.06-1.75-9.86Z"/>
            <path class="cls-8" d="m2556.31,542.16c1.9,5.95,2.42,11.15,1.56,15.61-1.08,5.63-4.34,9.31-9.79,11.05-5.45,1.74-10.24.63-14.38-3.33-3.29-3.14-5.88-7.68-7.78-13.63-1.9-5.95-2.43-11.12-1.6-15.54,1.08-5.63,4.36-9.32,9.85-11.07,5.49-1.75,10.3-.65,14.44,3.32,3.24,3.11,5.8,7.64,7.7,13.59Zm-7.49,2.36c-1.19-3.73-2.61-6.73-4.27-8.99-2.52-3.39-5.26-4.61-8.21-3.67-3.03.97-4.58,3.54-4.64,7.71-.07,2.82.49,6.11,1.7,9.88,3.24,10.15,7.45,14.4,12.63,12.74,2.99-.96,4.51-3.56,4.55-7.81.05-2.77-.54-6.06-1.75-9.86Z"/>
            <path class="cls-8" d="m2589.81,531.46c1.9,5.95,2.42,11.15,1.56,15.61-1.08,5.63-4.34,9.31-9.79,11.05-5.45,1.74-10.24.63-14.38-3.33-3.29-3.14-5.88-7.68-7.78-13.63-1.9-5.95-2.43-11.12-1.6-15.54,1.08-5.63,4.36-9.32,9.85-11.07,5.49-1.75,10.3-.65,14.44,3.32,3.24,3.11,5.8,7.64,7.7,13.59Zm-7.49,2.36c-1.19-3.73-2.61-6.73-4.27-8.99-2.52-3.39-5.26-4.61-8.21-3.67-3.03.97-4.58,3.54-4.64,7.71-.07,2.82.49,6.11,1.7,9.88,3.24,10.15,7.45,14.4,12.63,12.74,2.99-.96,4.51-3.56,4.55-7.81.05-2.77-.54-6.06-1.75-9.86Z"/>
            <path class="cls-8" d="m2623.3,520.76c1.9,5.95,2.42,11.15,1.56,15.61-1.08,5.63-4.34,9.31-9.79,11.05-5.45,1.74-10.24.63-14.38-3.33-3.29-3.14-5.88-7.68-7.78-13.63-1.9-5.95-2.43-11.12-1.6-15.54,1.08-5.63,4.36-9.32,9.85-11.07,5.49-1.75,10.3-.65,14.44,3.32,3.23,3.11,5.8,7.64,7.7,13.59Zm-7.49,2.36c-1.19-3.73-2.61-6.73-4.27-8.99-2.52-3.39-5.26-4.61-8.21-3.67-3.03.97-4.58,3.54-4.64,7.71-.07,2.82.49,6.11,1.7,9.88,3.24,10.15,7.45,14.4,12.63,12.74,2.99-.96,4.51-3.56,4.55-7.81.05-2.77-.54-6.06-1.75-9.86Z"/>
            <path class="cls-8" d="m2674.07,504.55c1.9,5.95,2.42,11.15,1.56,15.61-1.08,5.63-4.34,9.31-9.79,11.05-5.45,1.74-10.24.63-14.38-3.33-3.29-3.14-5.88-7.68-7.78-13.63-1.9-5.95-2.43-11.12-1.6-15.54,1.08-5.63,4.36-9.32,9.85-11.07,5.49-1.75,10.3-.65,14.44,3.31,3.23,3.11,5.8,7.64,7.7,13.59Zm-7.49,2.36c-1.19-3.73-2.62-6.73-4.27-8.99-2.52-3.39-5.26-4.61-8.21-3.67-3.03.97-4.58,3.54-4.64,7.71-.07,2.82.49,6.11,1.7,9.88,3.24,10.15,7.45,14.4,12.63,12.74,2.99-.96,4.51-3.56,4.55-7.81.04-2.77-.54-6.06-1.75-9.86Z"/>
            <path class="cls-8" d="m2707.56,493.85c1.9,5.95,2.42,11.15,1.56,15.61-1.08,5.63-4.34,9.31-9.79,11.05-5.45,1.74-10.24.63-14.38-3.33-3.29-3.14-5.88-7.68-7.78-13.63-1.9-5.95-2.43-11.12-1.6-15.54,1.08-5.63,4.36-9.32,9.85-11.07,5.49-1.75,10.3-.65,14.44,3.31,3.24,3.11,5.8,7.64,7.7,13.59Zm-7.49,2.36c-1.19-3.73-2.61-6.73-4.27-8.99-2.52-3.39-5.26-4.61-8.21-3.67-3.03.97-4.58,3.54-4.64,7.71-.07,2.82.49,6.11,1.7,9.88,3.24,10.15,7.45,14.4,12.63,12.74,2.99-.96,4.51-3.56,4.55-7.81.05-2.77-.54-6.06-1.75-9.86Z"/>
            <path class="cls-8" d="m2741.06,483.15c1.9,5.95,2.42,11.15,1.56,15.61-1.08,5.63-4.34,9.31-9.79,11.05-5.45,1.74-10.24.63-14.38-3.33-3.29-3.14-5.88-7.68-7.78-13.63-1.9-5.95-2.43-11.12-1.6-15.54,1.08-5.63,4.36-9.32,9.85-11.07,5.49-1.75,10.3-.65,14.44,3.31,3.24,3.11,5.8,7.64,7.7,13.59Zm-7.49,2.36c-1.19-3.73-2.61-6.73-4.27-8.99-2.52-3.39-5.26-4.61-8.21-3.67-3.03.97-4.58,3.54-4.64,7.71-.07,2.82.49,6.11,1.7,9.88,3.24,10.15,7.45,14.4,12.63,12.74,2.99-.96,4.51-3.56,4.55-7.81.05-2.77-.54-6.06-1.75-9.86Z"/>
            <path class="cls-8" d="m2774.56,472.45c1.9,5.95,2.42,11.15,1.56,15.61-1.08,5.63-4.34,9.31-9.79,11.05-5.45,1.74-10.24.63-14.38-3.33-3.29-3.14-5.88-7.68-7.78-13.63-1.9-5.95-2.43-11.12-1.6-15.54,1.08-5.63,4.36-9.32,9.85-11.07,5.49-1.75,10.3-.65,14.44,3.31,3.24,3.11,5.8,7.64,7.7,13.59Zm-7.49,2.36c-1.19-3.73-2.61-6.73-4.27-8.99-2.52-3.39-5.26-4.61-8.21-3.67-3.03.97-4.58,3.54-4.64,7.71-.07,2.82.49,6.11,1.7,9.88,3.24,10.15,7.45,14.4,12.63,12.74,2.99-.96,4.51-3.56,4.55-7.81.05-2.77-.54-6.06-1.75-9.86Z"/>
          </g>
          <path class="cls-8" d="m2326.39,492.31l-159.65,50.99c-6.9,2.21-14.35-1.64-16.56-8.54h0c-2.2-6.9,1.64-14.35,8.54-16.56l159.65-50.99c6.9-2.2,14.35,1.64,16.56,8.54h0c2.2,6.9-1.64,14.35-8.54,16.56Z"/>
          <g>
            <path class="cls-8" d="m2714.16,397.9c-1.45-4.56-4.38-8.24-8.09-10.7-1.08-.72-2.54-.33-3.12.83l-.5,1c-.48.96-.19,2.14.7,2.74,2.68,1.8,4.79,4.48,5.85,7.78,1.06,3.31.89,6.71-.25,9.73-.38,1.01.06,2.14,1.02,2.64l.99.52c1.14.6,2.56.07,3.02-1.14,1.59-4.15,1.84-8.85.39-13.41Z"/>
            <path class="cls-8" d="m2724.5,394.59c-2.39-7.49-7.38-13.45-13.64-17.19-1.06-.63-2.44-.21-3,.9l-.29.57c-.51,1.01-.14,2.24.83,2.82,5.23,3.16,9.39,8.15,11.39,14.41,2,6.26,1.51,12.73-.92,18.34-.45,1.04-.05,2.26.96,2.79l.56.3c1.09.58,2.47.12,2.97-1.01,2.94-6.69,3.54-14.43,1.15-21.92Z"/>
            <path class="cls-8" d="m2733.57,391.7c-3.2-10.02-9.95-17.95-18.43-22.83-1.07-.61-2.43-.19-2.99.91h0c-.51,1.02-.14,2.26.85,2.83,7.58,4.36,13.61,11.44,16.47,20.4,2.86,8.96,2.05,18.23-1.6,26.17-.48,1.04-.06,2.26.95,2.8h0c1.09.57,2.45.13,2.96-.99,4.08-8.89,4.98-19.26,1.78-29.28Z"/>
            <path class="cls-8" d="m2743.39,388.56c-4.08-12.77-12.75-22.81-23.61-28.9-1.07-.6-2.43-.19-2.99.91l-.49.98c-.52,1.03-.14,2.28.86,2.84,9.69,5.45,17.42,14.42,21.06,25.82,3.64,11.4,2.54,23.19-2.2,33.24-.49,1.04-.07,2.28.94,2.81l.97.51c1.09.57,2.44.12,2.96-.99,5.32-11.25,6.56-24.46,2.49-37.23Z"/>
          </g>
        </g>
      </g>
      <g>
        <rect class="cls-18" x="1982.98" y="625.74" width="348.49" height="1003.79"/>
        <rect class="cls-25" x="1062.31" y="625.74" width="920.67" height="1003.79"/>
        <rect class="cls-18" x="1487.52" y="691.57" width="70.26" height="920.67" transform="translate(2674.55 -370.74) rotate(90)"/>
        <rect class="cls-10" x="2122.1" y="977.66" width="70.26" height="348.49" transform="translate(3309.13 -1005.32) rotate(90)"/>
        <path class="cls-28" d="m1697.08,636.5s208-135.16,349.39-91.73l-29.17,27.24,13.14,45.78s-157.22-51.2-337.66,26.41l4.3-7.7Z"/>
        <path class="cls-28" d="m1685.45,605.89s-36.7-4.44-91.4-11.96c-145.21-19.98-417.2-61.76-466.02-100.43-76.71-60.75,105.06-318.74,183.75-354.55,78.68-35.78,373.67,466.94,373.67,466.94Z"/>
        <path class="cls-28" d="m2260.92,284.62c13.11,63.92-580.87,340.04-580.87,340.04,0,0,10.81-29.22,28.39-74.98,0,0,.03-.04.05-.08C1772.7,382.49,1927.41-5.31,1978.24.06c5.11.53,11.08,2.36,17.75,5.28,78.08,34.36,252.85,220.42,264.92,279.28Z"/>
        <path class="cls-30" d="m1990.98,62.17c-36.27,63.01-278.71,480.92-282.5,487.43C1772.7,382.49,1927.41-5.31,1978.24.06c0,0,10.07-.29,17.75,5.28,9.27,6.75,15.02,22.04-5.01,56.83Z"/>
        <path class="cls-30" d="m1594.15,593.93h-.1c-145.21-19.98-417.2-61.76-466.02-100.43-22.04-62.09,35.15-67.15,76.78-71.52,41.59-4.37,389.34,171.95,389.34,171.95Z"/>
        <path class="cls-30" d="m1574.67,625.66s33.3-75.75,98.83-79.94c68.45-4.38,107.32,79.94,107.32,79.94h-206.15Z"/>
        <rect class="cls-3" x="1034.4" y="625.74" width="963.35" height="138.06"/>
        <rect class="cls-10" x="1997.75" y="625.74" width="363.1" height="138.06"/>
        <path class="cls-28" d="m1608.41,614.18s-188.68-59.77-316-20.25c-146.76,45.55-138.06,226.63-138.06,226.63l34.52-14.19,46.6,21.86s7.86-191.75,127.51-218.6c103.46-23.21,245.44,4.54,245.44,4.54Z"/>
        <rect class="cls-18" x="1441.36" y="625.74" width="70.26" height="1003.68"/>
      </g>
      <g>
        <rect class="cls-30" x="831.5" y="330.14" width="68.03" height="195.94" transform="translate(-91.18 297.24) rotate(-18.53)"/>
        <rect class="cls-28" x="658.21" y="369.5" width="179.72" height="195.94" transform="translate(-109.78 261.96) rotate(-18.53)"/>
        <rect class="cls-25" x="742.71" y="382.11" width="13.71" height="179.72" transform="translate(958.86 -388.74) rotate(71.47)"/>
        <rect class="cls-24" x="860.17" y="398.59" width="13.71" height="68.03" transform="translate(1001.66 -526.95) rotate(71.47)"/>
        <path class="cls-25" d="m755.08,358.62s44.29-41.22,83.73-44.42l-5.64,7.3,6.54,7.36s-44.05,3.02-85.21,31.51l.58-1.75Z"/>
        <g>
          <path class="cls-25" d="m745.83,360.81s-7.07,1.46-17.66,3.46c-28.12,5.31-81.05,14.45-92.48,10.32-17.97-6.48-.33-65.51,12.02-77.02,12.34-11.5,98.13,63.24,98.13,63.24Z"/>
          <g>
            <path class="cls-25" d="m832.41,265.65c6.39,11.02-86.42,98.97-86.42,98.97,0,0,.19-6.08.6-15.64,0,0,0,0,0-.02,1.52-34.91,6.1-116.29,15.84-118.45.98-.22,2.2-.25,3.61-.12,16.58,1.52,60.47,25.11,66.36,35.26Z"/>
            <path class="cls-24" d="m768.65,241.22c-2.8,13.91-21.75,106.3-22.05,107.74,1.52-34.91,6.1-116.29,15.84-118.45,0,0,1.85-.68,3.61-.12,2.13.67,4.15,3.15,2.6,10.83Z"/>
          </g>
          <path class="cls-24" d="m728.19,364.26h-.02c-28.12,5.32-81.05,14.46-92.48,10.33-7.93-10.12,2.34-14.61,9.77-18,7.43-3.39,82.73,7.67,82.73,7.67Z"/>
          <path class="cls-24" d="m726.56,371.34s1.46-16.09,13.33-20.93c12.4-5.06,24.82,8.14,24.82,8.14l-38.16,12.79Z"/>
        </g>
        <rect class="cls-6" x="625.97" y="374.29" width="188.05" height="26.95" transform="translate(-85.9 248.91) rotate(-18.53)"/>
        <rect class="cls-15" x="807.31" y="333.15" width="70.88" height="26.95" transform="translate(-66.47 285.78) rotate(-18.53)"/>
        <path class="cls-5" d="m732.09,367.12s-38.63.64-59.74,15.85c-24.34,17.53-11.49,50.51-11.49,50.51l5.51-4.77,9.98,1.16s-10.44-35.98,10.04-48.37c17.71-10.71,45.71-14.38,45.71-14.38Z"/>
        <rect class="cls-25" x="732.93" y="372.32" width="13.71" height="197.63" transform="translate(-111.38 259.53) rotate(-18.53)"/>
      </g>
      <g>
        <path class="cls-21" d="m1990.26,732.23s-25.51,15.03-9.86,44.14c0,0-22.33-4.09-27.15-10.75,0,0,.56,2.78,1.39,4.18,0,0-20.53-4.65-27.25-13.22-6.72-8.57,26.22-111.19,79.59-84.61,0,0,48.8,9.05,29.69,63.23-19.11,54.18-1.05,58.96-1.05,58.96,0,0-5.68,1.15-8.1.5,0,0-3.19-2.29-3.37-4.44,0,0-.12,3.26.54,4.48,0,0-19.99-3.32-27.78-13.25-7.79-9.94-12.45-38.54-6.65-49.22Z"/>
        <path class="cls-22" d="m1953.43,819.45s-.06.02-.09.03c-.16-.02-.12-.03.09-.03Z"/>
        <path class="cls-22" d="m2015.43,801.61c.75,6.72,1.65,12.74,2.04,15.61.9,6.43-60.15,2.25-64.04,2.24,2.71-1.18,10.99-27.45,13.62-37.46,3.18-12.15,5.67-25.28,5.67-25.28l43.1,2.72,2.56.16c-1.59,5.88-2.72,11.43-3.51,16.58-.1.69-.2,1.4-.29,2.08-.78,5.72-.09,15.07.84,23.36Z"/>
        <path class="cls-21" d="m1966.77,752.36s-6.99-22.16-5.57-39.16c1.01-12.13,18.28-53.52,59.81-35.91,0,0,12.21,4.55,21.89,15.63,7.7,8.81,17.6,26.06-7.44,59.53l-7.28,11.62-61.4-11.72Z"/>
        <path class="cls-29" d="m2015.43,801.61c-30.15-8.83-42.95-43.66-42.95-43.66,12.75.37,29.37,9.23,42.4,18.22-.1.69-.2,1.4-.29,2.08-.78,5.72-.09,15.07.84,23.36Z"/>
        <path class="cls-22" d="m2017.56,789.37s-54.47-13.46-45.57-47.26c8.91-33.79,7.88-58.29,43.03-51.12,35.16,7.17,38.49,21.84,38.26,33.84-.23,12-21.32,67.18-35.72,64.54Z"/>
        <path class="cls-21" d="m2039.95,696.7s-25.34,35.7-49.69,35.53c-24.34-.17-32.61-8.9-32.61-8.9,0,0,21.16-9.26,31.2-32.54,0,0,44.89-15.93,51.09,5.9Z"/>
        <path class="cls-21" d="m2035.41,698.94s8.75,11.79,9.17,21.1c.43,9.32-3.05,27.35,2.28,28.12,0,0,18.32-23.98,9.78-42.55-9.05-19.69-21.23-6.67-21.23-6.67Z"/>
        <path class="cls-21" d="m2037.12,700.83s-21.57,38.71-53.84,44.39c0,0,35.51-17.89,45.2-44.64,9.7-26.75,8.64.26,8.64.26Z"/>
        <path class="cls-16" d="m2009.06,767.71s.68,5.14,3.96,6.36c3.28,1.22,11.99,3.42,12.88,2.88s4.15-4.56,4.15-4.56c0,0-13.73-5.27-20.99-4.68Z"/>
        <path class="cls-22" d="m1988.72,1284.66c-.69,2.89-1.38,5.75-2.07,8.59-4.11,17.07-7.93,32.89-10.34,46.13-3.13,17.24-3.87,30.06.24,35.45,16.92,22.18,0,198.21,0,198.21l-19.25,19.83s-33.47-173.79-42.55-201.02c-4.13-12.38-10.14-65.25-15.45-119.23-.27-2.7-.53-5.4-.79-8.1-.92-9.44-1.8-18.85-2.66-28.02-4.76-51.07-8.33-94.8-8.33-94.8,0,0,35.5-24.96,67.76-27.74,19-1.66,36.88,4.39,45.7,27.74,12.86,33.97-.17,92.63-12.26,142.96Z"/>
        <path class="cls-29" d="m1988.72,1284.66c-26.38-19.05-63.49-52.95-76.96-108.53-2.58-27.63,19.21-53.88,43.52-62.18,19-1.66,36.88,4.39,45.7,27.74,12.86,33.97-.17,92.63-12.26,142.96Z"/>
        <path class="cls-22" d="m2084.92,949l129.64,33.49v15.14s-129.01-1.51-137.33-15.88c-8.32-14.37,7.69-32.74,7.69-32.74Z"/>
        <path class="cls-22" d="m2214.55,1447.94l-6.06,25.02s-175.37-90.58-198.05-107.97c-9.11-6.99-21.15-44.94-32.3-87.88-16.61-63.99-31.25-139.05-31.25-139.05,0,0,24.59-94.55,90.39-36.68,39.38,34.63,33.26,101.36,28.94,153.25-2.87,34.82-4.94,62.97,8.12,70.27,25.47,14.22,100.22,79.71,123.88,124.76l16.32-1.72Z"/>
        <path class="cls-22" d="m1917.07,1027.66c-45.8-11.65-96.14-82.71-96.14-82.71l12.9-11.19c13.35,15.74,68.86,42.85,68.86,42.85-.3-14.41.08-27.54.99-39.5,6.16-81.28,36.8-108.35,45.16-114.3,1.35-.96,2.12-1.37,2.12-1.37,0,0,.03.59.08,1.71.12,2.41.34,7.28.57,13.96,1.7,49.75,3.73,200.29-34.54,190.54Z"/>
        <path class="cls-16" d="m1953.34,930.12c-2.37,57.98-11.05,115.4-36.29,111.7-30.94-4.52-39-33.4-40.65-54.87-1.02-13.36.45-23.85.45-23.85,0,0,15.23-.07,17.69-2.34,11.7-10.8,8.22-116.76,14.01-127.76,5.79-11,43.36-18.06,43.36-18.06,0,0,3.79,57.88,1.42,115.19Z"/>
        <path class="cls-13" d="m1953.34,930.12c-2.37,57.98-11.05,115.4-36.29,111.7-30.94-4.52-39-33.4-40.65-54.87,7.6-.38,20.97-2.24,26.29-10.34,7.61-11.6,31.35-86.29,31.35-86.29,0,0,9.33,16.77,19.3,39.8Z"/>
        <path class="cls-16" d="m2148.54,949c8.39,11.91,3.77,35.01-13.82,53.6-10.92,11.55-25.72,18.38-49.8,14.83-10.5-1.55-39.82-18.1-42.91-38.29-.55-3.66-.86-5.8-.86-5.8,0,0-13.35,13.37-13.85,15.89-.23,1.14-1.38,11.24-1.56,12.62-.21,1.67.98,7.8.98,7.8,0,0-63.79,27.9-116.52-3.87,0,0-15.04-128.85-4.24-150.29,5.37-10.65,35.47-31.4,45.95-40.56,2.35-2.06,4.75-8.27,4.1-12.28-.53-3.38,3.36-9.08,6.62-8.04,6.3,2.02,24.14,10.84,36.69,7.48,6.25-1.66,14.18-8.89,20.24-7.23,7.41,2.02-.42,19.85,3.78,20.08,5.78.28,37.02,6.53,39.65,11.57.91,1.75,9.89,25.53,21.14,56.99,0,0,0,.02.02.08,21.12,59.02,52.09,47.94,64.4,65.42Z"/>
        <path class="cls-13" d="m2041.15,973.33s-1.55-49.15-5.52-48.55c-3.97.6-61.27,55.75-47.65,77.82,13.62,22.06,53.18-29.26,53.18-29.26Z"/>
        <path class="cls-27" d="m2084.92,1174.86s-22.08,6.82-54.62,11.32c-40.28,5.57-96.59,7.58-146.88-11.32,0,0-4.14-74.83,7.77-113.84,11.92-39.02,17.49-57.68,17.49-57.68,0,0,47.74,11.97,96.22,2.69,6.81-1.3,13.63-3.02,20.34-5.26,0,0,29.91,63.5,38.13,90.71,8.22,27.21,21.54,83.38,21.54,83.38Z"/>
        <path class="cls-21" d="m2084.92,1174.86s-22.08,6.82-54.62,11.32c-59.66-33.83-30.57-176.17-30.57-176.17,1.77-1.44,3.5-2.76,5.17-3.98,6.81-1.3,13.63-3.02,20.34-5.26,0,0,29.91,63.5,38.13,90.71,8.22,27.21,21.54,83.38,21.54,83.38Z"/>
        <path class="cls-12" d="m1959.38,1017.43c-35.37,0-49.94-12.17-51.02-13l-2.29-16.66c.34.25,47.79,28.75,121.23,1.46l-1.56,12.62c-28.24,10.5-48,15.58-66.37,15.58Z"/>
        <path class="cls-22" d="m2214.56,982.48s23.78-11.72,33.24-12.85c9.45-1.13,25.34-1.51,25.34,0s-17.02,12.08-21.56,12.85c-4.54.77-13.24,7.2-10.59,7.95,2.65.76,16.64-2.46,16.83,0,.19,2.46-8.51,3.97-10.02,5.86-1.51,1.89-6.81,4.16-15.32,3.03-8.51-1.13-17.92-1.7-17.92-1.7v-15.14Z"/>
        <path class="cls-22" d="m1833.8,933.73l-12.93,11.28s-22.97-16.78-24.07-23.65v-.69c0-7.15,14.58-22.01,26.68-22.56,1.24,0,2.34.28,3.3.83,6.45,4.03,7.21,20.84,7.16,29.53-.02,3.17-.15,5.26-.15,5.26Z"/>
        <path class="cls-27" d="m2214.55,1447.94l-6.06,25.02s-175.37-90.58-198.05-107.97c-9.11-6.99-21.15-44.94-32.3-87.88,14.97,3.07,47.29,4.71,88.09-22.48-2.87,34.82-4.94,62.97,8.12,70.27,25.47,14.22,100.22,79.71,123.88,124.76l16.32-1.72Z"/>
        <path class="cls-21" d="m2249.22,1457.65s-.05,0-.16-.04c-.79-.2-4.39-1.39-6.78-7.12-1.58-3.78-2.05-6.88-3.49-10.62l-5.92-10.22c-6.19-8.16-8.37-6.25-8.37-6.25,0,0-1.62,2.08-4.01,4.81-3.95,4.52-10.01,10.82-14.3,12.44-3.05,1.14-4.95,3.04-6.12,4.8-1.49,2.21-1.83,4.2-1.83,4.2,0,0,12.72,2.22,11.61,8.48-2.16,12.13-1.65,14.33-1.43,14.73l.08.08s21.69,11.35,28.62,13.58c12.34,3.95,18.79,12.34,22.79,16.17,1.62,1.55,3.86,2.27,6.07,1.91,3.25-.51,7.47-1.56,8.4-3.55l-25.15-43.42Z"/>
        <path class="cls-21" d="m1976.55,1374.83c16.92,22.18,0,198.21,0,198.21l-19.25,19.83s-33.47-173.79-42.55-201.02c-4.13-12.38-10.14-65.25-15.45-119.23,16.04,7.16,55.19,22.75,87.35,20.63-4.11,17.07-7.93,32.89-10.34,46.13-3.13,17.24-3.87,30.06.24,35.45Z"/>
        <path class="cls-21" d="m1995.91,1601.69l-10.39,5.62c-3.78,1.34-6.89,1.72-10.71,3.19-5.8,2.22-9.89,6.59-10.08,7.38-2.93,11.91-7.09,11.16-7.09,11.16l-41.73.39c-1.97-.98,1.37-9.41,2.97-10.98,3.95-3.89,15.75-1.93,20.06-14.15,2.43-6.87,14.4-28.22,14.4-28.22l.08-.07c.4-.21,2.62-.65,14.68,1.85,6.23,1.29,8.81-11.36,8.81-11.36,0,0,1.98.39,4.15,1.95,1.72,1.22,3.56,3.18,4.61,6.26,1.49,4.33,7.62,10.57,12.02,14.65,2.67,2.47,4.7,4.15,4.7,4.15,0,0,1.85,2.23-6.48,8.18Z"/>
      </g>
      <g>
        <rect class="cls-7" x="1399.16" y="1120.31" width="177.23" height="510.49"/>
        <rect class="cls-26" x="930.94" y="1120.31" width="468.22" height="510.49"/>
        <rect class="cls-8" x="1147.19" y="1153.79" width="35.73" height="468.22" transform="translate(2552.95 222.85) rotate(90)"/>
        <rect class="cls-17" x="1469.91" y="1299.28" width="35.73" height="177.23" transform="translate(2875.67 -99.88) rotate(90)"/>
        <path class="cls-7" d="m1272.5,1112.46s143.55-65.15,243.6-40.4l-19.98,13.37,10.07,23.6s-111.32-29.02-236.57,7.28l2.88-3.85Z"/>
        <g>
          <path class="cls-4" d="m1247.91,1109.96s-18.66-2.26-46.48-6.08c-73.85-10.16-212.17-31.41-237-51.08-39.01-30.89,53.43-162.1,93.45-180.31,40.02-18.2,190.04,237.47,190.04,237.47Z"/>
          <path class="cls-4" d="m1540.57,946.57c6.67,32.5-295.41,172.93-295.41,172.93,0,0,5.5-14.86,14.44-38.13,0,0,.01-.02.03-.04,32.66-84.99,111.33-282.21,137.19-279.48,2.6.27,5.64,1.2,9.03,2.68,39.71,17.47,128.59,112.1,134.73,142.03Z"/>
          <path class="cls-7" d="m1403.29,833.44c-18.45,32.05-141.74,244.58-143.67,247.89,32.66-84.99,111.33-282.21,137.19-279.48,0,0,5.12-.15,9.03,2.68,4.71,3.43,7.64,11.21-2.55,28.9Z"/>
          <path class="cls-7" d="m1201.48,1103.88h-.05c-73.85-10.16-212.17-31.41-237-51.08-11.21-31.58,17.88-34.15,39.05-36.37,21.15-2.22,198,87.45,198,87.45Z"/>
          <path class="cls-7" d="m1191.57,1120.02s16.93-38.52,50.26-40.66c34.81-2.23,54.58,40.66,54.58,40.66h-104.84Z"/>
        </g>
        <rect class="cls-17" x="916.75" y="1120.31" width="489.92" height="70.21"/>
        <rect class="cls-11" x="1406.67" y="1120.31" width="184.66" height="70.21"/>
        <path class="cls-7" d="m1208.67,1114.43s-95.96-30.4-160.71-10.3c-74.63,23.16-70.21,115.26-70.21,115.26l17.55-7.22,23.7,11.12s4-97.52,64.85-111.17c52.62-11.8,124.82,2.31,124.82,2.31Z"/>
        <rect class="cls-8" x="1123.71" y="1120.31" width="35.73" height="514.89"/>
      </g>
      <g>
        <path class="cls-21" d="m363.95,910.7s131.97,96.72,164.26,94.38c32.28-2.33,146.61-72.88,146.61-72.88l-24.19-28.76s-103.54,38.36-122.5,27.79-93.01-100.35-124.08-95.56c-31.07,4.79-61.77,40.25-40.11,75.02Z"/>
        <g>
          <path class="cls-21" d="m286.12,1637.4h-39.45c-4.97-2.7-9.39-8.87-10.79-18.08-1.93-12.71-16.17-19.64-19.25-30.04-3.08-10.39,12.71-25.02,12.71-25.02l2.64-3.4,2.75-3.53,26.18,6.17s.65,6.24,1.04,14.18c.29,5.73.44,12.35.11,18.16-.77,13.86,3.87,28.79,16.19,31.49,9.11,1.99,8.7,7.39,7.86,10.08Z"/>
          <path class="cls-21" d="m515.08,1637.4h-90.22c-4.34-5.3-2.74-24.84-2.08-31.22.14-1.29.23-2.03.23-2.03,0,0,30.81-24.64,35.04-5.77.13.59.29,1.17.46,1.74,5.33,17.65,29.25,25.67,43.06,27.9,8.98,1.46,12.3,6.12,13.52,9.38Z"/>
          <path class="cls-28" d="m497.89,1133.79s-4.68,58.37-10.18,128.53c-7.47,95.31-16.46,212.38-17.35,234.56-1.54,38.51-7.7,100.11-7.7,100.11,0,0-14.62,14.63-43.89,8.47,0,0-26.08-87.94-33.53-180.98-.12-1.52-.23-3.06-.35-4.6-6.93-94.72-17.71-294.17-17.71-294.17l130.71,8.08Z"/>
          <path class="cls-30" d="m497.89,1133.79s-4.68,58.37-10.18,128.53l-102.48,162.15c-.12-1.52-.23-3.06-.35-4.6-6.93-94.72-17.71-294.17-17.71-294.17l130.71,8.08Z"/>
          <path class="cls-28" d="m476.52,1140.72s-84.32,211.38-139.77,310.72c-55.44,99.34-72.77,127.06-72.77,127.06,0,0-31.77-12.71-34.65-21.37,0,0,21.2-191.78,58.33-238.53,20.98-26.42,45.63-105.69,46.78-133.42,1.16-27.72,7.51-82.59,7.51-82.59l134.57,38.12Z"/>
        </g>
        <path class="cls-22" d="m420.94,839.74c-31.47,14.27-91.43-6.77-91.43-6.77,0,0,27.43-26.27,20.18-73.15l27.75,17.34,18.85,11.77s.91,8.17.76,22.7c-.04,3.82-.15,8.09-.38,12.77,14.97,6.02,24.27,15.34,24.27,15.34Z"/>
        <path class="cls-29" d="m396.29,788.93s.91,8.17.76,22.7c-19.43-.97-44.74-29.14-44.74-29.14,9.36-3.97,17.78-5.49,25.13-5.34l18.85,11.77Z"/>
        <path class="cls-22" d="m406.2,786.95s-52.95,15.49-62.09-17.64c-9.14-33.13-22.13-53.44,11.3-64.73,33.42-11.29,43.51-.47,49.25,9.85,5.74,10.31,15.09,67.63,1.55,72.52Z"/>
        <path class="cls-27" d="m501.17,1112.97c1.65,15.27,2.42,24.78,2.05,25.15-.89.94-1.97,1.57-3.28,1.73-12.3,1.32-47.3,12.45-77.99,13-25.85.63-49.38-4.22-74.99-12.18-3.39-1.05-11.3-4.12-11.56-7.75-.37-3.95-.67-9.73-1.05-17-1.3-25.28-3.5-68.76-12.42-118.16-1.64-9.19-3.01-18.36-4.14-27.4-8.38-67.39-2.16-128.3,22.28-151.62,2.1-1.92,17.02,3.27,30.73,8.09,12.68,4.46,24.71,3.68,35.74.02l12.51,8.63c15.31,11.12,32.47,26.68,42.2,52.26,8.29,21.77,16.43,61.84,23.29,103.55,3.1,18.91,6.08,38,8.43,56.16l.08.65c.38,1.78.62,3.76.83,5.56.44,3.23.85,6.4,1.27,9.52,2.55,19.4,4.61,36.71,6.04,49.79Z"/>
        <path class="cls-27" d="m343.67,766.07s5.43-1.6,3.62-9.13c-1.81-7.53-3.01-17.51,3.43-16.4s7.34,6.05,9.54,2.84c2.2-3.21.77-15.45,19.15-18.53,18.37-3.08,26.66,2.45,34.8-2.37,8.14-4.81,7.02-17.87,7.02-17.87,0,0-1.88,4.94-5.4,6.86,0,0,11.97-21.33-6.24-32.78-18.22-11.44-34.08-.6-43.62,1.14-21.01,3.83-34.52,6.75-39.76,21.49s2.27,53.01,17.46,64.75Z"/>
        <path class="cls-21" d="m501.17,1112.97c-2.6.48-47.76,8.59-78.46-11.64-31.61-20.82-68.64-144.27-68.64-144.27,0,0,71,78.96,72.38,82.08,1.15,2.62,52.35,18.9,68.69,24.05,2.55,19.4,4.61,36.71,6.04,49.79Z"/>
        <g>
          <g>
            <rect class="cls-30" x="520.4" y="719.26" width="351.26" height="351.26" transform="translate(-12.66 9.99) rotate(-.82)"/>
            <rect class="cls-28" x="445.45" y="720.33" width="351.26" height="351.26" transform="translate(-12.68 8.93) rotate(-.82)"/>
          </g>
          <path class="cls-16" d="m489,830.69c-.47-33.15,22.25-60.27,56.41-60.76,33.82-.48,56.97,25.65,57.45,59.14.47,32.82-22.25,60.27-56.41,60.76-33.82.48-56.97-25.65-57.45-59.14Zm193.75-60.03l39.85-.57-167.78,236.85-39.85.57,167.78-236.85Zm-115.05,58.91c-.22-15.74-9.13-29.35-22.52-29.16-14.06.2-21.24,13.7-21.01,29.77.22,15.74,9.13,29.34,22.52,29.15,14.06-.2,21.24-14.03,21.01-29.77Zm67.01,118.95c-.47-33.15,22.25-60.27,56.41-60.76,33.82-.48,56.97,25.65,57.45,59.14.47,32.82-22.25,60.27-56.41,60.76-33.82.48-56.97-25.65-57.45-59.14Zm78.7-1.12c-.22-15.74-9.13-29.34-22.52-29.15-14.06.2-21.24,13.7-21.01,29.77.22,15.74,9.13,29.35,22.52,29.16,14.06-.2,21.24-14.04,21.01-29.77Z"/>
        </g>
        <path class="cls-22" d="m619.88,1085.18c-11.86-.22-27.06-5.32-31.94-7.74-8.24-4.1-12.44-8.07-12.44-8.07l1.25-7.81,1.5-9.32s.92-.15,2.44-.3c1.51-.16,3.65-.32,6.06-.36,0,0,3.9,1.18,7.13-1.7,3.22-2.88,9.16-4.83,13.66-3.76,4.49,1.08,14.15.07,14.46,1.65.76,3.8-13.32,3.11-14.96,5.49-1.49,2.16-.13,3.61.14,3.88.02.01.04.03.06.05,8.24,8.31,36.6,11.33,35.47,17.92-.43,2.47-17.8,10.18-22.82,10.09Z"/>
        <path class="cls-27" d="m332.45,909.77s64.96,150.17,93.99,164.48c29.03,14.31,161.5,3.19,161.5,3.19l.87-25.63s-114.09-22.6-125.1-41.31c-11.01-18.71-29.5-133.6-58.73-145.18-29.23-11.57-73.64,3.49-72.53,44.44Z"/>
      </g>
      <g>
        <path class="cls-25" d="m2629.84,1311.78c-1.44.88-2.9,1.73-4.38,2.54-.5.28-1.01.55-1.51.81-1.15.61-2.3,1.2-3.46,1.78-55.57,27.29-123.35,6.34-153.56-48.45-28.81-52.27-13.33-117.01,33.95-151.01,3.77-2.71,7.74-5.23,11.91-7.52,1.5-.82,3-1.62,4.52-2.36,1.47-.73,2.96-1.43,4.45-2.09,4.57-2.04,9.21-3.75,13.9-5.16,6.97-2.1,14.04-3.51,21.13-4.26,21.98-2.33,44.1,1.69,63.71,11.28,20.81,10.17,38.8,26.63,50.83,48.45,30.29,54.96,11.63,123.69-41.48,155.99Z"/>
        <path class="cls-18" d="m2569.88,1319.67c-38.78,0-74.5-21.08-93.2-55.01-13.71-24.87-16.91-53.59-9.02-80.87,7.89-27.28,25.93-49.85,50.8-63.56,15.7-8.65,33.42-13.23,51.24-13.23,38.78,0,74.5,21.08,93.2,55.01,13.71,24.87,16.91,53.59,9.02,80.87-7.89,27.28-25.93,49.85-50.8,63.56-15.7,8.65-33.42,13.23-51.24,13.23Zm-.18-206.34c-16.75,0-33.41,4.3-48.17,12.44-23.39,12.89-40.35,34.12-47.77,59.77-7.42,25.65-4.41,52.66,8.48,76.05,17.59,31.91,51.17,51.73,87.65,51.73,16.75,0,33.41-4.3,48.17-12.44,23.39-12.89,40.35-34.12,47.77-59.77s4.41-52.66-8.48-76.05c-17.59-31.91-51.17-51.73-87.65-51.73Z"/>
        <polygon class="cls-18" points="2569.79 1135.05 2593.23 1182.56 2645.66 1190.18 2607.72 1227.16 2616.68 1279.38 2569.79 1254.72 2522.89 1279.38 2531.85 1227.16 2493.91 1190.18 2546.34 1182.56 2569.79 1135.05"/>
      </g>
      <g>
        <path class="cls-25" d="m2699.77,1027.79c-.81.5-1.64.97-2.47,1.44-.28.16-.57.31-.85.46-.65.35-1.3.68-1.95,1-31.36,15.4-69.62,3.58-86.67-27.35-16.26-29.5-7.52-66.04,19.16-85.23,2.13-1.53,4.37-2.95,6.72-4.25.84-.47,1.7-.91,2.55-1.33.83-.41,1.67-.81,2.51-1.18,2.58-1.15,5.2-2.12,7.84-2.91,3.93-1.18,7.92-1.98,11.92-2.4,12.41-1.31,24.89.95,35.96,6.37,11.74,5.74,21.9,15.03,28.69,27.35,17.1,31.02,6.56,69.81-23.41,88.04Z"/>
        <path class="cls-18" d="m2665.93,1032.25c-21.89,0-42.05-11.9-52.6-31.05-7.74-14.04-9.55-30.25-5.09-45.64,4.45-15.4,14.64-28.14,28.67-35.88,8.86-4.88,18.86-7.47,28.92-7.47,21.89,0,42.05,11.9,52.6,31.05,7.74,14.04,9.55,30.25,5.09,45.64-4.45,15.4-14.64,28.14-28.67,35.88-8.86,4.88-18.86,7.47-28.92,7.47Zm-.11-116.45c-9.45,0-18.85,2.43-27.19,7.02-13.2,7.28-22.78,19.26-26.96,33.74-4.19,14.48-2.49,29.72,4.79,42.92,9.93,18.01,28.88,29.2,49.47,29.2,9.45,0,18.85-2.43,27.19-7.02,13.2-7.28,22.78-19.26,26.96-33.74,4.19-14.48,2.49-29.72-4.79-42.92-9.93-18.01-28.88-29.2-49.47-29.2Z"/>
        <polygon class="cls-18" points="2665.88 928.05 2679.11 954.86 2708.7 959.16 2687.29 980.03 2692.34 1009.51 2665.88 995.59 2639.41 1009.51 2644.46 980.03 2623.05 959.16 2652.64 954.86 2665.88 928.05"/>
      </g>
      <g>
        <path class="cls-14" d="m1570.13,174.39c-.48.59-.98,1.17-1.49,1.74-.17.19-.35.39-.52.57-.4.43-.8.86-1.21,1.28-19.59,20-51.64,21.26-72.76,2.44-20.15-17.95-23.29-47.89-8.24-69.49,1.2-1.72,2.51-3.39,3.95-5,.51-.58,1.04-1.14,1.57-1.69.52-.53,1.04-1.06,1.58-1.56,1.64-1.56,3.36-2.99,5.15-4.29,2.66-1.94,5.46-3.61,8.37-5,9.02-4.3,19.06-5.92,28.86-4.78,10.4,1.21,20.55,5.52,28.96,13.01,21.18,18.88,23.57,50.99,5.78,72.75Z"/>
        <path class="cls-8" d="m1529.65,189.53c-11.8,0-23.04-4.27-31.92-12.18-9.59-8.54-15.27-20.31-16.01-33.12-.74-12.82,3.56-25.16,12.1-34.75,8.54-9.59,20.31-15.28,33.12-16.01,12.81-.75,25.16,3.56,34.75,12.1s15.27,20.31,16.01,33.12c.74,12.82-3.56,25.16-12.1,34.75-8.54,9.59-20.3,15.27-33.12,16.01-.95.06-1.89.08-2.83.08Zm.12-93.28c-.89,0-1.77.03-2.66.08-12.05.7-23.12,6.04-31.15,15.06-8.03,9.02-12.07,20.62-11.38,32.67.7,12.05,6.04,23.12,15.06,31.15,9.02,8.03,20.62,12.07,32.67,11.38,12.05-.7,23.12-6.04,31.15-15.06,8.03-9.02,12.07-20.62,11.38-32.67-.7-12.05-6.04-23.12-15.06-31.15-8.35-7.44-18.92-11.45-30.01-11.45Z"/>
        <polygon class="cls-8" points="1517.94 108.08 1535.08 124.81 1558.58 120.17 1547.97 141.64 1559.65 162.56 1535.94 159.1 1519.66 176.67 1515.62 153.06 1493.88 143 1515.09 131.86 1517.94 108.08"/>
      </g>
      <g>
        <path class="cls-14" d="m1415.86,1594.86c-.86,1.05-1.74,2.09-2.66,3.12-.31.35-.62.69-.93,1.03-.71.78-1.43,1.53-2.16,2.28-34.99,35.72-92.24,37.98-129.97,4.37-35.99-32.06-41.6-85.53-14.72-124.13,2.14-3.08,4.49-6.06,7.05-8.93.92-1.03,1.85-2.04,2.81-3.01.92-.95,1.87-1.89,2.82-2.79,2.93-2.78,6.01-5.33,9.2-7.66,4.74-3.47,9.75-6.45,14.95-8.92,16.12-7.68,34.04-10.57,51.55-8.53,18.58,2.16,36.7,9.86,51.73,23.24,37.84,33.71,42.09,91.07,10.33,129.94Z"/>
        <path class="cls-8" d="m1343.55,1621.89c-21.07,0-41.15-7.63-57.01-21.76-17.12-15.26-27.28-36.27-28.6-59.17-1.32-22.9,6.35-44.94,21.61-62.06,15.26-17.12,36.27-27.28,59.17-28.6,22.88-1.34,44.94,6.35,62.06,21.61,17.13,15.26,27.28,36.27,28.61,59.17,1.32,22.9-6.36,44.94-21.61,62.06-15.26,17.12-36.27,27.28-59.17,28.6-1.69.1-3.38.15-5.06.15Zm.22-166.62c-1.58,0-3.16.05-4.75.14-21.53,1.24-41.29,10.79-55.64,26.9-14.35,16.1-21.56,36.83-20.32,58.36,1.24,21.53,10.79,41.29,26.9,55.64,16.1,14.35,36.83,21.57,58.36,20.32,21.53-1.24,41.29-10.79,55.64-26.9,14.35-16.1,21.56-36.83,20.32-58.36-1.24-21.53-10.79-41.29-26.9-55.64-14.91-13.29-33.8-20.46-53.61-20.46Z"/>
        <polygon class="cls-8" points="1322.63 1476.4 1353.25 1506.28 1395.23 1498 1376.27 1536.36 1397.13 1573.72 1354.79 1567.55 1325.7 1598.92 1318.48 1556.75 1279.65 1538.78 1317.54 1518.89 1322.63 1476.4"/>
      </g>
      <path class="cls-1" d="m3.12,1629.43h2752.1c1.72,0,3.12,1.4,3.12,3.12v1.07c0,1.72-1.4,3.12-3.12,3.12H3.13c-1.73,0-3.13-1.4-3.13-3.13v-1.07c0-1.72,1.4-3.12,3.12-3.12Z"/>
      <g>
        <path class="cls-9" d="m1711.14,987.27s-13.05,8.9-27.56,7.43c-10.77-1.09-21.38-11.06-21.79-11.72l-8.59,14.93s19.63,11.9,36.46,8.64c5.16-1,13.52-6.12,17.3-9.96,4.16-4.23,4.18-9.33,4.18-9.33Z"/>
        <path class="cls-2" d="m1710.79,956.18l21.57-8.94s-2.96,44.84-40.01,58.53c0,0,23.4-30.69,18.44-49.6Z"/>
      </g>
      <path class="cls-28" d="m1862.13,1492.1s9.42,10.67,18.68,10.46c0,0,1.24,11.67-2.11,14.77,0,0-15.86-2.9-19.68-8.7,0,0-3.2-13.92,3.11-16.54Z"/>
      <g>
        <path class="cls-14" d="m1714.35,1345.41s-8.53-10.35-8.41-22.74c.09-9.19,7.71-18.94,8.24-19.33l-13.29-6.12s-8.56,17.52-4.51,31.5c1.24,4.28,6.22,10.96,9.75,13.86,3.9,3.19,8.21,2.82,8.21,2.82Z"/>
        <path class="cls-14" d="m1740.62,1342.72l9.22,17.56s-38.15.94-52.58-29.34c0,0,27.75,17.44,43.37,11.78Z"/>
      </g>
    </g>
  </g>
</svg>