<?xml version="1.0" encoding="UTF-8"?>
<svg id="Layer_2" data-name="Layer 2" xmlns="http://www.w3.org/2000/svg" xmlns:xlink="http://www.w3.org/1999/xlink" viewBox="0 0 300 300">
  <defs>
    <style>
      .cls-1 {
        fill: url(#linear-gradient);
      }

      .cls-1, .cls-2, .cls-3, .cls-4, .cls-5, .cls-6, .cls-7 {
        stroke-width: 0px;
      }

      .cls-2 {
        fill: #ef4136;
      }

      .cls-3 {
        fill: #f5e0cd;
      }

      .cls-4 {
        fill: #f0d0b4;
      }

      .cls-5 {
        fill: #ecc19c;
      }

      .cls-6 {
        fill: url(#linear-gradient-2);
      }

      .cls-7 {
        fill: #cf9e76;
      }
    </style>
    <linearGradient id="linear-gradient" x1="107.85" y1="109.99" x2="107.85" y2="7.35" gradientUnits="userSpaceOnUse">
      <stop offset=".23" stop-color="#ef4136"/>
      <stop offset=".57" stop-color="#ef4831"/>
      <stop offset="1" stop-color="#f15a29"/>
    </linearGradient>
    <linearGradient id="linear-gradient-2" x1="204.39" y1="99.69" x2="204.39" y2="28.2" gradientUnits="userSpaceOnUse">
      <stop offset="0" stop-color="#ef4136"/>
      <stop offset=".4" stop-color="#ef4633"/>
      <stop offset=".93" stop-color="#f0572a"/>
      <stop offset="1" stop-color="#f15a29"/>
    </linearGradient>
  </defs>
  <g id="Layer_1-2" data-name="Layer 1">
    <g>
      <path class="cls-5" d="m165.74,300s-30.2-79.9,10.97-111.35c17.9-13.67,37.18-23.35,51.87-32.81,4.48-2.88,32.96-11.06,23.22,7.88-10.69,20.78-59.28,39.98-53.13,52.88,2.36,4.96,55.89-36.61,61.04-46.22,3.95-7.38-6.55-41.34-.44-69.29,2.23-10.22,4.39-17.2,10.83-18.34,0,0-2.51-13.33,4.98-17.48,4.39-2.44,11.17-1.1,11.17,6.63,0,0,8.91-1.97,10.08,6.63,1.63,11.96,7.17,88.21.41,101.11-28.98,55.32-128.36,98.88-130.99,120.37Z"/>
      <path class="cls-7" d="m286.24,71.89s-.54.09-1.33.63c-.78.53-1.75,1.54-2.58,3.04-1.69,3.03-2.53,7.99-2.68,13.93-.04,2.99.04,6.2.29,9.68.19,3.5.39,7.18.59,11,.32,7.63.62,15.78.57,23.99-.09,4.11-.15,8.2-.72,12.4-.19,1.11-.33,2.03-.85,3.48-.15.36-.56,1.1-.88,1.57-.31.47-.62.89-.94,1.31-1.26,1.66-2.56,3.15-3.86,4.61-5.27,5.75-10.38,10.85-14.93,15.07-4.53,4.24-8.37,7.7-11.15,10.02-2.79,2.32-4.49,3.51-4.49,3.51,0,0,1.54-1.38,4-4,2.49-2.6,6.02-6.34,10.11-10.95,4.05-4.63,8.89-9.97,13.65-15.93,1.19-1.48,2.39-3,3.46-4.55.26-.39.52-.77.74-1.15.21-.37.3-.5.53-1.06.06-.46.24-1.52.28-2.4.23-3.78.12-7.87-.01-11.89-.11-4.06-.23-8.12-.35-12.11-.07-4.01-.15-7.96-.22-11.78,0-3.82.01-7.52.02-11.03.08-3.53.26-6.95.66-10.05.53-3.11,1.02-5.96,1.98-8.39.91-2.42,1.99-4.45,3.18-5.92,1.16-1.49,2.47-2.34,3.41-2.69.95-.37,1.49-.33,1.49-.33Z"/>
      <path class="cls-7" d="m251.8,163.72s-.13.26-.37.77c-.22.5-.64,1.22-1.23,2.12-1.17,1.76-3.09,4.11-5.62,6.67-2.51,2.58-5.59,5.41-9,8.29-3.38,2.91-7.12,5.81-10.82,8.75-3.75,2.85-7.5,5.71-11.01,8.38-3.49,2.67-6.73,5.17-9.36,7.44-1.29,1.16-2.49,2.21-3.42,3.23-.96,1.01-1.67,1.96-2.18,2.8-.43.85-.66,1.6-.66,2.13.05.54.08.83.08.83,0,0-.13-.28-.37-.79-.17-.55-.27-1.43-.04-2.52.28-1.05.74-2.33,1.52-3.6.73-1.32,1.71-2.69,2.85-4.11,4.56-5.72,11.82-12.02,19.31-17.84,3.79-2.87,7.58-5.7,11.21-8.26,3.62-2.55,7-4.92,9.89-6.96,2.88-2.05,5.25-3.79,6.82-5.12,1.56-1.29,2.38-2.21,2.38-2.21Z"/>
      <path class="cls-7" d="m270.09,82.75s-.33,4.92-.81,12.28c-.12,1.84-.25,3.84-.29,5.95-.05,2.11-.16,4.34-.17,6.64.05,4.62-.03,9.51.23,14.44.49,9.84.98,19.68,1.35,27.07.17,3.7.25,6.81.29,9.01-.04,2.29-5.54,5.61-5.54,5.61l.24-2.57s.11-1.16.29-3.17c.12-2.12.27-5.15.37-8.85.19-7.39.43-17.24.67-27.1.15-4.92.45-9.87.68-14.49.13-2.31.38-4.54.55-6.65.16-2.12.4-4.11.62-5.94.91-7.34,1.51-12.23,1.51-12.23Z"/>
      <path class="cls-4" d="m231.02,163.15s3.91-9.13,13.32-9.89c6.88-.56,6.29,7.31,6.29,7.31,0,0-3.36,7.02-14.34,9.82l-5.27-7.24Z"/>
      <path class="cls-3" d="m231.02,163.15s8.31-.18,5.27,7.24l-5.27-7.24Z"/>
      <path class="cls-5" d="m134.26,300s30.2-79.9-10.98-111.35c-17.9-13.67-37.17-23.35-51.86-32.81-4.48-2.88-32.96-11.06-23.22,7.88,10.68,20.78,59.28,39.98,53.13,52.88-2.36,4.96-55.89-36.61-61.03-46.22-3.95-7.38,6.54-41.34.44-69.29-2.23-10.22-4.39-17.2-10.83-18.34,0,0,2.51-13.33-4.98-17.48-4.39-2.44-11.17-1.1-11.17,6.63,0,0-8.91-1.97-10.08,6.63-1.63,11.96-7.17,88.21-.41,101.11,28.98,55.32,128.36,98.88,130.99,120.37Z"/>
      <path class="cls-7" d="m13.76,71.89s.54-.04,1.49.33c.94.35,2.25,1.2,3.41,2.69,1.18,1.47,2.27,3.5,3.18,5.92.96,2.43,1.45,5.28,1.98,8.39.4,3.1.58,6.52.66,10.05,0,3.51.01,7.2.02,11.03-.07,3.82-.15,7.77-.22,11.78-.11,3.99-.23,8.05-.34,12.11-.13,4.03-.24,8.11,0,11.89.03.89.21,1.95.28,2.4.23.56.32.69.53,1.06.22.38.48.76.74,1.15,1.06,1.55,2.27,3.08,3.46,4.55,4.76,5.96,9.6,11.29,13.65,15.93,4.09,4.61,7.62,8.35,10.11,10.95,2.47,2.62,4.01,4,4.01,4,0,0-1.7-1.18-4.49-3.51-2.78-2.33-6.62-5.78-11.15-10.02-4.55-4.23-9.66-9.32-14.93-15.07-1.3-1.46-2.6-2.95-3.86-4.61-.31-.42-.63-.84-.93-1.31-.32-.46-.73-1.21-.87-1.57-.52-1.45-.66-2.38-.85-3.48-.57-4.2-.63-8.29-.73-12.4-.05-8.21.25-16.35.57-23.99.2-3.81.4-7.5.59-11,.25-3.47.33-6.68.29-9.68-.15-5.94-.99-10.9-2.68-13.93-.83-1.5-1.8-2.51-2.57-3.04-.79-.54-1.32-.63-1.32-.63Z"/>
      <path class="cls-7" d="m48.2,163.72s.82.92,2.38,2.21c1.57,1.33,3.95,3.07,6.82,5.12,2.9,2.04,6.27,4.41,9.89,6.96,3.63,2.55,7.42,5.39,11.21,8.26,7.49,5.83,14.75,12.13,19.31,17.84,1.14,1.42,2.12,2.78,2.85,4.11.78,1.27,1.24,2.55,1.52,3.6.24,1.09.13,1.98-.04,2.52-.24.51-.37.79-.37.79,0,0,.03-.29.09-.83,0-.54-.23-1.28-.66-2.13-.51-.84-1.22-1.79-2.18-2.8-.93-1.02-2.13-2.08-3.42-3.23-2.62-2.27-5.87-4.76-9.36-7.44-3.51-2.67-7.26-5.53-11.01-8.38-3.7-2.93-7.45-5.84-10.83-8.75-3.4-2.88-6.49-5.71-8.99-8.29-2.52-2.56-4.45-4.9-5.62-6.67-.59-.89-1-1.61-1.23-2.12-.24-.51-.37-.77-.37-.77Z"/>
      <path class="cls-7" d="m29.91,82.75s.33,4.92.81,12.28c.12,1.84.25,3.84.28,5.95.05,2.11.16,4.34.17,6.64-.05,4.62.03,9.51-.23,14.44-.49,9.84-.99,19.68-1.35,27.07-.17,3.7-.25,6.81-.29,9.01.04,2.29,5.55,5.61,5.55,5.61l-.24-2.57s-.1-1.16-.29-3.17c-.12-2.12-.27-5.15-.37-8.85-.19-7.39-.43-17.24-.68-27.1-.15-4.92-.45-9.87-.68-14.49-.14-2.31-.38-4.54-.55-6.65-.16-2.12-.4-4.11-.62-5.94-.91-7.34-1.51-12.23-1.51-12.23Z"/>
      <path class="cls-4" d="m68.98,163.15s-3.91-9.13-13.32-9.89c-6.88-.56-6.29,7.31-6.29,7.31,0,0,3.37,7.02,14.34,9.82l5.27-7.24Z"/>
      <path class="cls-3" d="m68.98,163.15s-8.31-.18-5.27,7.24l5.27-7.24Z"/>
    </g>
    <g>
      <path class="cls-2" d="m208.52,19.84c24.11,2.66,37.22,18.21,37.1,41.85-.14,28.28-28.12,50.16-48.4,66.61-13.96,11.32-37.02,27.31-43.08,44.87-.35-9.21-9.21-18.04-15.74-24.1-4.37-4.06-8.8-7.96-14.32-10.65-24.97-12.14-54.93-23.52-66.43-50.96-12.49-29.82-3.67-63.43,26.36-79.33,16.71-8.85,37.76-11.64,54.98-2.48,20.61,10.96,22.82,29.6,22.47,50.28,9.15-14.93,15.52-30.26,34.35-35.1,4.23-1.09,8.53-1.45,12.71-.99Z"/>
      <path class="cls-1" d="m75.05,90.86c-11.2-12.3-16.84-30.81-11.97-46.9,3.09-10.21,9.81-19.15,18.14-25.9,9.73-7.89,23.07-11.52,35.58-10.55,8.12.63,17.05,3.08,23.31,8.39,8.75,7.41,13.48,17.77,14.1,29.15.67,12.41-.63,26.26-6.91,37.26-5.86,10.27-15.12,18.93-25.89,24.15-7.37,3.58-17.01,5.1-24.44,1.44-8.35-4.12-15.72-10.22-21.92-17.03Z"/>
      <path class="cls-6" d="m236.52,66.54c-1.6,11.14-8.41,22.48-18.06,28.7-10.19,6.56-25.89,5.72-35.65-1.58-7.1-5.32-10.51-15.81-10.99-24.1-.81-13.94,6.04-29.75,18.69-36.93,7.8-4.42,19.59-5.96,28.27-2.63,5.75,2.21,10.66,6.13,13.7,11.45,4.37,7.63,5.26,16.54,4.03,25.09Z"/>
    </g>
  </g>
</svg>