<?xml version="1.0" encoding="utf-8"?>
<!-- Generator: Adobe Illustrator 27.9.0, SVG Export Plug-In . SVG Version: 6.00 Build 0)  -->
<svg version="1.1" id="Layer_1" xmlns="http://www.w3.org/2000/svg" xmlns:xlink="http://www.w3.org/1999/xlink" x="0px" y="0px"
	 viewBox="0 0 2900 2915.3" style="enable-background:new 0 0 2900 2915.3;" xml:space="preserve">
<style type="text/css">
	.st0{fill:url(#SVGID_1_);}
	.st1{clip-path:url(#SVGID_00000070828433094116621830000010430980020869962899_);}
	.st2{fill:#FFFFFF;}
	.st3{fill:url(#SVGID_00000079481077751514877010000017681565789924566969_);}
	.st4{clip-path:url(#SVGID_00000089541928247314579600000009714776877047845280_);}
	.st5{fill:url(#SVGID_00000084530474402453271920000013180937922073956771_);}
	.st6{fill:url(#SVGID_00000156559653770553890830000016992733783686538169_);}
	.st7{clip-path:url(#SVGID_00000018231019113907924270000007358431475192138135_);}
	.st8{fill:url(#SVGID_00000170993921609722039860000006136423146197215898_);}
	.st9{fill:url(#SVGID_00000083083555769737784730000009660271196840878760_);}
	.st10{fill:url(#SVGID_00000143606707610436349070000006644562524768275860_);}
	.st11{opacity:0.3;fill:url(#SVGID_00000177464966859951020630000018147359346439883403_);enable-background:new    ;}
	.st12{fill:url(#SVGID_00000087411655413257351400000000672350167962932155_);}
	.st13{opacity:0.3;}
	.st14{fill:url(#SVGID_00000127730382283642573770000005833971452587957653_);}
	.st15{fill:url(#SVGID_00000088126560470480889340000017116763725172079762_);}
	.st16{fill:url(#SVGID_00000073722373943473583800000016682510322632479881_);}
	.st17{fill:url(#SVGID_00000121280329349958334490000013516371244971978119_);}
	.st18{fill:#D8DEE8;}
	.st19{fill:#F4F7FA;}
	.st20{fill:#26264F;}
	.st21{fill:url(#SVGID_00000183211615899489020750000004097355747934015679_);}
	.st22{fill:url(#SVGID_00000183212616606723646270000017396218617478597044_);}
	.st23{fill:url(#SVGID_00000142151218675200765610000004897881257286422659_);}
	.st24{opacity:0.15;}
	.st25{fill:url(#SVGID_00000137098172463959201730000009532293379394650009_);}
	.st26{opacity:0.3;fill:url(#SVGID_00000002353496520963372370000012765642408062088577_);enable-background:new    ;}
	.st27{opacity:0.3;fill:url(#SVGID_00000119827328497030127630000009281826937707580310_);enable-background:new    ;}
	.st28{opacity:0.4;fill:#F4F7FA;enable-background:new    ;}
	.st29{fill:url(#SVGID_00000022527019712877655580000014210393271471090877_);}
	.st30{fill:url(#SVGID_00000018941679656847675020000009268422106801557162_);}
	.st31{fill:url(#SVGID_00000183219715399782643290000000164640975860986297_);}
	.st32{fill:#FCB048;}
	.st33{fill:url(#SVGID_00000022544873414131441540000008688952437649691811_);}
	.st34{fill:url(#SVGID_00000110439581309247977140000005665599465143616416_);}
	.st35{fill:url(#SVGID_00000089551375338827709100000004389107080034262176_);}
	.st36{fill:url(#SVGID_00000050621836799296956230000005911387983350803104_);}
	.st37{fill:url(#SVGID_00000036242220636875093810000012921801786763398828_);}
	.st38{fill:url(#SVGID_00000016765533199061334110000016094204454647177347_);}
	.st39{fill:url(#SVGID_00000136370240157770933200000007406148014734182334_);}
	.st40{fill:url(#SVGID_00000108267406402915080650000015872269884069843647_);}
	.st41{fill:url(#SVGID_00000138546210411541783060000000198022964085549462_);}
	.st42{fill:url(#SVGID_00000018214796378522072650000005523787036273220516_);}
	.st43{fill:url(#SVGID_00000087374286080933821510000006292527606634429827_);}
	.st44{fill:url(#SVGID_00000119801326230705659810000010005079126772171663_);}
	.st45{fill:url(#SVGID_00000023985887946519036710000014971672093212552578_);}
	.st46{fill:url(#SVGID_00000094593357757275085380000010103695781673210805_);}
	.st47{fill:url(#SVGID_00000071535894053346526430000011411651318185842328_);}
	.st48{fill:url(#SVGID_00000178924390380537387610000002197693756558281136_);}
	.st49{fill:url(#SVGID_00000107589424419674362870000010151096443767177390_);}
	.st50{fill:url(#SVGID_00000010311978773258567400000011659978603287374213_);}
	.st51{fill:url(#SVGID_00000066484184637711570710000000711501544588394939_);}
	.st52{fill:url(#SVGID_00000090269749489578830030000014496299889070312337_);}
	.st53{fill:url(#SVGID_00000012442562097639536550000012044928852947821997_);}
	.st54{fill:url(#SVGID_00000031186151571100227110000011176053418250054328_);}
	.st55{fill:url(#SVGID_00000018956888024928835300000000806310302443593863_);}
	.st56{fill:url(#SVGID_00000113348098435952916390000012076900807408357296_);}
	.st57{fill:url(#SVGID_00000093895522907809043080000000058236076305611416_);}
	.st58{fill:url(#SVGID_00000162318177303692022830000018350641398658792107_);}
	.st59{fill:url(#SVGID_00000148620446516517260340000005906396668640408236_);}
	.st60{fill:url(#SVGID_00000055669787669693692310000002499098304917822654_);}
	.st61{fill:url(#SVGID_00000097459650004862918420000007711254352197193870_);}
	.st62{fill:url(#SVGID_00000018928683378721811670000017526360764895593350_);}
	.st63{fill:url(#SVGID_00000182500946282377022620000014563910100516467370_);}
	.st64{fill:url(#SVGID_00000041283800513051040910000016423892778564091798_);}
	.st65{fill:url(#SVGID_00000054944990483533214180000003551332970427680402_);}
	.st66{fill:url(#SVGID_00000023985980630486229700000005554705548121983398_);}
	.st67{fill:url(#SVGID_00000152958028734641920000000008345030614441733026_);}
	.st68{fill:url(#SVGID_00000097495929182203226200000002130611594675936912_);}
	.st69{opacity:0.3;fill:url(#SVGID_00000011021018861363538410000015010450433153293486_);enable-background:new    ;}
	.st70{fill:url(#SVGID_00000028291112461153898560000015897279270461476757_);}
	.st71{fill:url(#SVGID_00000107580941399158057930000012806483782160776064_);}
	.st72{fill:url(#SVGID_00000106105885129227617670000014147257403486926471_);}
	.st73{fill:url(#SVGID_00000077308301308084104210000009002594073565367977_);}
	.st74{fill:url(#SVGID_00000156557674137263200600000012239746273808208536_);}
	.st75{fill:url(#SVGID_00000161616970838504685940000002076153557144728226_);}
	.st76{fill:url(#SVGID_00000121995164904509230440000008354032223982114740_);}
	.st77{fill:url(#SVGID_00000182513323867910477360000014190883298317456057_);}
	.st78{fill:url(#SVGID_00000110459527965609636020000002608023239220682172_);}
</style>
<g id="Layer_2_00000095335232221438507470000016986159364690515081_">
	<g>
		<g>
			<g>
				
					<linearGradient id="SVGID_1_" gradientUnits="userSpaceOnUse" x1="1879.9148" y1="2494.5996" x2="2427.3267" y2="752.8337" gradientTransform="matrix(1 0 0 -1 0 2913.8899)">
					<stop  offset="0" style="stop-color:#FF9085"/>
					<stop  offset="1" style="stop-color:#FB6FBB"/>
				</linearGradient>
				<path class="st0" d="M2195.4,2454.8c-89.7-104.5-206.7-272.5-245.6-498.2c-44.7-259.1,54.4-357.4,55.9-655.6
					c2.2-425.7-278.7-612.6-167-790.4c54.5-86.7,175.3-138.7,272.2-116.8c276.6,62.5,497.2,757.4,268.9,1163.8
					c-103.3,183.8-242.2,227-292.9,429.1C2042,2165.3,2124.2,2340.3,2195.4,2454.8L2195.4,2454.8z"/>
				<g>
					<defs>
						<path id="SVGID_00000000204933626928128030000015003393121159074467_" d="M2195.4,2454.8c-89.7-104.5-206.7-272.5-245.6-498.2
							c-44.7-259.1,54.4-357.4,55.9-655.6c2.2-425.7-278.7-612.6-167-790.4c54.5-86.7,175.3-138.7,272.2-116.8
							c276.6,62.5,497.2,757.4,268.9,1163.8c-103.3,183.8-242.2,227-292.9,429.1C2042,2165.3,2124.2,2340.3,2195.4,2454.8
							L2195.4,2454.8z"/>
					</defs>
					<clipPath id="SVGID_00000176029826212619350310000009880254964024039853_">
						<use xlink:href="#SVGID_00000000204933626928128030000015003393121159074467_"  style="overflow:visible;"/>
					</clipPath>
					<g style="clip-path:url(#SVGID_00000176029826212619350310000009880254964024039853_);">
						<g>
							<path class="st2" d="M2040.4,2160.5c-8.5-56.7-12.2-114.5-11-171.6c2.7-131.5,31.1-215.2,67.1-321.3
								c23.4-68.9,49.9-147,73.9-252.9c45-198.2,56.4-265.8,50.7-364.3c-11.2-195.1-83.6-343.2-125.8-414.1
								c-59.8-100.6-137.6-187.4-231.3-257.9l2.2-3.1c94.1,70.8,172.2,157.9,232.3,258.9c42.3,71.2,115.1,220,126.3,415.9
								c5.7,99-5.7,166.8-50.8,365.4c-24.1,106.1-50.6,184.3-74.1,253.3c-35.9,105.7-64.2,189.3-66.9,320.1
								c-1.2,57,2.5,114.5,11,171L2040.4,2160.5L2040.4,2160.5z"/>
							<path class="st2" d="M2204.2,916.9l-1.3-2.9c-54.2-123.9-166.3-171-250.9-188.7c-91.8-19.2-171.9-8.8-172.7-8.7l-0.5-3.8
								c0.8-0.1,81.4-10.5,173.8,8.7c84.8,17.7,197.1,64.7,252.4,187.9c9.1-12.5,49.4-70.5,72.4-154.6
								c23.9-87.4,33.5-221.8-56.6-365.3l3.2-2c90.8,144.8,81.1,280.3,57,368.5c-26.1,95.5-74.4,157.7-74.9,158.3L2204.2,916.9
								L2204.2,916.9z"/>
							<path class="st2" d="M2187.3,1361.6c-1.6,0-2.5,0-2.6,0l-1.6-0.1l-0.2-1.6c-19.4-136.2-84.5-214.7-135.6-256.6
								c-55.5-45.4-107-58.8-107.5-58.9l0.9-3.7c0.5,0.1,52.8,13.7,108.9,59.5c51.5,42.2,117,121,136.9,257.5h0.5
								c23.4,0,237.4-5.4,340.9-193.8l3.3,1.9c-57.6,104.8-148.7,152.4-215,173.9C2252.8,1360.3,2199.4,1361.6,2187.3,1361.6
								L2187.3,1361.6z"/>
							<path class="st2" d="M2170.6,1651.9c-40.1,0-64.1-8.4-64.4-8.5l-1.3-0.5v-1.4c1.7-147.5-157.8-319.3-159.5-321l2.7-2.6
								c1.6,1.7,161.2,173.5,160.5,322.2c7.3,2.3,45.7,12.9,103.2,5c58.9-8.1,150.3-38,251.5-133.9l2.5,2.8
								c-102.1,96.7-194.4,126.8-253.8,134.9C2197,1651.1,2183,1651.9,2170.6,1651.9z"/>
						</g>
					</g>
				</g>
			</g>
			<g>
				
					<linearGradient id="SVGID_00000137845577470597111480000013942089364861387393_" gradientUnits="userSpaceOnUse" x1="2862.5205" y1="2246.2437" x2="3581.4109" y2="3548.5337" gradientTransform="matrix(1 0 0 -1 0 2913.8899)">
					<stop  offset="0" style="stop-color:#E38DDD"/>
					<stop  offset="1" style="stop-color:#9571F6"/>
				</linearGradient>
				<path style="fill:url(#SVGID_00000137845577470597111480000013942089364861387393_);" d="M1994.7,2316.9
					c-47.2-75.8-107.8-199.8-89.9-341.7c31.2-247.5,266.2-270.9,376.4-569c88.8-240.5-17.2-352.1,112.9-542.5
					c21.8-31.9,135.1-204.4,278.2-191.3c80.7,7.4,135,70.3,145.2,82.1c154.1,178.6,81.3,593.1-128.1,858.4
					c-120.3,152.4-182.2,146.1-415,363.7C2137.6,2104.4,2047.9,2231.8,1994.7,2316.9L1994.7,2316.9z"/>
				<g>
					<defs>
						<path id="SVGID_00000026151310852683919500000012070202332994451886_" d="M1994.7,2316.9c-47.2-75.8-107.8-199.8-89.9-341.7
							c31.2-247.5,266.2-270.9,376.4-569c88.8-240.5-17.2-352.1,112.9-542.5c21.8-31.9,135.1-204.4,278.2-191.3
							c80.7,7.4,135,70.3,145.2,82.1c154.1,178.6,81.3,593.1-128.1,858.4c-120.3,152.4-182.2,146.1-415,363.7
							C2137.6,2104.4,2047.9,2231.8,1994.7,2316.9L1994.7,2316.9z"/>
					</defs>
					<clipPath id="SVGID_00000049190487180270251860000001263734850590636717_">
						<use xlink:href="#SVGID_00000026151310852683919500000012070202332994451886_"  style="overflow:visible;"/>
					</clipPath>
					<g style="clip-path:url(#SVGID_00000049190487180270251860000001263734850590636717_);">
						<g>
							<path class="st2" d="M2008.7,2425.6c-41.2-212-20-375.5,63.1-485.9c40.7-54.1,81.3-77.3,124.3-101.9
								c46.2-26.4,94-53.8,143.2-122.9c47.9-67.2,55.1-115.2,64.2-175.9c8.2-54.7,18.5-122.8,62-226.3
								c38.1-90.7,72.7-140.4,103.3-184.2c33-47.4,59.1-84.9,77.4-157c29.8-117.8,17.2-247-37.4-384l3.5-1.4
								c54.9,137.8,67.6,267.8,37.6,386.4c-18.4,72.8-44.7,110.5-77.9,158.2c-30.4,43.7-64.9,93.1-102.9,183.5
								c-43.3,103.1-53.5,170.9-61.7,225.4c-9.2,61.3-16.5,109.7-64.9,177.6c-49.8,69.8-97.9,97.4-144.4,124
								c-42.7,24.4-82.9,47.5-123.2,100.9c-82.4,109.5-103.4,271.9-62.4,482.8L2008.7,2425.6L2008.7,2425.6z"/>
							<path class="st2" d="M2555.4,1151.4l-0.2-2.5c-0.2-3.1-26.7-310.3-171.1-379.8l1.6-3.4c139.3,67.1,170.2,350.5,173,380.4
								c147.2-58.7,232.2-161.2,277.6-237.1c49.4-82.6,63.9-152.3,64-153l3.7,0.8c-0.1,0.7-14.7,71-64.5,154.2
								c-45.9,76.8-132.1,180.7-281.7,239.6L2555.4,1151.4L2555.4,1151.4z"/>
							<path class="st2" d="M2430,1425.7c-0.9,0-1.4,0-1.5,0l-1.6,0l-0.2-1.6c-10.6-82.2-47.8-171.7-77.1-232.3
								c-31.8-65.7-61.4-112.5-61.7-113l3.1-2.1c0.3,0.5,30,47.5,61.9,113.3c29.2,60.4,66.3,149.6,77.3,231.8
								c11.9,0,88.9-1.4,186.4-32.5c97.4-31.1,235.8-99.1,341.7-246.6l3,2.2c-106.6,148.4-245.8,216.8-343.7,248
								C2519.2,1424.5,2441.5,1425.7,2430,1425.7L2430,1425.7z"/>
							<path class="st2" d="M2345.8,1826.2c-67.3,0-107.2-9.2-108.1-9.5l-1.9-0.5l0.6-1.9c50.9-175.8-79.9-373.9-81.3-375.9l3.1-2.1
								c1.3,2,132.2,200.1,82.3,377.2c21.5,4.5,219.2,41.1,475.7-75.8l1.5,3.5C2564.8,1810.8,2432.6,1826.2,2345.8,1826.2
								L2345.8,1826.2z"/>
						</g>
					</g>
				</g>
			</g>
			
				<linearGradient id="SVGID_00000078756932606194284520000012856572469132245903_" gradientUnits="userSpaceOnUse" x1="-595.3107" y1="2461.7993" x2="-1879.4263" y2="1406.9866" gradientTransform="matrix(0.9976 -6.906003e-02 -6.906003e-02 -0.9976 3592.8174 3929.6736)">
				<stop  offset="0" style="stop-color:#AA80F9"/>
				<stop  offset="1" style="stop-color:#6165D7"/>
			</linearGradient>
			<path style="fill:url(#SVGID_00000078756932606194284520000012856572469132245903_);" d="M1963.1,2248.8
				c31-51.7,84.4-130.3,167.9-207.8c148.5-138,244-135.3,286.7-242.1c44.2-110.6-37.2-165.7,18.3-291.9
				c4.7-10.6,65.3-143.6,168.4-148.1c72.1-3.1,126.3,58.3,151.7,87.1c98.6,111.9,156,322.4,59.5,479.8
				c-91.5,149.3-274.9,175.7-333.3,183.7c-102.5,14.1-139.4-13-242.4,4.2C2114.7,2134.7,2021.2,2199.3,1963.1,2248.8L1963.1,2248.8z
				"/>
		</g>
		<g>
			<g>
				
					<linearGradient id="SVGID_00000182518625288054235410000004052625114431318938_" gradientUnits="userSpaceOnUse" x1="4927.7451" y1="-8586.54" x2="6175.02" y2="-11295.2627" gradientTransform="matrix(1 0 0 -1 0 2913.8899)">
					<stop  offset="0" style="stop-color:#E38DDD"/>
					<stop  offset="1" style="stop-color:#9571F6"/>
				</linearGradient>
				<path style="fill:url(#SVGID_00000182518625288054235410000004052625114431318938_);" d="M905.2,2631.9
					c47.2-75.8,107.8-199.8,89.9-341.7c-31.2-247.5-266.2-270.9-376.4-569c-88.8-240.5,17.2-352.1-112.9-542.5
					c-21.8-31.9-135.1-204.4-278.2-191.3c-80.7,7.4-135,70.3-145.2,82.1C-71.7,1248.1,1.1,1662.7,210.5,1928
					c120.3,152.4,182.2,146.1,415,363.7C762.4,2419.5,852,2546.9,905.2,2631.9L905.2,2631.9z"/>
				<g>
					<defs>
						<path id="SVGID_00000065781140777355143800000005431624228577091457_" d="M905.2,2631.9c47.2-75.8,107.8-199.8,89.9-341.7
							c-31.2-247.5-266.2-270.9-376.4-569c-88.8-240.5,17.2-352.1-112.9-542.5c-21.8-31.9-135.1-204.4-278.2-191.3
							c-80.7,7.4-135,70.3-145.2,82.1C-71.7,1248.1,1.1,1662.7,210.5,1928c120.3,152.4,182.2,146.1,415,363.7
							C762.4,2419.5,852,2546.9,905.2,2631.9L905.2,2631.9z"/>
					</defs>
					<clipPath id="SVGID_00000087393687802962606330000006089920752068743322_">
						<use xlink:href="#SVGID_00000065781140777355143800000005431624228577091457_"  style="overflow:visible;"/>
					</clipPath>
					<g style="clip-path:url(#SVGID_00000087393687802962606330000006089920752068743322_);">
						<g>
							<path class="st2" d="M891.3,2740.7l-3.7-0.7c41-210.9,20-373.4-62.4-482.9c-40.2-53.4-80.5-76.5-123.2-100.9
								c-46.5-26.6-94.7-54.2-144.4-124c-48.4-67.9-55.7-116.3-64.9-177.6c-8.2-54.5-18.4-122.3-61.7-225.4
								c-38-90.4-72.5-139.8-102.9-183.5c-33.3-47.7-59.5-85.5-77.9-158.2c-30-118.6-17.4-248.6,37.6-386.4l3.5,1.4
								c-54.6,137-67.2,266.2-37.4,384c18.2,72.1,44.3,109.6,77.4,157c30.5,43.8,65.1,93.5,103.3,184.2
								c43.5,103.5,53.7,171.6,62,226.3c9.1,60.8,16.4,108.7,64.2,175.9c49.3,69.1,97,96.5,143.2,122.9
								c43,24.6,83.6,47.8,124.3,101.9C911.2,2365.2,932.5,2528.7,891.3,2740.7L891.3,2740.7z"/>
							<path class="st2" d="M344.5,1466.5l-2.3-0.9c-149.6-58.9-235.8-162.8-281.7-239.6C10.7,1142.8-3.9,1072.5-4,1071.8l3.7-0.8
								c0.1,0.7,14.6,70.4,64.1,153.1c45.4,75.8,130.3,178.3,277.5,237c2.9-29.9,33.8-313.3,173-380.4l1.6,3.4
								C371.5,1153.7,345,1460.9,344.8,1464L344.5,1466.5L344.5,1466.5z"/>
							<path class="st2" d="M470,1740.8c-11.5,0-89.2-1.2-187.6-32.6c-98-31.3-237.2-99.7-343.7-248l3-2.2
								c106,147.5,244.4,215.5,341.8,246.6c97.4,31.1,174.3,32.4,186.3,32.5c11-82.3,48-171.4,77.3-231.8
								c31.9-65.9,61.6-112.9,61.9-113.3l3.1,2.1c-0.3,0.5-29.9,47.3-61.7,113c-29.3,60.6-66.5,150-77.1,232.2l-0.2,1.6l-1.6,0
								C471.4,1740.8,470.9,1740.8,470,1740.8L470,1740.8z"/>
							<path class="st2" d="M554.1,2141.3c-86.7,0-218.9-15.3-371.9-85.1l1.5-3.5c256.5,116.9,454.2,80.3,475.7,75.8
								c-49.9-177,81-375.2,82.3-377.2l3.1,2.1c-1.3,2-132.2,200.1-81.3,375.9l0.6,1.9l-1.9,0.5
								C661.3,2132,621.4,2141.3,554.1,2141.3L554.1,2141.3z"/>
						</g>
					</g>
				</g>
			</g>
			
				<linearGradient id="SVGID_00000182521976538627794320000016845072534460811400_" gradientUnits="userSpaceOnUse" x1="4306.1372" y1="1806.8871" x2="3022.011" y2="752.064" gradientTransform="matrix(-0.9976 -6.906014e-02 6.906014e-02 -0.9976 4241.9023 3929.6736)">
				<stop  offset="0" style="stop-color:#FF9085"/>
				<stop  offset="1" style="stop-color:#FB6FBB"/>
			</linearGradient>
			<path style="fill:url(#SVGID_00000182521976538627794320000016845072534460811400_);" d="M936.8,2563.9
				c-31-51.7-84.4-130.3-167.9-207.8c-148.5-138-244-135.3-286.7-242.1c-44.2-110.6,37.2-165.7-18.3-291.9
				c-4.7-10.6-65.3-143.6-168.4-148.1c-72.1-3.1-126.3,58.3-151.7,87.1c-98.6,111.9-156,322.4-59.5,479.8
				c91.5,149.3,274.9,175.7,333.3,183.7c102.5,14.1,139.4-13,242.4,4.2C785.3,2449.7,878.8,2514.3,936.8,2563.9L936.8,2563.9z"/>
		</g>
		<g>
			
				<linearGradient id="SVGID_00000102518620602326917430000014319595622236777627_" gradientUnits="userSpaceOnUse" x1="390.1479" y1="2434.8718" x2="1150.6893" y2="2467.9402" gradientTransform="matrix(1 0 0 -1 0 2913.8899)">
				<stop  offset="0" style="stop-color:#AB316D"/>
				<stop  offset="1" style="stop-color:#792D3D"/>
			</linearGradient>
			<path style="fill:url(#SVGID_00000102518620602326917430000014319595622236777627_);" d="M1671.9,867.7c-0.7,0.1-1.4,0.1-2.1,0.1
				c-11,0-20.4-9.1-21.4-21.3c-18.9-216-83.4-421.3-181.7-577.9C1379.6,129.8,1275.9,47,1189.2,47h-0.3
				c-315.6,0.7-381.6,791.3-382.2,799.3c-1,12.9-11.4,22.5-23.3,21.4c-11.9-1.1-20.6-12.5-19.6-25.4C766.5,808,834.1,0.8,1188.9,0
				h0.4c102.4,0,216.4,88.2,313,242.1c102.4,163.1,169.5,376.2,189.1,600C1692.4,855,1683.7,866.5,1671.9,867.7L1671.9,867.7z"/>
			
				<linearGradient id="SVGID_00000146473691607034928490000002149448008514529466_" gradientUnits="userSpaceOnUse" x1="310.9461" y1="1175.7181" x2="1022.2584" y2="1175.7181" gradientTransform="matrix(1 0 0 -1 0 2913.8899)">
				<stop  offset="0" style="stop-color:#FFC444"/>
				<stop  offset="1" style="stop-color:#F36F56"/>
			</linearGradient>
			<path style="fill:url(#SVGID_00000146473691607034928490000002149448008514529466_);" d="M355.2,2495.1l415.4,229.5l251.7-842.9
				l-414.7-1130l-117.6,31.5L311.5,2406.1C307.5,2442.8,324.9,2478.4,355.2,2495.1L355.2,2495.1z"/>
			
				<linearGradient id="SVGID_00000081624660361417708780000011617917479376179115_" gradientUnits="userSpaceOnUse" x1="502.9644" y1="1175.7183" x2="1022.248" y2="1175.7183" gradientTransform="matrix(1 0 0 -1 0 2913.8899)">
				<stop  offset="0" style="stop-color:#FFC444"/>
				<stop  offset="1" style="stop-color:#F36F56"/>
			</linearGradient>
			<path style="opacity:0.3;fill:url(#SVGID_00000081624660361417708780000011617917479376179115_);enable-background:new    ;" d="
				M1022.2,1881.7l-414.7-1130l-69.4,18.6c-9.6,150.9-5.4,275,1.1,365.5c27.8,384.7,120.1,491.8,75.4,760.2
				c-37.2,223.2-118.4,253.5-111.3,403.6c7.7,163.5,112.2,300.5,236.5,408.2l30.6,16.9L1022.2,1881.7L1022.2,1881.7z"/>
			
				<linearGradient id="SVGID_00000094612430747851232880000014585803220323654591_" gradientUnits="userSpaceOnUse" x1="1372.8562" y1="1298.1583" x2="2626.8533" y2="-814.6392" gradientTransform="matrix(1 0 0 -1 0 2913.8899)">
				<stop  offset="0" style="stop-color:#FFC444"/>
				<stop  offset="1" style="stop-color:#F36F56"/>
			</linearGradient>
			<polygon style="fill:url(#SVGID_00000094612430747851232880000014585803220323654591_);" points="607.5,751.7 2171.9,838.2 
				2669,2557.7 770.6,2724.6 			"/>
			<g class="st13">
				
					<linearGradient id="SVGID_00000101809732642786627250000013965252332886019005_" gradientUnits="userSpaceOnUse" x1="1368.0924" y1="1487.8107" x2="2385.9314" y2="-902.5606" gradientTransform="matrix(1 0 0 -1 0 2913.8899)">
					<stop  offset="0" style="stop-color:#FFC444"/>
					<stop  offset="1" style="stop-color:#F36F56"/>
				</linearGradient>
				<path style="fill:url(#SVGID_00000101809732642786627250000013965252332886019005_);" d="M2171.9,838.2l-815.8-45.1
					c-13.8,22-32,57.8-35.4,103.5c-20.1,270.3,528.9,357.8,578.1,689.7c37.4,252.6-193,544.1-398.6,674
					c-216.6,136.8-363.4,67.5-509.9,219.4c-64.4,66.7-103.6,150.2-126.9,236.7L2669,2557.7L2171.9,838.2L2171.9,838.2z"/>
			</g>
			
				<linearGradient id="SVGID_00000129887095233478671380000000842485645138169520_" gradientUnits="userSpaceOnUse" x1="1558.0178" y1="3134.6096" x2="1222.228" y2="268.3664" gradientTransform="matrix(1 0 0 -1 0 2913.8899)">
				<stop  offset="0" style="stop-color:#AB316D"/>
				<stop  offset="1" style="stop-color:#792D3D"/>
			</linearGradient>
			<path style="fill:url(#SVGID_00000129887095233478671380000000842485645138169520_);" d="M1087.3,906.5c-9.8,0-18.6-7.3-21-18.2
				c-4.4-20.5-106.2-504.4,37.3-741.9c41.1-68.1,98.6-109.6,170.8-123.5c370.9-71.3,599.3,798.1,608.8,835.1
				c3.2,12.5-3.5,25.5-14.9,29c-11.5,3.5-23.3-3.8-26.6-16.3c-2.2-8.7-227-865.7-559.9-801.6c-60.9,11.7-107.5,45.4-142.3,103.1
				c-133.4,220.8-32.4,700.4-31.3,705.3c2.7,12.6-4.5,25.3-16.1,28.3C1090.6,906.3,1089,906.5,1087.3,906.5L1087.3,906.5z"/>
			
				<linearGradient id="SVGID_00000167362811722610593470000005934216468017400205_" gradientUnits="userSpaceOnUse" x1="1738.8511" y1="3243.0095" x2="769.7134" y2="1399.2943" gradientTransform="matrix(1 0 0 -1 0 2913.8899)">
				<stop  offset="0" style="stop-color:#AB316D"/>
				<stop  offset="1" style="stop-color:#792D3D"/>
			</linearGradient>
			
				<ellipse style="fill:url(#SVGID_00000167362811722610593470000005934216468017400205_);" cx="1087.5" cy="910" rx="60.2" ry="65.7"/>
			
				<linearGradient id="SVGID_00000122692412746095248950000012219993572973500318_" gradientUnits="userSpaceOnUse" x1="2339.313" y1="2897.6543" x2="1370.1755" y2="1053.9495" gradientTransform="matrix(1 0 0 -1 0 2913.8899)">
				<stop  offset="0" style="stop-color:#AB316D"/>
				<stop  offset="1" style="stop-color:#792D3D"/>
			</linearGradient>
			
				<ellipse style="fill:url(#SVGID_00000122692412746095248950000012219993572973500318_);" cx="1872.7" cy="904" rx="60.2" ry="65.7"/>
			<path class="st18" d="M2291.6,1665.6l-485.7-481.2c-10.2-10.1-24.9-13-37.7-7.3l-259.2,115c-21.8,9.7-29.4,39.3-15.2,59.9
				l423,615.4c11.7,17,33.7,20.8,49.6,8.5l321.9-249.2C2306.9,1712.2,2308.6,1682.5,2291.6,1665.6z M1736.2,1353.6
				c-16.4,12-42.2,1.4-57.6-23.7s-14.7-55.1,1.7-67.2c16.4-12,42.2-1.4,57.6,23.7S1752.6,1341.6,1736.2,1353.6z"/>
			<path class="st19" d="M2291.6,1659.1l-485.7-481.2c-10.2-10.1-24.9-13-37.7-7.3l-259.2,115c-21.8,9.7-29.4,39.3-15.2,59.9
				l423,615.4c11.7,17,33.7,20.8,49.6,8.5l321.9-249.2C2306.9,1705.6,2308.6,1675.9,2291.6,1659.1z M1736.2,1347
				c-16.4,12-42.2,1.4-57.6-23.7s-14.7-55.1,1.7-67.2c16.4-12,42.2-1.4,57.6,23.7S1752.6,1335,1736.2,1347z"/>
			<path class="st20" d="M1635.3,1228.8c-1.6,0-3-0.9-3.7-2.5c-16.8-40.3-39.5-75.1-67.5-103.5c-76.5-77.7-175.4-89.9-270.9-101.7
				c-95.1-11.8-184.9-22.9-238.6-99.8c-13.6-19.5-34.7-54.6-23.4-71.6c4.5-6.8,13.6-9.9,26.9-9.3c2.2,0.1,3.9,2,3.8,4.2
				c-0.1,2.2-1.9,4-4.2,3.8c-7.1-0.3-16.4,0.4-20,5.7c-6,9,3.1,33.5,23.3,62.3c51.6,74,139.7,84.9,233.1,96.4
				c96.9,12,197.1,24.4,275.6,104c28.7,29.1,51.9,64.8,69.1,106c0.9,2.1-0.1,4.4-2.1,5.3C1636.3,1228.8,1635.8,1228.9,1635.3,1228.8
				L1635.3,1228.8z"/>
			<path class="st20" d="M1676.8,1310.3c-1,0-2-0.4-2.8-1.2c-1.6-1.6-1.5-4.1,0-5.7c0.3-0.3,33.6-34.5,33.4-80.1
				c-0.1-28-12.6-54.7-37.3-79.3c-52.2-52.1-190.9-112.5-313.2-165.8c-74.7-32.5-145.2-63.2-191.5-89.7c-10.5-6-21.6-11.7-33-17
				c-2-0.9-2.9-3.3-2-5.4c0.9-2,3.3-2.9,5.3-2c11.6,5.3,22.9,11.1,33.6,17.3c45.9,26.3,116.3,56.9,190.7,89.3
				c122.9,53.5,262.3,114.3,315.6,167.4c26.2,26.2,39.6,54.8,39.7,85.1c0.1,49-34.3,84.4-35.8,85.8
				C1678.8,1309.9,1677.8,1310.3,1676.8,1310.3L1676.8,1310.3z"/>
			<path class="st2" d="M2291.6,1659.1l-485.7-481.2c-10.2-10.1-24.9-13-37.7-7.3l-23.1,10.2c6,22.4,15.1,47.5,28.9,73.2
				c71.7,133.7,189.4,127.9,216.6,220.7c24.1,82.2-56.7,126.3-67.4,241.7c-5.3,57.6,6.8,134.3,71.9,230.6l293.1-226.9
				C2306.9,1705.6,2308.6,1675.9,2291.6,1659.1L2291.6,1659.1z"/>
			<path class="st18" d="M1855.8,1495.3c26.6,44.7,21.1,81.8-0.1,96.8c-22.3,15.8-54.4,4-78.2-36.1c-22.7-38.1-23.9-78.4,1.1-96.1
				C1803.8,1441.9,1834.1,1458.8,1855.8,1495.3z M1802.1,1536.6c13.3,22.3,28.1,34.8,38,27.8c9.7-6.9,5.8-24.7-8.5-48.7
				c-12.9-21.7-27-35.6-37.5-28.1C1784,1494.8,1789.4,1515.2,1802.1,1536.6L1802.1,1536.6z M1910.7,1680.2l-47.3-280.5l18.5-13.1
				l47.1,280.7L1910.7,1680.2L1910.7,1680.2z M2014.1,1509.2c26.6,44.7,21.1,81.8-0.1,96.8c-22.1,15.7-54.2,3.8-78.3-36.1
				c-22.7-38.1-23.9-78.4,1.1-96.1C1962.2,1455.9,1992.4,1472.7,2014.1,1509.2L2014.1,1509.2z M1960.7,1550.4
				c13.1,22.5,27.9,34.9,37.8,27.9c9.7-6.9,5.8-24.7-8.5-48.7c-12.9-21.7-26.7-35.7-37.3-28.2
				C1942.3,1508.7,1948,1529,1960.7,1550.4L1960.7,1550.4z"/>
			<path class="st18" d="M1920.9,1835.4c-6.5,0-12.9-3.6-16.5-10.1c-5.5-9.9-2.6-22.8,6.5-28.9l233.9-154.9c9.1-6,20.9-2.8,26.5,7.1
				c5.5,9.9,2.6,22.8-6.5,28.9l-233.9,154.9C1927.7,1834.4,1924.3,1835.4,1920.9,1835.4L1920.9,1835.4z"/>
		</g>
		<g>
			<g>
				
					<linearGradient id="SVGID_00000150061214778614084300000007234834438909321872_" gradientUnits="userSpaceOnUse" x1="-6.8485" y1="690.5366" x2="211.5089" y2="655.4412" gradientTransform="matrix(1 0 0 -1 0 2913.8899)">
					<stop  offset="0" style="stop-color:#AA80F9"/>
					<stop  offset="1" style="stop-color:#6165D7"/>
				</linearGradient>
				<path style="fill:url(#SVGID_00000150061214778614084300000007234834438909321872_);" d="M1612.2,2730.9
					c0,21.6-15.1,40.1-33.6,41.3l-1303.4,80.9c-24.7,1.5-52.6-19.7-52.6-44.8v-926.8c0-25.1,28.5-46.2,53.2-45.1l1302.8,56.7
					c18.5,0.8,33.6,19.1,33.6,40.6V2730.9L1612.2,2730.9z"/>
				
					<linearGradient id="SVGID_00000145737600179854655840000012393255705680145847_" gradientUnits="userSpaceOnUse" x1="809.2837" y1="697.2778" x2="1719.0343" y2="-388.9339" gradientTransform="matrix(1 0 0 -1 0 2913.8899)">
					<stop  offset="0" style="stop-color:#AA80F9"/>
					<stop  offset="1" style="stop-color:#6165D7"/>
				</linearGradient>
				<path style="fill:url(#SVGID_00000145737600179854655840000012393255705680145847_);" d="M1636.3,2732.4
					c0,21.7-15.2,40.3-33.7,41.5l-1317.4,79.3c-24.8,1.5-45.2-17.9-45.2-43.1v-931.3c0-25.2,20.4-45,45.2-43.9l1317.4,55.5
					c18.6,0.8,33.7,19.2,33.7,40.8V2732.4L1636.3,2732.4z"/>
				
					<linearGradient id="SVGID_00000100381077046417673710000006282444294248199611_" gradientUnits="userSpaceOnUse" x1="580.3957" y1="391.092" x2="1764.4281" y2="17.1863" gradientTransform="matrix(1 0 0 -1 0 2913.8899)">
					<stop  offset="0" style="stop-color:#444B8C"/>
					<stop  offset="1" style="stop-color:#26264F"/>
				</linearGradient>
				<polygon style="fill:url(#SVGID_00000100381077046417673710000006282444294248199611_);" points="1636.3,2514.1 240,2586.9 
					240,2757.5 1636.3,2674.2 				"/>
				<g>
					<g class="st24">
						
							<linearGradient id="SVGID_00000021112416483582288090000016927498494674489746_" gradientUnits="userSpaceOnUse" x1="386.6021" y1="646.9385" x2="986.2684" y2="646.9385" gradientTransform="matrix(0.9999 1.518378e-02 1.518378e-02 -0.9999 -26.0207 2889.3215)">
							<stop  offset="0" style="stop-color:#FF9085"/>
							<stop  offset="1" style="stop-color:#FB6FBB"/>
						</linearGradient>
						<path style="fill:url(#SVGID_00000021112416483582288090000016927498494674489746_);" d="M652.1,2142.9
							c-1.6,105.8-66.7,160.8-139.3,160.6c-79-0.3-142.4-61.9-140.9-163c1.4-96.1,61-164.6,149.6-157.9
							C607.5,1989.1,653.4,2056.5,652.1,2142.9L652.1,2142.9z M464.5,2140.8c-0.8,55.2,17,95.3,51.7,96c33.4,0.6,50.1-34,51-91.9
							c0.8-52.4-12.4-93.7-48.9-95.9C482.7,2046.9,465.3,2088.1,464.5,2140.8L464.5,2140.8z M537.9,2481.1l251.7-463
							c4.8-8.9,14.3-14.1,24.2-13.3l0,0c18.5,1.4,29.3,21.7,20.5,38.2l-248.9,462.9c-4.3,8-12.3,13.1-21.2,13.5l-2.8,0.1
							C541.4,2520.4,528.2,2498.8,537.9,2481.1L537.9,2481.1z M968.5,2350.6c-1.5,98-57.4,151.7-119.4,154.4
							c-66.7,3-120.6-51.1-119.9-144.3c1.3-88.6,52.1-154.5,127.7-152.4C930.4,2210.4,969.7,2270.6,968.5,2350.6L968.5,2350.6z
							 M808.7,2357.1c-1.4,51,13.7,87.2,43.4,86.4c28.6-0.9,42.9-33.5,43.7-87.1c0.7-48.4-9.9-86-41.1-86.4
							C823.6,2269.5,809.4,2308.3,808.7,2357.1L808.7,2357.1z"/>
					</g>
					<path class="st2" d="M664.3,2137.9c-1.6,105.8-66.7,160.8-139.3,160.6c-79-0.3-142.4-61.9-140.9-163
						c1.4-96.1,61-164.6,149.6-157.9C619.6,1984.2,665.6,2051.6,664.3,2137.9L664.3,2137.9z M476.7,2135.9
						c-0.8,55.2,17,95.3,51.7,96c33.4,0.6,50.1-34,51-91.9c0.8-52.4-12.4-93.7-48.9-95.9C494.9,2041.9,477.5,2083.1,476.7,2135.9
						L476.7,2135.9z M550,2476.2l251.7-463c4.8-8.9,14.3-14,24.2-13.3l0,0c18.5,1.4,29.3,21.7,20.5,38.2L597.5,2501
						c-4.3,8-12.3,13.1-21.2,13.5l-2.8,0.1C553.6,2515.5,540.4,2493.9,550,2476.2L550,2476.2z M980.7,2345.7
						c-1.5,98-57.4,151.7-119.4,154.4c-66.7,3-120.6-51.1-119.9-144.3c1.3-88.6,52.1-154.5,127.7-152.4
						C942.6,2205.5,981.9,2265.7,980.7,2345.7L980.7,2345.7z M820.8,2352.1c-1.4,51,13.7,87.2,43.4,86.4
						c28.6-0.9,42.9-33.5,43.7-87.1c0.7-48.4-9.9-86-41.1-86.4C835.8,2264.6,821.6,2303.4,820.8,2352.1L820.8,2352.1z"/>
				</g>
				
					<linearGradient id="SVGID_00000049182615706572465610000001294397321502121866_" gradientUnits="userSpaceOnUse" x1="778.9684" y1="1226.3971" x2="1688.8756" y2="139.9984" gradientTransform="matrix(1 0 0 -1 0 2913.8899)">
					<stop  offset="0" style="stop-color:#AA80F9"/>
					<stop  offset="1" style="stop-color:#6165D7"/>
				</linearGradient>
				
					<path style="opacity:0.3;fill:url(#SVGID_00000049182615706572465610000001294397321502121866_);enable-background:new    ;" d="
					M1602.6,1890.4l-1302.2-54.9c58.8,176.8,142.9,256.1,215.2,294.8c137.6,73.8,236.3,3.3,354.3,98.9
					c121,98.1,75,219.1,202.5,300.7c95.8,61.3,157.6,15.8,257,71.2c73.6,41,119.6,110.6,149,180.2l124.1-7.5
					c18.6-1.1,33.7-19.8,33.7-41.5v-801.2C1636.3,1909.6,1621.2,1891.2,1602.6,1890.4L1602.6,1890.4z"/>
				
					<linearGradient id="SVGID_00000161617347660503910430000017094231687019597993_" gradientUnits="userSpaceOnUse" x1="1047.399" y1="368.6183" x2="1636.3152" y2="368.6183" gradientTransform="matrix(1 0 0 -1 0 2913.8899)">
					<stop  offset="0" style="stop-color:#AA80F9"/>
					<stop  offset="1" style="stop-color:#6165D7"/>
				</linearGradient>
				
					<path style="opacity:0.3;fill:url(#SVGID_00000161617347660503910430000017094231687019597993_);enable-background:new    ;" d="
					M1618,2314.3l-31.8-30.6l-30.1,32.3l-31.8-30.6l-30.1,32.3l-31.8-30.6l-30.1,32.3l-31.8-30.6l-30.1,32.3l-31.8-30.6l-30.1,32.3
					l-31.8-30.6l-30.1,32.3l-31.8-30.6l-30.1,32.3l-31.8-30.6l-30.1,32.3l-40.6-39.1c0,15.6,0,483.6,0,483.6s-1.7,27.7-34.6,35
					l561.9-41.9c6.4-0.5,12.4-2.3,17.8-5.2c5.7-7.4,9.2-17.1,9.2-27.4v-437.8L1618,2314.3L1618,2314.3z"/>
			</g>
			<g>
				<path class="st2" d="M1708.3,2298.2v440.5c0,24.6-19.3,45-43.4,46.8l-178.2,13.3l-385,28.6c33-7.3,33.7-35,33.7-35v-483.6
					l41.4,39.2l21.7-22.8l9.1-9.5l31.9,30.6l30.2-32.3l31.8,30.6l30.2-32.3l31.8,30.6l30.1-32.3l31.8,30.6l30.1-32.3l31.8,30.6
					l30.2-32.3l31.8,30.6l30.1-32.3l31.8,30.7l30.1-32.3l32.4,30.7L1708.3,2298.2L1708.3,2298.2z"/>
				<g>
					<path class="st18" d="M1643.5,2554.1l-69.5,3.2c-4.7,0.2-8.4,4.1-8.4,8.9v32.4c0,5.1,4.2,9.2,9.2,8.9l69.5-4
						c4.6-0.3,8.3-4.2,8.3-8.9V2563C1652.6,2557.9,1648.4,2553.9,1643.5,2554.1L1643.5,2554.1z"/>
					<path class="st18" d="M1643.4,2616.7l-69.5,4c-4.6,0.3-8.3,4.2-8.3,8.9v33.8c0,5.1,4.3,9.2,9.3,8.9l69.5-4.5
						c4.6-0.3,8.2-4.2,8.2-8.9v-33.3C1652.6,2620.5,1648.4,2616.4,1643.4,2616.7L1643.4,2616.7z"/>
					<path class="st18" d="M1652.6,2464.2v-58c0-5-4.1-9.1-9.1-8.9l-69.5,2.5c-4.7,0.2-8.4,4.1-8.4,8.9v58.6c0,5.1,4.2,9.1,9.1,8.9
						l69.5-3.2C1648.9,2472.9,1652.6,2469,1652.6,2464.2L1652.6,2464.2z"/>
				</g>
				<g>
					<path class="st18" d="M1499.1,2560.7l-283,13c-4.7,0.2-8.4,4.1-8.4,8.9v36.5c0,5.1,4.2,9.2,9.2,8.9l283-16.2
						c4.6-0.3,8.3-4.2,8.3-8.9v-33.3C1508.2,2564.5,1504.1,2560.5,1499.1,2560.7L1499.1,2560.7z"/>
					<path class="st18" d="M1499,2625l-283,16.2c-4.6,0.3-8.3,4.2-8.3,8.9v36.6c0,5.1,4.3,9.2,9.3,8.9l283-18.4
						c4.6-0.3,8.2-4.2,8.2-8.9v-34.4C1508.2,2628.7,1504,2624.7,1499,2625z"/>
					<path class="st18" d="M1508.2,2470.9v-59.3c0-5-4.1-9.1-9.1-8.9l-283,10.3c-4.7,0.2-8.4,4.1-8.4,8.9v61.9
						c0,5.1,4.2,9.1,9.1,8.9l283-13C1504.5,2479.5,1508.2,2475.6,1508.2,2470.9L1508.2,2470.9z"/>
				</g>
				<path class="st28" d="M1486.4,2798.8l-384.9,28.6c33-7.3,33.8-35,33.8-35v-483.6l41.4,39.2l21.7-22.8
					c18.1,16.6,32.6,43.3,36.7,85.6c13.5,140.9,78.4,131.6,155.1,136.9c76.7,5.3,112,95.4,80.9,165.1
					C1457.3,2744,1462.9,2775.4,1486.4,2798.8L1486.4,2798.8z"/>
			</g>
		</g>
		<g>
			<g>
				
					<linearGradient id="SVGID_00000018224562887959560170000014962310099929911429_" gradientUnits="userSpaceOnUse" x1="160.6503" y1="52.7473" x2="750.1874" y2="52.7473" gradientTransform="matrix(1 0 0 -1 0 2913.8899)">
					<stop  offset="0" style="stop-color:#FCB148"/>
					<stop  offset="5.000000e-02" style="stop-color:#FDB946"/>
					<stop  offset="0.14" style="stop-color:#FEC144"/>
					<stop  offset="0.32" style="stop-color:#FFC444"/>
					<stop  offset="0.48" style="stop-color:#FDB946"/>
					<stop  offset="0.78" style="stop-color:#F99C4C"/>
					<stop  offset="0.87" style="stop-color:#F8924F"/>
					<stop  offset="1" style="stop-color:#F8924F"/>
				</linearGradient>
				<path style="fill:url(#SVGID_00000018224562887959560170000014962310099929911429_);" d="M204.5,2815.4v57.7
					c0,18.7,114.7,33.8,256.2,33.8s256.2-15.1,256.2-33.8v-57.7H204.5z"/>
				
					<linearGradient id="SVGID_00000150093278605198719240000016573577789020827264_" gradientUnits="userSpaceOnUse" x1="458.1023" y1="120.0645" x2="489.455" y2="-142.388" gradientTransform="matrix(1 0 0 -1 0 2913.8899)">
					<stop  offset="0" style="stop-color:#FFDB44"/>
					<stop  offset="1" style="stop-color:#FEEF06"/>
				</linearGradient>
				<path style="fill:url(#SVGID_00000150093278605198719240000016573577789020827264_);" d="M716.9,2815.4
					c0,18.7-114.7,33.8-256.2,33.8s-256.2-15.1-256.2-33.8c0-18.7,114.7-33.8,256.2-33.8S716.9,2796.7,716.9,2815.4z"/>
				
					<linearGradient id="SVGID_00000016060629908917318890000011319775039043852470_" gradientUnits="userSpaceOnUse" x1="456.7674" y1="131.5247" x2="466.3644" y2="51.1574" gradientTransform="matrix(1 0 0 -1 0 2913.8899)">
					<stop  offset="0" style="stop-color:#FFDB44"/>
					<stop  offset="1" style="stop-color:#FEEF06"/>
				</linearGradient>
				<path style="fill:url(#SVGID_00000016060629908917318890000011319775039043852470_);" d="M460.7,2851.5
					c-125.3,0-256.4-12.2-256.4-35.6c0-1.3,0.5-3.6,1.7-3.6c1.3,0,0.7,1.8,0.7,3.1c0,14.9,104.3,31.5,253.9,31.5
					s253.9-16.6,253.9-31.5c0-1.3,0.2-2.5,1.5-2.5c1.3,0,1,1.7,1,3C717,2839.4,586,2851.5,460.7,2851.5L460.7,2851.5z"/>
				<path class="st32" d="M436.5,2817.3c2.5-1.8,5.2-3.5,8.1-5.2c2.8-1.7,6.5-3.3,11-4.7c4.5-1.4,10.1-2.5,16.9-3.4
					c6.8-0.9,15.2-1.3,25.3-1.4c9.9-0.1,19.2,0.3,27.9,1c8.7,0.7,16.3,1.7,22.9,3.1c6.6,1.4,12,3.1,16.1,5.1c4.1,2,6.6,4.3,7.4,6.9
					l28.8,0.3c2.1,0,3.9,0.2,5.5,0.5c1.6,0.3,2.4,0.8,2.4,1.3v2.4l-37.1-0.4c-1.3,3-4.6,5.7-9.9,8.1c-5.3,2.5-12.1,4.6-20.3,6.4
					l-13.5-1.9c-1.2-0.2-2.2-0.4-3-0.7c-0.8-0.3-1.2-0.6-1.2-0.9c0-0.5,1-1,3.1-1.6c2.1-0.6,4.5-1.3,7.1-2.2
					c2.6-0.9,5.2-1.9,7.7-3.1c2.5-1.2,4.2-2.6,5.1-4.3l-87.5-0.9c-2.3,1.7-4.9,3.4-7.7,5.1c-2.9,1.7-6.6,3.2-11.4,4.5
					c-4.7,1.3-10.6,2.4-17.6,3.2c-7.1,0.8-15.9,1.3-26.6,1.3c-8,0-15.8-0.3-23.5-0.9c-7.6-0.7-14.4-1.6-20.4-3
					c-5.9-1.3-10.8-2.9-14.6-4.9c-3.8-1.9-5.9-4.2-6.4-6.7l-23.8-0.3c-2.1,0-3.9-0.2-5.6-0.5c-1.6-0.3-2.5-0.7-2.5-1.3v-2.4
					l32.5,0.3c1.4-2.5,4.4-4.8,8.9-6.6c4.5-1.9,10-3.6,16.5-5l10.9,1.5c3.3,0.5,4.9,1,4.9,1.7c0,0.3-0.7,0.8-2,1.3
					c-1.4,0.5-3,1.1-4.9,1.8c-1.9,0.7-3.7,1.5-5.4,2.5c-1.8,0.9-3.1,2-4,3.2L436.5,2817.3L436.5,2817.3z M356.3,2820.5
					c0.7,1.6,2.1,2.9,4.3,4.1c2.2,1.1,4.9,2.1,8.2,2.8c3.3,0.7,7,1.3,11.1,1.6c4.1,0.3,8.5,0.5,13,0.5c5.3,0,9.8-0.3,13.8-0.7
					c3.9-0.4,7.3-1,10.3-1.8c2.9-0.7,5.5-1.6,7.7-2.6s4.2-2.1,5.9-3.2L356.3,2820.5z M546.9,2818.4c-0.7-1.6-2.2-3-4.7-4.2
					s-5.7-2.2-9.5-3c-3.8-0.8-8.3-1.4-13.5-1.8c-5.1-0.4-10.7-0.6-16.9-0.6c-5.5,0-10.2,0.3-14.2,0.7s-7.4,1.1-10.3,1.9
					c-2.9,0.8-5.4,1.7-7.4,2.8c-2,1.1-3.9,2.2-5.7,3.4L546.9,2818.4L546.9,2818.4z"/>
				
					<linearGradient id="SVGID_00000018939812647788520850000010584115017682856869_" gradientUnits="userSpaceOnUse" x1="2702.3542" y1="314.3803" x2="2711.9155" y2="234.3427" gradientTransform="matrix(-1 0 0 1 3168.1001 2539.6301)">
					<stop  offset="0" style="stop-color:#F36F56"/>
					<stop  offset="0.31" style="stop-color:#F99C4C"/>
					<stop  offset="0.55" style="stop-color:#FDB946"/>
					<stop  offset="0.68" style="stop-color:#FFC444"/>
					<stop  offset="0.8" style="stop-color:#FEC144"/>
					<stop  offset="0.87" style="stop-color:#FDB946"/>
					<stop  offset="0.92" style="stop-color:#FBAC49"/>
					<stop  offset="0.96" style="stop-color:#F8994D"/>
					<stop  offset="1" style="stop-color:#F58152"/>
					<stop  offset="1" style="stop-color:#F57E53"/>
				</linearGradient>
				<path style="fill:url(#SVGID_00000018939812647788520850000010584115017682856869_);" d="M460.7,2785.2
					c-114.2,0-233.2,10.2-252.2,30c0.7,0.7,1.4,1.4,2.1,2.2c16-13.7,114.3-27.6,250.1-27.6s239.2,14.5,251.3,28.6
					c0.6-0.8,1.2-1.5,1.9-2.2C698.2,2795.8,577,2785.3,460.7,2785.2L460.7,2785.2z"/>
			</g>
			<g>
				
					<linearGradient id="SVGID_00000014624098566412815200000010212502134552168599_" gradientUnits="userSpaceOnUse" x1="89.4214" y1="113.4063" x2="678.9586" y2="113.4063" gradientTransform="matrix(1 0 0 -1 0 2913.8899)">
					<stop  offset="0" style="stop-color:#FCB148"/>
					<stop  offset="5.000000e-02" style="stop-color:#FDB946"/>
					<stop  offset="0.14" style="stop-color:#FEC144"/>
					<stop  offset="0.32" style="stop-color:#FFC444"/>
					<stop  offset="0.48" style="stop-color:#FDB946"/>
					<stop  offset="0.78" style="stop-color:#F99C4C"/>
					<stop  offset="0.87" style="stop-color:#F8924F"/>
					<stop  offset="1" style="stop-color:#F8924F"/>
				</linearGradient>
				<path style="fill:url(#SVGID_00000014624098566412815200000010212502134552168599_);" d="M133.2,2754.7v57.7
					c0,18.7,114.7,33.8,256.2,33.8s256.2-15.1,256.2-33.8v-57.7H133.2z"/>
				
					<linearGradient id="SVGID_00000005260634923662279610000006949847237365761468_" gradientUnits="userSpaceOnUse" x1="386.8734" y1="180.7232" x2="418.2262" y2="-81.729" gradientTransform="matrix(1 0 0 -1 0 2913.8899)">
					<stop  offset="0" style="stop-color:#FFDB44"/>
					<stop  offset="1" style="stop-color:#FEEF06"/>
				</linearGradient>
				<path style="fill:url(#SVGID_00000005260634923662279610000006949847237365761468_);" d="M645.7,2754.7
					c0,18.7-114.7,33.8-256.2,33.8s-256.2-15.1-256.2-33.8c0-18.7,114.7-33.8,256.2-33.8S645.7,2736,645.7,2754.7z"/>
				
					<linearGradient id="SVGID_00000167388288119518669510000015259328194227959206_" gradientUnits="userSpaceOnUse" x1="385.5376" y1="192.1768" x2="395.1367" y2="111.8031" gradientTransform="matrix(1 0 0 -1 0 2913.8899)">
					<stop  offset="0" style="stop-color:#FFDB44"/>
					<stop  offset="1" style="stop-color:#FEEF06"/>
				</linearGradient>
				<path style="fill:url(#SVGID_00000167388288119518669510000015259328194227959206_);" d="M389.4,2790.8
					c-125.3,0-256.4-12.2-256.4-35.6c0-1.3,0.5-3.6,1.7-3.6c1.3,0,0.7,1.8,0.7,3.1c0,14.9,104.3,31.5,253.9,31.5
					s253.9-16.6,253.9-31.5c0-1.3,0.2-2.5,1.5-2.5c1.3,0,1,1.7,1,3C645.8,2778.7,514.8,2790.8,389.4,2790.8L389.4,2790.8z"/>
				<path class="st32" d="M365.2,2756.6c2.5-1.8,5.2-3.5,8.1-5.2c2.8-1.7,6.5-3.3,11-4.7c4.5-1.4,10.1-2.5,16.9-3.4
					c6.8-0.9,15.2-1.3,25.3-1.4c9.9-0.1,19.2,0.3,27.9,1c8.7,0.7,16.3,1.7,22.9,3.1c6.6,1.4,12,3.1,16.1,5.1c4.1,2,6.6,4.3,7.4,6.9
					l28.8,0.3c2.1,0,3.9,0.2,5.5,0.5c1.6,0.3,2.4,0.8,2.4,1.3v2.4l-37.1-0.4c-1.3,3-4.6,5.7-9.9,8.1c-5.3,2.5-12.1,4.6-20.3,6.4
					l-13.5-1.9c-1.2-0.2-2.2-0.4-3-0.7c-0.8-0.3-1.2-0.6-1.2-0.9c0-0.5,1-1,3.1-1.6c2.1-0.6,4.5-1.3,7.1-2.2
					c2.6-0.9,5.2-1.9,7.7-3.1c2.5-1.2,4.2-2.6,5.1-4.3l-87.5-0.9c-2.3,1.7-4.9,3.4-7.7,5.1c-2.9,1.7-6.6,3.2-11.4,4.5
					c-4.7,1.3-10.6,2.4-17.6,3.2c-7,0.8-15.9,1.3-26.6,1.3c-8,0-15.8-0.3-23.5-0.9c-7.6-0.7-14.4-1.6-20.4-3
					c-5.9-1.3-10.8-2.9-14.6-4.9c-3.8-1.9-5.9-4.2-6.4-6.7l-23.8-0.3c-2.1,0-3.9-0.2-5.6-0.5c-1.6-0.3-2.5-0.7-2.5-1.3v-2.4
					l32.5,0.3c1.4-2.5,4.4-4.8,8.9-6.6c4.5-1.9,10-3.6,16.5-5l10.9,1.5c3.3,0.5,4.9,1,4.9,1.7c0,0.3-0.7,0.8-2,1.3
					c-1.4,0.5-3,1.1-4.9,1.8c-1.9,0.7-3.7,1.5-5.4,2.5c-1.8,0.9-3.1,2-4,3.2L365.2,2756.6L365.2,2756.6z M285.1,2759.9
					c0.7,1.6,2.1,2.9,4.3,4.1c2.2,1.1,4.9,2.1,8.2,2.8c3.3,0.7,7,1.3,11.1,1.6c4.1,0.3,8.5,0.5,13,0.5c5.3,0,9.8-0.3,13.8-0.7
					c3.9-0.4,7.3-1,10.3-1.8c2.9-0.7,5.5-1.6,7.7-2.6c2.2-1,4.2-2.1,5.9-3.2L285.1,2759.9L285.1,2759.9z M475.7,2757.7
					c-0.7-1.6-2.2-3-4.7-4.2c-2.5-1.2-5.7-2.2-9.5-3c-3.8-0.8-8.3-1.4-13.5-1.8c-5.1-0.4-10.7-0.6-16.9-0.6
					c-5.5,0-10.2,0.3-14.2,0.7c-3.9,0.5-7.4,1.1-10.3,1.9c-2.9,0.8-5.4,1.7-7.4,2.8c-2,1.1-3.9,2.2-5.7,3.4L475.7,2757.7
					L475.7,2757.7z"/>
				
					<linearGradient id="SVGID_00000058588628707358716240000018387556458845811844_" gradientUnits="userSpaceOnUse" x1="2773.5781" y1="253.7314" x2="2783.1394" y2="173.6939" gradientTransform="matrix(-1 0 0 1 3168.1001 2539.6301)">
					<stop  offset="0" style="stop-color:#F36F56"/>
					<stop  offset="0.31" style="stop-color:#F99C4C"/>
					<stop  offset="0.55" style="stop-color:#FDB946"/>
					<stop  offset="0.68" style="stop-color:#FFC444"/>
					<stop  offset="0.8" style="stop-color:#FEC144"/>
					<stop  offset="0.87" style="stop-color:#FDB946"/>
					<stop  offset="0.92" style="stop-color:#FBAC49"/>
					<stop  offset="0.96" style="stop-color:#F8994D"/>
					<stop  offset="1" style="stop-color:#F58152"/>
					<stop  offset="1" style="stop-color:#F57E53"/>
				</linearGradient>
				<path style="fill:url(#SVGID_00000058588628707358716240000018387556458845811844_);" d="M389.5,2724.6
					c-114.2,0-233.2,10.2-252.2,30c0.7,0.7,1.4,1.4,2.1,2.2c16-13.7,114.3-27.6,250.1-27.6s239.2,14.5,251.3,28.6
					c0.6-0.8,1.2-1.5,1.9-2.2C626.9,2735.2,505.8,2724.6,389.5,2724.6L389.5,2724.6z"/>
			</g>
			<g>
				
					<linearGradient id="SVGID_00000142147568427199612630000017497792758851228823_" gradientUnits="userSpaceOnUse" x1="150.8798" y1="173.8758" x2="740.417" y2="173.8758" gradientTransform="matrix(1 0 0 -1 0 2913.8899)">
					<stop  offset="0" style="stop-color:#FCB148"/>
					<stop  offset="5.000000e-02" style="stop-color:#FDB946"/>
					<stop  offset="0.14" style="stop-color:#FEC144"/>
					<stop  offset="0.32" style="stop-color:#FFC444"/>
					<stop  offset="0.48" style="stop-color:#FDB946"/>
					<stop  offset="0.78" style="stop-color:#F99C4C"/>
					<stop  offset="0.87" style="stop-color:#F8924F"/>
					<stop  offset="1" style="stop-color:#F8924F"/>
				</linearGradient>
				<path style="fill:url(#SVGID_00000142147568427199612630000017497792758851228823_);" d="M194.7,2694.2v57.7
					c0,18.7,114.7,33.8,256.2,33.8s256.2-15.1,256.2-33.8v-57.7H194.7L194.7,2694.2z"/>
				
					<linearGradient id="SVGID_00000044890743543797000240000010694108103174098853_" gradientUnits="userSpaceOnUse" x1="448.3309" y1="241.2018" x2="479.6836" y2="-21.2609" gradientTransform="matrix(1 0 0 -1 0 2913.8899)">
					<stop  offset="0" style="stop-color:#FFDB44"/>
					<stop  offset="1" style="stop-color:#FEEF06"/>
				</linearGradient>
				<path style="fill:url(#SVGID_00000044890743543797000240000010694108103174098853_);" d="M707.1,2694.2
					c0,18.7-114.7,33.8-256.2,33.8s-256.2-15.1-256.2-33.8c0-18.7,114.7-33.8,256.2-33.8S707.1,2675.6,707.1,2694.2z"/>
				
					<linearGradient id="SVGID_00000072965938040068880240000016255328250972733108_" gradientUnits="userSpaceOnUse" x1="446.9969" y1="252.6529" x2="456.5939" y2="172.2856" gradientTransform="matrix(1 0 0 -1 0 2913.8899)">
					<stop  offset="0" style="stop-color:#FFDB44"/>
					<stop  offset="1" style="stop-color:#FEEF06"/>
				</linearGradient>
				<path style="fill:url(#SVGID_00000072965938040068880240000016255328250972733108_);" d="M450.9,2730.4
					c-125.3,0-256.4-12.2-256.4-35.6c0-1.3,0.5-3.6,1.7-3.6c1.3,0,0.7,1.8,0.7,3.1c0,14.9,104.3,31.5,253.9,31.5
					s253.9-16.6,253.9-31.5c0-1.3,0.2-2.5,1.5-2.5s1,1.7,1,3C707.3,2718.2,576.2,2730.4,450.9,2730.4L450.9,2730.4z"/>
				<path class="st32" d="M426.7,2696.1c2.5-1.8,5.2-3.5,8.1-5.2c2.8-1.7,6.5-3.3,11-4.7c4.5-1.4,10.1-2.5,16.9-3.4
					c6.8-0.9,15.2-1.3,25.3-1.4c9.9-0.1,19.2,0.3,27.9,1c8.7,0.7,16.3,1.7,22.9,3.1c6.6,1.4,12,3.1,16.1,5.1c4.1,2,6.6,4.3,7.4,6.9
					l28.8,0.3c2.1,0,3.9,0.2,5.5,0.5c1.6,0.3,2.4,0.8,2.4,1.3v2.4l-37.1-0.4c-1.3,3-4.6,5.7-9.9,8.1c-5.3,2.5-12.1,4.6-20.3,6.4
					l-13.5-1.9c-1.2-0.2-2.2-0.4-3-0.7c-0.8-0.3-1.2-0.6-1.2-0.9c0-0.5,1-1,3.1-1.6c2.1-0.6,4.5-1.3,7.1-2.2
					c2.6-0.9,5.2-1.9,7.7-3.1c2.5-1.2,4.2-2.6,5.1-4.3l-87.5-0.9c-2.3,1.7-4.9,3.4-7.7,5.1c-2.9,1.7-6.6,3.2-11.4,4.5
					c-4.7,1.3-10.6,2.4-17.6,3.2c-7.1,0.8-15.9,1.3-26.6,1.3c-8,0-15.8-0.3-23.5-0.9c-7.6-0.7-14.4-1.6-20.4-3
					c-5.9-1.3-10.8-2.9-14.6-4.9c-3.8-1.9-5.9-4.2-6.4-6.7l-23.8-0.3c-2.1,0-3.9-0.2-5.6-0.5c-1.6-0.3-2.5-0.7-2.5-1.3v-2.4
					l32.5,0.3c1.4-2.5,4.4-4.8,8.9-6.6c4.5-1.9,10-3.6,16.5-5l10.9,1.5c3.3,0.5,4.9,1,4.9,1.7c0,0.3-0.7,0.8-2,1.3
					c-1.4,0.5-3,1.1-4.9,1.8c-1.9,0.7-3.7,1.5-5.4,2.5c-1.8,0.9-3.1,2-4,3.2L426.7,2696.1L426.7,2696.1z M346.6,2699.4
					c0.7,1.6,2.1,2.9,4.3,4.1s4.9,2.1,8.2,2.8s7,1.3,11.1,1.6c4.1,0.3,8.5,0.5,13,0.5c5.3,0,9.8-0.3,13.8-0.7
					c3.9-0.4,7.3-1,10.3-1.8c2.9-0.7,5.5-1.6,7.7-2.6c2.2-1,4.2-2.1,5.9-3.2L346.6,2699.4z M537.2,2697.3c-0.7-1.6-2.2-3-4.7-4.2
					c-2.5-1.2-5.7-2.2-9.5-3c-3.8-0.8-8.3-1.4-13.5-1.8c-5.1-0.4-10.7-0.6-16.9-0.6c-5.5,0-10.2,0.3-14.2,0.7s-7.4,1.1-10.3,1.9
					c-2.9,0.8-5.4,1.7-7.4,2.8c-2,1.1-3.9,2.2-5.7,3.4L537.2,2697.3L537.2,2697.3z"/>
				
					<linearGradient id="SVGID_00000093868004745257701200000000130834360969819582_" gradientUnits="userSpaceOnUse" x1="2712.1094" y1="193.2502" x2="2721.6707" y2="113.2127" gradientTransform="matrix(-1 0 0 1 3168.1001 2539.6301)">
					<stop  offset="0" style="stop-color:#F36F56"/>
					<stop  offset="0.31" style="stop-color:#F99C4C"/>
					<stop  offset="0.55" style="stop-color:#FDB946"/>
					<stop  offset="0.68" style="stop-color:#FFC444"/>
					<stop  offset="0.8" style="stop-color:#FEC144"/>
					<stop  offset="0.87" style="stop-color:#FDB946"/>
					<stop  offset="0.92" style="stop-color:#FBAC49"/>
					<stop  offset="0.96" style="stop-color:#F8994D"/>
					<stop  offset="1" style="stop-color:#F58152"/>
					<stop  offset="1" style="stop-color:#F57E53"/>
				</linearGradient>
				<path style="fill:url(#SVGID_00000093868004745257701200000000130834360969819582_);" d="M450.9,2664.1
					c-114.2,0-233.2,10.2-252.2,30c0.7,0.7,1.4,1.4,2.1,2.2c16-13.7,114.3-27.6,250.1-27.6s239.2,14.5,251.3,28.6
					c0.6-0.8,1.2-1.5,1.9-2.2C688.4,2674.7,567.2,2664.1,450.9,2664.1L450.9,2664.1z"/>
			</g>
			<g>
				
					<linearGradient id="SVGID_00000067227650505685761900000006900912109048250275_" gradientUnits="userSpaceOnUse" x1="188.171" y1="234.5345" x2="777.7081" y2="234.5345" gradientTransform="matrix(1 0 0 -1 0 2913.8899)">
					<stop  offset="0" style="stop-color:#FCB148"/>
					<stop  offset="5.000000e-02" style="stop-color:#FDB946"/>
					<stop  offset="0.14" style="stop-color:#FEC144"/>
					<stop  offset="0.32" style="stop-color:#FFC444"/>
					<stop  offset="0.48" style="stop-color:#FDB946"/>
					<stop  offset="0.78" style="stop-color:#F99C4C"/>
					<stop  offset="0.87" style="stop-color:#F8924F"/>
					<stop  offset="1" style="stop-color:#F8924F"/>
				</linearGradient>
				<path style="fill:url(#SVGID_00000067227650505685761900000006900912109048250275_);" d="M232,2633.6v57.7
					c0,18.7,114.7,33.8,256.2,33.8s256.2-15.1,256.2-33.8v-57.7H232L232,2633.6z"/>
				
					<linearGradient id="SVGID_00000063622193179952215680000003338873863035807679_" gradientUnits="userSpaceOnUse" x1="485.6334" y1="301.8514" x2="516.9861" y2="39.3993" gradientTransform="matrix(1 0 0 -1 0 2913.8899)">
					<stop  offset="0" style="stop-color:#FFDB44"/>
					<stop  offset="1" style="stop-color:#FEEF06"/>
				</linearGradient>
				
					<ellipse style="fill:url(#SVGID_00000063622193179952215680000003338873863035807679_);" cx="488.2" cy="2633.6" rx="256.2" ry="33.8"/>
				
					<linearGradient id="SVGID_00000067932095257577258220000007390648728006603951_" gradientUnits="userSpaceOnUse" x1="484.2975" y1="313.3153" x2="493.8965" y2="232.9419" gradientTransform="matrix(1 0 0 -1 0 2913.8899)">
					<stop  offset="0" style="stop-color:#FFDB44"/>
					<stop  offset="1" style="stop-color:#FEEF06"/>
				</linearGradient>
				<path style="fill:url(#SVGID_00000067932095257577258220000007390648728006603951_);" d="M488.2,2669.7
					c-125.3,0-256.4-12.2-256.4-35.6c0-1.3,0.5-3.6,1.7-3.6c1.3,0,0.7,1.8,0.7,3.1c0,14.9,104.3,31.5,253.9,31.5
					s253.9-16.6,253.9-31.5c0-1.3,0.2-2.5,1.5-2.5s1,1.7,1,3C744.6,2657.6,613.5,2669.7,488.2,2669.7L488.2,2669.7z"/>
				<path class="st32" d="M464,2635.5c2.5-1.8,5.2-3.5,8.1-5.2c2.8-1.7,6.5-3.3,11-4.7c4.5-1.4,10.1-2.5,16.9-3.4
					c6.8-0.9,15.2-1.3,25.3-1.4c9.9-0.1,19.2,0.3,27.9,1c8.7,0.7,16.3,1.7,22.9,3.1c6.6,1.4,12,3.1,16.1,5.1c4.1,2,6.6,4.3,7.4,6.9
					l28.8,0.3c2.1,0,3.9,0.2,5.5,0.5c1.6,0.3,2.4,0.8,2.4,1.3v2.4l-37.1-0.4c-1.3,3-4.6,5.7-9.9,8.1c-5.3,2.5-12.1,4.6-20.3,6.4
					l-13.5-1.9c-1.2-0.2-2.2-0.4-3-0.7c-0.8-0.3-1.2-0.6-1.2-0.9c0-0.5,1-1,3.1-1.6c2.1-0.6,4.5-1.3,7.1-2.2
					c2.6-0.9,5.2-1.9,7.7-3.1c2.5-1.2,4.2-2.6,5.1-4.3l-87.5-0.9c-2.3,1.7-4.9,3.4-7.7,5.1c-2.9,1.7-6.6,3.2-11.4,4.5
					c-4.7,1.3-10.6,2.4-17.6,3.2c-7.1,0.8-15.9,1.3-26.6,1.3c-8,0-15.8-0.3-23.5-0.9c-7.6-0.7-14.4-1.6-20.4-3
					c-5.9-1.3-10.8-2.9-14.6-4.9c-3.8-1.9-5.9-4.2-6.4-6.7l-23.8-0.3c-2.1,0-3.9-0.2-5.6-0.5c-1.6-0.3-2.5-0.7-2.5-1.3v-2.4
					l32.5,0.3c1.4-2.5,4.4-4.8,8.9-6.6c4.5-1.9,10-3.6,16.5-5l10.9,1.5c3.3,0.5,4.9,1,4.9,1.7c0,0.3-0.7,0.8-2,1.3
					c-1.4,0.5-3,1.1-4.9,1.8c-1.9,0.7-3.7,1.5-5.4,2.5c-1.8,0.9-3.1,2-4,3.2L464,2635.5L464,2635.5z M383.9,2638.8
					c0.7,1.6,2.1,2.9,4.3,4.1s4.9,2.1,8.2,2.8c3.3,0.7,7,1.3,11.1,1.6c4.1,0.3,8.5,0.5,13,0.5c5.3,0,9.8-0.3,13.8-0.7
					c3.9-0.4,7.3-1,10.3-1.8c2.9-0.7,5.5-1.6,7.7-2.6c2.2-1,4.2-2.1,5.9-3.2L383.9,2638.8L383.9,2638.8z M574.5,2636.6
					c-0.7-1.6-2.2-3-4.7-4.2c-2.5-1.2-5.7-2.2-9.5-3c-3.8-0.8-8.3-1.4-13.5-1.8c-5.1-0.4-10.7-0.6-16.9-0.6
					c-5.5,0-10.2,0.3-14.2,0.7c-3.9,0.5-7.4,1.1-10.3,1.9c-2.9,0.8-5.4,1.7-7.4,2.8c-2,1.1-3.9,2.2-5.7,3.4L574.5,2636.6
					L574.5,2636.6z"/>
				
					<linearGradient id="SVGID_00000090978848588134184610000000880622058419640254_" gradientUnits="userSpaceOnUse" x1="2674.8232" y1="132.5933" x2="2684.3845" y2="52.5557" gradientTransform="matrix(-1 0 0 1 3168.1001 2539.6301)">
					<stop  offset="0" style="stop-color:#F36F56"/>
					<stop  offset="0.31" style="stop-color:#F99C4C"/>
					<stop  offset="0.55" style="stop-color:#FDB946"/>
					<stop  offset="0.68" style="stop-color:#FFC444"/>
					<stop  offset="0.8" style="stop-color:#FEC144"/>
					<stop  offset="0.87" style="stop-color:#FDB946"/>
					<stop  offset="0.92" style="stop-color:#FBAC49"/>
					<stop  offset="0.96" style="stop-color:#F8994D"/>
					<stop  offset="1" style="stop-color:#F58152"/>
					<stop  offset="1" style="stop-color:#F57E53"/>
				</linearGradient>
				<path style="fill:url(#SVGID_00000090978848588134184610000000880622058419640254_);" d="M488.2,2603.5
					c-114.2,0-233.2,10.2-252.2,30c0.7,0.7,1.4,1.4,2.1,2.2c16-13.7,114.3-27.6,250.1-27.6s239.2,14.5,251.3,28.6
					c0.6-0.8,1.2-1.5,1.9-2.2C725.7,2614.1,604.5,2603.5,488.2,2603.5L488.2,2603.5z"/>
			</g>
			<g>
				
					<linearGradient id="SVGID_00000028290782034489458750000014827647022002861706_" gradientUnits="userSpaceOnUse" x1="160.6503" y1="299.9677" x2="750.1874" y2="299.9677" gradientTransform="matrix(1 0 0 -1 0 2913.8899)">
					<stop  offset="0" style="stop-color:#FCB148"/>
					<stop  offset="5.000000e-02" style="stop-color:#FDB946"/>
					<stop  offset="0.14" style="stop-color:#FEC144"/>
					<stop  offset="0.32" style="stop-color:#FFC444"/>
					<stop  offset="0.48" style="stop-color:#FDB946"/>
					<stop  offset="0.78" style="stop-color:#F99C4C"/>
					<stop  offset="0.87" style="stop-color:#F8924F"/>
					<stop  offset="1" style="stop-color:#F8924F"/>
				</linearGradient>
				<path style="fill:url(#SVGID_00000028290782034489458750000014827647022002861706_);" d="M204.5,2568.2v57.7
					c0,18.7,114.7,33.8,256.2,33.8s256.2-15.1,256.2-33.8v-57.7H204.5z"/>
				
					<linearGradient id="SVGID_00000170257379512446254360000004785937685283832202_" gradientUnits="userSpaceOnUse" x1="458.1011" y1="367.2952" x2="489.4538" y2="104.8322" gradientTransform="matrix(1 0 0 -1 0 2913.8899)">
					<stop  offset="0" style="stop-color:#FFDB44"/>
					<stop  offset="1" style="stop-color:#FEEF06"/>
				</linearGradient>
				<path style="fill:url(#SVGID_00000170257379512446254360000004785937685283832202_);" d="M716.9,2568.2
					c0,18.7-114.7,33.8-256.2,33.8s-256.2-15.1-256.2-33.8s114.7-33.8,256.2-33.8S716.9,2549.5,716.9,2568.2z"/>
				
					<linearGradient id="SVGID_00000029748472649665554050000017470373716457965990_" gradientUnits="userSpaceOnUse" x1="456.7664" y1="378.7489" x2="466.3654" y2="298.3753" gradientTransform="matrix(1 0 0 -1 0 2913.8899)">
					<stop  offset="0" style="stop-color:#FFDB44"/>
					<stop  offset="1" style="stop-color:#FEEF06"/>
				</linearGradient>
				<path style="fill:url(#SVGID_00000029748472649665554050000017470373716457965990_);" d="M460.7,2604.3
					c-125.3,0-256.4-12.2-256.4-35.6c0-1.3,0.5-3.6,1.7-3.6c1.3,0,0.7,1.8,0.7,3.1c0,14.9,104.3,31.5,253.9,31.5
					s253.9-16.6,253.9-31.5c0-1.3,0.2-2.5,1.5-2.5c1.3,0,1,1.7,1,3C717,2592.1,586,2604.3,460.7,2604.3L460.7,2604.3z"/>
				<path class="st32" d="M436.5,2570c2.5-1.8,5.2-3.5,8.1-5.2c2.8-1.7,6.5-3.3,11-4.7c4.5-1.4,10.1-2.5,16.9-3.4
					c6.8-0.9,15.2-1.3,25.3-1.4c9.9-0.1,19.2,0.3,27.9,1c8.7,0.7,16.3,1.7,22.9,3.1c6.6,1.4,12,3.1,16.1,5.1c4.1,2,6.6,4.3,7.4,6.9
					l28.8,0.3c2.1,0,3.9,0.2,5.5,0.5c1.6,0.3,2.4,0.8,2.4,1.3v2.4l-37.1-0.4c-1.3,3-4.6,5.7-9.9,8.1c-5.3,2.5-12.1,4.6-20.3,6.4
					l-13.5-1.9c-1.2-0.2-2.2-0.4-3-0.7c-0.8-0.3-1.2-0.6-1.2-0.9c0-0.5,1-1,3.1-1.6c2.1-0.6,4.5-1.3,7.1-2.2
					c2.6-0.9,5.2-1.9,7.7-3.1c2.5-1.2,4.2-2.6,5.1-4.3l-87.5-0.9c-2.3,1.7-4.9,3.4-7.7,5.1c-2.9,1.7-6.6,3.2-11.4,4.5
					c-4.7,1.3-10.6,2.4-17.6,3.2c-7.1,0.8-15.9,1.3-26.6,1.3c-8,0-15.8-0.3-23.5-0.9c-7.6-0.7-14.4-1.6-20.4-3
					c-5.9-1.3-10.8-2.9-14.6-4.9c-3.8-1.9-5.9-4.2-6.4-6.7l-23.8-0.3c-2.1,0-3.9-0.2-5.6-0.5c-1.6-0.3-2.5-0.7-2.5-1.3v-2.4
					l32.5,0.3c1.4-2.5,4.4-4.8,8.9-6.6c4.5-1.9,10-3.6,16.5-5l10.9,1.5c3.3,0.5,4.9,1,4.9,1.7c0,0.3-0.7,0.8-2,1.3
					c-1.4,0.5-3,1.1-4.9,1.8c-1.9,0.7-3.7,1.5-5.4,2.5c-1.8,0.9-3.1,2-4,3.2L436.5,2570L436.5,2570z M356.3,2573.3
					c0.7,1.6,2.1,2.9,4.3,4.1c2.2,1.1,4.9,2.1,8.2,2.8c3.3,0.7,7,1.3,11.1,1.6c4.1,0.3,8.5,0.5,13,0.5c5.3,0,9.8-0.3,13.8-0.7
					c3.9-0.4,7.3-1,10.3-1.8c2.9-0.7,5.5-1.6,7.7-2.6s4.2-2.1,5.9-3.2L356.3,2573.3z M546.9,2571.2c-0.7-1.6-2.2-3-4.7-4.2
					c-2.5-1.2-5.7-2.2-9.5-3c-3.8-0.8-8.3-1.4-13.5-1.8c-5.1-0.4-10.7-0.6-16.9-0.6c-5.5,0-10.2,0.3-14.2,0.7
					c-3.9,0.5-7.4,1.1-10.3,1.9c-2.9,0.8-5.4,1.7-7.4,2.8c-2,1.1-3.9,2.2-5.7,3.4L546.9,2571.2L546.9,2571.2z"/>
				
					<linearGradient id="SVGID_00000003785393133703685000000003781752604892245378_" gradientUnits="userSpaceOnUse" x1="2702.3542" y1="67.16" x2="2711.9155" y2="-12.8775" gradientTransform="matrix(-1 0 0 1 3168.1001 2539.6301)">
					<stop  offset="0" style="stop-color:#F36F56"/>
					<stop  offset="0.31" style="stop-color:#F99C4C"/>
					<stop  offset="0.55" style="stop-color:#FDB946"/>
					<stop  offset="0.68" style="stop-color:#FFC444"/>
					<stop  offset="0.8" style="stop-color:#FEC144"/>
					<stop  offset="0.87" style="stop-color:#FDB946"/>
					<stop  offset="0.92" style="stop-color:#FBAC49"/>
					<stop  offset="0.96" style="stop-color:#F8994D"/>
					<stop  offset="1" style="stop-color:#F58152"/>
					<stop  offset="1" style="stop-color:#F57E53"/>
				</linearGradient>
				<path style="fill:url(#SVGID_00000003785393133703685000000003781752604892245378_);" d="M460.7,2538
					c-114.2,0-233.2,10.2-252.2,30c0.7,0.7,1.4,1.4,2.1,2.2c16-13.7,114.3-27.6,250.1-27.6s239.2,14.5,251.3,28.6
					c0.6-0.8,1.2-1.5,1.9-2.2C698.2,2548.6,577,2538,460.7,2538L460.7,2538z"/>
			</g>
			<g>
				
					<linearGradient id="SVGID_00000104708486072873149560000010737807392869200817_" gradientUnits="userSpaceOnUse" x1="89.4214" y1="360.6264" x2="678.9586" y2="360.6264" gradientTransform="matrix(1 0 0 -1 0 2913.8899)">
					<stop  offset="0" style="stop-color:#FCB148"/>
					<stop  offset="5.000000e-02" style="stop-color:#FDB946"/>
					<stop  offset="0.14" style="stop-color:#FEC144"/>
					<stop  offset="0.32" style="stop-color:#FFC444"/>
					<stop  offset="0.48" style="stop-color:#FDB946"/>
					<stop  offset="0.78" style="stop-color:#F99C4C"/>
					<stop  offset="0.87" style="stop-color:#F8924F"/>
					<stop  offset="1" style="stop-color:#F8924F"/>
				</linearGradient>
				<path style="fill:url(#SVGID_00000104708486072873149560000010737807392869200817_);" d="M133.2,2507.5v57.7
					c0,18.7,114.7,33.8,256.2,33.8s256.2-15.1,256.2-33.8v-57.7H133.2z"/>
				
					<linearGradient id="SVGID_00000105398701389497092420000003855756107400797836_" gradientUnits="userSpaceOnUse" x1="386.8735" y1="427.9436" x2="418.2262" y2="165.4911" gradientTransform="matrix(1 0 0 -1 0 2913.8899)">
					<stop  offset="0" style="stop-color:#FFDB44"/>
					<stop  offset="1" style="stop-color:#FEEF06"/>
				</linearGradient>
				
					<ellipse style="fill:url(#SVGID_00000105398701389497092420000003855756107400797836_);" cx="389.4" cy="2507.5" rx="256.2" ry="33.8"/>
				
					<linearGradient id="SVGID_00000065034202280548816490000018309231754195661753_" gradientUnits="userSpaceOnUse" x1="385.5386" y1="439.4039" x2="395.1356" y2="359.0364" gradientTransform="matrix(1 0 0 -1 0 2913.8899)">
					<stop  offset="0" style="stop-color:#FFDB44"/>
					<stop  offset="1" style="stop-color:#FEEF06"/>
				</linearGradient>
				<path style="fill:url(#SVGID_00000065034202280548816490000018309231754195661753_);" d="M389.4,2543.6
					c-125.3,0-256.4-12.2-256.4-35.6c0-1.3,0.5-3.6,1.7-3.6c1.3,0,0.7,1.8,0.7,3.1c0,14.9,104.3,31.5,253.9,31.5
					s253.9-16.6,253.9-31.5c0-1.3,0.2-2.5,1.5-2.5c1.3,0,1,1.7,1,3C645.8,2531.5,514.8,2543.6,389.4,2543.6L389.4,2543.6z"/>
				<path class="st32" d="M365.2,2509.4c2.5-1.8,5.2-3.5,8.1-5.2c2.8-1.7,6.5-3.3,11-4.7c4.5-1.4,10.1-2.5,16.9-3.4
					c6.8-0.9,15.2-1.3,25.3-1.4c9.9-0.1,19.2,0.3,27.9,1c8.7,0.7,16.3,1.7,22.9,3.1c6.6,1.4,12,3.1,16.1,5.1c4.1,2,6.6,4.3,7.4,6.9
					l28.8,0.3c2.1,0,3.9,0.2,5.5,0.5c1.6,0.3,2.4,0.8,2.4,1.3v2.4l-37.1-0.4c-1.3,3-4.6,5.7-9.9,8.1c-5.3,2.5-12.1,4.6-20.3,6.4
					l-13.5-1.9c-1.2-0.2-2.2-0.4-3-0.7c-0.8-0.3-1.2-0.6-1.2-0.9c0-0.5,1-1,3.1-1.6c2.1-0.6,4.5-1.3,7.1-2.2
					c2.6-0.9,5.2-1.9,7.7-3.1c2.5-1.2,4.2-2.6,5.1-4.3l-87.5-0.9c-2.3,1.7-4.9,3.4-7.7,5.1c-2.9,1.7-6.6,3.2-11.4,4.5
					c-4.7,1.3-10.6,2.4-17.6,3.2c-7,0.8-15.9,1.3-26.6,1.3c-8,0-15.8-0.3-23.5-0.9c-7.6-0.7-14.4-1.6-20.4-3
					c-5.9-1.3-10.8-2.9-14.6-4.9c-3.8-1.9-5.9-4.2-6.4-6.7l-23.8-0.3c-2.1,0-3.9-0.2-5.6-0.5c-1.6-0.3-2.5-0.7-2.5-1.3v-2.4
					l32.5,0.3c1.4-2.5,4.4-4.8,8.9-6.6c4.5-1.9,10-3.6,16.5-5l10.9,1.5c3.3,0.5,4.9,1,4.9,1.7c0,0.3-0.7,0.8-2,1.3
					c-1.4,0.5-3,1.1-4.9,1.8c-1.9,0.7-3.7,1.5-5.4,2.5c-1.8,0.9-3.1,2-4,3.2L365.2,2509.4L365.2,2509.4z M285.1,2512.7
					c0.7,1.6,2.1,2.9,4.3,4.1c2.2,1.1,4.9,2.1,8.2,2.8c3.3,0.7,7,1.3,11.1,1.6c4.1,0.3,8.5,0.5,13,0.5c5.3,0,9.8-0.3,13.8-0.7
					c3.9-0.4,7.3-1,10.3-1.8c2.9-0.7,5.5-1.6,7.7-2.6c2.2-1,4.2-2.1,5.9-3.2L285.1,2512.7L285.1,2512.7z M475.7,2510.5
					c-0.7-1.6-2.2-3-4.7-4.2c-2.5-1.2-5.7-2.2-9.5-3c-3.8-0.8-8.3-1.4-13.5-1.8c-5.1-0.4-10.7-0.6-16.9-0.6
					c-5.5,0-10.2,0.3-14.2,0.7c-3.9,0.5-7.4,1.1-10.3,1.9c-2.9,0.8-5.4,1.7-7.4,2.8c-2,1.1-3.9,2.2-5.7,3.4L475.7,2510.5
					L475.7,2510.5z"/>
				
					<linearGradient id="SVGID_00000173854079350943768310000012889269267232140451_" gradientUnits="userSpaceOnUse" x1="2773.5774" y1="6.5005" x2="2783.1387" y2="-73.537" gradientTransform="matrix(-1 0 0 1 3168.1001 2539.6301)">
					<stop  offset="0" style="stop-color:#F36F56"/>
					<stop  offset="0.31" style="stop-color:#F99C4C"/>
					<stop  offset="0.55" style="stop-color:#FDB946"/>
					<stop  offset="0.68" style="stop-color:#FFC444"/>
					<stop  offset="0.8" style="stop-color:#FEC144"/>
					<stop  offset="0.87" style="stop-color:#FDB946"/>
					<stop  offset="0.92" style="stop-color:#FBAC49"/>
					<stop  offset="0.96" style="stop-color:#F8994D"/>
					<stop  offset="1" style="stop-color:#F58152"/>
					<stop  offset="1" style="stop-color:#F57E53"/>
				</linearGradient>
				<path style="fill:url(#SVGID_00000173854079350943768310000012889269267232140451_);" d="M389.5,2477.4
					c-114.2,0-233.2,10.2-252.2,30c0.7,0.7,1.4,1.4,2.1,2.2c16-13.7,114.3-27.6,250.1-27.6s239.2,14.5,251.3,28.6
					c0.6-0.8,1.2-1.5,1.9-2.2C626.9,2488,505.8,2477.4,389.5,2477.4z"/>
			</g>
			<g>
				
					<linearGradient id="SVGID_00000178196927749933997730000017977376600253710004_" gradientUnits="userSpaceOnUse" x1="150.8798" y1="421.1064" x2="740.417" y2="421.1064" gradientTransform="matrix(1 0 0 -1 0 2913.8899)">
					<stop  offset="0" style="stop-color:#FCB148"/>
					<stop  offset="5.000000e-02" style="stop-color:#FDB946"/>
					<stop  offset="0.14" style="stop-color:#FEC144"/>
					<stop  offset="0.32" style="stop-color:#FFC444"/>
					<stop  offset="0.48" style="stop-color:#FDB946"/>
					<stop  offset="0.78" style="stop-color:#F99C4C"/>
					<stop  offset="0.87" style="stop-color:#F8924F"/>
					<stop  offset="1" style="stop-color:#F8924F"/>
				</linearGradient>
				<path style="fill:url(#SVGID_00000178196927749933997730000017977376600253710004_);" d="M194.7,2447v57.7
					c0,18.7,114.7,33.8,256.2,33.8s256.2-15.1,256.2-33.8V2447H194.7L194.7,2447z"/>
				
					<linearGradient id="SVGID_00000169518645051142682120000006562355059811325363_" gradientUnits="userSpaceOnUse" x1="448.332" y1="488.4224" x2="479.6847" y2="225.9699" gradientTransform="matrix(1 0 0 -1 0 2913.8899)">
					<stop  offset="0" style="stop-color:#FFDB44"/>
					<stop  offset="1" style="stop-color:#FEEF06"/>
				</linearGradient>
				
					<ellipse style="fill:url(#SVGID_00000169518645051142682120000006562355059811325363_);" cx="450.9" cy="2447" rx="256.2" ry="33.8"/>
				
					<linearGradient id="SVGID_00000093159955747539302300000001863749006452162464_" gradientUnits="userSpaceOnUse" x1="446.996" y1="499.8771" x2="456.595" y2="419.5035" gradientTransform="matrix(1 0 0 -1 0 2913.8899)">
					<stop  offset="0" style="stop-color:#FFDB44"/>
					<stop  offset="1" style="stop-color:#FEEF06"/>
				</linearGradient>
				<path style="fill:url(#SVGID_00000093159955747539302300000001863749006452162464_);" d="M450.9,2483.1
					c-125.3,0-256.4-12.2-256.4-35.6c0-1.3,0.5-3.6,1.7-3.6c1.3,0,0.7,1.8,0.7,3.1c0,14.9,104.3,31.5,253.9,31.5
					s253.9-16.6,253.9-31.5c0-1.3,0.2-2.5,1.5-2.5s1,1.7,1,3C707.3,2471,576.2,2483.1,450.9,2483.1L450.9,2483.1z"/>
				<path class="st32" d="M426.7,2448.9c2.5-1.8,5.2-3.5,8.1-5.2c2.8-1.7,6.5-3.3,11-4.7c4.5-1.4,10.1-2.5,16.9-3.4
					c6.8-0.9,15.2-1.3,25.3-1.4c9.9-0.1,19.2,0.3,27.9,1c8.7,0.7,16.3,1.7,22.9,3.1c6.6,1.4,12,3.1,16.1,5.1c4.1,2,6.6,4.3,7.4,6.9
					l28.8,0.3c2.1,0,3.9,0.2,5.5,0.5c1.6,0.3,2.4,0.8,2.4,1.3v2.4l-37.1-0.4c-1.3,3-4.6,5.7-9.9,8.1c-5.3,2.5-12.1,4.6-20.3,6.4
					l-13.5-1.9c-1.2-0.2-2.2-0.4-3-0.7c-0.8-0.3-1.2-0.6-1.2-0.9c0-0.5,1-1,3.1-1.6c2.1-0.6,4.5-1.3,7.1-2.2
					c2.6-0.9,5.2-1.9,7.7-3.1c2.5-1.2,4.2-2.6,5.1-4.3l-87.5-0.9c-2.3,1.7-4.9,3.4-7.7,5.1c-2.9,1.7-6.6,3.2-11.4,4.5
					c-4.7,1.3-10.6,2.4-17.6,3.2c-7.1,0.8-15.9,1.3-26.6,1.3c-8,0-15.8-0.3-23.5-0.9c-7.6-0.7-14.4-1.6-20.4-3
					c-5.9-1.3-10.8-2.9-14.6-4.9c-3.8-1.9-5.9-4.2-6.4-6.7l-23.8-0.3c-2.1,0-3.9-0.2-5.6-0.5c-1.6-0.3-2.5-0.7-2.5-1.3v-2.4
					l32.5,0.3c1.4-2.5,4.4-4.8,8.9-6.6c4.5-1.9,10-3.6,16.5-5l10.9,1.5c3.3,0.5,4.9,1,4.9,1.7c0,0.3-0.7,0.8-2,1.3
					c-1.4,0.5-3,1.1-4.9,1.8c-1.9,0.7-3.7,1.5-5.4,2.5c-1.8,0.9-3.1,2-4,3.2L426.7,2448.9L426.7,2448.9z M346.6,2452.2
					c0.7,1.6,2.1,2.9,4.3,4.1c2.2,1.1,4.9,2.1,8.2,2.8s7,1.3,11.1,1.6c4.1,0.3,8.5,0.5,13,0.5c5.3,0,9.8-0.3,13.8-0.7
					c3.9-0.4,7.3-1,10.3-1.8c2.9-0.7,5.5-1.6,7.7-2.6s4.2-2.1,5.9-3.2L346.6,2452.2z M537.2,2450c-0.7-1.6-2.2-3-4.7-4.2
					c-2.5-1.2-5.7-2.2-9.5-3c-3.8-0.8-8.3-1.4-13.5-1.8c-5.1-0.4-10.7-0.6-16.9-0.6c-5.5,0-10.2,0.3-14.2,0.7s-7.4,1.1-10.3,1.9
					c-2.9,0.8-5.4,1.7-7.4,2.8c-2,1.1-3.9,2.2-5.7,3.4L537.2,2450L537.2,2450z"/>
				
					<linearGradient id="SVGID_00000092453488675401430730000004478895063490771847_" gradientUnits="userSpaceOnUse" x1="2712.1077" y1="-53.9705" x2="2721.6689" y2="-134.008" gradientTransform="matrix(-1 0 0 1 3168.1001 2539.6301)">
					<stop  offset="0" style="stop-color:#F36F56"/>
					<stop  offset="0.31" style="stop-color:#F99C4C"/>
					<stop  offset="0.55" style="stop-color:#FDB946"/>
					<stop  offset="0.68" style="stop-color:#FFC444"/>
					<stop  offset="0.8" style="stop-color:#FEC144"/>
					<stop  offset="0.87" style="stop-color:#FDB946"/>
					<stop  offset="0.92" style="stop-color:#FBAC49"/>
					<stop  offset="0.96" style="stop-color:#F8994D"/>
					<stop  offset="1" style="stop-color:#F58152"/>
					<stop  offset="1" style="stop-color:#F57E53"/>
				</linearGradient>
				<path style="fill:url(#SVGID_00000092453488675401430730000004478895063490771847_);" d="M450.9,2416.9
					c-114.2,0-233.2,10.2-252.2,30c0.7,0.7,1.4,1.4,2.1,2.2c16-13.7,114.3-27.6,250.1-27.6s239.2,14.5,251.3,28.6
					c0.6-0.8,1.2-1.5,1.9-2.2C688.4,2427.5,567.2,2416.9,450.9,2416.9z"/>
			</g>
			<g>
				
					<linearGradient id="SVGID_00000037690533248300761730000010427407975741588886_" gradientUnits="userSpaceOnUse" x1="118.9086" y1="481.7548" x2="708.4457" y2="481.7548" gradientTransform="matrix(1 0 0 -1 0 2913.8899)">
					<stop  offset="0" style="stop-color:#FCB148"/>
					<stop  offset="5.000000e-02" style="stop-color:#FDB946"/>
					<stop  offset="0.14" style="stop-color:#FEC144"/>
					<stop  offset="0.32" style="stop-color:#FFC444"/>
					<stop  offset="0.48" style="stop-color:#FDB946"/>
					<stop  offset="0.78" style="stop-color:#F99C4C"/>
					<stop  offset="0.87" style="stop-color:#F8924F"/>
					<stop  offset="1" style="stop-color:#F8924F"/>
				</linearGradient>
				<path style="fill:url(#SVGID_00000037690533248300761730000010427407975741588886_);" d="M162.7,2386.4v57.7
					c0,18.7,114.7,33.8,256.2,33.8s256.2-15.1,256.2-33.8v-57.7H162.7z"/>
				
					<linearGradient id="SVGID_00000181054467180991057840000012959023254160447653_" gradientUnits="userSpaceOnUse" x1="416.3699" y1="549.0821" x2="447.7226" y2="286.6194" gradientTransform="matrix(1 0 0 -1 0 2913.8899)">
					<stop  offset="0" style="stop-color:#FFDB44"/>
					<stop  offset="1" style="stop-color:#FEEF06"/>
				</linearGradient>
				
					<ellipse style="fill:url(#SVGID_00000181054467180991057840000012959023254160447653_);" cx="418.9" cy="2386.4" rx="256.2" ry="33.8"/>
				
					<linearGradient id="SVGID_00000010307835200635655580000014275117649713917878_" gradientUnits="userSpaceOnUse" x1="415.0279" y1="560.5635" x2="424.6415" y2="480.1441" gradientTransform="matrix(1 0 0 -1 0 2913.8899)">
					<stop  offset="0" style="stop-color:#FFDB44"/>
					<stop  offset="1" style="stop-color:#FEEF06"/>
				</linearGradient>
				<path style="fill:url(#SVGID_00000010307835200635655580000014275117649713917878_);" d="M418.9,2422.5
					c-125.3,0-256.4-12.2-256.4-35.6c0-1.3,0.5-3.6,1.7-3.6s0.7,1.8,0.7,3.1c0,14.9,104.3,31.5,253.9,31.5s253.9-16.6,253.9-31.5
					c0-1.3,0.2-2.5,1.5-2.5c1.3,0,1,1.7,1,3C675.3,2410.3,544.3,2422.5,418.9,2422.5L418.9,2422.5z"/>
				<path class="st32" d="M394.7,2388.2c2.5-1.8,5.2-3.5,8.1-5.2c2.8-1.7,6.5-3.3,11-4.7c4.5-1.4,10.1-2.5,16.9-3.4
					c6.8-0.9,15.2-1.3,25.3-1.4c9.9-0.1,19.2,0.3,27.9,1c8.7,0.7,16.3,1.7,22.9,3.1c6.6,1.4,12,3.1,16.1,5.1c4.1,2,6.6,4.3,7.4,6.9
					l28.8,0.3c2.1,0,3.9,0.2,5.5,0.5c1.6,0.3,2.4,0.8,2.4,1.3v2.4l-37.1-0.4c-1.3,3-4.6,5.7-9.9,8.1c-5.3,2.5-12.1,4.6-20.3,6.4
					l-13.5-1.9c-1.2-0.2-2.2-0.4-3-0.7c-0.8-0.3-1.2-0.6-1.2-0.9c0-0.5,1-1,3.1-1.6c2.1-0.6,4.5-1.3,7.1-2.2
					c2.6-0.9,5.2-1.9,7.7-3.1c2.5-1.2,4.2-2.6,5.1-4.3l-87.5-0.9c-2.3,1.7-4.9,3.4-7.7,5.1c-2.9,1.7-6.6,3.2-11.4,4.5
					c-4.7,1.3-10.6,2.4-17.6,3.2c-7,0.8-15.9,1.3-26.6,1.3c-8,0-15.8-0.3-23.5-0.9c-7.6-0.7-14.4-1.6-20.4-3
					c-5.9-1.3-10.8-2.9-14.6-4.9c-3.8-1.9-5.9-4.2-6.4-6.7l-23.8-0.3c-2.1,0-3.9-0.2-5.6-0.5c-1.6-0.3-2.5-0.7-2.5-1.3v-2.4
					l32.5,0.3c1.4-2.5,4.4-4.8,8.9-6.6c4.5-1.9,10-3.6,16.5-5l10.9,1.5c3.3,0.5,4.9,1,4.9,1.7c0,0.3-0.7,0.8-2,1.3
					c-1.4,0.5-3,1.1-4.9,1.8c-1.9,0.7-3.7,1.5-5.4,2.5c-1.8,0.9-3.1,2-4,3.2L394.7,2388.2L394.7,2388.2z M314.6,2391.5
					c0.7,1.6,2.1,2.9,4.3,4.1c2.2,1.1,4.9,2.1,8.2,2.8s7,1.3,11.1,1.6c4.1,0.3,8.5,0.5,13,0.5c5.3,0,9.8-0.3,13.8-0.7
					c3.9-0.4,7.3-1,10.3-1.8c2.9-0.7,5.5-1.6,7.7-2.6s4.2-2.1,5.9-3.2L314.6,2391.5L314.6,2391.5z M505.2,2389.4
					c-0.7-1.6-2.2-3-4.7-4.2c-2.5-1.2-5.7-2.2-9.5-3c-3.8-0.8-8.3-1.4-13.5-1.8c-5.1-0.4-10.7-0.6-16.9-0.6
					c-5.5,0-10.2,0.3-14.2,0.7s-7.4,1.1-10.3,1.9c-2.9,0.8-5.4,1.7-7.4,2.8c-2,1.1-3.9,2.2-5.7,3.4L505.2,2389.4L505.2,2389.4z"/>
				
					<linearGradient id="SVGID_00000089540125092673495560000006927773776017402804_" gradientUnits="userSpaceOnUse" x1="2744.0798" y1="-114.6278" x2="2753.6411" y2="-194.6653" gradientTransform="matrix(-1 0 0 1 3168.1001 2539.6301)">
					<stop  offset="0" style="stop-color:#F36F56"/>
					<stop  offset="0.31" style="stop-color:#F99C4C"/>
					<stop  offset="0.55" style="stop-color:#FDB946"/>
					<stop  offset="0.68" style="stop-color:#FFC444"/>
					<stop  offset="0.8" style="stop-color:#FEC144"/>
					<stop  offset="0.87" style="stop-color:#FDB946"/>
					<stop  offset="0.92" style="stop-color:#FBAC49"/>
					<stop  offset="0.96" style="stop-color:#F8994D"/>
					<stop  offset="1" style="stop-color:#F58152"/>
					<stop  offset="1" style="stop-color:#F57E53"/>
				</linearGradient>
				<path style="fill:url(#SVGID_00000089540125092673495560000006927773776017402804_);" d="M419,2356.2
					c-114.2,0-233.2,10.2-252.2,30c0.7,0.7,1.4,1.4,2.1,2.2c16-13.7,114.3-27.6,250.1-27.6s239.2,14.5,251.3,28.6
					c0.6-0.8,1.2-1.5,1.9-2.2C656.4,2366.8,535.3,2356.2,419,2356.2z"/>
			</g>
			<g>
				
					<linearGradient id="SVGID_00000156556494887058824580000011196621934153860244_" gradientUnits="userSpaceOnUse" x1="1046.2571" y1="-756.9161" x2="1642.5853" y2="-756.9161" gradientTransform="matrix(0.5796 0.8149 0.8149 -0.5796 695.05 1126.4062)">
					<stop  offset="0" style="stop-color:#FCB148"/>
					<stop  offset="5.000000e-02" style="stop-color:#FDB946"/>
					<stop  offset="0.14" style="stop-color:#FEC144"/>
					<stop  offset="0.32" style="stop-color:#FFC444"/>
					<stop  offset="0.48" style="stop-color:#FDB946"/>
					<stop  offset="0.78" style="stop-color:#F99C4C"/>
					<stop  offset="0.87" style="stop-color:#F8924F"/>
					<stop  offset="1" style="stop-color:#F8924F"/>
				</linearGradient>
				<path style="fill:url(#SVGID_00000156556494887058824580000011196621934153860244_);" d="M748,2427.1l-46.3,33.5
					c-15,10.8,39.4,114.6,121.4,231.7c82,117.2,160.6,203.4,175.6,192.6l46.3-33.5L748,2427.1L748,2427.1z"/>
				
					<linearGradient id="SVGID_00000006703689888161406960000016574078091186087090_" gradientUnits="userSpaceOnUse" x1="1346.9868" y1="-690.4467" x2="1379.2388" y2="-960.4954" gradientTransform="matrix(0.5796 0.8149 0.8149 -0.5796 695.05 1126.4062)">
					<stop  offset="0" style="stop-color:#FFDB44"/>
					<stop  offset="1" style="stop-color:#FEEF06"/>
				</linearGradient>
				<path style="fill:url(#SVGID_00000006703689888161406960000016574078091186087090_);" d="M1045.1,2851.4
					c-15,10.8-93.6-75.4-175.6-192.6s-136.4-220.9-121.4-231.7c15-10.8,93.6,75.4,175.6,192.6S1060,2840.6,1045.1,2851.4z"/>
				
					<linearGradient id="SVGID_00000026125724924339014830000000113463327742698389_" gradientUnits="userSpaceOnUse" x1="1345.4569" y1="-677.3581" x2="1355.4696" y2="-761.1846" gradientTransform="matrix(0.5796 0.8149 0.8149 -0.5796 695.05 1126.4062)">
					<stop  offset="0" style="stop-color:#FFDB44"/>
					<stop  offset="1" style="stop-color:#FEEF06"/>
				</linearGradient>
				<path style="fill:url(#SVGID_00000026125724924339014830000000113463327742698389_);" d="M867.6,2660.2
					c-72.6-103.8-138.8-219.3-120-232.9c1-0.7,3.1-1.7,3.9-0.6c0.7,1.1-1,1.6-2,2.4c-11.9,8.6,35.2,104.6,122,228.5
					s160.5,200.6,172.4,192c1-0.7,2.1-1.3,2.9-0.2c0.7,1.1-0.8,1.8-1.9,2.5C1025.9,2865.4,940.2,2763.9,867.6,2660.2L867.6,2660.2z"
					/>
				<path class="st32" d="M881,2620.3c2.9,1.1,5.8,2.3,8.9,3.6c3,1.4,6.4,3.5,10.1,6.4c3.7,2.9,7.9,6.9,12.5,12
					c4.6,5.1,9.9,11.8,15.8,20.1c5.8,8.2,10.9,16,15.4,23.7c4.5,7.6,8.1,14.5,10.8,20.8c2.7,6.2,4.5,11.7,5.3,16.3
					c0.8,4.6,0.3,8-1.3,10.1l16.5,24.1c1.2,1.7,2.1,3.4,2.8,4.9c0.7,1.5,0.8,2.4,0.4,2.7l-1.9,1.4l-21.2-30.9
					c-3.1,0.6-7.2-0.5-12.3-3.5c-5-3-10.7-7.4-16.9-13.1l-6.3-12.3c-0.5-1.1-0.9-2.1-1.1-2.9c-0.2-0.8-0.2-1.3,0.1-1.5
					c0.4-0.3,1.4,0.3,3.1,1.7c1.7,1.4,3.7,2.9,5.9,4.6c2.2,1.7,4.5,3.2,7,4.6c2.4,1.4,4.5,2,6.4,1.7l-50-73
					c-2.7-0.9-5.6-2.1-8.5-3.5c-3-1.4-6.4-3.7-10.2-6.8s-8.1-7.4-12.8-12.7c-4.8-5.4-10.2-12.4-16.5-21.2c-4.7-6.6-9-13.3-12.9-20
					c-3.9-6.7-7.1-12.9-9.4-18.6c-2.4-5.7-3.9-10.6-4.6-14.9c-0.7-4.3-0.1-7.3,1.7-9.1l-13.6-19.8c-1.2-1.7-2.1-3.4-2.8-4.9
					c-0.7-1.5-0.8-2.5-0.4-2.8l1.9-1.4l18.6,27.1c2.9-0.3,6.4,0.9,10.5,3.5c4.1,2.6,8.7,6.2,13.6,10.7l5.1,9.9c1.5,3,2,4.7,1.5,5.1
					c-0.3,0.2-1-0.1-2.2-0.9c-1.2-0.9-2.6-1.8-4.3-3c-1.6-1.1-3.4-2.2-5.1-3c-1.8-0.9-3.4-1.4-4.9-1.4L881,2620.3L881,2620.3z
					 M831.9,2555.8c-0.9,1.5-1.1,3.4-0.8,5.9c0.4,2.5,1.2,5.3,2.5,8.5c1.3,3.2,3,6.5,5.1,10.1c2.1,3.6,4.5,7.3,7.1,11
					c3.1,4.3,5.9,8,8.5,11c2.6,3,5.1,5.5,7.4,7.5c2.3,2,4.5,3.7,6.6,4.9c2.1,1.2,4.1,2.2,6,3L831.9,2555.8L831.9,2555.8z
					 M944.1,2712.4c0.9-1.5,1.1-3.6,0.7-6.4c-0.5-2.7-1.5-6-3.1-9.6c-1.6-3.7-3.7-7.7-6.3-12.2c-2.6-4.5-5.8-9.2-9.4-14.3
					c-3.2-4.5-6.1-8.3-8.8-11.3c-2.7-3-5.2-5.5-7.5-7.4c-2.3-1.9-4.5-3.5-6.5-4.5c-2-1.1-4-2-6-2.7L944.1,2712.4L944.1,2712.4z"/>
				
					<linearGradient id="SVGID_00000076592169188314501540000000125115470674153881_" gradientUnits="userSpaceOnUse" x1="1813.8152" y1="1128.4336" x2="1823.817" y2="1044.6392" gradientTransform="matrix(-0.5796 -0.8149 -0.8149 0.5796 2836.98 3491.554)">
					<stop  offset="0" style="stop-color:#F36F56"/>
					<stop  offset="0.31" style="stop-color:#F99C4C"/>
					<stop  offset="0.55" style="stop-color:#FDB946"/>
					<stop  offset="0.68" style="stop-color:#FFC444"/>
					<stop  offset="0.8" style="stop-color:#FEC144"/>
					<stop  offset="0.87" style="stop-color:#FDB946"/>
					<stop  offset="0.92" style="stop-color:#FBAC49"/>
					<stop  offset="0.96" style="stop-color:#F8994D"/>
					<stop  offset="1" style="stop-color:#F58152"/>
					<stop  offset="1" style="stop-color:#F57E53"/>
				</linearGradient>
				<path style="fill:url(#SVGID_00000076592169188314501540000000125115470674153881_);" d="M920.7,2621.8
					c-66.2-94.6-143.4-187.2-170.2-191.5c-0.1,1-0.3,2-0.6,3c20.3,5.3,88.3,78.6,167.1,191.1c80.8,115.4,127,206.5,122.7,224.6
					c1,0,1.9,0.1,2.9,0.3C1049.9,2824.5,988.1,2718,920.7,2621.8L920.7,2621.8z"/>
			</g>
		</g>
		<g>
			
				<linearGradient id="SVGID_00000142136202536274850580000004426249733344968375_" gradientUnits="userSpaceOnUse" x1="1796.3497" y1="888.7883" x2="2033.0806" y2="530.9912" gradientTransform="matrix(1 0 0 -1 0 2913.8899)">
				<stop  offset="0" style="stop-color:#AA80F9"/>
				<stop  offset="1" style="stop-color:#6165D7"/>
			</linearGradient>
			<path style="fill:url(#SVGID_00000142136202536274850580000004426249733344968375_);" d="M2246.3,2735.7l-23.2,1.9
				c-6,0.5-12,0.2-18-0.8l-92-15.2l-1.5-0.2l-106.9-17.7l-0.7,0l-83.7-13.8V2211l84.2-0.1h0.2l106.9,5.4l1.6,0.8l129.3,5.1
				L2246.3,2735.7L2246.3,2735.7z"/>
			
				<linearGradient id="SVGID_00000118362049747325544250000015755827010125076136_" gradientUnits="userSpaceOnUse" x1="2529.6335" y1="675.6931" x2="2183.1279" y2="90.4885" gradientTransform="matrix(1 0 0 -1 0 2913.8899)">
				<stop  offset="0" style="stop-color:#AA80F9"/>
				<stop  offset="1" style="stop-color:#6165D7"/>
			</linearGradient>
			<path style="fill:url(#SVGID_00000118362049747325544250000015755827010125076136_);" d="M2571.5,2241.5v446.8
				c0,16-12.1,29-27.7,30l-306.7,18.5c-12.4,0.7-23-9.7-23-22.7v-465.5c0-13,10-23.8,22.5-24.1l308.9-8.7
				C2559.8,2215.3,2571.5,2226.9,2571.5,2241.5L2571.5,2241.5z"/>
			
				<linearGradient id="SVGID_00000090284494090263019000000006529027423662991014_" gradientUnits="userSpaceOnUse" x1="2278.3293" y1="859.2897" x2="2224.0874" y2="668.1557" gradientTransform="matrix(1 0 0 -1 0 2913.8899)">
				<stop  offset="0" style="stop-color:#E38DDD"/>
				<stop  offset="1" style="stop-color:#9571F6"/>
			</linearGradient>
			<polygon style="fill:url(#SVGID_00000090284494090263019000000006529027423662991014_);" points="1921.1,2211 2214.1,2225.1 
				2545.5,2215.8 2205.7,2204.5 			"/>
			
				<linearGradient id="SVGID_00000181779202845167941770000013676816366135889045_" gradientUnits="userSpaceOnUse" x1="2553.6035" y1="660.9088" x2="2203.3279" y2="69.3257" gradientTransform="matrix(1 0 0 -1 0 2913.8899)">
				<stop  offset="0" style="stop-color:#E38DDD"/>
				<stop  offset="1" style="stop-color:#9571F6"/>
			</linearGradient>
			<path style="opacity:0.3;fill:url(#SVGID_00000181779202845167941770000013676816366135889045_);enable-background:new    ;" d="
				M2545,2215.8l-241.9,6.8c-13.8,0.4-25,12.2-25,26.5c0,23.8,3.9,48.5,14.3,72.3c34.4,79.3,111.4,82.2,127.4,154.9
				c13.3,60.6-33.9,86.7-38.9,164.2c-1.3,20.3,0.4,42.2,6.4,65.7c3.1,12.4,14.4,20.8,26.8,20l133.2-8c13.7-0.8,24.2-12.2,24.2-26.2
				v-450C2571.5,2227.1,2559.6,2215.3,2545,2215.8L2545,2215.8z"/>
			
				<linearGradient id="SVGID_00000071517247826450453740000012708886717123367306_" gradientUnits="userSpaceOnUse" x1="2334.8425" y1="658.1545" x2="2476.0647" y2="-53.2849" gradientTransform="matrix(1 0 0 -1 0 2913.8899)">
				<stop  offset="0" style="stop-color:#AB316D"/>
				<stop  offset="1" style="stop-color:#792D3D"/>
			</linearGradient>
			<polygon style="fill:url(#SVGID_00000071517247826450453740000012708886717123367306_);" points="2321.6,2731.8 2435.3,2724.9 
				2435.3,2218.9 2321.6,2222.1 			"/>
			
				<linearGradient id="SVGID_00000068671714169655399390000006485774399740717725_" gradientUnits="userSpaceOnUse" x1="2356.4314" y1="436.8301" x2="2604.3955" y2="473.5007" gradientTransform="matrix(1 0 0 -1 0 2913.8899)">
				<stop  offset="0" style="stop-color:#AB316D"/>
				<stop  offset="1" style="stop-color:#792D3D"/>
			</linearGradient>
			<polygon style="fill:url(#SVGID_00000068671714169655399390000006485774399740717725_);" points="2326.7,2731.5 2435.3,2724.9 
				2435.3,2218.9 2326.7,2222 			"/>
			
				<linearGradient id="SVGID_00000091003245037971231970000001675176064537776285_" gradientUnits="userSpaceOnUse" x1="2035.9312" y1="442.3073" x2="2272.6018" y2="477.3096" gradientTransform="matrix(1 0 0 -1 0 2913.8899)">
				<stop  offset="0" style="stop-color:#AB316D"/>
				<stop  offset="1" style="stop-color:#792D3D"/>
			</linearGradient>
			<polygon style="fill:url(#SVGID_00000091003245037971231970000001675176064537776285_);" points="2110.1,2217.9 2110.1,2721.6 
				2006,2703.6 2006,2215.1 2039.1,2214.4 			"/>
			
				<linearGradient id="SVGID_00000132052267866141039500000012061755820800945042_" gradientUnits="userSpaceOnUse" x1="2191.0088" y1="689.8481" x2="2713.6533" y2="767.1343" gradientTransform="matrix(1 0 0 -1 0 2913.8899)">
				<stop  offset="0" style="stop-color:#AB316D"/>
				<stop  offset="1" style="stop-color:#792D3D"/>
			</linearGradient>
			<polygon style="fill:url(#SVGID_00000132052267866141039500000012061755820800945042_);" points="2120.8,2206.5 2437.8,2224.8 
				2323.8,2224.8 2046.7,2208.2 			"/>
			<g>
				
					<linearGradient id="SVGID_00000011718377042354792970000009310087056465410748_" gradientUnits="userSpaceOnUse" x1="2456.658" y1="845.1858" x2="2326.074" y2="709.3836" gradientTransform="matrix(1 0 0 -1 0 2913.8899)">
					<stop  offset="0" style="stop-color:#AB316D"/>
					<stop  offset="1" style="stop-color:#792D3D"/>
				</linearGradient>
				<path style="fill:url(#SVGID_00000011718377042354792970000009310087056465410748_);" d="M2275.1,2191
					c7.4-45.9,12.8-79.5,42.3-110.5c12.5-13.1,26.1-27.4,48.3-31.1c25.6-4.4,58.4,5.9,67.3,27.2c8.5,20.2-11.5,33.4-3,56.6
					c8.6,23.3,33.5,22.8,36.3,41.7c2.3,16-13,34.1-28.5,42.5c-26.7,14.6-41.9-6-94.1-2.6c-36,2.3-56.7,13.9-66.5,2.2
					C2272.6,2211.3,2273,2203.6,2275.1,2191L2275.1,2191z"/>
				<g class="st13">
					
						<linearGradient id="SVGID_00000174570635512754405710000015022433783527386263_" gradientUnits="userSpaceOnUse" x1="2477.1626" y1="823.7347" x2="2347.2866" y2="688.6695" gradientTransform="matrix(1 0 0 -1 0 2913.8899)">
						<stop  offset="0" style="stop-color:#AB316D"/>
						<stop  offset="1" style="stop-color:#792D3D"/>
					</linearGradient>
					<path style="fill:url(#SVGID_00000174570635512754405710000015022433783527386263_);" d="M2417.9,2173
						c-32.2-12.5-48.7-39.8-63-33.3c-12.7,5.7-4.9,29.7-19.9,49.1c-13.6,17.8-38.6,22-60.8,22c0.6,2.3,1.5,4.3,2.9,6
						c9.7,11.7,30.5,0.1,66.5-2.2c52.2-3.3,67.4,17.3,94.1,2.6c14.2-7.8,28.2-23.7,28.7-38.6
						C2451.4,2180.4,2434.7,2179.5,2417.9,2173L2417.9,2173z"/>
				</g>
			</g>
			<g>
				
					<linearGradient id="SVGID_00000173126035204966994680000014437611481673183380_" gradientUnits="userSpaceOnUse" x1="2149.8538" y1="791.2572" x2="2493.8171" y2="842.1191" gradientTransform="matrix(1 0 0 -1 0 2913.8899)">
					<stop  offset="0" style="stop-color:#AB316D"/>
					<stop  offset="1" style="stop-color:#792D3D"/>
				</linearGradient>
				<path style="fill:url(#SVGID_00000173126035204966994680000014437611481673183380_);" d="M2080.4,2077.4
					c21.7-17.4,44.5,2,71.2-17.1c27-19.4,19.2-50.4,40.1-59.2c24.4-10.2,60.4,21,77.7,40.8c43.9,50.3,64.4,139.6,29.8,171.1
					c-13,11.8-49.8,6.9-123-3.3c-83.6-11.7-95.6-20-103.6-30.9C2051,2149.3,2055.8,2097.1,2080.4,2077.4L2080.4,2077.4z"/>
				<g class="st13">
					
						<linearGradient id="SVGID_00000132775250754158327050000002947874127861288621_" gradientUnits="userSpaceOnUse" x1="2153.8855" y1="763.6135" x2="2497.6152" y2="814.4421" gradientTransform="matrix(1 0 0 -1 0 2913.8899)">
						<stop  offset="0" style="stop-color:#AB316D"/>
						<stop  offset="1" style="stop-color:#792D3D"/>
					</linearGradient>
					<path style="fill:url(#SVGID_00000132775250754158327050000002947874127861288621_);" d="M2217.6,2115.1
						c-12-3.9-17.5,10.1-42.3,15.8c-4.5,1-48.2,10.3-71.7-17.5c-9.3-11.1-13.7-25.9-13.2-41.7c-3.4,1.2-6.8,3-10.2,5.7
						c-24.6,19.7-29.3,71.9-7.8,101.3c8,10.9,20,19.3,103.6,30.9c73.1,10.2,110,15.1,123,3.3c1.7-1.6,3.3-3.4,4.8-5.2
						c-17.6-0.6-36-4.9-49.3-18C2229.1,2164.4,2238.1,2121.7,2217.6,2115.1L2217.6,2115.1z"/>
				</g>
			</g>
			
				<linearGradient id="SVGID_00000002386252259624814190000011585756988937726353_" gradientUnits="userSpaceOnUse" x1="2084.9883" y1="694.1296" x2="2378.2324" y2="737.5063" gradientTransform="matrix(1 0 0 -1 0 2913.8899)">
				<stop  offset="0" style="stop-color:#AB316D"/>
				<stop  offset="1" style="stop-color:#792D3D"/>
			</linearGradient>
			<polygon style="fill:url(#SVGID_00000002386252259624814190000011585756988937726353_);" points="2222.8,2215.9 2111.7,2220.2 
				2004.6,2215.1 2039.2,2214.4 2190.7,2211.7 			"/>
		</g>
	</g>
</g>
</svg>
