<?xml version="1.0" encoding="UTF-8"?>
<svg xmlns="http://www.w3.org/2000/svg" xmlns:xlink="http://www.w3.org/1999/xlink" viewBox="0 0 307.93 315.88">
  <defs>
    <style>
      .cls-1 {
        fill: url(#linear-gradient-12);
      }

      .cls-1, .cls-2, .cls-3, .cls-4, .cls-5, .cls-6, .cls-7, .cls-8, .cls-9, .cls-10, .cls-11, .cls-12, .cls-13, .cls-14, .cls-15, .cls-16, .cls-17, .cls-18, .cls-19, .cls-20, .cls-21, .cls-22, .cls-23, .cls-24, .cls-25, .cls-26, .cls-27, .cls-28, .cls-29, .cls-30, .cls-31, .cls-32, .cls-33, .cls-34, .cls-35, .cls-36, .cls-37 {
        stroke-width: 0px;
      }

      .cls-2 {
        fill: #d4003c;
      }

      .cls-3 {
        fill: url(#linear-gradient-17);
      }

      .cls-4 {
        fill: url(#linear-gradient-19);
      }

      .cls-5 {
        fill: url(#linear-gradient-33);
      }

      .cls-6 {
        fill: url(#linear-gradient);
      }

      .cls-7 {
        fill: url(#linear-gradient-28);
        opacity: .5;
      }

      .cls-8 {
        fill: url(#linear-gradient-21);
      }

      .cls-9 {
        fill: url(#linear-gradient-6);
      }

      .cls-10 {
        fill: url(#New_Gradient_Swatch_2-2);
        mix-blend-mode: multiply;
        opacity: .4;
      }

      .cls-38 {
        isolation: isolate;
      }

      .cls-11 {
        fill: url(#linear-gradient-15);
      }

      .cls-12 {
        fill: url(#linear-gradient-5);
      }

      .cls-13, .cls-39, .cls-40, .cls-41, .cls-42, .cls-43 {
        fill: none;
      }

      .cls-14 {
        fill: url(#linear-gradient-31);
      }

      .cls-15 {
        fill: url(#linear-gradient-13);
      }

      .cls-16 {
        fill: url(#linear-gradient-23);
      }

      .cls-17 {
        fill: url(#linear-gradient-25);
      }

      .cls-18 {
        fill: url(#linear-gradient-22);
      }

      .cls-19 {
        fill: #fff;
      }

      .cls-39 {
        stroke: #cc5833;
        stroke-width: 1.44px;
      }

      .cls-39, .cls-42, .cls-44 {
        stroke-miterlimit: 10;
      }

      .cls-20 {
        fill: url(#New_Gradient_Swatch_2);
      }

      .cls-20, .cls-36 {
        mix-blend-mode: overlay;
      }

      .cls-21 {
        fill: url(#linear-gradient-32);
      }

      .cls-22 {
        fill: url(#linear-gradient-20);
      }

      .cls-23 {
        fill: url(#linear-gradient-14);
      }

      .cls-24 {
        fill: url(#linear-gradient-2);
      }

      .cls-25 {
        fill: #ff335b;
      }

      .cls-26 {
        fill: url(#linear-gradient-7);
      }

      .cls-27 {
        fill: url(#linear-gradient-3);
      }

      .cls-45 {
        clip-path: url(#clippath);
      }

      .cls-28 {
        fill: url(#linear-gradient-9);
      }

      .cls-29 {
        fill: url(#linear-gradient-27);
      }

      .cls-40 {
        stroke: #007ab7;
      }

      .cls-40, .cls-41, .cls-42 {
        stroke-width: 2px;
      }

      .cls-40, .cls-41, .cls-43 {
        stroke-linecap: round;
        stroke-linejoin: round;
      }

      .cls-30 {
        fill: url(#linear-gradient-8);
      }

      .cls-31 {
        fill: url(#linear-gradient-24);
      }

      .cls-32 {
        fill: url(#linear-gradient-26);
      }

      .cls-33 {
        fill: url(#linear-gradient-18);
      }

      .cls-34 {
        fill: url(#linear-gradient-30);
      }

      .cls-41 {
        stroke: #00bdb7;
      }

      .cls-35 {
        fill: url(#linear-gradient-10);
      }

      .cls-36 {
        fill: url(#linear-gradient-16);
      }

      .cls-37 {
        fill: url(#linear-gradient-4);
      }

      .cls-42 {
        stroke: url(#linear-gradient-29);
      }

      .cls-44 {
        fill: #daf1f1;
        stroke: url(#linear-gradient-11);
      }

      .cls-43 {
        stroke: #fff;
        stroke-width: 4px;
      }
    </style>
    <linearGradient id="linear-gradient" x1="167.5" y1="41.01" x2="71.93" y2="311.43" gradientUnits="userSpaceOnUse">
      <stop offset="0" stop-color="#007d73"/>
      <stop offset=".24" stop-color="#017774"/>
      <stop offset=".53" stop-color="#076879"/>
      <stop offset=".85" stop-color="#104f81"/>
      <stop offset="1" stop-color="#164186"/>
    </linearGradient>
    <linearGradient id="linear-gradient-2" x1="194.73" y1="75.03" x2="194.73" y2="148.83" xlink:href="#linear-gradient"/>
    <linearGradient id="linear-gradient-3" x1="139.57" y1="35.57" x2="117" y2="282.23" gradientUnits="userSpaceOnUse">
      <stop offset="0" stop-color="#4adece"/>
      <stop offset="1" stop-color="#1697d7"/>
    </linearGradient>
    <linearGradient id="linear-gradient-4" x1="153.17" y1="15.03" x2="100.53" y2="324.97" gradientUnits="userSpaceOnUse">
      <stop offset="0" stop-color="#d3f7ff"/>
      <stop offset=".69" stop-color="#bbdce5"/>
      <stop offset="1" stop-color="#b0cfd9"/>
    </linearGradient>
    <linearGradient id="linear-gradient-5" x1="148.56" y1="42.35" x2="59.37" y2="42.35" xlink:href="#linear-gradient"/>
    <clipPath id="clippath">
      <path class="cls-13" d="m196.12,291.51h-104.15c-6.66,0-12.75-5.4-13.61-12.06L48.89,49.79c-.85-6.66,3.85-12.06,10.51-12.06h104.15c6.66,0,12.75,5.4,13.61,12.06l29.47,229.66c.85,6.66-3.85,12.06-10.51,12.06Z"/>
    </clipPath>
    <linearGradient id="linear-gradient-6" x1="90.11" y1="107.95" x2="345.93" y2="107.95" gradientTransform="translate(-23.08) skewX(7.14)" xlink:href="#linear-gradient-3"/>
    <linearGradient id="linear-gradient-7" x1="90.86" y1="67.55" x2="346.68" y2="67.55" gradientTransform="translate(-23.08) skewX(7.14)" xlink:href="#linear-gradient-3"/>
    <linearGradient id="linear-gradient-8" x1="123.76" y1="147.85" x2="-39.47" y2="147.85" gradientTransform="translate(109.02) rotate(-180) scale(1 -1) skewX(-7.14)" xlink:href="#linear-gradient-3"/>
    <linearGradient id="linear-gradient-9" x1="90.11" y1="187.76" x2="345.93" y2="187.76" gradientTransform="translate(-23.08) skewX(7.14)" xlink:href="#linear-gradient-3"/>
    <linearGradient id="linear-gradient-10" x1="123.76" y1="227.67" x2="-39.47" y2="227.67" gradientTransform="translate(109.02) rotate(-180) scale(1 -1) skewX(-7.14)" xlink:href="#linear-gradient-3"/>
    <linearGradient id="linear-gradient-11" x1="-18.71" y1="297.19" x2="92.51" y2="297.19" gradientTransform="translate(249.54 559.67) rotate(-180) skewX(14.07)" xlink:href="#linear-gradient-3"/>
    <linearGradient id="linear-gradient-12" x1="142.46" y1="328.65" x2="186.9" y2="250.29" xlink:href="#linear-gradient-3"/>
    <linearGradient id="linear-gradient-13" x1="110.22" y1="122.5" x2="110.22" y2="-3.87" xlink:href="#linear-gradient"/>
    <linearGradient id="linear-gradient-14" x1="148.56" y1="42.35" x2="59.37" y2="42.35" xlink:href="#linear-gradient"/>
    <linearGradient id="linear-gradient-15" x1="182.48" y1="30.66" x2="182.48" y2="279.54" xlink:href="#linear-gradient"/>
    <linearGradient id="linear-gradient-16" x1="270.82" y1="92.76" x2="-30.44" y2="244.09" gradientUnits="userSpaceOnUse">
      <stop offset="0" stop-color="#ffecad"/>
      <stop offset=".1" stop-color="#ece3ac" stop-opacity=".93"/>
      <stop offset=".31" stop-color="#bcceac" stop-opacity=".74"/>
      <stop offset=".61" stop-color="#6eacab" stop-opacity=".44"/>
      <stop offset=".98" stop-color="#057daa" stop-opacity=".02"/>
      <stop offset="1" stop-color="#007baa" stop-opacity="0"/>
    </linearGradient>
    <linearGradient id="linear-gradient-17" x1="110" y1="32.87" x2="87.43" y2="279.53" xlink:href="#linear-gradient-3"/>
    <linearGradient id="linear-gradient-18" x1="148.56" y1="39.4" x2="59.37" y2="39.4" xlink:href="#linear-gradient"/>
    <linearGradient id="linear-gradient-19" x1="148.56" y1="39.4" x2="59.37" y2="39.4" gradientTransform="translate(69.7 -82.15) rotate(46.84)" xlink:href="#linear-gradient"/>
    <linearGradient id="linear-gradient-20" x1="182.48" y1="30.66" x2="182.48" y2="279.54" xlink:href="#linear-gradient"/>
    <linearGradient id="New_Gradient_Swatch_2" data-name="New Gradient Swatch 2" x1="238.67" y1="310.77" x2="36.9" y2="44.89" gradientUnits="userSpaceOnUse">
      <stop offset="0" stop-color="#cacdc2"/>
      <stop offset=".08" stop-color="#cdbcb3"/>
      <stop offset=".23" stop-color="#c59b9f"/>
      <stop offset=".39" stop-color="#bb6a81"/>
      <stop offset=".51" stop-color="#9e5574"/>
      <stop offset=".66" stop-color="#634a66"/>
      <stop offset=".86" stop-color="#253c4b"/>
      <stop offset="1" stop-color="#052c35"/>
    </linearGradient>
    <linearGradient id="linear-gradient-21" x1="110" y1="32.87" x2="87.43" y2="279.53" xlink:href="#linear-gradient-3"/>
    <linearGradient id="linear-gradient-22" x1="148.56" y1="39.4" x2="59.37" y2="39.4" xlink:href="#linear-gradient"/>
    <linearGradient id="linear-gradient-23" x1="148.56" y1="39.4" x2="59.37" y2="39.4" gradientTransform="translate(69.7 -82.15) rotate(46.84)" xlink:href="#linear-gradient"/>
    <linearGradient id="linear-gradient-24" x1="44.35" y1="46.52" x2="44.35" y2="260.1" xlink:href="#linear-gradient-3"/>
    <linearGradient id="linear-gradient-25" x1="-71.03" y1="154.16" x2="62.15" y2="154.16" xlink:href="#linear-gradient"/>
    <linearGradient id="linear-gradient-26" x1="39.35" y1="46.52" x2="39.35" y2="260.1" xlink:href="#linear-gradient-3"/>
    <linearGradient id="linear-gradient-27" x1="-71.03" y1="115.2" x2="62.15" y2="115.2" xlink:href="#linear-gradient"/>
    <linearGradient id="New_Gradient_Swatch_2-2" data-name="New Gradient Swatch 2" x1="112.37" y1="170.34" x2="223.65" y2="170.34" xlink:href="#New_Gradient_Swatch_2"/>
    <linearGradient id="linear-gradient-28" x1="133.01" y1="161.09" x2="281.79" y2="161.09" gradientUnits="userSpaceOnUse">
      <stop offset="0" stop-color="#e8e0e3"/>
      <stop offset=".81" stop-color="#c5eeff"/>
    </linearGradient>
    <linearGradient id="linear-gradient-29" x1="143.4" y1="103.23" x2="256.76" y2="216.59" gradientUnits="userSpaceOnUse">
      <stop offset="0" stop-color="#1697d7"/>
      <stop offset="1" stop-color="#4adece"/>
    </linearGradient>
    <linearGradient id="linear-gradient-30" x1="210.1" y1="124.39" x2="191.8" y2="203.71" gradientUnits="userSpaceOnUse">
      <stop offset="0" stop-color="#f88c57"/>
      <stop offset=".83" stop-color="#d55a2a"/>
      <stop offset="1" stop-color="#ce5021"/>
    </linearGradient>
    <linearGradient id="linear-gradient-31" x1="209.75" y1="214.43" x2="210.02" y2="131.99" gradientUnits="userSpaceOnUse">
      <stop offset="0" stop-color="#f6de55"/>
      <stop offset=".32" stop-color="#f5d354"/>
      <stop offset=".87" stop-color="#f5b654"/>
      <stop offset="1" stop-color="#f5ae54"/>
    </linearGradient>
    <linearGradient id="linear-gradient-32" x1="194.68" y1="265.43" x2="213.99" y2="165.27" xlink:href="#linear-gradient-31"/>
    <linearGradient id="linear-gradient-33" x1="210.32" y1="106.05" x2="207.66" y2="182.89" xlink:href="#linear-gradient-31"/>
  </defs>
  <g class="cls-38">
    <g id="Layer_2" data-name="Layer 2">
      <g id="OBJECTS">
        <g>
          <path class="cls-6" d="m200.2,310.57s.04-.05.07-.08c.02-.02.04-.05.07-.07.02-.03.04-.05.07-.08.02-.03.04-.05.07-.08.02-.03.04-.05.07-.08.02-.03.04-.05.07-.08.02-.02.04-.05.07-.07.02-.03.04-.05.07-.08.02-.03.04-.05.07-.08.02-.03.04-.05.07-.08.02-.03.04-.05.07-.08.02-.02.04-.05.07-.07.02-.03.04-.05.07-.07.02-.03.04-.05.07-.08.02-.03.04-.05.07-.08.02-.03.04-.05.07-.08.02-.02.04-.05.07-.07.02-.03.04-.05.07-.08.02-.03.04-.05.07-.08.02-.02.04-.05.07-.07.02-.03.04-.05.07-.08.02-.02.04-.05.07-.07.02-.03.04-.05.07-.08.02-.03.04-.05.07-.08.02-.03.04-.05.07-.08.02-.03.04-.05.07-.08.02-.02.04-.05.07-.07.02-.03.04-.05.07-.08.02-.03.04-.05.07-.08.02-.03.04-.05.07-.08.02-.03.04-.05.07-.08.02-.02.04-.05.07-.07.02-.03.04-.05.07-.08.02-.02.04-.05.07-.07.02-.03.04-.05.07-.08.02-.03.04-.05.07-.08.02-.02.04-.05.07-.07.02-.03.04-.05.07-.08.02-.03.04-.05.07-.08.02-.02.04-.05.07-.07.02-.03.04-.05.07-.08.02-.02.04-.05.07-.07.02-.03.04-.05.07-.08.02-.03.04-.05.07-.08.02-.03.04-.05.07-.08.02-.03.04-.05.07-.08.02-.02.04-.05.07-.07.02-.03.04-.05.07-.08.02-.03.04-.05.07-.08.02-.03.04-.05.07-.08.02-.03.04-.05.07-.08.02-.02.04-.05.07-.07.02-.03.04-.05.07-.08.02-.02.04-.05.07-.07.02-.03.04-.05.07-.08.02-.03.04-.05.07-.08.02-.02.04-.05.07-.07.02-.03.04-.05.07-.08.02-.03.04-.05.07-.08.02-.02.04-.05.07-.07.02-.03.04-.05.07-.08.02-.02.04-.05.07-.07.02-.03.04-.05.07-.08.02-.03.04-.05.07-.08.02-.03.04-.05.07-.08.02-.03.04-.05.07-.08.02-.02.04-.05.07-.07.02-.03.04-.05.07-.08.02-.03.04-.05.07-.08.02-.03.04-.05.07-.08.02-.03.04-.05.07-.08.02-.02.04-.05.07-.07.02-.03.04-.05.07-.08.02-.02.04-.05.07-.07.02-.03.04-.05.07-.08.02-.03.04-.05.07-.08.02-.02.04-.05.07-.07.02-.03.04-.05.07-.08.02-.03.04-.05.07-.08.02-.02.04-.05.07-.07.02-.03.04-.05.07-.08.02-.02.04-.05.07-.07.02-.03.04-.05.07-.08.02-.03.04-.05.07-.08.02-.03.04-.05.07-.08.02-.03.04-.05.07-.08.02-.02.04-.05.07-.07.02-.03.04-.05.07-.08.02-.03.04-.05.07-.08.02-.03.04-.05.07-.08.02-.03.04-.05.07-.08.02-.02.04-.05.07-.07.02-.03.04-.05.07-.08.02-.02.04-.05.07-.07.02-.03.04-.05.07-.08.02-.03.04-.05.07-.08.02-.02.04-.05.07-.07.02-.03.04-.05.07-.08.02-.03.04-.05.07-.08.02-.03.04-.05.07-.08.02-.02.04-.05.07-.07.02-.03.04-.05.07-.08.02-.03.04-.05.07-.08.02-.03.04-.05.07-.08.02-.03.04-.05.07-.08.02-.03.04-.05.07-.08.02-.02.04-.05.07-.07.02-.03.04-.05.07-.08.02-.03.04-.05.07-.08.02-.03.04-.05.07-.08.02-.03.04-.05.07-.08.02-.02.04-.05.07-.07.02-.03.04-.05.07-.08.02-.02.04-.05.07-.07.02-.03.04-.05.07-.08.02-.03.04-.05.07-.08.02-.02.04-.05.07-.07.02-.03.04-.05.07-.08.02-.03.04-.05.07-.08.02-.03.04-.05.07-.08.02-.02.04-.05.07-.07.02-.03.04-.05.07-.08.02-.03.04-.05.07-.08.02-.03.04-.05.07-.08.02-.03.04-.05.07-.08.02-.03.04-.05.07-.08.02-.02.04-.05.07-.07.02-.03.04-.05.07-.08.02-.03.04-.05.07-.08.02-.03.04-.05.07-.08.02-.03.04-.05.07-.08.02-.02.04-.05.07-.07.02-.03.04-.05.07-.08.02-.02.04-.05.07-.07.02-.03.04-.05.07-.08.02-.03.04-.05.07-.08.02-.02.04-.05.07-.07.02-.03.04-.05.07-.08.02-.03.04-.05.07-.08.02-.03.04-.05.07-.08.02-.02.04-.05.07-.07.02-.03.04-.05.07-.08.02-.03.04-.05.07-.08.02-.03.04-.05.07-.08.02-.03.04-.05.07-.08.02-.03.04-.05.07-.08.02-.02.04-.05.07-.07.02-.03.04-.05.07-.08.02-.03.04-.05.07-.08.02-.03.04-.05.07-.08.02-.03.04-.05.07-.08.02-.02.04-.05.07-.07.02-.03.04-.05.07-.08.02-.02.04-.05.07-.07.02-.03.04-.05.07-.08.02-.03.04-.05.07-.08.02-.02.04-.05.07-.07.02-.03.04-.05.07-.08.02-.03.04-.05.07-.08.02-.03.04-.05.07-.08.02-.02.04-.05.07-.07.02-.03.04-.05.07-.08.02-.03.04-.05.07-.08.02-.03.04-.05.07-.08.02-.03.04-.05.07-.08.02-.03.04-.05.07-.08.02-.02.04-.05.07-.07.02-.03.04-.05.07-.07.02-.03.04-.05.07-.08.02-.03.04-.05.07-.08.02-.03.04-.05.07-.08.02-.02.04-.05.07-.07.02-.03.04-.05.07-.08.02-.02.04-.05.07-.07.02-.03.04-.05.07-.08.02-.03.04-.05.07-.08.02-.02.04-.05.07-.07.02-.03.04-.05.07-.08.02-.03.04-.05.07-.08.02-.03.04-.05.07-.08.02-.02.04-.05.07-.07.02-.03.04-.05.07-.08.02-.03.04-.05.07-.08.02-.03.04-.05.07-.08.02-.03.04-.05.07-.08.02-.03.04-.05.07-.08.02-.02.04-.05.07-.07.02-.03.04-.05.07-.07.02-.03.04-.05.07-.08.02-.03.04-.05.07-.08.02-.03.04-.05.07-.08.02-.02.04-.05.07-.07.02-.03.04-.05.07-.08.02-.02.04-.05.07-.07.02-.03.04-.05.07-.08.02-.03.04-.05.07-.08.02-.02.04-.05.07-.07.02-.03.04-.05.07-.08,2.82-3.21,4.25-7.66,3.62-12.58l-30.42-237.05c-1.26-9.79-10.21-17.73-20.01-17.73H54.1c-4.91,0-9.1,2-11.9,5.23-.02.03-.04.05-.07.07-.02.03-.04.05-.07.08-.02.03-.04.05-.07.08-.02.03-.04.05-.07.08-.02.02-.04.05-.07.07-.02.03-.04.05-.07.08-.02.03-.04.05-.07.08-.02.02-.04.05-.07.07-.02.03-.04.05-.07.08-.02.02-.04.05-.07.07-.02.03-.04.05-.07.08-.02.03-.04.05-.07.08-.02.03-.04.05-.07.08-.02.02-.04.05-.07.07-.02.03-.04.05-.07.08-.02.03-.04.05-.07.08-.02.03-.04.05-.07.08-.02.03-.04.05-.07.08-.02.03-.04.05-.07.08-.02.02-.04.05-.07.07-.02.03-.04.05-.07.07-.02.03-.04.05-.07.08-.02.03-.04.05-.07.08-.02.03-.04.05-.07.08-.02.02-.04.05-.07.07-.02.03-.04.05-.07.08-.02.03-.04.05-.07.08-.02.02-.04.05-.07.07-.02.03-.04.05-.07.08-.02.02-.04.05-.07.07-.02.03-.04.05-.07.08-.02.03-.04.05-.07.08-.02.03-.04.05-.07.08-.02.03-.04.05-.07.08-.02.02-.04.05-.07.07-.02.03-.04.05-.07.08-.02.03-.04.05-.07.08-.02.03-.04.05-.07.08-.02.03-.04.05-.07.08-.02.02-.04.05-.07.07-.02.03-.04.05-.07.08-.02.02-.04.05-.07.07-.02.03-.04.05-.07.08-.02.03-.04.05-.07.08-.02.02-.04.05-.07.07-.02.03-.04.05-.07.08-.02.03-.04.05-.07.08-.02.02-.04.05-.07.07-.02.03-.04.05-.07.08-.02.02-.04.05-.07.07-.02.03-.04.05-.07.08-.02.03-.04.05-.07.08-.02.03-.04.05-.07.08-.02.03-.04.05-.07.08-.02.02-.04.05-.07.07-.02.03-.04.05-.07.08-.02.03-.04.05-.07.08-.02.03-.04.05-.07.08-.02.03-.04.05-.07.08-.02.02-.04.05-.07.07-.02.03-.04.05-.07.08-.02.02-.04.05-.07.07-.02.03-.04.05-.07.08-.02.03-.04.05-.07.08-.02.02-.04.05-.07.07-.02.03-.04.05-.07.08-.02.03-.04.05-.07.08-.02.02-.04.05-.07.07-.02.03-.04.05-.07.08-.02.02-.04.05-.07.07-.02.03-.04.05-.07.08-.02.03-.04.05-.07.08-.02.03-.04.05-.07.08-.02.03-.04.05-.07.08-.02.02-.04.05-.07.07-.02.03-.04.05-.07.08-.02.03-.04.05-.07.08-.02.03-.04.05-.07.08-.02.03-.04.05-.07.08-.02.02-.04.05-.07.07-.02.03-.04.05-.07.08-.02.02-.04.05-.07.07-.02.03-.04.05-.07.08-.02.03-.04.05-.07.08-.02.02-.04.05-.07.07-.02.03-.04.05-.07.08-.02.03-.04.05-.07.08-.02.02-.04.05-.07.07-.02.03-.04.05-.07.08-.02.02-.04.05-.07.07-.02.03-.04.05-.07.08-.02.03-.04.05-.07.08-.02.03-.04.05-.07.08-.02.03-.04.05-.07.08-.02.02-.04.05-.07.07-.02.03-.04.05-.07.08-.02.03-.04.05-.07.08-.02.03-.04.05-.07.08-.02.03-.04.05-.07.08-.02.02-.04.05-.07.07-.02.03-.04.05-.07.08-.02.02-.04.05-.07.07-.02.03-.04.05-.07.08-.02.03-.04.05-.07.08-.02.02-.04.05-.07.07-.02.03-.04.05-.07.08-.02.03-.04.05-.07.08-.02.03-.04.05-.07.08-.02.02-.04.05-.07.07-.02.03-.04.05-.07.08-.02.03-.04.05-.07.08-.02.03-.04.05-.07.08-.02.03-.04.05-.07.08-.02.03-.04.05-.07.08-.02.02-.04.05-.07.07-.02.03-.04.05-.07.08-.02.03-.04.05-.07.08-.02.03-.04.05-.07.08-.02.03-.04.05-.07.08-.02.02-.04.05-.07.07-.02.03-.04.05-.07.08-.02.02-.04.05-.07.07-.02.03-.04.05-.07.08-.02.03-.04.05-.07.08-.02.02-.04.05-.07.07-.02.03-.04.05-.07.08-.02.03-.04.05-.07.08-.02.03-.04.05-.07.08-.02.02-.04.05-.07.07-.02.03-.04.05-.07.08-.02.03-.04.05-.07.08-.02.03-.04.05-.07.08-.02.03-.04.05-.07.08-.02.03-.04.05-.07.08-.02.02-.04.05-.07.07-.02.03-.04.05-.07.08-.02.03-.04.05-.07.08-.02.03-.04.05-.07.08-.02.03-.04.05-.07.08-.02.02-.04.05-.07.07-.02.03-.04.05-.07.08-.02.02-.04.05-.07.07-.02.03-.04.05-.07.08-.02.03-.04.05-.07.08-.02.02-.04.05-.07.07-.02.03-.04.05-.07.08-.02.03-.04.05-.07.08-.02.03-.04.05-.07.08-.02.02-.04.05-.07.07-.02.03-.04.05-.07.08-.02.03-.04.05-.07.08-.02.03-.04.05-.07.08-.02.03-.04.05-.07.08-.02.03-.04.05-.07.08-.02.02-.04.05-.07.07-.02.03-.04.05-.07.07-.02.03-.04.05-.07.08-.02.03-.04.05-.07.08-.02.03-.04.05-.07.08-.02.02-.04.05-.07.07-.02.03-.04.05-.07.08-.02.02-.04.05-.07.07-.02.03-.04.05-.07.08-.02.03-.04.05-.07.08-.02.02-.04.05-.07.07-.02.03-.04.05-.07.08-.02.03-.04.05-.07.08-.02.03-.04.05-.07.08-.02.02-.04.05-.07.07-.02.03-.04.05-.07.08-.02.03-.04.05-.07.08-.02.03-.04.05-.07.08-.02.03-.04.05-.07.08-.02.03-.04.05-.07.08-.02.02-.04.05-.07.07-.02.03-.04.05-.07.07-.02.03-.04.05-.07.08-.02.03-.04.05-.07.08-.02.03-.04.05-.07.08-.02.02-.04.05-.07.07-.02.03-.04.05-.07.08-.02.03-.04.05-.07.08-.02.02-.04.05-.07.07-.02.03-.04.05-.07.08-.02.02-.04.05-.07.07-.02.03-.04.05-.07.08-.02.03-.04.05-.07.08-.02.03-.04.05-.07.08-.02.03-.04.05-.07.08-.02.02-.04.05-.07.07-.02.03-.04.05-.07.08-.02.03-.04.05-.07.08-.02.03-.04.05-.07.08-.02.03-.04.05-.07.08-.02.02-.04.05-.07.07-.02.03-.04.05-.07.08-.02.02-.04.05-.07.07-.02.03-.04.05-.07.08-.02.03-.04.05-.07.08-2.82,3.21-4.25,7.66-3.62,12.58l30.42,237.05c1.26,9.79,10.21,17.73,20.01,17.73h112.36c4.91,0,9.1-2,11.9-5.23.02-.02.04-.05.07-.07Z"/>
          <path class="cls-24" d="m196.7,132.05h0c-2.28,0-4.36-1.85-4.66-4.13l-2.88-22.47c-.29-2.28,1.32-4.13,3.6-4.13h0c2.28,0,4.36,1.85,4.66,4.13l2.88,22.47c.29,2.28-1.32,4.13-3.6,4.13Z"/>
          <g>
            <path class="cls-27" d="m201.43,300.88h-112.36c-9.79,0-18.75-7.94-20.01-17.73L38.64,46.1c-1.26-9.79,5.66-17.73,15.46-17.73h112.36c9.79,0,18.75,7.94,20.01,17.73l30.42,237.05c1.26,9.79-5.66,17.73-15.46,17.73Z"/>
            <path class="cls-37" d="m196.12,291.51h-104.15c-6.66,0-12.75-5.4-13.61-12.06L48.89,49.79c-.85-6.66,3.85-12.06,10.51-12.06h104.15c6.66,0,12.75,5.4,13.61,12.06l29.47,229.66c.85,6.66-3.85,12.06-10.51,12.06Z"/>
            <path class="cls-12" d="m78.75,37.73l2.78,4.96c1.46,2.6,4.24,4.28,7.07,4.28h40.34c2.83,0,5.18-1.68,5.97-4.28l1.51-4.96h-57.67Z"/>
            <g>
              <path class="cls-27" d="m201.43,300.88h-112.36c-9.79,0-18.75-7.94-20.01-17.73L38.64,46.1c-1.26-9.79,5.66-17.73,15.46-17.73h112.36c9.79,0,18.75,7.94,20.01,17.73l30.42,237.05c1.26,9.79-5.66,17.73-15.46,17.73Z"/>
              <path class="cls-37" d="m196.12,291.51h-104.15c-6.66,0-12.75-5.4-13.61-12.06L48.89,49.79c-.85-6.66,3.85-12.06,10.51-12.06h104.15c6.66,0,12.75,5.4,13.61,12.06l29.47,229.66c.85,6.66-3.85,12.06-10.51,12.06Z"/>
              <g class="cls-45">
                <g>
                  <path class="cls-9" d="m135,116.7h-60.86l-9.45,7.82-2.57-20.49c-.88-7,4.08-12.67,11.08-12.67h58.62c7,0,13.38,5.67,14.26,12.67h0c.88,7-4.08,12.67-11.08,12.67Z"/>
                  <path class="cls-26" d="m130.68,76.31h-60.86l-9.45,7.82-2.57-20.49c-.88-7,4.08-12.67,11.08-12.67h58.62c7,0,13.38,5.67,14.26,12.67h0c.88,7-4.08,12.67-11.08,12.67Z"/>
                  <path class="cls-30" d="m109.84,156.61h60.86s11.41,7.82,11.41,7.82l-2.57-20.49c-.88-7-7.26-12.67-14.26-12.67h-58.62c-7,0-11.96,5.67-11.08,12.67h0c.88,7,7.26,12.67,14.26,12.67Z"/>
                  <path class="cls-28" d="m145,196.52h-60.86l-9.45,7.82-2.57-20.49c-.88-7,4.08-12.67,11.08-12.67h58.62c7,0,13.38,5.67,14.26,12.67h0c.88,7-4.08,12.67-11.08,12.67Z"/>
                  <path class="cls-35" d="m119.84,236.42h60.86s11.41,7.82,11.41,7.82l-2.57-20.49c-.88-7-7.26-12.67-14.26-12.67h-58.62c-7,0-11.96,5.67-11.08,12.67h0c.88,7,7.26,12.67,14.26,12.67Z"/>
                  <g>
                    <path class="cls-44" d="m90.91,253.55h92.23c4.93,0,9.43,4,10.05,8.93h0c.62,4.93-2.88,8.93-7.81,8.93h-92.23c-4.93,0-9.43-4-10.05-8.93h0c-.62-4.93,2.88-8.93,7.81-8.93Z"/>
                    <path class="cls-1" d="m169.93,253.55h13.21c4.93,0,9.43,4,10.05,8.93h0c.62,4.93-2.88,8.93-7.81,8.93h-13.21s-2.24-17.86-2.24-17.86Z"/>
                  </g>
                  <line class="cls-41" x1="67.27" y1="59.87" x2="133.87" y2="59.8"/>
                  <line class="cls-41" x1="68.48" y1="67.3" x2="135.08" y2="67.24"/>
                  <line class="cls-41" x1="71.03" y1="99.83" x2="137.62" y2="99.77"/>
                  <line class="cls-41" x1="72.24" y1="107.27" x2="138.84" y2="107.2"/>
                  <line class="cls-41" x1="81.87" y1="180.32" x2="148.46" y2="180.26"/>
                  <line class="cls-41" x1="83.08" y1="187.76" x2="149.67" y2="187.69"/>
                  <line class="cls-40" x1="104.89" y1="139.51" x2="171.49" y2="139.45"/>
                  <line class="cls-40" x1="106.1" y1="146.95" x2="172.7" y2="146.88"/>
                  <line class="cls-40" x1="114.89" y1="219.48" x2="181.49" y2="219.41"/>
                  <line class="cls-40" x1="116.11" y1="226.91" x2="182.7" y2="226.85"/>
                </g>
                <polygon class="cls-15" points="41.46 53.96 182.66 52.68 176.72 32.11 37.78 33.37 41.46 53.96"/>
              </g>
              <path class="cls-23" d="m78.75,37.73l2.78,4.96c1.46,2.6,4.24,4.28,7.07,4.28h40.34c2.83,0,5.18-1.68,5.97-4.28l1.51-4.96h-57.67Z"/>
              <path class="cls-11" d="m163.56,37.73h-5.33c6.66,0,12.75,5.4,13.61,12.06l29.47,229.66c.85,6.66-3.85,12.06-10.51,12.06h5.33c6.66,0,11.37-5.4,10.51-12.06l-29.47-229.66c-.85-6.66-6.95-12.06-13.61-12.06Z"/>
              <path class="cls-36" d="m196.12,291.51h-104.15c-6.66,0-12.75-5.4-13.61-12.06L48.89,49.79c-.85-6.66,3.85-12.06,10.51-12.06h104.15c6.66,0,12.75,5.4,13.61,12.06l29.47,229.66c.85,6.66-3.85,12.06-10.51,12.06Z"/>
              <path class="cls-3" d="m132.94,46.97h-40.34c-2.83,0-5.61-1.68-7.07-4.28l-7.97-14.19h65.67l-4.32,14.19c-.79,2.6-3.14,4.28-5.97,4.28Z"/>
              <g>
                <path class="cls-33" d="m122.75,41.06h-29.32c-.92,0-1.76-.74-1.88-1.66h0c-.12-.92.53-1.66,1.45-1.66h29.32c.92,0,1.76.74,1.88,1.66h0c.12.92-.53,1.66-1.45,1.66Z"/>
                <ellipse class="cls-4" cx="129.69" cy="39.4" rx="2.21" ry="2.51" transform="translate(12.23 107.04) rotate(-46.84)"/>
              </g>
            </g>
            <path class="cls-22" d="m163.56,37.73h-5.33c6.66,0,12.75,5.4,13.61,12.06l29.47,229.66c.85,6.66-3.85,12.06-10.51,12.06h5.33c6.66,0,11.37-5.4,10.51-12.06l-29.47-229.66c-.85-6.66-6.95-12.06-13.61-12.06Z"/>
            <path class="cls-36" d="m196.12,291.51h-104.15c-6.66,0-12.75-5.4-13.61-12.06L48.89,49.79c-.85-6.66,3.85-12.06,10.51-12.06h104.15c6.66,0,12.75,5.4,13.61,12.06l29.47,229.66c.85,6.66-3.85,12.06-10.51,12.06Z"/>
            <path class="cls-20" d="m196.12,291.51h-104.15c-6.66,0-12.75-5.4-13.61-12.06L48.89,49.79c-.85-6.66,3.85-12.06,10.51-12.06h104.15c6.66,0,12.75,5.4,13.61,12.06l29.47,229.66c.85,6.66-3.85,12.06-10.51,12.06Z"/>
            <path class="cls-8" d="m132.94,46.97h-40.34c-2.83,0-5.61-1.68-7.07-4.28l-7.97-14.19h65.67l-4.32,14.19c-.79,2.6-3.14,4.28-5.97,4.28Z"/>
            <g>
              <path class="cls-18" d="m122.75,41.06h-29.32c-.92,0-1.76-.74-1.88-1.66h0c-.12-.92.53-1.66,1.45-1.66h29.32c.92,0,1.76.74,1.88,1.66h0c.12.92-.53,1.66-1.45,1.66Z"/>
              <ellipse class="cls-16" cx="129.69" cy="39.4" rx="2.21" ry="2.51" transform="translate(12.23 107.04) rotate(-46.84)"/>
            </g>
          </g>
          <g>
            <g>
              <path class="cls-31" d="m47.63,168.03h-3c-2.28,0-4.36-1.85-4.66-4.13l-2.5-19.48c-.29-2.28,1.32-4.13,3.6-4.13h3c2.28,0,4.36,1.85,4.66,4.13l2.5,19.48c.29,2.28-1.32,4.13-3.6,4.13Z"/>
              <path class="cls-17" d="m44.63,168.03h0c-2.28,0-4.36-1.85-4.66-4.13l-2.5-19.48c-.29-2.28,1.32-4.13,3.6-4.13h0c2.28,0,4.36,1.85,4.66,4.13l2.5,19.48c.29,2.28-1.32,4.13-3.6,4.13Z"/>
            </g>
            <g>
              <path class="cls-32" d="m42.63,129.07h-3c-2.28,0-4.36-1.85-4.66-4.13l-2.5-19.48c-.29-2.28,1.32-4.13,3.6-4.13h3c2.28,0,4.36,1.85,4.66,4.13l2.5,19.48c.29,2.28-1.32,4.13-3.6,4.13Z"/>
              <path class="cls-29" d="m39.63,129.07h0c-2.28,0-4.36-1.85-4.66-4.13l-2.5-19.48c-.29-2.28,1.32-4.13,3.6-4.13h0c2.28,0,4.36,1.85,4.66,4.13l2.5,19.48c.29,2.28-1.32,4.13-3.6,4.13Z"/>
            </g>
          </g>
        </g>
        <path class="cls-10" d="m195.88,119.46h-80.33c-5.45,0-9.34,4.42-8.7,9.87l10.7,91.88,15.46-16.82h73.76l-10.9-84.92Z"/>
        <g>
          <path class="cls-7" d="m263.85,104.52h-112.89c-9.91,0-17.94,8.03-17.94,17.94v95.2l19.76-17h111.07c9.91,0,17.94-8.03,17.94-17.94v-60.26c0-9.91-8.03-17.94-17.94-17.94Z"/>
          <path class="cls-42" d="m263.85,104.52h-112.89c-9.91,0-17.94,8.03-17.94,17.94v95.2l19.76-17h111.07c9.91,0,17.94-8.03,17.94-17.94v-60.26c0-9.91-8.03-17.94-17.94-17.94Z"/>
        </g>
        <g>
          <g>
            <g>
              <rect class="cls-34" x="147.61" y="114.47" width="112.5" height="73.93" rx="9.87" ry="9.87"/>
              <rect class="cls-14" x="153.71" y="114.47" width="112.5" height="73.93" rx="9.87" ry="9.87"/>
              <path class="cls-21" d="m209.96,144.54l-53.41,41.64c1.52,1.37,3.53,2.22,5.75,2.22h95.32c2.21,0,4.22-.84,5.75-2.22l-53.41-41.64Z"/>
              <path class="cls-5" d="m209.96,158.32l53.41-41.64c-1.52-1.37-3.53-2.22-5.75-2.22h-95.32c-2.21,0-4.22.84-5.75,2.22l53.41,41.64Z"/>
            </g>
            <polyline class="cls-39" points="156.55 116.68 209.96 158.32 263.36 116.68"/>
          </g>
          <g>
            <circle class="cls-2" cx="256.83" cy="114.47" r="22.05"/>
            <circle class="cls-25" cx="259.73" cy="114.47" r="22.05"/>
            <path class="cls-2" d="m264.82,125.45h-4.25v-18.18l-3.99.1v-3.26l8.24-.84v22.17Z"/>
            <path class="cls-19" d="m262.85,125.45h-4.21v-18l-3.95.1v-3.23l8.16-.83v21.96Z"/>
          </g>
        </g>
        <g>
          <g>
            <line class="cls-43" x1="259.73" y1="68.27" x2="259.73" y2="81.63"/>
            <line class="cls-43" x1="292.4" y1="81.8" x2="282.95" y2="91.25"/>
            <line class="cls-43" x1="305.93" y1="114.47" x2="292.57" y2="114.47"/>
            <line class="cls-43" x1="227.07" y1="81.8" x2="236.51" y2="91.25"/>
          </g>
          <g>
            <line class="cls-43" x1="9.63" y1="21.01" x2="20.58" y2="28.67"/>
            <line class="cls-43" x1="39.44" y1="2" x2="41.77" y2="15.16"/>
            <line class="cls-43" x1="73.96" y1="9.63" x2="66.31" y2="20.58"/>
            <line class="cls-43" x1="2" y1="55.54" x2="15.16" y2="53.21"/>
          </g>
        </g>
      </g>
    </g>
  </g>
</svg>