<?xml version="1.0" encoding="utf-8"?>
<!-- Generator: Adobe Illustrator 27.9.0, SVG Export Plug-In . SVG Version: 6.00 Build 0)  -->
<svg version="1.1" id="Layer_1" xmlns="http://www.w3.org/2000/svg" xmlns:xlink="http://www.w3.org/1999/xlink" x="0px" y="0px"
	 viewBox="0 0 14 14" style="enable-background:new 0 0 14 14;" xml:space="preserve">
<style type="text/css">
	.st0{fill:#65B7D6;}
</style>
<path class="st0" d="M2,0C0.9,0,0,0.9,0,2v10c0,1.1,0.9,2,2,2h3.1V9.4H3.4V7H5V5.9c0-2.7,1.2-4,3.9-4c0.5,0,1.4,0.1,1.7,0.2v2.2
	c-0.2,0-0.5,0-0.9,0C8.5,4.3,8,4.8,8,6.1V7h2.6l-0.4,2.4H8V14h4c1.1,0,2-0.9,2-2V2c0-1.1-0.9-2-2-2H2z"/>
</svg>
