<?xml version="1.0" encoding="utf-8"?>
<!-- Generator: Adobe Illustrator 27.9.0, SVG Export Plug-In . SVG Version: 6.00 Build 0)  -->
<svg version="1.1" id="Layer_1" xmlns="http://www.w3.org/2000/svg" xmlns:xlink="http://www.w3.org/1999/xlink" x="0px" y="0px"
	 viewBox="0 0 16 16" style="enable-background:new 0 0 16 16;" xml:space="preserve">
<style type="text/css">
	.st0{fill:#65B7D6;}
</style>
<path class="st0" d="M9.7,6.2v2.5c0,0.1-0.1,0.1-0.1,0.1H9.2c0,0-0.1,0-0.1,0L7.9,7.2v1.5c0,0.1-0.1,0.1-0.1,0.1H7.4
	c-0.1,0-0.1-0.1-0.1-0.1V6.2C7.3,6.1,7.3,6,7.4,6h0.4c0,0,0.1,0,0.1,0.1l1.2,1.6V6.2C9.1,6.1,9.1,6,9.2,6h0.4C9.7,6,9.7,6.1,9.7,6.2
	L9.7,6.2z M6.8,6H6.4C6.3,6,6.3,6.1,6.3,6.2v2.5c0,0.1,0.1,0.1,0.1,0.1h0.4c0.1,0,0.1-0.1,0.1-0.1V6.2C6.9,6.1,6.9,6,6.8,6z
	 M5.8,8.2H4.7v-2C4.7,6.1,4.6,6,4.6,6H4.2C4.1,6,4.1,6.1,4.1,6.2v2.5c0,0,0,0.1,0,0.1c0,0,0,0,0.1,0h1.6c0.1,0,0.1-0.1,0.1-0.1V8.3
	C5.9,8.2,5.9,8.2,5.8,8.2L5.8,8.2z M11.9,6h-1.6c-0.1,0-0.1,0.1-0.1,0.1v2.5c0,0.1,0.1,0.1,0.1,0.1h1.6c0.1,0,0.1-0.1,0.1-0.1V8.3
	c0-0.1-0.1-0.1-0.1-0.1h-1.1V7.7h1.1c0.1,0,0.1-0.1,0.1-0.1V7.2c0-0.1-0.1-0.1-0.1-0.1h-1.1V6.7h1.1c0.1,0,0.1-0.1,0.1-0.1V6.2
	C12,6.1,11.9,6,11.9,6L11.9,6z M16,2.9v10.2c0,1.6-1.3,2.9-2.9,2.9H2.9C1.3,16,0,14.7,0,13.1V2.9C0,1.3,1.3,0,2.9,0h10.2
	C14.7,0,16,1.3,16,2.9z M13.8,7.3c0-2.6-2.6-4.7-5.8-4.7S2.2,4.7,2.2,7.3c0,2.3,2.1,4.3,4.9,4.7c0.7,0.1,0.6,0.4,0.4,1.3
	c0,0.1-0.1,0.6,0.5,0.3s3.4-2,4.6-3.4C13.4,9.3,13.8,8.3,13.8,7.3L13.8,7.3z"/>
</svg>
