<?xml version="1.0" encoding="utf-8"?>
<!-- Generator: Adobe Illustrator 27.9.0, SVG Export Plug-In . SVG Version: 6.00 Build 0)  -->
<svg version="1.1" id="Layer_1" xmlns="http://www.w3.org/2000/svg" xmlns:xlink="http://www.w3.org/1999/xlink" x="0px" y="0px"
	 viewBox="0 0 14 14" style="enable-background:new 0 0 14 14;" xml:space="preserve">
<style type="text/css">
	.st0{fill:#65B7D6;}
</style>
<path class="st0" d="M2,0C0.9,0,0,0.9,0,2v10c0,1.1,0.9,2,2,2h10c1.1,0,2-0.9,2-2V2c0-1.1-0.9-2-2-2H2z M4.8,3
	c0.3-0.1,0.6,0.1,0.7,0.4l0.6,1.5c0.1,0.3,0,0.6-0.2,0.7L5.2,6.2c0.5,1.1,1.4,2,2.5,2.5L8.4,8c0.2-0.2,0.5-0.3,0.7-0.2l1.5,0.6
	C10.9,8.5,11,8.8,11,9.1l-0.4,1.4C10.5,10.8,10.3,11,10,11c-3.9,0-7-3.1-7-7c0-0.3,0.2-0.5,0.5-0.6L4.8,3z"/>
</svg>
