<?xml version="1.0" encoding="utf-8"?>
<!-- Generator: Adobe Illustrator 27.9.0, SVG Export Plug-In . SVG Version: 6.00 Build 0)  -->
<svg version="1.1" id="Layer_1" xmlns="http://www.w3.org/2000/svg" xmlns:xlink="http://www.w3.org/1999/xlink" x="0px" y="0px"
	 viewBox="0 0 864 864" style="enable-background:new 0 0 864 864;" xml:space="preserve">
<style type="text/css">
	.st0{fill:#6D98AC;}
	.st1{fill:#231F20;}
	.st2{fill:#6FB1C8;}
	.st3{fill:#B9DBE5;}
	.st4{fill:#80C7BC;}
	.st5{fill:#FFFFFF;}
</style>
<polygon class="st0" points="28.5,415.8 141.3,469.6 253.3,257.6 "/>
<path class="st1" d="M251.1,254.2L26.3,412.4c-1.2,0.8-1.9,2.3-1.8,3.7c0.1,1.5,1,2.8,2.3,3.4l112.8,53.9c1.9,0.9,4.2,0.2,5.3-1.8
	l112-212c0.9-1.7,0.5-3.8-0.8-5C254.7,253.3,252.6,253.1,251.1,254.2L251.1,254.2z M241.8,270.8c-13.5,25.6-98.9,187.3-102.2,193.5
	c-6.1-2.9-91.9-43.9-102.9-49.1C47,407.8,218.1,287.4,241.8,270.8L241.8,270.8z"/>
<polygon class="st2" points="460.7,295.6 141.3,469.6 582.6,511.5 "/>
<path class="st1" d="M458.8,291.9L139.4,466c-1.6,0.9-2.4,2.7-2.1,4.5c0.4,1.8,1.8,3.1,3.6,3.3l441.2,41.9c1.5,0.1,3-0.6,3.8-1.9
	c0.8-1.3,0.9-3,0.1-4.3l-121.9-216C463.1,291.6,460.7,290.9,458.8,291.9L458.8,291.9z M459.2,301.1c3.7,6.5,108.8,192.8,116,205.6
	c-14.6-1.4-395.2-37.5-420-39.9C177,454.9,452.6,304.6,459.2,301.1L459.2,301.1z"/>
<polygon class="st0" points="67.7,511.9 304.4,607.7 141.3,469.6 "/>
<path class="st1" d="M139.4,466l-73.6,42.3c-1.4,0.8-2.2,2.3-2.1,3.9c0.1,1.6,1.1,3,2.5,3.6l236.7,95.8c1.9,0.8,4,0,5-1.7
	s0.6-4-0.9-5.3L143.9,466.5C142.6,465.4,140.8,465.2,139.4,466L139.4,466z M140.9,474.6c3.7,3.1,111.4,94.3,141.3,119.7
	c-37-15-191.9-77.6-205.1-83C88.7,504.7,136.8,477,140.9,474.6z"/>
<polygon class="st3" points="253.3,257.6 460.7,295.6 141.3,469.6 "/>
<path class="st1" d="M249.8,255.6l-112,212c-0.8,1.6-0.6,3.6,0.7,4.9c1.3,1.3,3.2,1.6,4.8,0.8l319.4-174.1c1.5-0.8,2.4-2.6,2.1-4.3
	c-0.3-1.7-1.6-3.1-3.3-3.4l-207.4-38C252.4,253.2,250.6,254.1,249.8,255.6L249.8,255.6z M255.5,262.2c5.3,1,172.8,31.6,193,35.3
	c-18.6,10.1-276,150.4-297.2,162C162.5,438.3,252.9,267.1,255.5,262.2L255.5,262.2z"/>
<polygon class="st4" points="28.5,415.8 67.7,511.9 141.3,469.6 "/>
<path class="st1" d="M25.7,412.8c-1.2,1.2-1.6,3-0.9,4.6L64,513.5c0.4,1.1,1.3,2,2.4,2.3c1.1,0.4,2.3,0.3,3.3-0.3l73.6-42.3
	c1.3-0.8,2.1-2.2,2.1-3.8s-0.9-2.9-2.3-3.6L30.3,412C28.8,411.3,26.9,411.6,25.7,412.8L25.7,412.8z M36.3,424.1
	c14.8,7.1,84.8,40.5,96.2,45.9c-10.6,6.1-56.4,32.4-62.8,36.1C66.9,499.1,42.4,439.2,36.3,424.1z"/>
<polygon class="st4" points="582.6,511.5 141.3,469.6 304.4,607.7 "/>
<path class="st1" d="M137.6,468c-0.7,1.7-0.2,3.6,1.2,4.8l163.1,138.1c1.1,0.9,2.6,1.2,3.9,0.7l278.2-96.2c1.8-0.6,3-2.5,2.7-4.4
	c-0.2-2-1.7-3.5-3.6-3.6l-441.2-41.9C139.9,465.3,138.3,466.4,137.6,468L137.6,468z M154,475c23.5,2.2,375.5,35.7,409.2,38.9
	c-31.3,10.8-254,87.8-258,89.2C302.1,600.4,171.6,489.9,154,475L154,475z"/>
<path class="st1" d="M703.6,225.6l-39.9,35.1c-1.5,1.3-2,3.5-1.2,5.3c0.8,1.9,2.6,3,4.6,2.7l142.5-15.7c2.2-0.2,3.9-2.1,4-4.4
	s-1.5-4.3-3.7-4.7l-102.6-19.4C706,224.3,704.6,224.7,703.6,225.6z M707.8,234c2.8,0.5,41,7.8,70.2,13.3
	c-32.9,3.6-79.8,8.8-97.5,10.8C691.4,248.5,705.7,235.9,707.8,234L707.8,234z"/>
<polygon class="st4" points="460.7,295.6 666.6,264.2 582.6,511.5 "/>
<path class="st1" d="M666,260.1l-205.8,31.4c-1.3,0.2-2.5,1.1-3,2.3c-0.6,1.2-0.5,2.7,0.1,3.9l121.9,216c0.8,1.4,2.3,2.2,3.9,2
	s2.9-1.2,3.5-2.8l84-247.4c0.5-1.4,0.2-2.9-0.7-4C668.8,260.4,667.4,259.9,666,260.1L666,260.1z M660.5,269.3
	c-4,11.8-73.6,216.8-78.9,232.3c-8-14.2-109-193.2-114.5-202.9C477.9,297.1,648.5,271.1,660.5,269.3L660.5,269.3z"/>
<polygon class="st3" points="809.1,248.5 582.6,511.5 666.6,264.2 "/>
<path class="st1" d="M808.7,244.4l-142.5,15.7c-1.5,0.2-2.9,1.2-3.4,2.8l-84,247.3c-0.6,1.9,0.1,3.9,1.8,4.9c1.7,1,3.8,0.7,5.1-0.8
	l226.5-263.1c1.1-1.3,1.3-3.1,0.6-4.6C811.9,245.1,810.4,244.2,808.7,244.4L808.7,244.4z M799.2,253.8
	C787.1,267.8,616.5,466,593.2,493c11.3-33.3,74.9-220.5,76.4-225C674.1,267.5,781.7,255.7,799.2,253.8L799.2,253.8z"/>
<polygon class="st0" points="253.3,257.6 460.7,295.6 666.6,264.2 706.5,229.1 "/>
<path class="st1" d="M706.3,225l-453.2,28.5c-2,0.1-3.7,1.8-3.8,3.9c-0.1,2.1,1.3,3.9,3.3,4.3l207.4,38c0.4,0.1,0.9,0.1,1.3,0
	l205.8-31.4c0.8-0.1,1.5-0.4,2-1l39.9-35.1c1.3-1.2,1.8-3.1,1.1-4.7C709.6,225.9,708,224.9,706.3,225L706.3,225z M694.7,234
	c-10.6,9.3-28.6,25.2-29.9,26.3c-2.3,0.4-202.7,30.9-204,31.1c-1.1-0.2-126.8-23.2-173.5-31.8C343.4,256.1,673.7,235.3,694.7,234z"
	/>
<polygon class="st4" points="833.9,69.8 706.5,229.1 809.1,248.5 "/>
<path class="st1" d="M830.7,67.2L703.4,226.5c-0.9,1.1-1.2,2.7-0.7,4c0.5,1.4,1.7,2.4,3.1,2.6l102.6,19.4c1.1,0.2,2.2-0.1,3.1-0.7
	c0.9-0.7,1.5-1.7,1.7-2.8l24.7-178.7c0.2-1.8-0.7-3.6-2.4-4.4C833.8,65.2,831.9,65.7,830.7,67.2L830.7,67.2z M827.8,83.9
	c-3.3,24.1-21.1,152.3-22.1,159.7c-7.1-1.3-80.5-15.2-91.7-17.3C721.4,217,812.6,103,827.8,83.9L827.8,83.9z"/>
<path class="st1" d="M667.7,84c-1.7,1.1-2.5,3.1-2,5.1l36.5,141.2c0.4,1.7,1.7,2.9,3.4,3.3c1.7,0.4,3.4-0.2,4.4-1.6l49-61.3
	c1.5-1.9,1.3-4.6-0.5-6.3l-85.4-79.9C671.6,83.1,669.4,82.9,667.7,84L667.7,84z M678.3,101.9c16.3,15.2,66,61.7,71,66.4
	c-4.2,5.3-32.5,40.6-40.7,50.9C705.1,205.6,684.1,124.3,678.3,101.9L678.3,101.9z"/>
<path class="st5" d="M34.8,799.8h-4.6v-35h23.7v4.2H34.8v10.7h16.8v4.2H34.8L34.8,799.8L34.8,799.8z"/>
<path class="st5" d="M87.9,799.8h-4.6v-35h15.8c5.6,0,11.2,2,11.2,9.4c0,5.2-2.6,7.1-4.8,8.4c2,0.8,3.9,1.7,4.1,6.6l0.3,6.3
	c0.1,2,0.3,2.7,1.7,3.5v0.8H106c-0.7-2.1-0.8-7.5-0.8-8.8c0-2.9-0.6-6.3-6.1-6.3H87.9L87.9,799.8L87.9,799.8z M87.9,780.7h10.7
	c3.4,0,7-0.9,7-6.1s-3.9-5.8-6.2-5.8H87.9L87.9,780.7L87.9,780.7z"/>
<path class="st5" d="M155,800.7c-12.8,0-16.7-10.9-16.7-18.4s3.9-18.4,16.7-18.4s16.7,10.9,16.7,18.4S167.8,800.7,155,800.7z
	 M155,768c-7.4,0-11.9,6-11.9,14.2s4.5,14.2,11.9,14.2s11.9-6,11.9-14.2S162.4,768,155,768z"/>
<path class="st5" d="M225.4,799.8h-26.9v-4l21-26.9h-19.4v-4.2h25.4v4.1l-21.1,26.7h21.1V799.8L225.4,799.8z"/>
<path class="st5" d="M279.8,799.8h-25.3v-35h25v4.2h-20.3v10.7h18.7v4.2h-18.8v11.7h20.7L279.8,799.8L279.8,799.8z"/>
<path class="st5" d="M332.4,764.8h4.5v35h-5.2l-17.4-28.3h-0.1v28.3h-4.5v-35h5.5l17.1,28.3h0.1L332.4,764.8L332.4,764.8z"/>
<path class="st5" d="M410.3,799.8h-4.6v-35H421c6.3,0,10.1,4.2,10.1,9.8c0,4.9-2.7,10.4-10.1,10.4h-10.8V799.8z M410.3,781h9.2
	c4.1,0,7-1.6,7-6.3c0-4.4-3-5.8-6.8-5.8h-9.4L410.3,781L410.3,781z"/>
<path class="st5" d="M466,799.8h-4.6v-35h15.8c5.6,0,11.3,2,11.3,9.4c0,5.2-2.6,7.1-4.8,8.4c2,0.8,3.9,1.7,4.1,6.6l0.3,6.3
	c0,2,0.3,2.7,1.7,3.5v0.8h-5.7c-0.7-2.1-0.8-7.5-0.8-8.8c0-2.9-0.6-6.3-6.1-6.3H466L466,799.8L466,799.8z M466,780.7h10.7
	c3.4,0,7-0.9,7-6.1s-3.9-5.8-6.2-5.8H466L466,780.7L466,780.7z"/>
<path class="st5" d="M533.1,800.7c-12.8,0-16.7-10.9-16.7-18.4s3.9-18.4,16.7-18.4s16.7,10.9,16.7,18.4S545.9,800.7,533.1,800.7z
	 M533.1,768c-7.5,0-11.9,6-11.9,14.2s4.5,14.2,11.9,14.2c7.4,0,11.9-6,11.9-14.2S540.5,768,533.1,768z"/>
<path class="st5" d="M579.4,764.8h13.9c8.9,0,14.4,6.9,14.4,17c0,7.8-3.3,18-14.6,18h-13.7V764.8z M584,795.7h9
	c6,0,9.9-4.8,9.9-13.7s-4-13.3-10.2-13.3H584L584,795.7L584,795.7z"/>
<path class="st5" d="M664.6,764.8v22.7c0,7.2-4.4,13.2-13.8,13.2s-13.2-6.1-13.2-12.6v-23.4h4.6v22c0,7.6,4.5,9.7,8.7,9.7s9-2,9-9.6
	v-22.2L664.6,764.8L664.6,764.8z"/>
<path class="st5" d="M719.8,775.3c-1.3-6.2-6.3-7.3-9.6-7.3c-6.2,0-11.2,4.7-11.2,13.9c0,8.2,2.9,14.6,11.4,14.6
	c3,0,8.2-1.5,9.8-9.6h4.5c-1.9,13.2-12.4,13.8-15,13.8c-7.8,0-15.4-5.2-15.4-18.6c0-10.8,6-18.2,16-18.2c8.8,0,13.4,5.6,14.1,11.5
	L719.8,775.3L719.8,775.3z"/>
<path class="st5" d="M751.1,764.8h27.8v4.2h-11.6v30.8h-4.6V769h-11.6V764.8z"/>
<path class="st5" d="M827.7,775c-0.3-5.4-4.6-7.1-8.5-7.1c-2.9,0-7.8,0.8-7.8,6.2c0,3,2.1,4,4.1,4.5l9.8,2.3
	c4.5,1.1,7.8,3.8,7.8,9.4c0,8.3-7.5,10.6-13.4,10.6c-6.3,0-8.8-2-10.3-3.4c-2.9-2.7-3.5-5.6-3.5-8.9h4.3c0,6.3,5.1,8.2,9.4,8.2
	c3.3,0,9-0.9,9-5.9c0-3.7-1.7-4.8-7.3-6.2l-7-1.7c-2.2-0.5-7.3-2.1-7.3-8.2c0-5.5,3.5-10.8,11.8-10.8c12,0,13.2,7.3,13.4,11.2
	L827.7,775L827.7,775z"/>
<path class="st5" d="M61.6,720.8H25.8v-90.1h39.1c12.8,0,23.1,5.6,23.1,22.1c0,8.1-3.3,16.7-13,19.9c8.6,2.3,16.2,9.4,16.2,20.3
	C91.1,709.4,81.7,720.8,61.6,720.8L61.6,720.8z M57.1,649.7h-8.7v15.7h9c5.4,0,7.3-3.9,7.3-8.6S62.5,649.7,57.1,649.7L57.1,649.7z
	 M56.7,683.7h-8.3v17.8H57c5.7,0,8.1-3.7,8.1-9.3C65.1,687.7,63.7,683.7,56.7,683.7L56.7,683.7z"/>
<path class="st5" d="M172.6,722.3c-25.5,0-39.7-17.3-39.7-44.3c0-32.1,17.2-48.9,40.5-48.9c30,0,38.7,23.4,38.7,43.2
	C212,698.2,204.1,722.4,172.6,722.3L172.6,722.3z M172.7,647.2c-10.2,0-14.6,11-14.6,28.2c0,23,5.4,28.7,14.8,28.7s13.8-5.8,13.8-29
	S182.5,647.2,172.7,647.2L172.7,647.2z"/>
<path class="st5" d="M293.5,722.3c-25.5,0-39.7-17.3-39.7-44.3c0-32.1,17.2-48.9,40.5-48.9c30,0,38.7,23.4,38.7,43.2
	C332.9,698.2,325,722.4,293.5,722.3L293.5,722.3z M293.6,647.2c-10.2,0-14.5,11-14.5,28.2c0,23,5.4,28.7,14.8,28.7s13.8-5.8,13.8-29
	S303.4,647.2,293.6,647.2L293.6,647.2z"/>
<path class="st5" d="M424.3,720.8l-15.6-31.3c-2.3-4.7-4.9-11.1-6.8-16.9c0.5,3.5,1.3,11.8,1.3,22.9v25.3h-21.5v-90.1h21.8l16,30.9
	c2.5,4.8,5.2,11.1,7.3,17.2c-0.6-5.3-0.7-14.2-0.7-20.2v-27.9h21.5v90.1L424.3,720.8L424.3,720.8z"/>
<path class="st5" d="M530,722.3c-13.2,0-23.6-3.3-32.5-8.1l8-18.1c6.3,3.8,15.8,7.2,24.8,7.2c9,0,12.4-3.3,12.4-8.3
	c0-4-2.8-5.8-8.8-7.4l-10.4-2.7c-12.8-3.3-21.5-10.6-21.5-26.1c0-17.8,14.4-29.8,34.1-29.8c12.3,0,23.7,3.2,31.5,8.8l-10.9,16.4
	c-6-4-13.8-6.3-19.9-6.3s-9,2.9-9,6.5c0,3,2,6,8.6,7.6l9,2.3c9.5,2.4,23.2,6.8,23.2,24.9C568.6,711,552.9,722.3,530,722.3L530,722.3
	z"/>
<path class="st5" d="M620.4,720.8v-90.1h23.2v90.1H620.4z"/>
<path class="st5" d="M741.5,720.8l-9.2-25.2c-3.4-9.3-5.4-10.5-10.3-10.5v35.7h-22.6v-90.1h30.3c25.9,0,34.3,10.7,34.3,25.7
	s-8,23.4-18.3,25.2c3,0.9,6.7,5,8.8,9.7c2.9,6.1,10.4,22.8,13.3,29.5L741.5,720.8L741.5,720.8z M728.2,649.7h-6.3v18.4h6.4
	c7.7,0,10.4-3.7,10.4-9.8C738.7,651.8,735.3,649.7,728.2,649.7L728.2,649.7z"/>
<path class="st5" d="M815.1,720.8v-90.1h23.2v90.1H815.1z"/>
</svg>
