<?xml version="1.0" encoding="UTF-8"?>
<svg id="Layer_2" data-name="Layer 2" xmlns="http://www.w3.org/2000/svg" viewBox="0 0 440.75 396.28">
  <defs>
    <style>
      .cls-1, .cls-2, .cls-3, .cls-4, .cls-5, .cls-6, .cls-7, .cls-8, .cls-9, .cls-10, .cls-11, .cls-12, .cls-13, .cls-14, .cls-15, .cls-16, .cls-17 {
        stroke-width: 0px;
      }

      .cls-1, .cls-18 {
        opacity: .4;
      }

      .cls-1, .cls-10 {
        fill: #fff;
      }

      .cls-3 {
        opacity: .3;
      }

      .cls-4 {
        fill: #37474f;
      }

      .cls-5 {
        fill: #e0e0e0;
      }

      .cls-6 {
        fill: #b16668;
      }

      .cls-7 {
        fill: #f5f5f5;
      }

      .cls-8 {
        fill: #27debf;
      }

      .cls-9 {
        fill: #9a4a4d;
      }

      .cls-11 {
        opacity: .6;
      }

      .cls-12 {
        fill: #fafafa;
      }

      .cls-13 {
        fill: #263238;
      }

      .cls-19, .cls-17 {
        opacity: .1;
      }

      .cls-14 {
        fill: #ebebeb;
      }

      .cls-15 {
        opacity: .15;
      }

      .cls-16 {
        fill: #455a64;
      }
    </style>
  </defs>
  <g id="Floor">
    <path id="Floor-2" data-name="Floor" class="cls-7" d="m64.55,362.56c86.06,44.96,225.6,44.96,311.66,0,86.06-44.96,86.06-117.86,0-162.81-86.06-44.96-225.6-44.96-311.66,0-86.06,44.96-86.06,117.86,0,162.81Z"/>
  </g>
  <g id="Shadows">
    <ellipse id="Shadow" class="cls-5" cx="321.95" cy="298.14" rx="40.89" ry="23.61"/>
  </g>
  <g id="Plants">
    <g id="Plants-2" data-name="Plants">
      <g>
        <g>
          <g>
            <path class="cls-8" d="m72.89,285.81c-.61-6.94-6.88-20.87-14.87-29.25-7.99-8.38-19.88-13.98-27.68-10.52-7.27,3.22-5.6,12.97,4.06,18.69,9.66,5.72,24.03,12.7,29.01,23.61l9.59,13.08-.11-15.6Z"/>
            <path class="cls-17" d="m72.89,285.81c-.61-6.94-6.88-20.87-14.87-29.25-7.99-8.38-19.88-13.98-27.68-10.52-7.27,3.22-5.6,12.97,4.06,18.69,9.66,5.72,24.03,12.7,29.01,23.61l9.59,13.08-.11-15.6Z"/>
          </g>
          <path class="cls-10" d="m74.23,295.26c-.22,0-.43-.14-.49-.37-6.72-23.28-27.56-40.86-39.4-44.11-.27-.07-.43-.35-.36-.63.07-.27.35-.43.63-.36,12.06,3.31,33.29,21.18,40.11,44.81.08.27-.08.55-.35.63-.05.01-.09.02-.14.02Z"/>
        </g>
        <g>
          <path class="cls-8" d="m72.02,310.73c-1.46-3.8-6.78-9.82-14.95-14.47-9.04-5.14-20.06-6.9-22.95-11.26-3.47-5.24.71-10.84,9.56-10.52,8.85.32,25.29,10.92,29.32,28.69l-.99,7.55Z"/>
          <path class="cls-10" d="m73.36,306.49c-.19,0-.38-.11-.47-.3-9.04-19.66-25.14-25.42-32.39-25.73-.28-.01-.5-.25-.49-.53.01-.28.24-.5.53-.49,8.02.34,24.05,6.26,33.27,26.32.12.25,0,.56-.25.68-.07.03-.14.05-.21.05Z"/>
        </g>
      </g>
    </g>
    <g id="Plants-3" data-name="Plants">
      <g>
        <path class="cls-8" d="m344.46,276.81c-.15-5.58,1.4-14.95,6.9-24.29,5.89-10,13.66-16.7,20.19-14.66,6.08,1.9,4.74,10.15-4.4,19.14-6.42,6.31-12.91,14.31-15.88,23.46l-5.15,11.78-1.66-15.42Z"/>
        <path class="cls-8" d="m344.46,276.81c-.15-5.58,1.4-14.95,6.9-24.29,5.89-10,13.66-16.7,20.19-14.66,6.08,1.9,4.74,10.15-4.4,19.14-6.42,6.31-12.91,14.31-15.88,23.46l-5.15,11.78-1.66-15.42Z"/>
        <g class="cls-19">
          <path class="cls-2" d="m344.46,276.81c-.15-5.58,1.4-14.95,6.9-24.29,5.89-10,13.66-16.7,20.19-14.66,6.08,1.9,4.74,10.15-4.4,19.14-6.42,6.31-12.91,14.31-15.88,23.46l-5.15,11.78-1.66-15.42Z"/>
        </g>
        <path class="cls-10" d="m345.48,280.97c.16-.02.3-.13.34-.3,3.92-15.94,13.84-32.72,23.09-39.03.18-.12.23-.37.1-.55-.12-.18-.37-.23-.55-.1-9.39,6.4-19.46,23.38-23.42,39.49-.05.21.08.43.29.48.05.01.09.01.14,0Z"/>
      </g>
      <g>
        <path class="cls-8" d="m344.41,294.89s3.91,3.91,10.86,5.44c6.96,1.53,10.26-1.64,10.26-1.64,0,0-2.37-6.75-6.25-8.84,0,0,6.68,1.78,11.89,5.73,0,0,4.29.32,6.38-6.12,0,0-2.31-4.09-10.71-6.73,0,0,5.26-1,12.63,1.36.55.26,3.44-8.06,4.4-11.93s-.62-3.91-3.61-4.91c-3-.99-13.33-2.12-15.34-.56-2.01,1.56-3.31,7.23-3.31,7.23,0,0-1.63-3.35-1.02-6.21,0,0-2.99-1.22-6.49-.23s-3.37,2.67-3.52,5.16c-.16,2.66,0,4.44.58,7.47,0,0-2.24-2.18-1.87-9.72,0,0-4.86,3.68-6.92,6.97-2.06,3.29-2.12,12.21,2.04,17.55Z"/>
        <path class="cls-10" d="m344.38,295.29c.15,0,.29-.07.37-.2,6.37-11.44,28.26-23.86,35.89-24.88.22-.03.37-.23.34-.44-.03-.22-.23-.37-.44-.34-7.76,1.03-30.01,13.66-36.48,25.28-.11.19-.04.43.15.54.05.03.11.05.17.05Z"/>
      </g>
    </g>
  </g>
  <g id="Device">
    <g id="Device-2" data-name="Device">
      <path class="cls-4" d="m78.29,318.39l-2.72-1.57c-2.21-1.28-4-4.38-4-6.93V71.4c0-2.55,1.79-5.66,4-6.93L185.56.96c2.21-1.28,5.79-1.28,8,0l2.72,1.57c2.21,1.28,4,4.38,4,6.93v238.49c0,2.55-1.79,5.66-4,6.93l-110,63.51c-2.21,1.28-5.79,1.28-8,0Z"/>
      <path class="cls-13" d="m87.66,76.06l-14.92-8.61c-.72,1.25-1.17,2.67-1.17,3.94v238.49c0,2.55,1.79,5.66,4,6.93l2.72,1.57c2.21,1.28,5.79,1.28,8,0l1.36-.79V76.06Z"/>
      <path class="cls-16" d="m82.29,77.59v238.49c0,2.55,1.79,3.59,4,2.31l110-63.51c2.21-1.28,4-4.38,4-6.93V9.46c0-2.55-1.79-3.59-4-2.31l-110,63.51c-2.21,1.28-4,4.38-4,6.93Z"/>
      <path class="cls-12" d="m91.09,92.66l100.02-57.74c1.89-1.09,3.43-.21,3.43,1.98v190.27c0,2.19-1.54,4.85-3.43,5.94l-100.02,57.74c-1.89,1.09-3.43.21-3.43-1.98V98.61c0-2.19,1.53-4.85,3.43-5.94Z"/>
      <g class="cls-18">
        <path class="cls-8" d="m141.65,107.66c11.21-6.47,20.3-1.23,20.3,11.72s-9.09,28.69-20.3,35.17c-11.21,6.47-20.3,1.23-20.3-11.72s9.09-28.69,20.3-35.16Z"/>
        <path class="cls-8" d="m181.66,176.91c0-21.27-14.94-30.72-33.36-20.08l-11.52,6.65c-18.42,10.64-33.36,36.5-33.36,57.77v5.72l78.23-45.14v-4.93Z"/>
      </g>
      <path class="cls-13" d="m141.29,45.1c1.48-.86,2.68-.16,2.68,1.55s-1.2,3.79-2.68,4.65c-1.48.86-2.68.16-2.68-1.55,0-1.71,1.2-3.79,2.68-4.65Z"/>
      <g>
        <path class="cls-13" d="m133.55,58.49c5.45-3.01,15.17-8.8,20.54-11.96.91-.54,1.65-.17,1.65.83s-.74,2.23-1.66,2.76l-20.58,11.88c-.92.53-1.66.15-1.66-.84s.78-2.16,1.7-2.67Z"/>
        <path class="cls-13" d="m128.35,61.5c.83-.48,1.51-.09,1.51.87s-.67,2.13-1.51,2.61c-.83.48-1.51.09-1.51-.87,0-.96.67-2.13,1.51-2.61Z"/>
      </g>
      <path class="cls-13" d="m141.29,268.06c2.96-1.71,5.36-.32,5.36,3.1s-2.4,7.58-5.36,9.29c-2.96,1.71-5.36.32-5.36-3.1s2.4-7.58,5.36-9.29Z"/>
    </g>
  </g>
  <g id="Check_Mark" data-name="Check Mark">
    <g>
      <g>
        <path class="cls-8" d="m232.5,201.25l-12.06-6.96h-.02l-.12-.07v.02c-6.01-3.39-14.23-2.89-23.34,2.37-8.52,4.91-16.3,13.11-22.16,22.59-6.77,10.92-11.03,23.57-11.03,34.9,0,10.57,3.7,17.99,9.68,21.47h0s.04.03.04.03l12.25,6.99c6.05,3.86,14.59,3.51,24.06-1.95,18.34-10.59,33.2-36.33,33.2-57.5,0-11.02-4.03-18.62-10.48-21.89Z"/>
        <g>
          <path class="cls-17" d="m185.49,282.46l-12.01-6.86h-.04v-.03c-5.99-3.47-9.68-10.9-9.68-21.47,0-11.33,4.26-23.97,11.03-34.89l12.81,7.39c-6.78,10.92-11.02,23.55-11.02,34.87,0,10.11,3.38,17.33,8.91,20.99Z"/>
          <path class="cls-1" d="m232.26,201.12c-5.91-2.87-13.8-2.14-22.47,2.86-8.53,4.93-16.31,13.14-22.18,22.63l-12.81-7.39c5.86-9.49,13.64-17.68,22.16-22.59,9.11-5.26,17.33-5.76,23.33-2.38v-.03s.14.08.14.08h.03l11.81,6.83Z"/>
        </g>
      </g>
      <g>
        <polygon class="cls-10" points="227.08 214.6 222.48 211.95 204.47 254.4 207.54 256.17 227.08 214.6"/>
        <polygon class="cls-10" points="200.94 244.92 196.34 242.27 191.4 252.72 196 255.37 200.94 244.92"/>
        <polygon class="cls-7" points="208.72 268.62 196 255.37 200.94 244.92 207.54 256.17 227.08 214.6 234.32 221.67 208.72 268.62"/>
        <polygon class="cls-5" points="191.4 252.72 196 255.37 208.72 268.62 204.13 265.99 191.4 252.72"/>
      </g>
    </g>
  </g>
  <g id="Character">
    <g>
      <path class="cls-13" d="m326.25,97.03h0c10.85,0,19.65-8.8,19.65-19.65v-1.16c0-9.2-7.45-16.65-16.65-16.65h-5.99c-9.2,0-16.65,7.45-16.65,16.65v1.16c0,10.85,8.8,19.65,19.65,19.65Z"/>
      <g>
        <path class="cls-13" d="m306.03,291.29c-2.28,2.5-4.8,4.5-7.5,6.52-.4.3-.82.62-1.04,1.08-.35.73-.9,2.55,2.45,3.72,3.27,1.14,7.36.88,10.34-.99,2.75-1.72,2.88-5.31,5.47-7.35,1.92-1.52,4.33-1.9,5.88-3.88,1.08-1.38.8-3.21.24-5.48-.62-2.48-.9-4.35-1.72-4.16l.14,1.14c-1.02,1.63-6.33,2.12-8.69.99,0,0-4.09,6.79-5.57,8.42Z"/>
        <path class="cls-6" d="m303.7,293.61s0-.01,0-.02c.8-.73,1.58-1.48,2.33-2.3.96-1.05,3-4.24,4.33-6.38.81-1.3,1.4-2.85,1.21-4.57s-.66-6.11-.66-6.11l8.4-.59.98,8.24h0c.2,1.87-1.34,3.53-4.07,5.88-2.73,2.36-6.21,7.85-8.68,9.23-2.48,1.38-4.25,1.33-5.3.62-1.09-.73-1.19-1.29,1.47-4.01Z"/>
        <path class="cls-13" d="m337.99,292.05v-1.26c-.5,1.48-2.81,7.86-6.31,11.06-2.79,2.54-6.59,5.48-7.55,8.31-1.01,2.95,5.29,3.94,7.89,3.48,3.02-.54,6.94-2.25,9.07-4.87,1.5-1.84,2.45-4.02,3.52-5.47s3.53-3.06,4.11-4.74c.32-.92-.06-2.93-.51-4.64-.41-1.56-.85-3.28-1.39-3.13,0,.19,0,.96,0,.96-.64.71-2.42,1.42-4.42,1.49-1.29.05-4.43-.21-4.42-1.19Z"/>
        <path class="cls-6" d="m329.15,304.07c.86-.77,1.73-1.52,2.52-2.24,2.45-2.23,4.31-6.02,5.39-8.6.61-1.48.93-3.05.93-4.65v-5.03h8.83v8.19h0s0,0,0,0v.22l-.04.02c-.43,1.84-4.48,6.72-6.78,9.9-1.54,2.13-4.48,4.85-7.98,5.32-3.32.44-5.02-.6-2.86-3.12Z"/>
        <path class="cls-8" d="m345.06,154.79c6.85,14.95-.25,67.63-.25,67.63.21,2.43,2.98,7.2,4.01,17.88,1.22,12.62-1.92,44.31-1.92,44.31,0,0-4.09,2.67-8.93.35,0,0-8.42-47.73-10-60.27-1.38-10.95-4.03-36.69-4.03-36.69l-6.88,36.92s2.24,6.01,2.69,10.68c.72,7.38.18,41.52.18,41.52,0,0-3.02,2.3-8.8,1.44,0,0-10.02-46.73-10.79-55.62-.46-5.31,5.59-70.36,5.59-70.36l39.13,2.19Z"/>
        <path class="cls-11" d="m345.06,154.79c6.85,14.95-.25,67.63-.25,67.63.21,2.43,2.98,7.2,4.01,17.88,1.22,12.62-1.92,44.31-1.92,44.31,0,0-4.09,2.67-8.93.35,0,0-8.42-47.73-10-60.27-1.38-10.95-4.03-36.69-4.03-36.69l-6.88,36.92s2.24,6.01,2.69,10.68c.72,7.38.18,41.52.18,41.52,0,0-3.02,2.3-8.8,1.44,0,0-10.02-46.73-10.79-55.62-.46-5.31,5.59-70.36,5.59-70.36l39.13,2.19Z"/>
        <path class="cls-3" d="m323.95,188.01l-2.22-12.23s-9.4-1.95-13.67-5.96c0,0,4.47,5.57,11.12,7.39l2.5,10.69-3.93,33.4,6.21-33.3Z"/>
      </g>
      <g>
        <path class="cls-6" d="m356.22,148.29c-.07-.98-1.91-11.45-3.17-17.31l-12.31,3.77,2.19,10.78,10.37,8.32c3.25-.64,2.99-4.58,2.92-5.56Z"/>
        <polygon class="cls-6" points="296.68 126.21 290.86 136.88 299.92 144.64 308.21 131.49 296.68 126.21"/>
        <path class="cls-8" d="m318.52,102.43c-5.77.06-12.13,2.16-14.31,6.68-2.19,4.52-8.24,17.01-8.24,17.01,0,0,5.39,7.32,13.48,6.79l9.08-30.48Z"/>
        <path class="cls-11" d="m318.52,102.43c-5.77.06-12.13,2.16-14.31,6.68-2.19,4.52-8.24,17.01-8.24,17.01,0,0,5.39,7.32,13.48,6.79l9.08-30.48Z"/>
        <path class="cls-7" d="m330.46,102.64l4.8.19c5.23,1.26,7.11,4.84,9.31,9.48,1.67,3.53,1.69,7.62.42,11.31l-6.12,17.7s2.86,6.92,6.19,13.46c-15.35,8.57-34.52,4.06-39.14-2.19-.2-1.33.07-7.3-.3-14.11-.4-7.25-1.39-15.44-.25-19.93,2.12-8.32,6.08-16.13,13.97-16.13l11.12.21Z"/>
        <path class="cls-8" d="m335.27,102.83c5.24.74,12.93,1.8,15.58,14.25,2.69,12.62,3.21,15.62,3.21,15.62,0,0-4.58,4.57-13.27,4.53,0,0-7.67-24.78-5.52-34.4Z"/>
        <path class="cls-11" d="m335.27,102.83c5.24.74,12.93,1.8,15.58,14.25,2.69,12.62,3.21,15.62,3.21,15.62,0,0-4.58,4.57-13.27,4.53,0,0-7.67-24.78-5.52-34.4Z"/>
        <path class="cls-14" d="m340.55,136.47c-.96-3.31-1.99-7.09-2.95-11.15,0,0,.04,8.85,1.55,15.2l1.4-4.05Z"/>
      </g>
      <g>
        <path class="cls-6" d="m313.06,67.52c-2.08,1.23-4.64,6.45-4.39,17.39.21,9.27,3.22,11.56,4.73,12.22,1.51.66,4.42.26,7.25-.21v5.56s-3.91,4.54-3.66,7.09c.25,2.55,5.65,3.15,9.31.66,3.66-2.49,6.01-6.29,6.01-6.29v-13.45s1.91,2.55,5.04.48,3.24-7.21,1.43-9.05c-1.82-1.84-5.73-1.26-6.46,1.29,0,0-4.51.16-10.52-3.14s-8.32-8.96-8.72-12.55Z"/>
        <path class="cls-13" d="m319.02,82.58c-.03.67.46,1.23,1.1,1.27.64.03,1.19-.49,1.23-1.15.03-.67-.46-1.23-1.1-1.27-.64-.03-1.19.49-1.23,1.15Z"/>
        <path class="cls-9" d="m318.71,90.44l-2.71.86c.22.78,1.01,1.21,1.76.97.75-.24,1.17-1.06.95-1.84Z"/>
        <path class="cls-13" d="m309.46,79l2.36-1.64c-.43-.67-1.31-.85-1.96-.4-.65.45-.83,1.36-.4,2.04Z"/>
        <path class="cls-13" d="m310,81.74c-.03.67.46,1.23,1.1,1.26.64.03,1.19-.49,1.23-1.15.03-.67-.46-1.23-1.1-1.27-.64-.03-1.19.49-1.23,1.15Z"/>
        <polygon class="cls-9" points="315.51 81.07 315.32 88.09 311.63 86.94 315.51 81.07"/>
        <path class="cls-9" d="m320.65,96.92c2.98-.39,9.12-2.15,10.07-4.58,0,0-.32,1.52-2.15,3.1-1.83,1.57-7.92,3.34-7.92,3.34v-1.86Z"/>
      </g>
      <g>
        <polygon class="cls-8" points="271.84 125.55 305.7 134.47 315.69 176.49 283.5 167.14 271.84 125.55"/>
        <path class="cls-15" d="m286.6,153.36c-.31.86-2.17,3.24-6.11,3.05l-.49-1.74,6.6-1.31Z"/>
        <path class="cls-15" d="m294.17,154.67c.15,1.12,2.45,3.19,6.34,4.49,4.43,1.48,11.22.7,11.22.7l-.61-2.09-16.96-3.1Z"/>
        <path class="cls-15" d="m281.75,131.64s-.13-.58-.28-1.29c-.15-.71,1.83-.74,4.44-.07l4.99,1.29c2.6.68,4.84,1.8,5,2.51l.28,1.29-14.42-3.74Z"/>
        <g>
          <path class="cls-4" d="m279.41,126.77c-.1-.45.71-.56,1.8-.26l1.98.55s-.59-2.79,3.79-1.82c4.38.98,5.34,4.15,5.34,4.15,0,0,.94.27,2.11.6,1.16.33,2.22.96,2.36,1.4l.25.8-17.44-4.59s-.09-.38-.19-.83Z"/>
          <path class="cls-4" d="m281.81,128.16c1.6.39,2.26.6,2.5,1.7.27,1.26.38,2.18.38,2.18l7.72,2.04s-.37-1.59-.49-2.21.14-.99,1.37-.67l.1-.49-12.09-3.08.51.53Z"/>
          <path class="cls-4" d="m281.54,131.76s-.12-.58-.28-1.29c-.15-.71,1.83-.74,4.44-.07l4.99,1.29c2.61.68,4.84,1.8,5,2.51l.28,1.29-14.42-3.74Z"/>
        </g>
      </g>
      <path class="cls-6" d="m353.3,153.85l-10.37-8.32s-22.92,4.08-25.61,4.29c-2.69.21-5.68-1.69-6.71-4.33s-2.84-2.31-2.84-2.31c0,0,.8,3.35,1.05,4.42.25,1.07-6.2,1.95-9.78.74-3.58-1.21-8.76.55-5.55,5.42,3.21,4.88,9.45,5.44,13.79,5.44,1.2,0,3.33-.09,5.42-.36,1.4-.18,2.8-.32,4.21-.42,8.88-.63,32.36-3.29,36.39-4.56Z"/>
      <path class="cls-6" d="m275.29,137.84s1.21,4.33,1.5,5.36c.29,1.03,4.23,2.91,6.71,3.59,2.49.68,5.21,1.49,4.03,4.97-1.09,3.21-5.18,3.94-7.27,3.85-2.08-.09-4.94-2.08-6.06-5.3-1.43-4.1-.66-8.47-1.23-10.87-.57-2.39,1.06-3.04,2.31-1.61Z"/>
      <path class="cls-13" d="m343.43,118.57h0c-6.15,0-11.13-4.98-11.13-11.13v-15.63h0c6.15,0,11.13,4.98,11.13,11.13v15.63Z"/>
    </g>
  </g>
</svg>