<?xml version="1.0" encoding="UTF-8"?>
<svg id="Layer_2" data-name="Layer 2" xmlns="http://www.w3.org/2000/svg" viewBox="0 0 418.1 469.45">
  <defs>
    <style>
      .cls-1 {
        stroke: #ebebeb;
      }

      .cls-1, .cls-2 {
        fill: none;
        stroke-miterlimit: 10;
      }

      .cls-3 {
        fill: #37474f;
      }

      .cls-3, .cls-4, .cls-5, .cls-6, .cls-7, .cls-8, .cls-9, .cls-10, .cls-11, .cls-12, .cls-13, .cls-14 {
        stroke-width: 0px;
      }

      .cls-4 {
        fill: #ff9bbc;
      }

      .cls-5 {
        fill: #c7c7c7;
      }

      .cls-6 {
        fill: #fff;
      }

      .cls-7 {
        fill: #263238;
      }

      .cls-8 {
        fill: #a6a6a6;
      }

      .cls-9 {
        fill: #dbdbdb;
      }

      .cls-10 {
        fill: #ebebeb;
      }

      .cls-2 {
        stroke: #dbdbdb;
      }

      .cls-11 {
        fill: #455a64;
      }

      .cls-12 {
        fill: #ffc727;
      }

      .cls-13 {
        fill: #d3766a;
      }

      .cls-14 {
        opacity: .1;
      }
    </style>
  </defs>
  <g id="Background_Complete" data-name="Background Complete">
    <g>
      <polygon class="cls-10" points="282.85 380.08 410.95 380.08 415.07 298.79 278.73 298.79 282.85 380.08"/>
      <g>
        <polygon class="cls-2" points="287.72 308.28 402.84 308.28 401.09 335.5 289.21 335.5 287.72 308.28"/>
        <polygon class="cls-2" points="291.24 343.5 292.46 367.97 399.57 367.97 401.09 343.5 291.24 343.5"/>
        <polygon class="cls-2" points="357.69 324.45 334.65 324.45 333.9 318.65 358.44 318.65 357.69 324.45"/>
        <polygon class="cls-2" points="357.69 358.64 334.65 358.64 333.9 352.83 358.44 352.83 357.69 358.64"/>
      </g>
      <g>
        <polygon class="cls-10" points="300.61 380.08 299.37 388.94 296.87 406.73 291.97 406.73 291.97 380.08 300.61 380.08"/>
        <polygon class="cls-9" points="300.61 380.08 299.37 388.94 291.97 388.94 291.97 380.08 300.61 380.08"/>
      </g>
      <g>
        <polygon class="cls-10" points="393.19 380.08 394.43 388.94 396.93 406.73 401.83 406.73 401.83 380.08 393.19 380.08"/>
        <polygon class="cls-9" points="393.19 380.08 394.43 388.94 401.83 388.94 401.83 380.08 393.19 380.08"/>
      </g>
    </g>
    <g>
      <path class="cls-10" d="m41.75,327.06l-13.12.28-6.66.11c-2.23.05-4.46.04-6.69.06h-.44s0-.45,0-.45l-.05-11.19v-.5s.5,0,.5,0l13.24.06c4.41,0,8.83.11,13.24.16h.28s0,.27,0,.27c-.02,1.9-.09,3.79-.13,5.65l-.14,5.54Zm0,0l-.14-5.65c-.05-1.86-.11-3.7-.13-5.54l.27.27c-4.41.05-8.83.16-13.24.16l-13.24.06.5-.5-.05,11.19-.45-.45c2.18.02,4.36,0,6.55.05l6.58.11,13.36.28Z"/>
      <path class="cls-10" d="m26.98,341.17l-13.12.28-6.66.11c-2.23.05-4.46.04-6.69.06H.06s0-.45,0-.45l-.05-11.19v-.5s.5,0,.5,0l13.24.06c4.41,0,8.83.11,13.24.16h.28s0,.27,0,.27c-.02,1.9-.09,3.79-.13,5.65l-.14,5.54Zm0,0l-.14-5.65c-.05-1.86-.11-3.7-.13-5.54l.27.27c-4.41.05-8.83.16-13.24.16l-13.24.06.5-.5-.05,11.19-.45-.45c2.18.02,4.36,0,6.55.06l6.58.11,13.36.28Z"/>
      <path class="cls-10" d="m365.66,202.49l-13.12.28-6.66.11c-2.23.05-4.46.04-6.69.06h-.44s0-.45,0-.45l-.05-11.19v-.5s.5,0,.5,0l13.24.06c4.41,0,8.83.11,13.24.16h.28s0,.27,0,.27c-.02,1.9-.09,3.79-.13,5.65l-.14,5.54Zm0,0l-.14-5.65c-.05-1.86-.11-3.7-.13-5.54l.27.27c-4.41.05-8.83.16-13.24.16l-13.24.06.5-.5-.05,11.19-.45-.45c2.18.02,4.36,0,6.55.06l6.58.11,13.36.28Z"/>
      <path class="cls-10" d="m350.89,216.6l-13.12.28-6.66.11c-2.23.05-4.46.04-6.69.06h-.44s0-.45,0-.45l-.05-11.19v-.5s.5,0,.5,0l13.24.06c4.41,0,8.83.11,13.24.16h.28s0,.27,0,.27c-.02,1.9-.09,3.79-.13,5.65l-.14,5.54Zm0,0l-.14-5.65c-.05-1.86-.11-3.7-.13-5.54l.27.27c-4.41.05-8.83.16-13.24.16l-13.24.06.5-.5-.05,11.19-.45-.45c2.18.02,4.36,0,6.55.06l6.58.11,13.36.28Z"/>
      <path class="cls-10" d="m336.18,202.49l-13.12.28-6.66.11c-2.23.05-4.46.04-6.69.06h-.44s0-.45,0-.45l-.05-11.19v-.5s.5,0,.5,0l13.24.06c4.41,0,8.83.11,13.24.16h.28s0,.27,0,.27c-.02,1.9-.09,3.79-.13,5.65l-.14,5.54Zm0,0l-.14-5.65c-.05-1.86-.11-3.7-.13-5.54l.27.27c-4.41.05-8.83.16-13.24.16l-13.24.06.5-.5-.05,11.19-.45-.45c2.18.02,4.36,0,6.55.06l6.58.11,13.36.28Z"/>
      <path class="cls-10" d="m417.82,341.17l-13.12.28-6.66.11c-2.23.05-4.46.04-6.69.06h-.44s0-.45,0-.45l-.05-11.19v-.5s.5,0,.5,0l13.24.06c4.41,0,8.83.11,13.24.16h.28s0,.27,0,.27c-.02,1.9-.09,3.79-.13,5.65l-.14,5.54Zm0,0l-.14-5.65c-.05-1.86-.11-3.7-.13-5.54l.27.27c-4.41.05-8.83.16-13.24.16l-13.24.06.5-.5-.05,11.19-.45-.45c2.18.02,4.36,0,6.55.06l6.58.11,13.36.28Z"/>
      <path class="cls-10" d="m403.05,67.49l-13.12.28-6.66.11c-2.23.05-4.46.04-6.69.05h-.44s0-.45,0-.45l-.05-11.19v-.5s.5,0,.5,0l13.24.06c4.41,0,8.83.11,13.24.16h.28s0,.27,0,.27c-.02,1.9-.09,3.79-.13,5.65l-.14,5.54Zm0,0l-.14-5.65c-.05-1.86-.11-3.7-.13-5.54l.27.27c-4.41.05-8.83.16-13.24.16l-13.24.06.5-.5-.05,11.19-.45-.45c2.18.02,4.36,0,6.55.06l6.58.11,13.36.28Z"/>
      <path class="cls-10" d="m417.82,81.6l-13.12.28-6.66.11c-2.23.05-4.46.04-6.69.05h-.44s0-.45,0-.45l-.05-11.19v-.5s.5,0,.5,0l13.24.06c4.41,0,8.83.11,13.24.16h.28s0,.27,0,.27c-.02,1.9-.09,3.79-.13,5.65l-.14,5.54Zm0,0l-.14-5.65c-.05-1.86-.11-3.7-.13-5.54l.27.27c-4.41.05-8.83.16-13.24.16l-13.24.06.5-.5-.05,11.19-.45-.45c2.18.02,4.36,0,6.55.05l6.58.11,13.36.28Z"/>
      <path class="cls-10" d="m41.75,67.49l-13.12.28-6.66.11c-2.23.05-4.46.04-6.69.05h-.44s0-.45,0-.45l-.05-11.19v-.5s.5,0,.5,0l13.24.06c4.41,0,8.83.11,13.24.16h.28s0,.27,0,.27c-.02,1.9-.09,3.79-.13,5.65l-.14,5.54Zm0,0l-.14-5.65c-.05-1.86-.11-3.7-.13-5.54l.27.27c-4.41.05-8.83.16-13.24.16l-13.24.06.5-.5-.05,11.19-.45-.45c2.18.02,4.36,0,6.55.06l6.58.11,13.36.28Z"/>
    </g>
    <g>
      <g>
        <rect class="cls-10" x="26.12" width="1.2" height="114.24"/>
        <g>
          <rect class="cls-9" x="23.38" y="108.88" width="6.68" height="4.52"/>
          <rect class="cls-5" x="23.38" y="110.38" width="6.68" height="3.01"/>
        </g>
        <path class="cls-10" d="m21.57,143.29c0,2.84,2.3,5.14,5.14,5.14s5.14-2.3,5.14-5.14-2.3-5.14-5.14-5.14-5.14,2.3-5.14,5.14Z"/>
        <polygon class="cls-9" points="9.98 143.29 43.45 143.29 37.39 132.55 32.44 112.6 20.98 112.6 16.04 132.55 9.98 143.29"/>
      </g>
      <g>
        <rect class="cls-10" x="65.47" width="1.2" height="93.67"/>
        <g>
          <rect class="cls-9" x="62.73" y="88.31" width="6.68" height="4.52"/>
          <rect class="cls-5" x="62.73" y="89.82" width="6.68" height="3.01"/>
        </g>
        <path class="cls-10" d="m60.92,122.73c0,2.84,2.3,5.14,5.14,5.14s5.14-2.3,5.14-5.14-2.3-5.14-5.14-5.14-5.14,2.3-5.14,5.14Z"/>
        <polygon class="cls-9" points="49.33 122.73 82.8 122.73 76.74 111.98 71.8 92.03 60.33 92.03 55.39 111.98 49.33 122.73"/>
      </g>
      <g>
        <rect class="cls-10" x="102.28" width="1.2" height="72.63"/>
        <g>
          <rect class="cls-9" x="99.54" y="67.28" width="6.68" height="4.52"/>
          <rect class="cls-5" x="99.54" y="68.78" width="6.68" height="3.01"/>
        </g>
        <path class="cls-10" d="m97.74,101.69c0,2.84,2.3,5.14,5.14,5.14s5.14-2.3,5.14-5.14-2.3-5.14-5.14-5.14-5.14,2.3-5.14,5.14Z"/>
        <polygon class="cls-9" points="86.14 101.69 119.62 101.69 113.56 90.94 108.61 70.99 97.15 70.99 92.2 90.94 86.14 101.69"/>
      </g>
    </g>
    <g>
      <g>
        <rect class="cls-10" x="344.73" y="65.49" width="47.54" height="57.67"/>
        <rect class="cls-6" x="350.16" y="70.76" width="36.68" height="47.14"/>
        <rect class="cls-5" x="350.16" y="70.76" width="1.43" height="47.14"/>
        <rect class="cls-5" x="392.27" y="65.49" width="1.43" height="57.67"/>
        <rect class="cls-10" x="369.32" y="81.66" width="8.65" height="25.77" transform="translate(747.29 189.08) rotate(180)"/>
        <rect class="cls-1" x="358.68" y="77.26" width="23.06" height="12.62" transform="translate(740.43 167.13) rotate(180)"/>
      </g>
      <g>
        <rect class="cls-10" x="344.73" y="207.61" width="47.54" height="57.67"/>
        <rect class="cls-6" x="350.16" y="212.87" width="36.68" height="47.14"/>
        <rect class="cls-5" x="350.16" y="212.87" width="1.43" height="47.14"/>
        <rect class="cls-5" x="392.27" y="207.61" width="1.43" height="57.67"/>
        <rect class="cls-10" x="362.46" y="223.77" width="8.65" height="25.77"/>
        <rect class="cls-1" x="358.68" y="219.37" width="23.06" height="12.62"/>
      </g>
      <g>
        <rect class="cls-10" x="344.73" y="136.81" width="47.54" height="57.67"/>
        <rect class="cls-6" x="350.16" y="142.07" width="36.68" height="47.14"/>
        <rect class="cls-5" x="350.16" y="142.07" width="1.43" height="47.14"/>
        <rect class="cls-5" x="392.27" y="136.81" width="1.43" height="57.67"/>
        <rect class="cls-10" x="364.95" y="154.26" width="7.41" height="18.73"/>
        <rect class="cls-2" x="360.26" y="165.65" width="19.9" height="12.91"/>
      </g>
    </g>
  </g>
  <g id="Shadow">
    <path class="cls-10" d="m407.47,449.03c0,11.28-88.79,20.42-198.31,20.42s-198.31-9.14-198.31-20.42,88.79-20.42,198.31-20.42,198.31,9.14,198.31,20.42Z"/>
  </g>
  <g id="Floor">
    <polygon class="cls-7" points=".65 406.45 52.78 406.2 104.91 406.11 209.16 405.95 313.42 406.11 365.54 406.2 417.67 406.45 365.54 406.69 313.42 406.78 209.16 406.94 104.91 406.78 52.78 406.69 .65 406.45"/>
  </g>
  <g id="Device">
    <path class="cls-11" d="m293.68,52.69H124.62c-9.44,0-17.1,7.79-17.1,17.42v348.01c0,9.61,7.66,17.42,17.1,17.42h169.06c9.44,0,17.12-7.81,17.12-17.42V70.11c0-9.63-7.68-17.42-17.12-17.42Zm6.42,354.67c0,9.16-6.86,16.57-15.32,16.57h-151.24c-8.48,0-15.34-7.41-15.34-16.57V83.3c0-18.66,6.86-19.57,15.34-19.57h30.3c1.76,0,3.2,2,3.2,4.48v1.07c0,5.81,3.18,5.83,7.08,5.83h70.06c3.94,0,7.1-.02,7.1-5.83v-1.07c0-2.48,1.42-4.48,3.21-4.48h30.29c8.46,0,15.32,2.48,15.32,19.57v324.06Z"/>
    <path class="cls-6" d="m300.1,83.3v324.06c0,9.16-6.86,16.57-15.32,16.57h-151.24c-8.48,0-15.34-7.41-15.34-16.57V83.3c0-18.66,6.86-19.57,15.34-19.57h30.3c1.76,0,3.2,2,3.2,4.48v1.07c0,5.81,3.18,5.83,7.08,5.83h70.06c3.94,0,7.1-.02,7.1-5.83v-1.07c0-2.48,1.42-4.48,3.21-4.48h30.29c8.46,0,15.32,2.48,15.32,19.57Z"/>
    <path class="cls-12" d="m300.1,83.3v36.49H118.2v-36.49c0-18.66,6.86-19.57,15.34-19.57h30.3c1.76,0,3.2,2,3.2,4.48v1.07c0,5.81,3.18,5.83,7.08,5.83h70.06c3.94,0,7.1-.02,7.1-5.83v-1.07c0-2.48,1.42-4.48,3.21-4.48h30.29c8.46,0,15.32,2.48,15.32,19.57Z"/>
    <g>
      <g id="u5Zjqx">
        <g>
          <path class="cls-6" d="m158.61,71.01c-.1.1-.2.19-.29.29-.06.06-.11.11-.17.17-.79-.76-1.72-1.17-2.82-1.17-1.1,0-2.03.41-2.82,1.17-.05-.05-.1-.11-.16-.16-.1-.1-.19-.19-.29-.29,0,0,0,0,0,0h0s.01-.02.02-.02c.12-.11.24-.22.37-.33.26-.22.55-.4.86-.55.36-.18.74-.31,1.13-.38.19-.03.38-.05.57-.08.06,0,.48,0,.5,0,.13,0,.26.02.39.03.36.04.7.13,1.04.25.24.09.48.2.7.33.24.14.46.29.67.47.11.09.21.19.31.28h0Z"/>
          <path class="cls-6" d="m153.44,72.39c-.15-.15-.31-.3-.46-.46.53-.52,1.15-.85,1.88-.94,1.09-.15,2.03.18,2.83.94-.16.16-.31.31-.46.46-.52-.51-1.15-.78-1.89-.78-.74,0-1.37.27-1.89.79Z"/>
          <path class="cls-6" d="m156.76,72.85c-.15.15-.31.3-.46.46-.27-.26-.59-.4-.97-.4-.38,0-.7.14-.97.4-.15-.15-.31-.31-.46-.46.73-.77,2.05-.83,2.86,0Z"/>
        </g>
        <path class="cls-6" d="m155.74,73.73c0,.23-.19.42-.42.42s-.42-.19-.42-.42.19-.42.42-.42.42.19.42.42Z"/>
      </g>
      <g>
        <path class="cls-6" d="m130.07,71.89c0-.67.54-1.21,1.21-1.21s1.21.54,1.21,1.21-.54,1.21-1.21,1.21-1.21-.54-1.21-1.21Z"/>
        <path class="cls-6" d="m133.86,71.89c0-.67.54-1.21,1.21-1.21s1.21.54,1.21,1.21-.54,1.21-1.21,1.21-1.21-.54-1.21-1.21Z"/>
        <path class="cls-6" d="m137.66,71.89c0-.67.54-1.21,1.21-1.21s1.21.54,1.21,1.21-.54,1.21-1.21,1.21-1.21-.54-1.21-1.21Z"/>
        <path class="cls-6" d="m141.46,71.89c0-.67.54-1.21,1.21-1.21s1.21.54,1.21,1.21-.54,1.21-1.21,1.21-1.21-.54-1.21-1.21Z"/>
        <path class="cls-6" d="m145.25,71.89c0-.67.54-1.21,1.21-1.21s1.21.54,1.21,1.21-.54,1.21-1.21,1.21-1.21-.54-1.21-1.21Z"/>
      </g>
      <g>
        <path class="cls-6" d="m286.46,74.52h-9.81v-4.55h9.81v4.55Zm-9.31-.5h8.81v-3.55h-8.81v3.55Z"/>
        <rect class="cls-6" x="277.46" y="70.75" width="6.33" height="3"/>
        <rect class="cls-6" x="286.46" y="71.04" width=".87" height="2.43"/>
      </g>
    </g>
    <polygon class="cls-6" points="134.78 109.54 129.41 104.51 134.78 99.48 135.62 100.36 131.19 104.51 135.62 108.66 134.78 109.54"/>
    <polygon class="cls-6" points="283.54 99.48 288.91 104.51 283.54 109.54 282.7 108.66 287.13 104.51 282.7 100.36 283.54 99.48"/>
    <path class="cls-7" d="m218.71,67.85h-19.11c-.65,0-1.18-.53-1.18-1.18h0c0-.65.53-1.18,1.18-1.18h19.11c.65,0,1.18.53,1.18,1.18h0c0,.65-.53,1.18-1.18,1.18Z"/>
    <g>
      <path class="cls-7" d="m180.88,236.89h-2.47c-.15,0-.28-.13-.28-.29,0-.15.13-.28.28-.28h5.5c.15,0,.28.13.28.28,0,.16-.13.29-.28.29h-2.47v7.34c0,.15-.13.28-.28.28s-.28-.13-.28-.28v-7.34Z"/>
      <path class="cls-7" d="m190.21,241.03c0-1.01-.82-1.69-1.83-1.69s-1.82.68-1.82,1.69v3.23s-.01.04-.01.05c-.01.02-.01.04-.02.05-.03.07-.09.12-.18.14,0,0-.01.01-.02.01h-.06c-.08,0-.16-.04-.22-.09-.02-.04-.04-.06-.05-.09-.01-.04-.01-.06-.01-.09v-7.64c0-.15.13-.28.28-.28.16,0,.29.13.29.28v3.02c.43-.52,1.09-.84,1.82-.84,1.32,0,2.4.94,2.4,2.26v3.2c0,.15-.13.28-.29.28-.15,0-.28-.13-.28-.28v-3.2Z"/>
      <path class="cls-7" d="m198.46,239.05v5.18c0,.15-.13.28-.28.28s-.28-.13-.28-.28v-.85c-.49.68-1.28,1.14-2.16,1.14-1.51,0-2.72-1.3-2.72-2.87s1.21-2.87,2.72-2.87c.88,0,1.66.45,2.16,1.12v-.84c0-.16.13-.28.28-.28s.28.12.28.28Zm-.56,2.59c0-1.29-.97-2.32-2.16-2.32s-2.16,1.03-2.16,2.32.98,2.31,2.16,2.31,2.16-1.02,2.16-2.31Z"/>
      <path class="cls-7" d="m204.88,241.11c0-.97-.78-1.77-1.77-1.77s-1.76.8-1.78,1.77v3.16s-.02.09-.06.13c-.05.07-.13.11-.21.11h-.07c-.08-.02-.15-.08-.19-.15-.01-.01-.01-.02-.01-.04s-.01-.02-.01-.02v-5.24c0-.15.12-.28.28-.28.15,0,.27.13.27.28v.55c.42-.5,1.07-.83,1.78-.83,1.29,0,2.33,1.05,2.33,2.33v3.12c0,.16-.13.28-.28.28s-.28-.12-.28-.28v-3.12Z"/>
      <path class="cls-7" d="m207.96,236.59c0-.15.13-.28.28-.28.16,0,.29.13.29.28v5.52l3.4-3.39c.12-.12.28-.12.4,0,.12.11.12.28,0,.4l-2.21,2.21,2.23,2.71c.1.13.09.29-.02.41-.06.05-.13.06-.19.06-.08,0-.18-.02-.22-.11l-2.2-2.66-1.17,1.17v1.31c0,.15-.13.28-.29.28-.15,0-.28-.13-.28-.28v-7.64Z"/>
      <path class="cls-7" d="m217.56,239.04c0-.15.13-.27.27-.27.16,0,.29.12.29.27v3.12c0,.98.78,1.77,1.76,1.77s1.77-.78,1.78-1.77v-3.12s.01-.11.05-.14c0-.01.01-.02.01-.04.01,0,.01-.01.02-.01.02-.03.07-.06.11-.07h.02s.02-.01.03-.01h.07s.09.04.14.06c.02.02.06.06.07.09.02.03.04.08.04.12v5.01c0,1.5-1.22,2.69-2.73,2.69-.42,0-.82-.11-1.18-.27-.13-.08-.19-.25-.12-.37.07-.14.22-.18.36-.14.28.14.61.22.94.22,1.19,0,2.16-.95,2.17-2.13v-.37c-.43.49-1.07.82-1.78.82-1.28-.01-2.32-1.05-2.32-2.34v-3.12Z"/>
      <path class="cls-7" d="m227.03,238.77c1.51,0,2.72,1.31,2.72,2.87s-1.21,2.87-2.72,2.87-2.72-1.31-2.72-2.87,1.22-2.87,2.72-2.87Zm0,5.18c1.17,0,2.15-1.03,2.15-2.31s-.98-2.32-2.15-2.32-2.16,1.04-2.16,2.32.98,2.31,2.16,2.31Z"/>
      <path class="cls-7" d="m231.6,239.04c0-.16.13-.28.28-.28s.28.12.28.28v3.13c0,.98.78,1.77,1.76,1.78.98-.01,1.78-.8,1.78-1.78v-3.13c0-.16.14-.28.28-.28.16,0,.29.12.29.28v3.13c0,1.29-1.04,2.34-2.35,2.34s-2.32-1.05-2.32-2.34v-3.13Z"/>
      <path class="cls-7" d="m238.9,236.59c0-.15.13-.28.28-.28.16,0,.29.13.29.28v5.88c0,.16-.13.29-.29.29-.15,0-.28-.13-.28-.29v-5.88Zm0,7.36c0-.15.13-.28.28-.28.16,0,.29.13.29.28v.28c0,.15-.13.28-.29.28-.15,0-.28-.13-.28-.28v-.28Z"/>
    </g>
    <g>
      <polygon class="cls-12" points="206.91 208.89 198.46 200.34 201.29 197.54 206.23 202.53 216.49 186.46 219.85 188.6 206.91 208.89"/>
      <path class="cls-12" d="m209.15,219.76c-12.18,0-22.09-9.91-22.09-22.09s9.91-22.09,22.09-22.09,22.09,9.91,22.09,22.09-9.91,22.09-22.09,22.09Zm0-41.18c-10.53,0-19.09,8.56-19.09,19.09s8.56,19.09,19.09,19.09,19.09-8.56,19.09-19.09-8.56-19.09-19.09-19.09Z"/>
      <g>
        <g>
          <rect class="cls-12" x="174.83" y="197.17" width="6.56" height="1"/>
          <rect class="cls-12" x="180.58" y="182.66" width="1" height="6.56" transform="translate(-78.44 182.49) rotate(-45)"/>
          <rect class="cls-12" x="177.8" y="208.69" width="6.56" height="1" transform="translate(-94.89 189.32) rotate(-45)"/>
        </g>
        <g>
          <rect class="cls-12" x="236.92" y="197.17" width="6.56" height="1"/>
          <rect class="cls-12" x="233.94" y="185.44" width="6.56" height="1" transform="translate(-62 222.2) rotate(-45)"/>
          <rect class="cls-12" x="236.73" y="205.91" width="1" height="6.56" transform="translate(-78.44 229) rotate(-45)"/>
        </g>
      </g>
    </g>
  </g>
  <g id="Character">
    <g>
      <g>
        <g>
          <polygon class="cls-9" points="99.55 349.73 101.92 363.97 117.99 450.78 120.59 450.78 108.9 363.97 107.17 349.73 99.55 349.73"/>
          <polygon class="cls-8" points="107.17 349.73 99.55 349.73 101.92 363.97 108.9 363.97 107.17 349.73"/>
        </g>
        <g>
          <polygon class="cls-9" points="49.06 450.78 51.65 450.78 67.73 363.97 70.1 349.73 62.48 349.73 60.75 363.97 49.06 450.78"/>
          <polygon class="cls-8" points="62.48 349.73 60.75 363.97 67.73 363.97 70.1 349.73 62.48 349.73"/>
        </g>
        <g>
          <polygon class="cls-9" points=".84 450.78 3.43 450.78 19.51 363.97 21.88 349.73 14.26 349.73 12.53 363.97 .84 450.78"/>
          <polygon class="cls-8" points="12.53 363.97 19.51 363.97 21.88 349.73 14.26 349.73 12.53 363.97"/>
        </g>
        <polygon class="cls-9" points="4.95 356.42 122.75 356.42 122.75 344.01 78.65 344.01 63.83 279.36 9.44 279.36 4.95 356.42"/>
        <polygon class="cls-8" points="4.95 356.42 11.37 356.42 15.56 279.36 9.44 279.36 4.95 356.42"/>
      </g>
      <g>
        <g>
          <g>
            <g>
              <path class="cls-13" d="m134.34,459.86c-2.22.76-67.53.77-69.95-.76-.29-.17-.27-8.12-.46-14.16-.29-9.24,12.08-50.39,12.08-50.39l40.52,1.97-11.3,41.47s9.33,4.13,17.04,7.75c.01,0,.02,0,.02.02,4.74,2.23,8.87,4.25,9.82,5,2.47,1.96,4.45,8.35,2.24,9.09Z"/>
              <path class="cls-7" d="m134.34,459.86c-2.22.76-67.53.77-69.95-.76-.29-.17-.42-6.07-.46-14.16,16.19,3.35,59.28,8.51,60.49,5.11.48-1.35-.57-2.88-2.13-4.27,4.74,2.23,8.87,4.25,9.82,5,2.47,1.96,4.45,8.35,2.24,9.09Z"/>
            </g>
            <path class="cls-13" d="m37.59,330.18c7.99,7.95,42.26,24.35,44.87,30.11,2.3,5.07-13.57,59.67-13.57,59.67l39.22,7.5s23.54-63.87,17.55-83.59c-5.56-18.3-68.23-54.11-68.23-54.11h-25.16s-10.43,24.77,5.32,40.42Z"/>
            <path class="cls-14" d="m117.23,332.01c-14.43,5.17-34.25,13.61-48.35,18.11-11.34-6.87-26.34-15.02-31.29-19.95-15.76-15.65-5.33-40.43-5.33-40.43h25.16s41.29,23.58,59.81,42.26Z"/>
          </g>
          <g>
            <g>
              <path class="cls-13" d="m212.93,448.45c-2.3.45-67.02-8.3-69.22-10.14-.26-.21.4-6.07,1.44-14.1l-11.47-48.89,42.63,5.23,13.41,42s5.99,5.68,13.14,10.3c0,.01.02.01.02.02,4.4,2.84,8.22,5.4,9.06,6.27,2.18,2.27,3.29,8.87,1,9.31Z"/>
              <path class="cls-7" d="m212.93,448.45c-2.3.45-67.02-8.3-69.22-10.14-.26-.21.4-6.07,1.44-14.1,15.59,5.49,57.6,16.39,59.26,13.18.66-1.28-.18-2.93-1.54-4.52,4.4,2.84,8.22,5.4,9.06,6.27,2.18,2.27,3.29,8.87,1,9.31Z"/>
            </g>
            <g>
              <path class="cls-13" d="m185.24,408.5l-42.05,7.36-17.39-53.16c.52-18.14-2.15-24.72-12.35-27.88-17.37-5.38-59.83,14.49-79.05,1.16-15.61-10.83-3.16-46.23-3.16-46.23h45.14s5.45,6.64,6.45,10.54c0,0,55.91-4.31,68.41,11.55,16.76,21.26,34,96.67,34,96.67Z"/>
              <path class="cls-7" d="m93.06,335.11c4.42-.91,8.93-1.4,13.48-1.39,2.27,0,4.55.19,6.8.68,1.12.25,2.24.58,3.31,1.05,1.05.47,2.06,1.02,3.03,1.68.96.66,1.83,1.47,2.57,2.38.74.91,1.33,1.93,1.8,2.99.93,2.13,1.42,4.39,1.67,6.65.52,4.52.4,9.05.08,13.55-.05-2.26-.07-4.51-.21-6.75-.11-2.24-.28-4.49-.63-6.69-.37-2.2-.82-4.39-1.74-6.38-.89-2-2.31-3.71-4.12-4.92-.89-.62-1.86-1.17-2.85-1.63-.98-.46-2.04-.78-3.11-1.04-2.15-.51-4.39-.67-6.62-.8-2.24-.1-4.48-.05-6.73.07-2.25.1-4.49.3-6.73.56Z"/>
            </g>
            <path class="cls-7" d="m31.23,289.75s-12.28,32.06,0,43.87,26.71,9.77,61.11,2.38c0,0,17.59-22.26,28.04-26.8,10.45-4.54,19.98-4.88,19.98-4.88,0,0-19.99-6.47-57.29-5.11,0,0-2.77-5.87-6.69-9.46H31.23Z"/>
          </g>
        </g>
        <g>
          <path class="cls-7" d="m74.77,266.1c-2.55,1.99-5.05,3.52-7.51,4.67,4.08-6.88,3.46-22.42,2.96-20.2-2.38,10.59-9.05,22.2-11.58,22.77-.02,0-.03,0-.04,0-6.8.88-12.99-.95-18.15-3.84,0,0,0-.03.02-.03,5.26-7.78,5.05-23.58,4.69-22.62-3.86,10.31-11.83,16.33-13.21,16.31h0c-5.12-4.89-7.83-9.78-7.1-10.27,5.31-3.61,9.83-12.9,13.9-22.73h0c4.03-9.7,6.06-18.91,11.73-27.56,5.19-7.92,15.55-9.41,21.41-5.37,15.39,10.62,6.17,66.29,2.89,68.86Z"/>
          <path class="cls-7" d="m58.76,197.66c-4.27,1-7.78,4.92-10.01,8.53-2.97,4.8-4.93,10.24-7.38,15.32-4.84,10.04-10.93,19.26-18.59,27.33-.17.18.07.41.25.27,8.28-6.24,13.95-15.19,18.6-24.39,2.38-4.7,4.24-9.63,6.49-14.39,1.23-2.61,2.66-5.13,4.55-7.31,1.83-2.12,3.93-3.38,6.37-4.64.4-.2.15-.83-.28-.73Z"/>
        </g>
        <g>
          <g>
            <g>
              <g>
                <path class="cls-3" d="m116.28,214.39l-10.85,26.68c-.41.77-.09,1.49.7,1.6l14.27,2c.8.11,1.78-.42,2.19-1.19l10.85-26.68c.41-.77.09-1.49-.7-1.6l-14.27-2c-.8-.11-1.78.42-2.19,1.19Z"/>
                <path class="cls-11" d="m117.98,214.62l-10.85,26.68c-.41.77-.09,1.49.7,1.6l14.27,2c.8.11,1.78-.42,2.19-1.19l10.85-26.68c.41-.77.09-1.49-.7-1.6l-14.27-2c-.8-.11-1.78.42-2.19,1.19Z"/>
                <path class="cls-7" d="m121.72,216.43c-.11.67-.74,1.12-1.41,1.01-.67-.11-1.12-.74-1.01-1.41.11-.67.74-1.12,1.41-1.01.67.11,1.12.74,1.01,1.41Z"/>
              </g>
              <path class="cls-13" d="m64.39,249.82c5.5,18.39,20.28,43.4,27.76,44.62,3.56.58,9.8,2.38,15.09-1.01,11.55-7.41,22.63-23.24,25.84-32.77,1.14-3.39-14.67-13.46-17.6-11-6.85,5.76-15.6,17.77-16.63,17.54-3.79-.86-16.92-15.6-26.08-25.96-11.11-12.58-10.57,1.25-8.38,8.58Z"/>
              <g>
                <path class="cls-13" d="m136.18,242.73c-.74-7.34-2.05-9.11.62-15.63,1.75-4.28-.23-7.23-3.91-4.14-6.02,5.06-7.06,14.72-6.45,18.18l9.75,1.59Z"/>
                <path class="cls-13" d="m131.8,263.57s4.63-9.38,4.62-17.27c0-5.46-1.35-17.34-15.4-25.6-3.33-1.96-9.47-2.39-5.19,2.79,3.04,3.68,6.08,5.09,7.46,7.55,0,0-7.87.38-9.7,3.79-.82,1.53-2.96,5.74-4.15,9.26,0,0,.7.47,1.66.93,0,0-1.62,3.25.19,8.47l20.51,10.07Z"/>
                <path class="cls-13" d="m135.57,241.09c-1.89-2.15-5.96-6.65-10.57-9.17-5.12-2.8-15.74-6.81-17.77-3.01-1.49,2.79,2.43,4.68,2.43,4.68,0,0-4.74-.73-5.53,2.08-.72,2.56,2.4,3.84,2.4,3.84,0,0-2.95.05-3.17,2.65-.26,3.13,5.96,2.51,8.43,5.91.55.76,23.77-6.98,23.77-6.98Z"/>
                <path class="cls-7" d="m122.95,237.82c-2.1-1.73-7.9-4.45-13.18-4.3-.12,0-.18.1-.07.12,5.85,1.08,11.06,3.2,13.22,4.24.03.01.05-.03.03-.05Z"/>
                <path class="cls-7" d="m119.98,242.91c-1.97-1.31-8.06-3.84-13.41-3.51-.12,0-.18.1-.06.12,6.16.87,11.23,2.54,13.45,3.44.03.01.05-.03.02-.05Z"/>
              </g>
            </g>
            <g>
              <path class="cls-12" d="m132.17,267.86s-18,25.32-26.54,27.29c-8.53,1.97-13.27.53-16.2-.37-.86-.27-1.85-.97-2.94-2.01-7.26-7.02-18.74-29.74-22.92-42.17-3.13-9.34-1.46-17.12,4.88-13.59,1.58.87,3.45,2.46,5.61,4.9,10.81,12.21,23.67,24.23,24.41,23.97.73-.25,9.53-10.44,9.53-10.44l24.17,12.43Z"/>
              <path class="cls-7" d="m127.98,272.33c-.84-.65-9.04-5.34-10.84-6.32-1.8-.98-9.13-5.06-11.07-5.92-.09-.04-.15.07-.07.13,1.75,1.2,9.13,5.34,10.94,6.38,1.82,1.04,10.02,5.5,10.99,5.86.08.03.11-.08.05-.13Z"/>
              <path class="cls-14" d="m111.7,291.52c-2.26,1.89-4.35,3.23-6.07,3.62-8.52,1.97-13.26.53-16.19-.37-.87-.26-1.86-.96-2.95-2.01-7.26-7.02-18.74-29.74-22.92-42.17-2.84-8.47-1.73-15.65,3.22-14.28,11.31,13.81,32.8,40.28,44.91,55.21Z"/>
            </g>
          </g>
          <g>
            <path class="cls-12" d="m79.75,276.59l1.87,18.85-56.23,1.12s13.04-47.37,23.23-57.86c6.89-7.1,14.75-6.34,19.63-1.12,1.23,1.32,14.08,16.97,15.47,24.66,1.21,6.78-3.97,14.36-3.97,14.36Z"/>
            <g>
              <path class="cls-7" d="m73.17,274.38c-2.48.18-4.96.44-7.39.98-1.21.27-2.39.59-3.58.94-.59.17-1.18.33-1.78.48-.61.16-1.27.3-1.9.3-.06,0-.06.09,0,.09.62.04,1.21.07,1.82.02.59-.04,1.17-.15,1.75-.27,1.23-.26,2.44-.58,3.66-.85,2.47-.55,4.94-1.1,7.44-1.48.12-.02.09-.21-.02-.21Z"/>
              <path class="cls-7" d="m77.55,276.49c-1.6-.25-3.24-.41-4.86-.44-.81-.01-1.62.04-2.44.11-.39.04-.78.08-1.16.13-.43.06-.85.18-1.27.23-.04,0-.05.09,0,.09.4-.03.81.02,1.21.02.41,0,.81,0,1.22,0,.81,0,1.62,0,2.43,0,1.63-.02,3.24-.02,4.87.03.09,0,.09-.16,0-.17Z"/>
            </g>
          </g>
          <g>
            <path class="cls-12" d="m50.27,236.12c-19.84,10.07-42.61,32.81-41.28,40.38,1.49,8.43,30-5.81,29.71-7.08-.25-1.08,5.74-10.13,14.31-23.1,8.71-13.19,2.17-12.69-2.73-10.2Z"/>
            <g>
              <g>
                <path class="cls-13" d="m8.99,276.5c1.74,5.89,10.52,9.83,31.68,21.83,2.93,1.66,20.21-15.86,17.17-17.79-3.82-2.44-19.2-11.06-20.4-11.55-10.15-4.12-29.64,3.52-28.46,7.51Z"/>
                <g>
                  <path class="cls-13" d="m53.66,277.99s9.11,4.66,13.14,8.58c5.4,5.26,7.89,12.02,8.76,14.92,1.82,6.05,2.05,21.93-2.51,22.79-4.13.78-3.54-15.46-3.54-15.46,0,0,2.13,16.66-3.01,16.69-5.15.03-3.39-18.79-3.39-18.79,0,0,1.81,17.17-3.5,16.36-4.01-.61-3.39-17.75-3.39-17.75,0,0,1.45,14.77-2.7,14.31-4.59-.5-5-16.35-5-16.35-10.37-2.93-14.11-8.56-16.29-12.89-.53-1.05,21.44-12.41,21.44-12.41Z"/>
                  <g>
                    <path class="cls-7" d="m69.14,303.01c.32,1.95.66,3.92.81,5.89.15,1.97.23,3.95.19,5.92-.09,4.84-.9,7.86-.87,7.67.71-4.54.29-11.6.14-13.57-.15-1.97-.2-3.94-.34-5.91,0-.05.07-.05.08,0Z"/>
                    <path class="cls-7" d="m62.02,303.41c.3,2.51.7,4.98.89,7.5.19,2.51.15,4.9.17,7.42,0,.19-.1.13-.11-.06-.12-2.51-.42-4.82-.57-7.33-.15-2.5-.2-5.03-.44-7.52,0-.04.06-.04.06,0Z"/>
                    <path class="cls-7" d="m55.84,302.66c.66,3.81.62,7.73.48,11.57,0,.19-.13.1-.14-.1-.09-3.85-.13-6.87-.48-11.45,0-.07.12-.1.13-.02Z"/>
                  </g>
                </g>
              </g>
              <g>
                <g>
                  <path class="cls-12" d="m58.2,278.49s-24.37,18.56-24.63,18.47c-.26-.09-24.2-14.15-24.58-20.47-.38-6.31,19.44-11.04,28.44-7.56,9,3.49,20.77,9.55,20.77,9.55Z"/>
                  <path class="cls-7" d="m49.95,275.81c-.95.57-8.65,6.77-10.29,8.16-1.64,1.38-8.41,6.97-9.99,8.54-.07.07.01.18.1.12,1.84-1.24,8.68-6.86,10.38-8.24,1.7-1.37,9.18-7.67,9.9-8.48.06-.07-.04-.14-.1-.1Z"/>
                </g>
                <g>
                  <path class="cls-7" d="m26.59,268c2.09-.33,7.85-.81,12.52,1.53.05.03.03.09-.03.07-4.02-1.44-10.4-1.7-12.47-1.53-.05,0-.07-.07-.02-.08Z"/>
                  <g>
                    <path class="cls-7" d="m56.7,279.64l1.46-1.2v.12s-4.82-2.4-4.82-2.4c-1.61-.79-3.24-1.57-4.86-2.33-3.24-1.55-6.52-3.02-9.85-4.35l-.39-.16.2-.36c1.86-3.38,3.77-6.72,5.84-9.98,2.06-3.25,4.23-6.45,6.62-9.47-2.14,3.2-4.18,6.46-6.14,9.76-1.94,3.31-3.88,6.64-5.66,10.03l-.19-.52c3.35,1.36,6.62,2.88,9.85,4.48,1.61.82,3.2,1.65,4.79,2.5,1.59.84,3.15,1.75,4.71,2.65l.1.06-.09.06-1.55,1.09Z"/>
                    <path class="cls-7" d="m46.01,256.73c.58-.77,1.2-1.49,1.87-2.17.68-.67,1.38-1.31,2.19-1.85-.53.81-1.17,1.52-1.84,2.2-.34.33-.68.66-1.06.97-.37.3-.74.61-1.17.85Z"/>
                  </g>
                  <path class="cls-7" d="m26.52,292.6c1.04.42,2,.97,2.94,1.55.93.59,1.84,1.22,2.68,1.98-1.03-.42-2-.97-2.94-1.55-.93-.6-1.85-1.22-2.68-1.98Z"/>
                </g>
              </g>
            </g>
          </g>
          <g>
            <g>
              <path class="cls-13" d="m57.14,235.89c.27,1.48,3.77,8.2,8.28,8.05,2.32-.08,2.37-8.21,2.37-8.21l.11-.6,1.6-8.37-11.39-6.74s-1.05,15.45-.97,15.87Z"/>
              <path class="cls-7" d="m57.73,225.78c2.66,6.12,7.79,8.53,10.18,9.35l1.6-8.37-11.4-6.75s-.18,2.64-.38,5.77Z"/>
            </g>
            <g>
              <path class="cls-13" d="m81.25,213.92c1.31,14.89-7.46,17.36-10.68,17.64-2.92.25-12.87.74-15.71-13.94-2.84-14.68,3.67-19.99,10.31-20.92,6.64-.93,14.77,2.33,16.08,17.22Z"/>
              <g>
                <path class="cls-7" d="m78.69,210.59c-.35-.03-.67-.12-1.02-.18-.39-.07-.71-.09-1-.39-.16-.16-.15-.48-.02-.65.32-.39.82-.42,1.29-.35.51.08.89.27,1.24.65.34.37-.03.95-.49.91Z"/>
                <path class="cls-7" d="m69.13,210.9c.35-.05.66-.16,1-.24.38-.1.7-.13.98-.44.15-.16.13-.49-.02-.65-.34-.37-.84-.37-1.31-.27-.51.11-.87.32-1.2.72-.32.39.08.95.54.88Z"/>
                <g>
                  <g>
                    <path class="cls-7" d="m71.23,214.62s-.08.05-.07.09c.09,1.01.01,2.19-.89,2.58-.03.01-.02.06.01.06,1.11-.22,1.2-1.78.95-2.73Z"/>
                    <path class="cls-7" d="m70.26,213.6c-1.64-.04-1.6,3.25-.08,3.28,1.5.04,1.45-3.25.08-3.28Z"/>
                  </g>
                  <path class="cls-7" d="m69.62,213.78c-.28.19-.56.52-.91.56-.4.04-.71-.3-.97-.62-.03-.03-.06,0-.06.04,0,.63.25,1.27.93,1.36.62.08,1.05-.49,1.2-1.12.03-.12-.08-.29-.19-.21Z"/>
                </g>
                <g>
                  <g>
                    <path class="cls-7" d="m76.83,214.37s.08.05.08.09c-.03,1.02.11,2.19,1.04,2.52.03.01.03.06,0,.06-1.12-.15-1.3-1.71-1.11-2.67Z"/>
                    <path class="cls-7" d="m77.73,213.3c1.64-.13,1.78,3.15.27,3.27-1.49.12-1.64-3.16-.27-3.27Z"/>
                  </g>
                  <path class="cls-7" d="m78.42,213.49c.27.16.54.47.85.47.36,0,.61-.36.82-.71.02-.04.05-.01.05.03.05.63-.13,1.29-.73,1.44-.54.13-.97-.39-1.15-1-.03-.11.05-.29.16-.23Z"/>
                </g>
                <path class="cls-7" d="m70.93,222.64c.19.28.36.66.71.76.34.1.78.03,1.12-.02.03,0,.06.03.03.06-.34.33-.94.45-1.38.27-.43-.18-.57-.61-.59-1.05,0-.06.08-.07.11-.02Z"/>
                <path class="cls-7" d="m75.48,218.93s.25,1.51.27,2.23c0,.07-2.21.6-3.78-1.06-.06-.06.04-.15.1-.1.96.67,2.01.82,3.13.81.05-.2-.51-2.58-.4-2.59.39-.04,1.17.2,1.64.33-.43-3.17-1.36-6.25-1.73-9.41-.01-.11.15-.15.19-.05,1.2,3.15,1.77,6.79,2.3,10.05.07.41-1.42-.1-1.71-.21Z"/>
                <g>
                  <path class="cls-7" d="m74.76,221.11s-.62.85-1.48,1.16c-.32.12-.65.16-1.01.07-.73-.19-.76-.86-.63-1.44.11-.47.32-.88.32-.88,0,0,1.08.99,2.79,1.09Z"/>
                  <path class="cls-4" d="m73.29,222.27c-.32.12-.65.16-1.01.07-.73-.19-.76-.86-.63-1.44.79.08,1.57.6,1.64,1.37Z"/>
                </g>
              </g>
              <g>
                <path class="cls-7" d="m55.7,217.21c2.78.4,3.61-5.98,3.61-5.98,0,0,11.92-1.82,13.09-11.48,0,0,1.93,6.2,8.11,9.1,0,0-.24-10.62-8.62-12.82,0,0-10.38-3.97-16.39,4.21-6.01,8.19-1.68,16.7.19,16.97Z"/>
                <path class="cls-7" d="m72.45,199.03c.13,1.48-.11,2.99-.6,4.41-.5,1.42-1.27,2.76-2.31,3.87-.24.3-.55.52-.82.79l-.42.38c-.15.12-.3.22-.46.33-.31.21-.62.44-.93.64-.33.18-.67.35-1,.52-.17.08-.33.17-.5.25l-.53.19-1.05.38c-.72.19-1.45.34-2.18.48.69-.29,1.39-.5,2.06-.79l.99-.46.49-.23c.16-.09.31-.19.47-.28.31-.19.62-.38.93-.56.3-.2.58-.43.86-.65l.43-.32.39-.37c.25-.26.54-.47.76-.76,1-1.04,1.74-2.29,2.33-3.6.29-.66.52-1.35.7-2.06.19-.7.31-1.43.38-2.16Z"/>
              </g>
              <g>
                <g>
                  <path class="cls-13" d="m57.47,216.68s-3.27-4.66-5.38-3.5c-2.12,1.17.34,7.93,2.83,8.85,2.49.92,3.39-1.36,3.39-1.36l-.83-3.99Z"/>
                  <path class="cls-7" d="m52.84,215.1s-.05.05-.01.07c1.74.7,2.66,2.32,3.31,3.99-.52-.64-1.23-1-2.09-.38-.05.03,0,.1.05.09.71-.15,1.23-.03,1.71.54.34.4.58.92.82,1.38.08.16.36.07.3-.11,0-.01,0-.03-.01-.04.04-2.22-1.69-5.33-4.07-5.55Z"/>
                </g>
                <g>
                  <path class="cls-11" d="m55.2,221.48c.09.34.45.54.79.45.34-.09.54-.45.45-.79-.09-.34-.45-.54-.79-.45-.34.09-.54.45-.45.79Z"/>
                  <path class="cls-7" d="m55.53,221.39c.04.16.21.26.37.21.16-.04.26-.21.21-.37-.04-.16-.21-.26-.37-.21-.16.04-.26.21-.21.37Z"/>
                </g>
                <path class="cls-11" d="m54.08,220.7c.07.24.31.38.56.32.24-.07.38-.31.32-.56-.07-.24-.31-.38-.56-.32-.24.07-.38.31-.32.56Z"/>
              </g>
            </g>
            <path class="cls-13" d="m49.5,236.51s7.32,11.43,15.59,11.27c6.57-.12,7.06-7.89,7.06-7.89,0,0-3.9-5.92-12.13-6.37-5.96-.33-10.52,3-10.52,3Z"/>
          </g>
        </g>
      </g>
    </g>
  </g>
  <g id="Speech_Bubble" data-name="Speech Bubble">
    <g>
      <g>
        <path class="cls-6" d="m129.16,181.34c-1.25,11.94-11.95,20.61-23.89,19.36-4.83-.5-9.11-2.55-12.44-5.61l-10.88,1.6,5.44-9.4c-1.32-3.21-1.88-6.79-1.49-10.47,1.25-11.94,11.95-20.61,23.89-19.36,11.94,1.25,20.61,11.95,19.36,23.89Z"/>
        <path class="cls-7" d="m129.16,181.34c-.45,3.97-1.91,7.86-4.39,11.02-.57.83-1.3,1.52-1.97,2.27-.76.66-1.46,1.38-2.29,1.94-1.59,1.23-3.38,2.18-5.24,2.92-1.86.78-3.86,1.16-5.85,1.4-1.01.05-2.01.15-3.02.06-1.01-.02-2.01-.13-3.01-.31-3.98-.72-7.75-2.58-10.76-5.31l.26.08-10.87,1.67-.79.12.4-.7,5.41-9.42-.03.37c-2.64-6.21-2.04-13.59,1.34-19.38,1.68-2.9,4.03-5.39,6.81-7.25,2.77-1.87,5.99-3.04,9.28-3.48,3.29-.44,6.68-.14,9.83.91,3.14,1.06,6.02,2.84,8.38,5.14,4.8,4.56,7.21,11.41,6.51,17.95Zm0,0c.66-6.55-1.8-13.36-6.6-17.86-2.38-2.25-5.27-3.96-8.38-4.95-3.12-.98-6.46-1.21-9.67-.72-3.21.49-6.32,1.69-8.98,3.55-2.65,1.86-4.89,4.3-6.5,7.09-1.65,2.79-2.5,5.99-2.76,9.2-.2,3.22.32,6.48,1.53,9.47l.08.19-.1.18-5.47,9.38-.39-.57,10.89-1.52.15-.02.11.1c2.88,2.7,6.52,4.59,10.41,5.36.97.2,1.96.32,2.95.36.99.1,1.98.03,2.97,0,1.97-.2,3.95-.54,5.81-1.28,1.86-.7,3.66-1.61,5.24-2.83.83-.55,1.54-1.27,2.3-1.92.67-.74,1.4-1.42,1.98-2.25,2.49-3.13,3.97-7,4.45-10.97Z"/>
      </g>
      <polygon class="cls-12" points="104.99 191.48 95.7 182.08 98.82 179 104.25 184.49 115.52 166.82 119.21 169.18 104.99 191.48"/>
    </g>
  </g>
  <g id="Plant">
    <g>
      <g>
        <g>
          <path class="cls-12" d="m374.34,339s10.01-35.93,18-48.13c7.99-12.2,22.89-25.61,22.89-25.61,0,0-.35,55.39-40.9,73.74Z"/>
          <path class="cls-7" d="m375.06,338.39c3.43-5.58,6.34-11.45,9.13-17.41,1.23-6.38,2.73-12.8,4.97-18.89.04-.12.2-.05.18.06-1.33,5.68-2.87,11.3-4.28,16.96,4.04-8.74,7.88-17.6,12.69-25.87.97-4.01,2.81-7.86,4.64-11.5.05-.11.23-.05.18.06-1.28,2.81-2.21,5.71-3.12,8.62,2.28-3.66,4.77-7.19,7.61-10.51.18-.21.53.02.35.24-6.43,8.21-10.88,17.56-15.11,27.02,4.57-4.89,8.73-10.24,12.56-15.7.04-.06.12,0,.09.06-3.95,6.29-8.51,11.93-13.45,17.44-3.08,6.93-6.11,13.89-9.78,20.48,7.34-6.2,12.98-14.23,18.57-21.98.13-.17.39,0,.28.19-5.59,8.5-11.38,16.5-19.42,22.8-1.64,2.88-3.41,5.7-5.37,8.4-.33.45-1-.02-.71-.49Z"/>
        </g>
        <g>
          <path class="cls-12" d="m371.24,342.24s17.99-33.13,12.77-65.25c-5.23-32.12-10.82-43.56-10.82-43.56,0,0-28.28,49.96-1.94,108.81Z"/>
          <g>
            <path class="cls-7" d="m363.85,290.15c1.44,9.28,3.95,17.96,6.95,26.75.05-11.79.27-23.58.59-35.36-2.07-7.17-3.11-14.5-3.4-21.95,0-.22.32-.2.33,0,.53,6.41,1.66,12.67,3.15,18.89.27-9.72.6-19.45.95-29.17,0-.16.25-.16.25,0-.01,15.19,0,30.38-.1,45.57,2.32-5.85,3.78-11.87,5.19-18.05.01-.06.11-.04.1.02-.54,7.09-2.7,13.95-5.31,20.54-.07,9.71-.18,19.42-.39,29.13,3.04-10.32,6.29-20.32,7.18-31.23.01-.14.23-.14.23,0-.24,12.03-3.34,24.24-7.31,35.55-.04.13-.12.21-.2.28-.09,3.55-.19,7.1-.31,10.64-.02.51-.78.49-.79-.01-.14-7.26-.19-14.52-.18-21.78-4.04-9.33-6.19-19.74-7.09-29.82,0-.09.14-.11.16-.02Z"/>
            <path class="cls-7" d="m365.08,285.03c.57,2.85,1.1,5.85,1.26,8.75,0,.1-.15.11-.17.02-.74-2.81-1.15-5.84-1.48-8.73-.03-.22.35-.27.4-.05Z"/>
            <path class="cls-7" d="m375.6,260.81c.02-.1.17-.07.17.03.02,1.99-.38,4.12-.9,6.04-.04.16-.28.09-.24-.07.39-1.99.64-3.99.98-5.99Z"/>
          </g>
        </g>
        <g>
          <path class="cls-12" d="m364.67,344.77s.73-34.58-9.19-51.77c-9.92-17.19-26.38-25.95-26.38-25.95,0,0,6.63,60.96,35.56,77.72Z"/>
          <g>
            <path class="cls-7" d="m346.59,315.2c4.17,6.01,8.31,11.79,13.43,17.02-1.98-7.07-4.28-14.02-6.87-20.86-5.56-4.88-11.08-9.93-14.49-16.6-.05-.11.1-.2.16-.09,3.67,5.91,8.57,10.64,13.74,15.19-3.96-10.27-8.57-20.29-13.81-30.07-.13-.25.23-.46.38-.22,3.18,5.1,6.06,10.37,8.66,15.78-.93-3.7-1.67-7.48-2.63-11.15-.03-.1.12-.14.16-.04,1.76,4.62,3.51,9.73,4.07,14.67,3.47,7.66,6.39,15.58,8.73,23.67-.26-5.18-.58-10.35-1.12-15.52,0-.1.15-.12.17-.02,1.08,5.74,1.64,11.58,1.5,17.42,1.43,5.15,2.63,10.37,3.6,15.62.03.14-.18.2-.22.06-.54-2.2-1.12-4.39-1.72-6.57-.04-.02-.08,0-.11-.04-5.32-5.33-10.37-11.41-13.7-18.2-.02-.04.03-.06.05-.03Z"/>
            <path class="cls-7" d="m335.1,287.06c1.11,1.19,2.12,2.45,3.19,3.68.94,1.09,2.1,2.11,2.86,3.34.03.05-.03.11-.08.08-1.28-.81-2.31-2.12-3.3-3.26-1.05-1.19-1.99-2.37-2.82-3.71-.06-.1.08-.21.16-.12Z"/>
          </g>
        </g>
      </g>
      <g>
        <g>
          <path class="cls-11" d="m394.15,340.55l-1.25,16.38-3.77,49.52h-32.86l-3.77-49.52-1.25-16.38h42.9Z"/>
          <path class="cls-3" d="m394.15,340.55l-1.25,16.38h-40.4l-1.25-16.38h42.9Z"/>
        </g>
        <rect class="cls-11" x="348.32" y="332.51" width="48.74" height="12.56" transform="translate(745.39 677.58) rotate(180)"/>
      </g>
    </g>
  </g>
</svg>