<?xml version="1.0" encoding="UTF-8"?>
<svg id="Layer_2" data-name="Layer 2" xmlns="http://www.w3.org/2000/svg" viewBox="0 0 500 437.03">
  <defs>
    <style>
      .cls-1 {
        stroke: #407bff;
      }

      .cls-1, .cls-2, .cls-3, .cls-4 {
        fill: none;
        stroke-linecap: round;
        stroke-linejoin: round;
      }

      .cls-1, .cls-2, .cls-4 {
        stroke-width: .5px;
      }

      .cls-5, .cls-6, .cls-7, .cls-8, .cls-9, .cls-10, .cls-11, .cls-12, .cls-13, .cls-14, .cls-15, .cls-16, .cls-17, .cls-18, .cls-19, .cls-20, .cls-21, .cls-22 {
        stroke-width: 0px;
      }

      .cls-5, .cls-7, .cls-23, .cls-18, .cls-22 {
        isolation: isolate;
      }

      .cls-5, .cls-7, .cls-15, .cls-4 {
        opacity: .2;
      }

      .cls-5, .cls-11, .cls-16, .cls-22 {
        fill: #fff;
      }

      .cls-6, .cls-14 {
        fill: #407bff;
      }

      .cls-8 {
        fill: #e6e6e6;
      }

      .cls-9 {
        fill: #fd504e;
      }

      .cls-10 {
        fill: #e0e0e0;
      }

      .cls-11 {
        opacity: .8;
      }

      .cls-12 {
        fill: #f5f5f5;
      }

      .cls-13 {
        fill: #f0f0f0;
      }

      .cls-14 {
        opacity: .3;
      }

      .cls-17 {
        fill: #ffbbb5;
      }

      .cls-18 {
        opacity: .1;
      }

      .cls-19 {
        fill: #ea7b75;
      }

      .cls-2 {
        stroke: #263238;
      }

      .cls-20 {
        fill: #263238;
      }

      .cls-3 {
        stroke: #e0e0e0;
      }

      .cls-21 {
        fill: #ebebeb;
      }

      .cls-22 {
        opacity: .4;
      }

      .cls-4 {
        stroke: #000;
      }
    </style>
  </defs>
  <g id="Background_complete" data-name="Background complete">
    <g>
      <path class="cls-21" d="m402.87,228.82c-14.72-21.51-41.75-33.91-67.66-31.05,6.35,12.64,18.29,23.56,30.29,27.28,12.01,3.72,24.8,3.76,37.37,3.77Z"/>
      <path class="cls-21" d="m334.36,207.6c-7.01-7.84-16.65-13.29-26.98-15.24.7,9.67,8.58,20.15,15.44,27.01,6.85,6.86,15.26,11.92,23.67,16.74-.79-10.49-5.12-20.67-12.13-28.51Z"/>
      <path class="cls-3" d="m374.42,216.55c-28.01-16.61-58.96-28.25-90.98-34.22"/>
      <path class="cls-3" d="m300.5,186.41c14.34,11.12,26.71,23.75,38.08,37.9"/>
      <path class="cls-21" d="m326.62,183.59c-8.34,2.72-17.57,2.61-25.84-.31,4.55-6.68,14.63-10.94,22.44-13.01s16-2.21,24.08-2.15c-4.96,7.23-12.35,12.76-20.69,15.47Z"/>
      <path class="cls-21" d="m356.33,192.96c-7.7,2.51-16.23,2.41-23.87-.29,4.21-6.17,13.52-10.1,20.74-12.02,7.22-1.92,14.78-2.04,22.25-1.99-4.58,6.68-11.41,11.79-19.12,14.3Z"/>
      <path class="cls-3" d="m294.35,184.54c15-2.01,28.19-5.8,42.31-11.24"/>
      <path class="cls-3" d="m354.23,186.84c-9.12,2.68-18.34,5.04-27.63,7.07"/>
    </g>
    <g>
      <path class="cls-21" d="m116.96,244.66c16.94-3.6,31.4-17.06,36.2-33.69-9.37.7-19.1,5.27-24.42,11.7-5.32,6.43-8.59,14.28-11.78,22Z"/>
      <path class="cls-21" d="m147.34,207.96c6.59-2.32,12.37-6.86,16.19-12.71-6.11-2.02-14.55.17-20.5,2.64s-11.19,6.35-16.27,10.3c6.64,2.17,13.99,2.09,20.58-.23Z"/>
      <path class="cls-3" d="m131.7,230.29c17.29-13,32.28-29.06,44.04-47.21"/>
      <path class="cls-3" d="m168.92,192.52c-10.46,5.99-21.35,10.39-32.91,13.79"/>
      <path class="cls-21" d="m164.04,209.28c.44-5.81,2.85-11.45,6.73-15.79,2.95,4.49,3.01,11.75,2.31,17.08s-2.69,10.38-4.77,15.33c-3.18-4.88-4.71-10.82-4.27-16.62Z"/>
      <path class="cls-21" d="m150.77,225.15c.41-5.37,2.63-10.58,6.22-14.59,2.73,4.15,2.78,10.86,2.13,15.78-.65,4.92-2.49,9.59-4.41,14.17-2.94-4.51-4.35-9.99-3.94-15.36Z"/>
      <path class="cls-3" d="m171.62,189.22c-2.56,9.72-3.57,18.78-3.81,28.83"/>
      <path class="cls-3" d="m155.05,225.41c.66-6.28,1.54-12.54,2.65-18.76"/>
    </g>
    <g>
      <path class="cls-21" d="m79.65,84.69c10.27,17.83,30.78,29.26,51.34,28.6-4.22-10.34-12.94-19.67-22.16-23.33-9.22-3.67-19.29-4.49-29.18-5.27Z"/>
      <path class="cls-21" d="m132.26,105.6c5.03,6.6,12.28,11.48,20.29,13.66.05-7.65-5.52-16.39-10.49-22.21-4.97-5.82-11.28-10.32-17.6-14.63-.02,8.3,2.76,16.58,7.79,23.19Z"/>
      <path class="cls-3" d="m101.28,96.09c21.02,14.8,44.67,25.86,69.5,32.53"/>
      <path class="cls-3" d="m157.61,124.36c-10.6-9.64-19.56-20.34-27.64-32.17"/>
      <path class="cls-21" d="m136.88,124.98c6.73-1.63,13.99-.97,20.31,1.83-3.99,4.98-12.19,7.71-18.46,8.86-6.28,1.15-12.73.75-19.09.21,4.35-5.38,10.51-9.28,17.24-10.91Z"/>
      <path class="cls-21" d="m114.07,115.77c6.22-1.5,12.92-.9,18.77,1.69-3.69,4.6-11.26,7.12-17.06,8.19-5.8,1.06-11.76.69-17.63.2,4.02-4.97,9.71-8.58,15.93-10.08Z"/>
      <path class="cls-3" d="m162.33,126.21c-11.93.66-22.55,2.83-33.99,6.24"/>
      <path class="cls-3" d="m115.35,120.72c7.34-1.55,14.74-2.84,22.18-3.86"/>
    </g>
    <g>
      <g>
        <g>
          <path class="cls-10" d="m443.92,275h-180.75c-3.23,0-5.86-2.63-5.86-5.86V5.86c0-3.23,2.63-5.86,5.86-5.86h180.75c3.23,0,5.86,2.63,5.86,5.86v263.27c0,3.23-2.63,5.86-5.86,5.86ZM263.17.25c-3.09,0-5.61,2.52-5.61,5.61v263.27c0,3.09,2.52,5.61,5.61,5.61h180.75c3.09,0,5.61-2.52,5.61-5.61V5.86c0-3.09-2.52-5.61-5.61-5.61h-180.75Z"/>
          <path class="cls-10" d="m235.49,275H54.75c-3.23,0-5.86-2.63-5.86-5.86V5.86c0-3.23,2.63-5.86,5.86-5.86h180.75c3.23,0,5.86,2.63,5.86,5.86v263.27c0,3.23-2.63,5.86-5.86,5.86ZM54.75.25c-3.09,0-5.61,2.52-5.61,5.61v263.27c0,3.09,2.52,5.61,5.61,5.61h180.75c3.09,0,5.61-2.52,5.61-5.61V5.86c0-3.09-2.52-5.61-5.61-5.61H54.75Z"/>
        </g>
        <rect class="cls-10" y="336.07" width="500" height=".25"/>
      </g>
      <rect class="cls-10" x="51.67" y="350.33" width="16.06" height=".25"/>
      <rect class="cls-10" x="170.35" y="347.62" width="53.53" height=".25"/>
      <rect class="cls-10" x="68.73" y="359.62" width="36.25" height=".25"/>
      <rect class="cls-10" x="378.35" y="347.49" width="43.19" height=".25"/>
      <rect class="cls-10" x="430.45" y="347.49" width="6.33" height=".25"/>
      <rect class="cls-10" x="316.21" y="353.72" width="53.89" height=".25"/>
    </g>
    <g>
      <g>
        <rect class="cls-8" x="362.45" y="21.73" width="68.46" height="129.07"/>
        <rect class="cls-13" x="347.14" y="21.73" width="80.42" height="129.07"/>
        <rect class="cls-16" x="359.36" y="33.19" width="55.94" height="106.14"/>
      </g>
      <path class="cls-13" d="m384.84,57.83c-2.76,3.52-4.94,7.4-6.42,11.63s-2.49,9.09-1.84,13.62c.58,4.01,2.84,7.93,6.71,9.54s8.22.03,11.42-2.53c2.97-2.38,6.95-6.66,5.75-10.83s-6.31-4.92-9.83-3.44c-8.24,3.47-12.07,12.97-12.64,21.31s.85,22.92,11.57,24.84c1.89.34,2.7-2.55.8-2.89-7.7-1.38-9.1-10.71-9.4-17.13-.34-7.18,1.07-14.88,6.32-20.17,2.05-2.07,5.63-4.83,8.7-3.39,3.86,1.81.1,6.26-1.72,8.09-2.23,2.24-5.44,4.43-8.76,3.71s-5.27-3.9-5.87-7.01c-.78-4.04.22-8.47,1.49-12.31s3.3-7.65,5.85-10.9c1.18-1.5-.93-3.64-2.12-2.12h0Z"/>
    </g>
    <g>
      <g>
        <path class="cls-10" d="m403.6,388.28c-.02-.54-1.83-54.04-10.53-62.5-8.46-8.23-18.18-.31-18.59.03l-.87-1.05c.11-.09,11.07-9.04,20.41.03,9.09,8.84,10.87,61.21,10.94,63.44l-1.36.04Z"/>
        <path class="cls-10" d="m404.34,398.79c-.06-.64-5.95-64.23,17.27-90.88l1.03.89c-22.84,26.21-17.01,89.22-16.95,89.85l-1.36.13Z"/>
        <path class="cls-10" d="m403.49,392.06l-1.36-.09c.05-.72,4.55-72.29-12.49-87.96l.92-1c17.51,16.11,13.12,86.08,12.93,89.05Z"/>
        <path class="cls-10" d="m405.7,392.02h-1.36c.02-1.98.56-48.35,13.73-55.9,2.93-1.68,5.8-1.96,8.52-.83,7.96,3.29,11.91,17.47,12.08,18.07l-1.31.36c-.04-.14-3.94-14.13-11.28-17.17-2.32-.96-4.78-.7-7.32.75-12.5,7.16-13.05,54.25-13.05,54.72Z"/>
        <path class="cls-10" d="m400.57,392.06l-1.36-.08c.02-.37,1.99-36.64-7.8-49.43-2.37-3.1-4.95-4.57-7.67-4.38-6.42.45-11.79,9.84-11.85,9.93l-1.19-.67c.23-.41,5.79-10.12,12.94-10.62,3.2-.23,6.18,1.43,8.85,4.91,10.1,13.18,8.17,48.82,8.08,50.33Z"/>
        <path class="cls-10" d="m402.72,396.99c-.27-3.52-6.4-86.36,4.39-100.95l1.09.81c-10.49,14.19-4.19,99.18-4.13,100.04l-1.36.1Z"/>
      </g>
      <path class="cls-21" d="m429.53,343.69s-6.47,2.39-4.55,8.02c1.92,5.64,22.4,14.91,22.4,14.91,0,0,8.57-7.86.7-20.64-7.87-12.78-18.37-6.32-18.55-2.29Z"/>
      <path class="cls-21" d="m401.39,332.96s6.89-.29,7.29,5.65c.39,5.94-14.94,22.38-14.94,22.38,0,0-10.94-3.95-8.59-18.78,2.35-14.83,14.53-12.91,16.24-9.25Z"/>
      <path class="cls-21" d="m395.55,304.52s4.6-.49,4.23-3.29c-.37-2.8-17.87-10.01-28.19,1.65,0,0,6.61,11.36,16.17,11.5,9.56.15,7.8-9.86,7.8-9.86Z"/>
      <path class="cls-21" d="m404.11,297.72s-4.16,2.01-5.33-.56c-1.17-2.57,9.87-17.94,24.8-13.51,0,0,.4,13.13-7.64,18.31-8.03,5.18-11.83-4.24-11.83-4.24Z"/>
      <path class="cls-21" d="m382.35,341.42s3.17-2.56-.25-3.81c-3.42-1.25-20.22-.9-20.4,15.75,0,0,19.57,3.25,21.99-3.09,2.42-6.34-1.34-8.85-1.34-8.85Z"/>
      <path class="cls-21" d="m422.25,304.1s-3.17-2.56.25-3.81c3.42-1.25,20.22-.9,20.4,15.75,0,0-19.57,3.25-21.99-3.09-2.42-6.34,1.34-8.85,1.34-8.85Z"/>
      <path class="cls-21" d="m411.91,317.5s-.28-3.11,2.23-1.89c2.51,1.22,11.27,10.67,2.19,19.63,0,0-12.22-9.05-10.02-13.76,2.2-4.71,5.59-3.98,5.59-3.98Z"/>
      <path class="cls-21" d="m379.52,321.94s1.9-2.49-.88-2.79c-2.78-.31-15.22,3.01-12.33,15.44,0,0,15.16-1.14,15.81-6.3.65-5.16-2.61-6.35-2.61-6.35Z"/>
      <polygon class="cls-13" points="418.45 416.03 387.86 416.03 379.73 378.5 425.81 378.5 418.45 416.03"/>
      <rect class="cls-8" x="376.95" y="377.96" width="51.51" height="10.79"/>
    </g>
    <path class="cls-21" d="m69.97,181.78c.62-1.95,2.06-2.91,3.76-3.42,1.32-.4,2.49-.1,3.9.28.65.18,1.49.61,2.27,1.15-.19-.94-.27-1.87-.17-2.54.2-1.45.38-2.63,1.26-3.7,1.13-1.36,2.59-2.32,4.62-2.12,1.91.18,3.34,1.9,4,3.7.66,1.8.68,4.06.44,5.87-.5,3.81-1.16,6.87-2.82,9.87-4.34.28-6.49-.23-10.19-1.26-1.76-.49-3.84-1.39-5.23-2.7-1.4-1.31-2.42-3.3-1.84-5.12Z"/>
    <path class="cls-21" d="m409.29,167.88c2.02-.3,3.52.57,4.73,1.87.94,1.01,1.19,2.19,1.47,3.62.13.66.11,1.6-.03,2.55.76-.59,1.56-1.07,2.21-1.28,1.39-.46,2.53-.82,3.88-.5,1.72.42,3.22,1.3,3.95,3.21.68,1.79-.23,3.83-1.55,5.22-1.32,1.39-3.34,2.4-5.08,2.99-3.64,1.23-6.67,1.99-10.1,1.82-2.17-3.77-2.65-5.92-3.37-9.7-.34-1.8-.44-4.06.12-5.89.56-1.83,1.89-3.63,3.79-3.91Z"/>
    <path class="cls-21" d="m79.9,39.8c1.09-3.43,3.64-5.14,6.64-6.04,2.34-.7,4.39-.17,6.88.5,1.15.31,2.62,1.08,4.01,2.04-.34-1.65-.47-3.31-.31-4.49.35-2.55.67-4.65,2.23-6.52,2-2.41,4.57-4.09,8.16-3.75,3.37.32,5.89,3.34,7.05,6.52,1.17,3.18,1.2,7.16.78,10.37-.89,6.72-2.04,12.12-4.98,17.41-7.66.49-11.44-.41-17.97-2.22-3.11-.86-6.77-2.46-9.24-4.77-2.47-2.32-4.27-5.82-3.24-9.04Z"/>
    <path class="cls-21" d="m214.28,32.7c1.56-.72,2.98-.38,4.26.39,1,.59,1.48,1.49,2.04,2.58.26.51.47,1.27.58,2.06.47-.65,1.01-1.23,1.48-1.55,1.01-.7,1.85-1.26,3.01-1.32,1.49-.07,2.91.29,3.94,1.66.97,1.28.72,3.14-.02,4.58-.74,1.43-2.13,2.73-3.39,3.61-2.65,1.85-4.91,3.19-7.72,3.86-2.64-2.53-3.54-4.15-5.01-7.03-.7-1.37-1.32-3.17-1.3-4.78.02-1.61.67-3.37,2.13-4.05Z"/>
    <path class="cls-21" d="m175.73,265.41c2.79-1.3,5.34-.68,7.64.69,1.79,1.07,2.65,2.67,3.66,4.62.47.91.84,2.27,1.03,3.7.84-1.17,1.81-2.21,2.65-2.79,1.81-1.25,3.31-2.27,5.4-2.37,2.67-.13,5.22.52,7.08,2.97,1.75,2.31,1.3,5.64-.03,8.21-1.33,2.57-3.82,4.9-6.08,6.48-4.75,3.32-8.82,5.72-13.85,6.92-4.74-4.54-6.35-7.45-8.99-12.61-1.26-2.46-2.36-5.68-2.33-8.58.03-2.89,1.2-6.05,3.82-7.27Z"/>
  </g>
  <g id="Shadow">
    <ellipse class="cls-12" cx="251.02" cy="428.31" rx="134.68" ry="8.72"/>
  </g>
  <g id="Plant">
    <g>
      <g>
        <path class="cls-6" d="m133.37,262.03c-16.58,19.4-21.43,48.11-12.12,71.87,10.34-9.22,17.61-23.29,18.07-35.58.46-12.3-2.76-24.4-5.95-36.29Z"/>
        <path class="cls-6" d="m130.48,336.14c-5.63,8.62-8.32,19.12-7.54,29.39,8.96-3.12,16.87-13.25,21.61-21.47,4.74-8.23,7.39-17.46,9.8-26.64-9.71,3.42-18.24,10.11-23.86,18.73Z"/>
        <path class="cls-20" d="m128.38,295.89c-6.66,23.95-10.06,48.8-10.04,73.67,0,7.06.29,14.12.84,21.15.04.48.79.48.75,0-1.94-24.8-.5-49.85,4.32-74.25,1.35-6.85,2.97-13.64,4.84-20.37.13-.47-.59-.66-.72-.2h0Z"/>
        <path class="cls-20" d="m119.44,373.65c6.81-16.2,15.75-31.37,26.09-45.56.28-.39-.37-.77-.65-.38-10.38,14.24-19.33,29.47-26.17,45.74-.19.44.54.64.72.2h0Z"/>
        <path class="cls-6" d="m109.76,349.58c4.69,7.19,6.94,15.94,6.29,24.5-7.47-2.6-14.06-11.05-18.02-17.9-3.95-6.86-6.16-14.56-8.17-22.22,8.1,2.85,15.21,8.43,19.9,15.62Z"/>
        <path class="cls-20" d="m119.24,379.74c-5.59-13.28-12.96-25.6-21.44-37.23-.28-.39-.93-.01-.65.38,8.44,11.57,15.81,23.83,21.36,37.05.18.44.91.25.72-.2h0Z"/>
        <path class="cls-20" d="m119.49,384.19c10.55-10.85,21.32-21.49,31.87-32.34.34-.35-.19-.88-.53-.53-10.55,10.85-21.32,21.49-31.87,32.34-.34.35.19.88.53.53h0Z"/>
        <path class="cls-6" d="m151.73,346.84c-9.15,8.83-17.49,18.5-24.87,28.85h1.67c6.97-.33,13.73-3.76,18.1-9.2,4.37-5.43,6.28-12.78,5.1-19.65Z"/>
        <g>
          <path class="cls-20" d="m108.38,325.81c3.93,6.43,7.63,12.99,11.1,19.67.22.43.87.05.65-.38-3.47-6.69-7.17-13.25-11.1-19.67-.25-.41-.9-.03-.65.38h0Z"/>
          <path class="cls-6" d="m98.93,293.34c-1.5,6.74-2.98,15.51-3,22.53-.02,7.02,2.13,13.87,6.11,18.57,3.99,4.7,12.04,6.76,15.29,4.07l-18.4-45.17Z"/>
        </g>
      </g>
      <rect class="cls-20" x="98.73" y="387.3" width="39.98" height="7.41"/>
      <polygon class="cls-20" points="132.23 421.1 107.41 421.1 102.9 393.01 135.8 393.01 132.23 421.1"/>
      <polygon class="cls-15" points="103.19 394.84 135.56 394.84 135.16 398.02 103.7 398.02 103.19 394.84"/>
    </g>
  </g>
  <g id="Flowers">
    <g>
      <path class="cls-2" d="m209.04,67.96l-1.01,5.86s3.08.24,5.73,1.43"/>
      <path class="cls-2" d="m215.06,64.05l-1.01,5.86s3.08.24,5.73,1.43"/>
      <path class="cls-2" d="m203.38,72.45l-1.01,5.86s3.82-.12,6.47,1.06"/>
      <path class="cls-2" d="m196.99,78.39l.46,6s4.39-1.13,7.04.06"/>
      <path class="cls-2" d="m192.84,85.25l.46,6s4.39-2.16,7.04-.97"/>
      <path class="cls-2" d="m188.12,103.7c3.9-9.95,8.12-20.35,16.38-27.14,4.23-3.48,9.29-6.92,14.28-9.19"/>
      <g>
        <path class="cls-20" d="m220.33,72.89c.72-.32,1.05-1.16.73-1.88-.32-.72-1.16-1.05-1.89-.73-.72.32-1.05,1.16-.73,1.89.33.71,1.17,1.03,1.89.73Z"/>
        <path class="cls-20" d="m213.62,63.98c.32.72,1.17,1.05,1.89.72.72-.32,1.05-1.17.73-1.89-.32-.72-1.17-1.05-1.89-.73-.72.32-1.05,1.17-.73,1.89,0,0,0,0,0,0Z"/>
        <path class="cls-20" d="m220.79,67.96c.72-.32,1.05-1.17.72-1.89-.32-.72-1.17-1.05-1.89-.73-.72.32-1.05,1.17-.73,1.89.33.71,1.17,1.03,1.89.73Z"/>
        <path class="cls-20" d="m214.93,77.14c.72-.32,1.05-1.17.72-1.89-.32-.72-1.17-1.05-1.89-.73-.72.32-1.05,1.17-.73,1.89.32.72,1.17,1.04,1.89.73Z"/>
        <path class="cls-20" d="m208.22,68.24c.32.72,1.16,1.04,1.88.72,0,0,0,0,0,0,.72-.32,1.05-1.16.73-1.89-.32-.72-1.16-1.05-1.89-.73-.72.32-1.05,1.16-.73,1.89,0,0,0,0,0,0Z"/>
        <path class="cls-20" d="m210.52,80.23c.65-.45.81-1.34.36-1.99-.45-.65-1.34-.81-1.99-.36-.65.45-.81,1.34-.36,1.99.45.65,1.34.81,1.99.36Z"/>
        <path class="cls-20" d="m204.24,73.1c.65-.45.81-1.34.36-1.99-.45-.65-1.34-.81-1.99-.36-.65.45-.81,1.34-.36,1.99.45.65,1.34.81,1.99.36Z"/>
        <path class="cls-20" d="m203.57,85.07c.58.53,1.49.49,2.02-.09s.49-1.49-.09-2.02c-.02-.02-.04-.04-.07-.07-.58-.53-1.49-.49-2.02.09s-.49,1.49.09,2.02c.02.02.04.05.07.07Z"/>
        <path class="cls-20" d="m196.98,79.6c-.79,0-1.43-.65-1.42-1.44s.65-1.43,1.44-1.42c.79,0,1.43.65,1.42,1.44,0,.79-.65,1.43-1.44,1.42Z"/>
        <path class="cls-20" d="m201.93,90.76c.48-.63.36-1.52-.27-2-.63-.48-1.53-.36-2,.27-.48.63-.36,1.53.27,2,.63.48,1.53.36,2.01-.27Z"/>
        <path class="cls-20" d="m193.76,85.9s0,0,0,0c.48-.63.36-1.53-.27-2-.63-.48-1.53-.36-2,.27-.48.63-.36,1.53.27,2,.63.48,1.52.36,2-.27Z"/>
      </g>
    </g>
    <g>
      <path class="cls-2" d="m118.87,108.75l3.23,4.04s-2.25,1.47-3.77,3.49"/>
      <path class="cls-2" d="m112.64,108.3l3.23,4.04s-2.25,1.47-3.77,3.49"/>
      <path class="cls-2" d="m125.07,109.8l3.23,4.04s-2.96,1.51-4.49,3.53"/>
      <path class="cls-2" d="m132.44,111.65l2.16,4.77s-3.82.98-5.35,3"/>
      <path class="cls-2" d="m138.49,115.13l2.16,4.77s-4.25.2-5.78,2.22"/>
      <path class="cls-2" d="m149.83,127.22c-7.15-5.95-14.74-12.11-23.89-13.82-4.69-.88-9.99-1.38-14.75-1.01"/>
      <g>
        <path class="cls-20" d="m113.46,115.91c-.06-.69-.66-1.19-1.35-1.13-.69.06-1.19.66-1.13,1.35.06.68.66,1.19,1.35,1.13.68-.07,1.18-.67,1.13-1.35Z"/>
        <path class="cls-20" d="m113.7,107.64c-.06-.69-.66-1.19-1.35-1.14-.69.06-1.19.66-1.14,1.35.06.69.66,1.19,1.35,1.14.69-.06,1.19-.66,1.14-1.35h0Z"/>
        <path class="cls-20" d="m111.04,112.34c-.06-.69-.66-1.19-1.35-1.14-.69.06-1.19.66-1.14,1.35.06.69.66,1.19,1.35,1.14.68-.07,1.18-.67,1.14-1.35Z"/>
        <path class="cls-20" d="m119.37,116.88c-.06-.69-.66-1.19-1.35-1.14-.69.06-1.19.66-1.14,1.35.06.69.66,1.19,1.35,1.14.68-.06,1.19-.66,1.14-1.35Z"/>
        <path class="cls-20" d="m119.61,108.61c-.06-.69-.66-1.19-1.35-1.13-.69.06-1.19.66-1.13,1.35.06.69.66,1.19,1.35,1.13h0c.68-.06,1.19-.66,1.13-1.34,0,0,0,0,0,0Z"/>
        <path class="cls-20" d="m124.26,117.61c.07-.68-.43-1.3-1.11-1.37-.68-.07-1.3.43-1.37,1.11-.07.68.43,1.29,1.11,1.36.68.07,1.3-.43,1.37-1.11Z"/>
        <path class="cls-20" d="m126.05,109.54c.07-.68-.43-1.3-1.11-1.37-.68-.07-1.3.43-1.37,1.11-.07.68.43,1.29,1.11,1.36.68.07,1.3-.43,1.37-1.11Z"/>
        <path class="cls-20" d="m130.25,119.42c.22-.65-.13-1.36-.78-1.58-.65-.22-1.36.13-1.58.78,0,.03-.02.05-.02.08-.22.65.13,1.36.78,1.58.65.22,1.36-.13,1.58-.78,0-.03.02-.05.02-.08Z"/>
        <path class="cls-20" d="m131.25,112.08c-.33-.6-.12-1.36.48-1.69.6-.33,1.36-.12,1.69.48.33.6.12,1.36-.48,1.69-.6.33-1.36.12-1.69-.48Z"/>
        <path class="cls-20" d="m135.51,122.51c.28-.63,0-1.36-.64-1.64-.63-.28-1.36,0-1.64.64-.28.63,0,1.36.63,1.64.63.28,1.36,0,1.64-.64Z"/>
        <path class="cls-20" d="m139.69,115.38c.28-.63,0-1.36-.63-1.64-.63-.28-1.36,0-1.64.63s0,1.36.63,1.64c0,0,0,0,0,0,.63.28,1.36,0,1.64-.64Z"/>
      </g>
    </g>
    <g>
      <g>
        <path class="cls-6" d="m178.52,90c-5.38-4.5-16.43-2.23-18.8,2.27-2.37,4.5,14.72,3.43,19.56-.67l-.76-1.6Z"/>
        <path class="cls-20" d="m179.27,91.24c-.04.1-.15.15-.25.11-6.85-2.11-16.93,1.36-17.03,1.4-.11.04-.23-.02-.27-.12-.04-.11.02-.23.12-.27.1-.04,10.31-3.56,17.3-1.4.11.03.18.15.14.26v.02Z"/>
      </g>
      <g>
        <path class="cls-6" d="m176.36,86.29c7.08-2.14,18.95-18.19,13.04-18.72-5.91-.53-15.13,8.84-14.13,16.96l1.09,1.75Z"/>
        <path class="cls-20" d="m175.99,86.06c-.13-.04-.21-.18-.17-.31,2.31-8.21,12.22-15.97,12.32-16.05.11-.08.26-.06.34.05.08.11.05.26-.05.34-.1.08-9.88,7.74-12.15,15.79-.03.12-.15.2-.27.18h-.03Z"/>
      </g>
      <path class="cls-20" d="m182.82,96.91c-5.53-11.03-12.9-21.09-21.77-29.68-.35-.34-.88.19-.53.53,8.82,8.55,16.14,18.55,21.65,29.52.22.43.86.05.65-.38h0Z"/>
      <g>
        <path class="cls-6" d="m155.2,70.03c-9.22,4.98-17.92,1.05-14.05-5.71,3.43-5.93,13.6-2.55,13.51-2.98s-11.21-10.48-3.08-15.09c8.13-4.61,11.98,2.11,10.89,12.14,0,0,6.61-11.78,13.42-10.01,6.81,1.77,9.24,12.99-7.96,17.27,0,0,14.56.19,13.39,8.83-1.17,8.64-11.7,7.31-19.17-2.93,0,0,4.25,14.85-6.42,14.74-12.1-.08-.51-16.25-.51-16.25Z"/>
        <path class="cls-22" d="m155.2,70.03c-9.22,4.98-17.92,1.05-14.05-5.71,3.43-5.93,13.6-2.55,13.51-2.98s-11.21-10.48-3.08-15.09c8.13-4.61,11.98,2.11,10.89,12.14,0,0,6.61-11.78,13.42-10.01,6.81,1.77,9.24,12.99-7.96,17.27,0,0,14.56.19,13.39,8.83-1.17,8.64-11.7,7.31-19.17-2.93,0,0,4.25,14.85-6.42,14.74-12.1-.08-.51-16.25-.51-16.25Z"/>
        <path class="cls-5" d="m155.83,66.66s-9.64,4.12-10.85.85c-1.21-3.27,11.3-3.21,11.3-3.21,0,0-5.06-.34-4.34-1.28.71-.94,5.93.13,5.55-.25-.38-.38-4.8-3.04-3.8-4.16,1-1.12,3.73,2.46,3.73,2.46,0,0-5.2-8.85-2.81-10.15,2.39-1.3,4.85,10.29,4.89,10.08.04-.21.64-3.37,1.44-3.57.8-.21-.17,3.74-.17,3.74,0,0,3.37-4.02,3.97-3.38.6.64-2.22,3.7-2.22,3.7,0,0,10.04-8.18,11.7-6.42,1.65,1.76-10.91,8.4-10.91,8.4,0,0,5.44-.89,4.49.47-.95,1.35-4.47,1.3-4.47,1.3,0,0,5.67.84,4.64,1.87-1.03,1.02-4.49-.09-4.49-.09,0,0,13.18,2.77,11.3,6.5-1.88,3.73-12.4-5.49-12.4-5.49,0,0,3.43,3.55,2.66,4.12-.77.56-3.88-3.43-3.88-3.43,0,0,1.63,6.86.15,7.2-1.48.34-.69-4.25-.69-4.25,0,0-1.87,10.41-4.95,10.52-3.07.11,2.46-11.3,2.46-11.3,0,0-2.25,3.01-3.08,2.17-.83-.84,2.63-5,2.63-5,0,0-3.53,2.06-4.53,1.37-1.01-.69,2.69-2.77,2.69-2.77Z"/>
        <path class="cls-20" d="m156.32,65.66c-.04-1.37.58-1.8,1.52-3,.95-1.2,1.88-1.25,2.81-.92.93.33,1.6,1.3,2.18,2.02.58.72.95,2.92.17,3.16-.78.24-1.37,1.12-2.25,1.57-.88.45-2.64.26-3.05-.43-.4-.69-1.34-1.03-1.39-2.4Z"/>
      </g>
    </g>
    <g>
      <path class="cls-6" d="m233.29,78.98c-4.34-2.12-5.2-6.43-1.63-6.8,3.14-.31,4.61,4.42,4.74,4.26.14-.15.92-7.02,4.83-5.21,3.91,1.81,2.42,5.06-1.63,7.34,0,0,6.19-.69,7.35,2.34,1.17,3.03-2.39,6.95-8.61,1.65,0,0,3.84,5.51.29,7.39s-5.88-2.42-4.05-7.97c0,0-4.43,5.58-7.25,1.55-3.22-4.56,5.95-4.56,5.95-4.56Z"/>
      <path class="cls-22" d="m233.29,78.98c-4.34-2.12-5.2-6.43-1.63-6.8,3.14-.31,4.61,4.42,4.74,4.26.14-.15.92-7.02,4.83-5.21,3.91,1.81,2.42,5.06-1.63,7.34,0,0,6.19-.69,7.35,2.34,1.17,3.03-2.39,6.95-8.61,1.65,0,0,3.84,5.51.29,7.39s-5.88-2.42-4.05-7.97c0,0-4.43,5.58-7.25,1.55-3.22-4.56,5.95-4.56,5.95-4.56Z"/>
      <path class="cls-5" d="m234.73,78.31s-4.13-2.51-3.23-3.84c.9-1.33,4.24,3.37,4.24,3.37,0,0-1.23-1.99-.68-1.97s1.54,2.26,1.58,2.01c.04-.25-.15-2.62.54-2.54.69.08.08,2.06.08,2.06,0,0,1.92-4.32,3.05-3.78s-2.55,4.58-2.47,4.54c.09-.04,1.43-.67,1.73-.42.29.25-1.45.94-1.45.94,0,0,2.41.18,2.33.58-.08.4-1.98.16-1.98.16,0,0,5.76,1.57,5.55,2.66s-6.08-1.83-6.08-1.83c0,0,1.79,1.8,1.03,1.81-.76,0-1.69-1.33-1.69-1.33,0,0,1.21,2.35.55,2.24-.66-.11-1.17-1.71-1.17-1.71,0,0,2.5,5.68.6,5.98-1.9.3-1.27-6.12-1.27-6.12,0,0-.41,2.24-.83,2.1-.42-.14.24-2.38.24-2.38,0,0-2.13,2.45-2.66,1.99-.53-.46,1.41-1.4,1.41-1.4,0,0-4.41,2.09-5.27.97-.87-1.12,4.9-2.11,4.9-2.11,0,0-1.73-.03-1.64-.57.09-.54,2.58-.36,2.58-.36,0,0-1.72-.77-1.73-1.33-.01-.56,1.76.26,1.76.26Z"/>
      <path class="cls-20" d="m235.23,78.23c.5-.38.83-.27,1.53-.23.7.03.97.37,1.1.8.13.44-.06.95-.17,1.36-.11.41-.84,1.14-1.14.91s-.79-.21-1.19-.42-.81-.92-.66-1.26c.15-.34.03-.78.53-1.16Z"/>
    </g>
    <g>
      <path class="cls-20" d="m136.69,146.95c9.38-1.25,18.89-1.26,28.26,0,.47.06.68-.66.2-.72-9.45-1.27-19.01-1.29-28.46-.02-.47.06-.48.81,0,.75h0Z"/>
      <g>
        <path class="cls-6" d="m122.84,159.81c-6.56,4.01-13.59,1.16-7.43-4.7,6.16-5.86,7.28-5.78,7.05-6.19-.23-.41-13.25-3.56-12.82-7.95.43-4.38,8.69-5.58,14.74-2.63,6.05,2.96,12.01,13.17-1.54,21.46Z"/>
        <path class="cls-6" d="m136.19,151.53c-4.38,14.11-15.42,20.11-18.21,15.77-2.79-4.34,7.89-14.27,7.89-14.27,0,0-12.29,8.64-16.48.83s5.75-14.33,15.15-9.16c0,0-14.81-9.03-11.73-14.57,3.08-5.54,27.56,7.91,23.39,21.4Z"/>
        <path class="cls-22" d="m121,130.16c7.89,3.3,17.99,12.32,15.18,21.37-1.13,3.72-2.9,7.21-5.23,10.32h0c-4.94,6.42-11.02,8.46-12.96,5.42-2.81-4.31,7.88-14.27,7.88-14.27,0,0-12.29,8.65-16.48.85s5.75-14.33,15.15-9.17c0,0-14.82-9.03-11.74-14.57.99-1.8,4.33-1.57,8.2.04Z"/>
        <path class="cls-18" d="m121,130.16c7.89,3.3,17.99,12.32,15.18,21.37-1.13,3.72-2.9,7.21-5.23,10.32h0c-2.61,2.98-4.75,3.84-5.72,2.06-1.24-2.28,3.86-8.14,6.86-11.3-1.53,1.42-3.51,2.86-4.4,1.97-1.56-1.6,4.49-5.33,4.49-5.33,0,0-12.7,4.29-13.5.74s12.43-3.6,13.03-3.62c-.35-.15-7.66-3.22-7.52-5.16s7.92,2.88,7.92,2.88c0,0-13.87-10.26-11.12-13.92Z"/>
        <path class="cls-20" d="m137.72,148.66c-.41,4.27-2.86,6.84-3.17,5.21-.12-1.13.17-2.26.82-3.19,0,0-2.09.88-2.44-.43s1.67-2.75,1.67-2.75c0,0-2.1-1.51-2.11-2.37-.01-.86,2.36-.28,2.36-.28,0,0-3.22-2.35-1.88-3.53s5.21,2.49,4.75,7.34Z"/>
      </g>
    </g>
    <g>
      <g>
        <path class="cls-6" d="m211.73,198.96c-6.13,2.83-14.82,18.86-9.41,18.58s12.55-9.92,10.62-17.14l-1.2-1.45Z"/>
        <path class="cls-20" d="m212.1,199.13c.12.02.21.13.19.26-1.04,7.72-9.02,16-9.1,16.08-.09.09-.23.08-.32,0-.08-.09-.08-.23,0-.32.08-.08,7.95-8.26,8.98-15.82.01-.11.11-.2.22-.2h.02Z"/>
      </g>
      <g>
        <path class="cls-6" d="m228.29,221.89c7.13.83,10.47,6.45,5.65,8.73-4.26,1.98-8.64-3.92-8.76-3.63-.12.28,2.18,10.29-4.2,9.69-6.38-.61-5.9-5.89-1.35-11.09,0,0-8.34,4.02-11.47.35-3.13-3.67-.08-10.93,11.26-6.57,0,0-8.1-5.83-4.05-10.22,4.05-4.39,9.44.49,9.62,9.18,0,0,3.45-10.01,9.4-5.76,6.76,4.8-6.1,9.33-6.1,9.33Z"/>
        <path class="cls-22" d="m228.29,221.89c7.13.83,10.47,6.45,5.65,8.73-4.26,1.98-8.64-3.92-8.76-3.63-.12.28,2.18,10.29-4.2,9.69-6.38-.61-5.9-5.89-1.35-11.09,0,0-8.34,4.02-11.47.35-3.13-3.67-.08-10.93,11.26-6.57,0,0-8.1-5.83-4.05-10.22,4.05-4.39,9.44.49,9.62,9.18,0,0,3.45-10.01,9.4-5.76,6.76,4.8-6.1,9.33-6.1,9.33Z"/>
        <path class="cls-5" d="m226.61,223.53s7.03,1.48,6.43,3.79c-.6,2.31-7.61-2.64-7.61-2.64,0,0,2.7,2.18,1.93,2.43-.77.25-3.28-2.4-3.21-2.04.07.36,1.5,3.59.5,3.83s-1.13-2.85-1.13-2.85c0,0-.56,7.01-2.41,6.81-1.85-.21,1.32-7.68,1.22-7.58-.1.1-1.68,1.64-2.21,1.44-.53-.2,1.57-2.03,1.57-2.03,0,0-3.47.93-3.55.34-.08-.6,2.7-1.21,2.7-1.21,0,0-8.86.65-9.09-.99-.24-1.64,9.43-.43,9.43-.43,0,0-3.4-1.64-2.34-2.03,1.06-.39,3.02,1.03,3.02,1.03,0,0-2.85-2.7-1.87-2.87.98-.17,2.49,1.82,2.49,1.82,0,0-6.31-6.73-3.79-8.09s4.81,7.96,4.81,7.96c0,0-.53-3.34.12-3.36s.83,3.45.83,3.45c0,0,1.78-4.49,2.75-4.1.97.39-1.29,2.66-1.29,2.66,0,0,5.14-5.11,6.91-3.97,1.77,1.15-5.82,5.38-5.82,5.38,0,0,2.45-.81,2.58,0,.13.8-3.44,1.78-3.44,1.78,0,0,2.79.23,3.09,1.01.3.78-2.6.5-2.6.5Z"/>
        <path class="cls-20" d="m225.95,223.9c-.52.79-1.03.78-2.03,1.09-1,.3-1.55-.04-1.94-.59s-.39-1.36-.43-1.99c-.04-.63.61-2.01,1.14-1.84.53.17,1.21-.09,1.88,0,.67.09,1.59.89,1.54,1.44s.35,1.1-.17,1.89Z"/>
      </g>
    </g>
  </g>
  <g id="Speech_Bubble" data-name="Speech Bubble">
    <g>
      <g>
        <path class="cls-6" d="m337.87,13.93c11.53-7.67,27.09-4.55,34.77,6.98,7.67,11.53,4.55,27.09-6.98,34.77-8.9,5.92-20.19,5.39-28.42-.46l-7.34,1.67,1.24-7.86c-.08-.12-.17-.22-.25-.33-7.67-11.53-4.55-27.09,6.98-34.77Z"/>
        <path class="cls-1" d="m372.33,15.15c-5.26-6.23-13.79-9.52-21.87-8.44"/>
        <path class="cls-1" d="m346.77,7.33c-1.24.07-2.47.41-3.57.97"/>
      </g>
      <g class="cls-23">
        <path class="cls-16" d="m339.82,26.95c1.88-1.71,4.05-1.85,6.2-1.34,1.68.4,2.75,1.45,4.03,2.74.59.6,1.22,1.59,1.73,2.67.38-1.13.88-2.19,1.4-2.85,1.12-1.43,2.05-2.61,3.67-3.2,2.08-.76,4.24-.88,6.32.6,1.95,1.39,2.42,4.13,2,6.49-.41,2.36-1.8,4.81-3.19,6.62-2.92,3.79-5.54,6.69-9.21,8.88-4.86-2.41-6.85-4.3-10.21-7.72-1.6-1.63-3.27-3.9-3.96-6.19-.69-2.29-.55-5.07,1.22-6.68Z"/>
      </g>
    </g>
  </g>
  <g id="Character">
    <g>
      <path class="cls-20" d="m342.28,114.4c3.5-2.42,5.7-6.61,5.69-10.86,0-4.25-2.22-8.44-5.73-10.85-7.91-5.42-20.08-1.4-27.25-7.78-2.39-2.13-3.81-5.11-5.12-8.03-1.77-3.93-3.49-8.01-3.72-12.31-.02-.42-.02-.85-.02-1.27,3.67,2.27,7.88,3.41,11.8,2.01.99-.35,2.08-.93,2.26-1.96-3.79.86-7.99-.33-10.77-3.05,2.16.64,4.58.06,6.38-1.29,1.8-1.35,3-3.42,3.52-5.6.3-1.24.39-2.58-.07-3.77-.76-1.99-2.92-3.17-5.04-3.39-2.12-.22-3.5-.09-5.56.48-1.06.29-2.88,1.03-3.8,1.63-1.15.74-1.96,1.89-2.48,3.16-1.49-1.53-3.31-2.78-5.24-3.67-1.07-.49-2.18-.89-3.31-1.22-5.46-1.57-11.29-1.21-16.64.72l-3.52,1.27c-7.64,4.9-9.89,6.77-11.97,21.65-.77,5.47-4.81,10.94-4.85,16.46-.03,4.74-.06,9.53.97,14.16.75,3.37,2.06,6.6,3.49,9.75,2.8,6.15,6.24,12.24,11.54,16.43,1.61,1.27,3.53,2.39,5.58,2.25,2.69-.19,4.73-2.47,6.15-4.75,1.66-2.66,2.95-5.74,2.64-8.87,4.18,6.82,10.19,12.51,17.24,16.3,3.15,1.7,6.61,3.04,10.19,3.03,3.32,0,6.53-1.16,9.55-2.54,2.93-1.34,6.19-3.69,5.81-6.89,4.07.96,8.59-.35,11.52-3.32,2.1-2.13,3.14-6.08.74-7.86Z"/>
      <g>
        <polygon class="cls-17" points="265.6 411.51 254.41 411.95 246.87 386.16 263.62 385.52 265.6 411.51"/>
        <path class="cls-20" d="m254.04,411.29l12.14-3.4c.43-.13.9.08,1.07.49l4.07,9.22c.36.93-.11,1.98-1.04,2.33-.07.03-.15.05-.22.07-4.25,1.11-6.32,1.44-11.7,2.93-3.29.92-12.89,5.25-17.59,5.63-4.7.38-5.31-4.26-3.39-4.83,6.19-1.83,11.51-5.84,14.97-11.28.4-.58,1-.99,1.68-1.16Z"/>
        <path class="cls-6" d="m250.52,414.31c-.9.34-1.89.36-2.81.06-.44-.21-.75-.63-.82-1.11-.06-.3.04-.6.25-.81,1.11-1.09,6.04-.1,6.6,0,.11.02.19.11.2.22.02.11-.03.23-.14.28-1.05.56-2.15,1.01-3.29,1.37Zm-2.53-1.69c-.17.03-.33.11-.46.23-.09.08-.12.2-.09.32.04.32.24.59.52.75.82.4,2.63,0,4.92-1.06-1.61-.36-3.28-.43-4.92-.23h.03Z"/>
        <path class="cls-6" d="m253.8,412.99h-.1c-1.45-.23-4.67-1.83-4.81-3.12,0-.3.08-.72.76-.99.49-.22,1.05-.22,1.54,0,1.68.76,2.74,3.59,2.78,3.72.05.08.05.18,0,.25-.03.07-.1.12-.18.14Zm-3.79-3.65h-.15c-.46.18-.44.38-.43.44.09.76,2.33,2.11,3.87,2.53-.45-1.2-1.26-2.23-2.31-2.95-.31-.13-.66-.14-.97-.03Z"/>
      </g>
      <g>
        <polygon class="cls-17" points="367.6 326.09 360.3 334.61 334.62 322.23 345.49 311.94 367.6 326.09"/>
        <path class="cls-20" d="m357.61,334.13l6.69-10.7c.23-.39.71-.54,1.13-.35l9.22,4.07c.89.45,1.25,1.54.8,2.43-.02.03-.04.07-.05.1-2.4,3.69-3.79,5.35-6.68,10.05-1.81,2.9-4.74,8.85-7.25,12.81-2.5,3.96-6.58,1.73-5.89-.15,3.06-8.46,2.18-12.52,1.63-16.35-.09-.66.05-1.34.4-1.91Z"/>
        <path class="cls-6" d="m355.8,339.89h-.13c-.51.12-1.05-.02-1.43-.38-.27-.19-.41-.52-.35-.85.19-1.42,3.86-3.15,4.27-3.34.09-.06.2-.06.29,0,.08.07.11.18.08.28-.53,1.47-1.47,3.79-2.73,4.29Zm2.01-3.79c-1.45.72-3.3,1.9-3.4,2.64-.01.15.05.29.18.37.24.24.6.35.94.27.68-.15,1.54-1.37,2.23-3.22l.06-.05Z"/>
        <path class="cls-6" d="m357.96,336.02c-1.26.49-3.93.77-4.78,0-.31-.3-.37-.78-.15-1.15.17-.38.5-.66.9-.76,1.57-.47,4.31,1.26,4.43,1.26.08.05.13.14.13.24,0,.1-.06.18-.14.23l-.38.18Zm-3.96-1.4c-.22.08-.4.24-.49.46-.14.32,0,.46,0,.54.57.53,2.79.42,4.08,0-.95-.52-2.62-1.26-3.55-1h-.04Z"/>
      </g>
      <path class="cls-17" d="m246.4,114.68l-.58.62-.78.77c-.54.53-1.09,1.07-1.68,1.6-1.15,1.15-2.38,2.19-3.64,3.2-2.56,2.05-5.24,3.93-7.99,5.77-2.75,1.84-5.64,3.52-8.57,5.12l-4.48,2.3-2.29,1.09-.72.36c-.31-.47-.56-.98-.73-1.52-1.05-2.93-1.79-5.96-2.21-9.05-.94-6.82-1.53-13.68-1.76-20.56l-7.16-.59c-1.35,7.27-1.97,14.66-1.87,22.06.05,4.01.58,8.01,1.6,11.89.65,2.57,1.85,4.96,3.52,7.02,2.62,3.2,6.81,4.66,10.85,3.77.8-.17,1.59-.4,2.35-.69l1.31-.5,2.62-1.01c1.74-.64,3.45-1.47,5.18-2.24,3.43-1.58,6.78-3.35,10.02-5.29,3.29-1.97,6.46-4.14,9.48-6.51,1.5-1.21,2.99-2.46,4.44-3.82.72-.66,1.44-1.37,2.16-2.09.35-.38.7-.74,1.07-1.15.37-.42.66-.74,1.18-1.37l-11.33-9.18Zm-30.05,21.68c-.07-.07-.13-.15-.2-.23.23.14.29.23.2.23Z"/>
      <path class="cls-6" d="m257.42,105.06c-4.64-1.14-16.44,14.14-16.44,14.14l7.17,13.64s19.82-11.19,19.07-17.35c-.78-6.42-3.03-8.78-9.8-10.43Z"/>
      <path class="cls-7" d="m254.34,110.35l1.14,17.87c-3.95,2.69-7.35,4.63-7.35,4.63l-1.49-2.86,7.7-19.64Z"/>
      <path class="cls-17" d="m209.9,109.13l3.38-13.12-14.35,1.52s1.11,9.03,5.39,13.03l5.58-1.42Z"/>
      <path class="cls-6" d="m251.56,109.73c-1.09,6.32-2.12,22.38,2.53,59.71l45.53,2.81c.35-17.45,1.26-31.51,10.71-65.24.87-3.08-.92-6.28-3.99-7.15-.4-.11-.81-.18-1.22-.21-3.46-.2-7.83-.34-12.28-.15-7.01.15-14,.79-20.93,1.9-5.91,1.06-12.37,2.71-16.12,3.71-2.19.58-3.85,2.39-4.22,4.63Z"/>
      <g>
        <path class="cls-20" d="m254.09,169.44s-18.88,84.04-20.26,118.25c-1.43,35.59,12.81,118.25,12.81,118.25l23.88-4.7s-7.75-72.57-4.25-107.38c3.79-37.94,21.16-122.36,21.16-122.36l-33.33-2.05Z"/>
        <path class="cls-7" d="m272.4,192.13c-12.57,21.79-6.17,63.36-3.16,78.86,3.44-22.76,8.59-50.58,12.53-71.01-.99-11.72-3.58-17.91-9.37-7.85Z"/>
        <path class="cls-20" d="m266.12,170.18s6.32,102.73,14.16,116.95c12.48,22.53,60.37,46.9,60.37,46.9l14.97-17.52s-33.11-27.53-50.58-43.17c-4.16-28.42,10.55-73.26-5.35-101.08l-33.57-2.07Z"/>
      </g>
      <g>
        <path class="cls-20" d="m274.37,47.95c-6.99,3.11-9.86,8.9-10.56,13.34-.28,6.12,2.65,10.95,3.21,17.05l20.06-32.36c-3.76.07-5.26-.99-12.71,1.97Z"/>
        <path class="cls-20" d="m282.71,46.29c6.59-1.77,11.96,2.74,15.03,5.74,3.23,4,4.63,9.22,3.84,14.34-.84,4.77-1.86,10.55-5.13,12.51-1.84,1.15-4.07,1.45-6.14.84l-19.26-26c3.2-3.45,7.21-6.01,11.65-7.43Z"/>
        <path class="cls-17" d="m271.91,101.4c1.73-.89,5.77-5.04,5.92-7.6v-8.69c.01-.1.03-.18.05-.27l6.06-1.77s0,0,0,0c1.65-1.15,3.91-.72,5.04.97.43.61.87.48.88,1.23,0,.16-.3,1.15-.32,1.32-.94,5.6-.73,9.88,1.84,12.95l-15.05,10.81c-5.78-6.05-5.45-8.34-4.4-8.95Z"/>
        <path class="cls-7" d="m277.8,93.29c.02-.24.03-.73.02-.97.02-1.98.02-4.25.03-7.5.03-.09.05-.19.06-.29l6.37-1.92c1.77-1.2,4.15-.71,5.33,1.09.42.65.14,1.29.15,2.07-3.24,3.96-7.08,6.92-11.96,8.27.05-.25-.01-.47,0-.73v-.03Z"/>
        <path class="cls-17" d="m297.87,67.13c-2.19,10.98-2.87,15.66-9.05,20.7-9.31,7.57-21.82,2.79-22.89-8.57-.89-10.22,2.78-26.43,13.85-29.61,11.07-3.19,20.27,6.49,18.1,17.49Z"/>
        <path class="cls-17" d="m300.99,77.45c-1.51,2.18-3.76,3.42-5.74,3.73-2.98.47-4.04-4.46-2.78-7.34,1.14-2.6,4.17-4.1,6.95-3.24,2.74.84,3.3,4.36,1.57,6.85Z"/>
        <path class="cls-4" d="m294.89,76.26c.17-1.06.76-2.04,1.61-2.66.85-.63,1.95-.9,2.98-.73"/>
        <path class="cls-20" d="m283.8,69.4c-.16,1.18-.88,2.1-1.61,2.04-.72-.05-1.18-1.06-1.02-2.24.16-1.18.88-2.1,1.61-2.04.72.05,1.18,1.06,1.02,2.24Z"/>
        <path class="cls-20" d="m273.1,68.39c-.16,1.15-.88,2.03-1.6,1.98-.72-.05-1.18-1.03-1.02-2.17.16-1.15.88-2.03,1.6-1.98.72.05,1.18,1.03,1.02,2.17Z"/>
        <path class="cls-20" d="m285.65,65.37c-.14,0-.28-.05-.38-.17-1.55-1.76-3.51-1.39-3.53-1.38-.29.06-.56-.13-.6-.43-.04-.3.17-.59.47-.65.1-.02,2.56-.5,4.48,1.69.19.22.16.57-.06.78-.11.1-.24.16-.38.16Z"/>
        <path class="cls-20" d="m269,62.23c-.11-.05-.19-.14-.23-.27-.08-.26.08-.58.34-.7,2.65-1.2,4.41.07,4.48.13.21.16.23.48.05.72-.18.24-.49.32-.7.16-.07-.05-1.45-1.02-3.56-.06-.14.06-.28.06-.39,0Z"/>
        <path class="cls-19" d="m275.13,67.95s-2.11,4.04-4.29,6.47c-.38.43-.23,1.11.28,1.36,1.31.64,2.94.33,2.94.33l1.07-8.17Z"/>
        <path class="cls-20" d="m283.32,67.31l-2.47-.85s1.2,2.05,2.47.85Z"/>
        <path class="cls-20" d="m272.35,66.27l-2.47-.85s1.2,2.05,2.47.85Z"/>
        <path class="cls-20" d="m274.23,79.27c.71,1.19,1.55,3.48,1.55,3.48.22-.04.43-.08.65-.13,2.93-.62,4.09-1.89,4.48-3.12.21-.67.19-1.33.11-1.86-.09-.61-.3-1.02-.3-1.02-1.36,1.27-4.05,2.07-5.5,2.43-.61.16-1,.23-1,.23Z"/>
        <path class="cls-16" d="m275.22,79.05l.48,1.01c2.76-.59,4.62-1.38,5.31-2.42-.09-.61-.3-1.02-.3-1.02-1.36,1.27-4.05,2.07-5.5,2.43Z"/>
        <path class="cls-9" d="m276.43,82.62c2.93-.62,4.09-1.89,4.48-3.12-.99.25-2.16.66-3.12,1.34-.74.52-1.14,1.16-1.36,1.77Z"/>
        <path class="cls-20" d="m293.66,69.13s-4.9-8.33-4.01-14.52c0,0-21.19-9.05-22.58,10.77,0,0-1.81-17.69,16.71-17.12,18.51.57,18,25.29,8.35,32.17-.02-.09,4.55-6.08,1.53-11.29Z"/>
        <path class="cls-20" d="m275.16,49.15c-2.78,1.89-4.9,4.63-6.06,7.84-.42,2.4,2.47,4.72,2.47,4.72l4.83-4.51-.81,4.59c6.52.46,10.83-2.33,13.9-6.93l-2.42-7.16s-9.46-.04-11.91,1.45Z"/>
      </g>
      <g>
        <g>
          <rect class="cls-6" x="143.89" y="95.61" width="138.03" height="108.42"/>
          <rect class="cls-11" x="143.89" y="95.61" width="138.03" height="108.42"/>
          <rect class="cls-14" x="277.8" y="95.61" width="4.12" height="108.42"/>
        </g>
        <path class="cls-17" d="m199.53,92.13c1.43-.88,2.5.72,2.5.72,1.72-1.69,3.12-.33,3.12-.33.81-1.05,2.5,0,2.5,0,1.66-1.08,2.6.3,2.6.3l-.13-1.24c-.13-1.24.9-2.48,1.43-2.28.3.12,1.07,1.98,1.33,3.84.26,1.85-.27,2.37-.27,2.37h-1.91s.1,3.9-1.46,4.23c-.94.19-1.26-.38-1.37-.87.01.69-.16,1.74-1.29,1.98-1.39.29-1.57-2.56-1.59-3.17,0,0,0,0,0,.02,0,.94-.98,2.02-2.15,1.72s-.42-4.06-.42-4.06c0,0-.29,1.2-1.53,1.37-1.24.16-1.04-1.11-1.04-1.11,0,0-1.45-.12-1.55-.12s-.2-2.47,1.23-3.35Z"/>
        <g>
          <path class="cls-6" d="m166.78,150.48c-1.55,0-2.63-.33-3.24-.98-.61-.64-.91-1.47-.9-2.47,0-.88.19-1.94.54-3.17.36-1.23.72-2.41,1.09-3.53.68-1.91,1.41-3.9,2.2-5.97.79-2.07,1.59-4.12,2.41-6.15.82-2.03,1.63-3.99,2.43-5.88.8-1.88,1.56-3.6,2.27-5.15-2.07.02-3.84.06-5.32.13-1.48.07-2.82.16-4.02.27-1.2.12-2.48.29-3.82.53.13-1.19.7-2.1,1.73-2.75,1.02-.65,2.4-1.1,4.14-1.35,1.74-.25,3.7-.37,5.89-.36,1.52,0,2.91.06,4.16.16,1.25.1,2.44.2,3.58.32,1.14.11,2.26.2,3.35.27.91.46,1.51.75,1.8.88.29.12.34.18.16.18-.7.54-1.58.94-2.63,1.2-1.05.25-2.14.41-3.27.46-1.13.06-2.21.08-3.24.07-1.3,3.19-2.57,6.68-3.82,10.48-1.25,3.8-2.46,7.74-3.6,11.81-.4,1.52-.75,2.84-1.05,3.94-.3,1.11-.52,2.12-.68,3.03-.16.91-.24,1.84-.24,2.78,0,.15,0,.33.02.53.01.2.04.43.06.71Z"/>
          <path class="cls-6" d="m180.81,148.31c-.64,0-1.11-.52-1.41-1.54-.3-1.02-.44-2.19-.44-3.5,0-1.43.26-3.13.76-5.11.5-1.98,1.15-4.06,1.95-6.27.8-2.2,1.71-4.36,2.71-6.47,1-2.11,2.03-4.02,3.09-5.74,1.06-1.71,2.06-3.09,3.01-4.12.95-1.03,1.77-1.54,2.47-1.54.61,0,1.06.35,1.36,1.03.3.69.45,1.38.45,2.08,0,.85-.2,1.88-.59,3.08-.39,1.2-.92,2.48-1.6,3.85-.68,1.37-1.47,2.72-2.37,4.05-.91,1.34-1.88,2.55-2.92,3.64-1.04,1.09-2.13,1.97-3.26,2.63-.37.97-.68,1.94-.93,2.89-.25.96-.43,1.88-.54,2.76-.11.88-.17,1.72-.17,2.51,0,.21,0,.42.02.62.01.2.04.37.07.52.22-.55.5-1.27.86-2.16.35-.9.79-1.85,1.29-2.85.51-1,1.11-1.96,1.8-2.87.69-.91,1.48-1.64,2.36-2.2.89-.56,1.86-.83,2.93-.83.97,0,1.74.23,2.3.67.56.45.95,1,1.18,1.67.22.67.33,1.36.33,2.06,0,.94-.17,1.85-.49,2.71-.32.87-.65,1.69-.97,2.46-.32.77-.49,1.51-.49,2.21,0,.55.12.94.36,1.19.24.25.55.37.91.37.67,0,1.46-.33,2.36-.99.9-.66,1.79-1.55,2.66-2.66.87-1.11,1.63-2.33,2.28-3.66l.68.69c-.68,1.52-1.49,2.9-2.44,4.14-.95,1.24-1.98,2.23-3.1,2.97-1.12.74-2.3,1.11-3.55,1.1-1.13,0-1.98-.31-2.55-.9s-.86-1.34-.86-2.22c0-.64.12-1.35.35-2.12.23-.77.46-1.56.67-2.37.22-.81.33-1.54.33-2.21,0-.73-.15-1.25-.47-1.55-.32-.31-.71-.46-1.16-.46-.76,0-1.45.3-2.06.9-.61.61-1.17,1.38-1.68,2.32-.51.94-.98,1.94-1.41,2.98-.43,1.05-.86,2.05-1.27,3.01-.42.96-.85,1.73-1.31,2.32-.46.59-.96.89-1.51.88Zm4.11-16.46c.79-.7,1.58-1.54,2.34-2.52.77-.98,1.48-2.02,2.14-3.12.66-1.09,1.24-2.15,1.73-3.19.49-1.03.89-1.96,1.18-2.78.29-.82.46-1.46.49-1.92,0-.06,0-.11-.02-.14-.02-.03-.04-.05-.07-.05-.18,0-.58.39-1.19,1.16-.61.77-1.33,1.81-2.14,3.12-.81,1.3-1.62,2.78-2.42,4.42-.8,1.64-1.48,3.31-2.04,5.01Z"/>
          <path class="cls-6" d="m203.41,148.85c-.97,0-1.82-.34-2.53-.99-.71-.66-1.06-1.64-1.06-2.95,0-1.1.26-2.27.75-3.51.49-1.25,1.17-2.48,2.03-3.69.86-1.21,1.84-2.32,2.94-3.32,1.1-1,2.27-1.8,3.51-2.4,1.24-.6,2.46-.9,3.68-.89,1.28,0,2.35.34,3.21,1,.86.66,1.29,1.52,1.29,2.59,0,.82-.27,1.4-.79,1.73-.52.33-1.16.43-1.92.31.06-.24.12-.51.16-.8.05-.29.07-.57.07-.84,0-.64-.13-1.2-.4-1.69-.27-.49-.8-.73-1.59-.74-.85,0-1.72.28-2.61.85-.89.57-1.74,1.33-2.57,2.27-.83.94-1.56,1.97-2.21,3.09-.65,1.12-1.15,2.23-1.52,3.33-.37,1.09-.56,2.07-.56,2.92,0,1.04.37,1.55,1.13,1.56.7,0,1.47-.33,2.31-.99.84-.66,1.7-1.51,2.57-2.54.87-1.03,1.71-2.08,2.51-3.16.8-1.08,1.49-2.02,2.07-2.84.12-.15.23-.23.32-.23.15.03.39.1.73.21.33.11.64.25.91.44.27.18.41.43.41.73,0,.3-.14.69-.42,1.16-.28.47-.58.99-.92,1.57-.34.58-.65,1.15-.92,1.73-.28.58-.42,1.14-.42,1.69,0,.4.11.78.34,1.17.23.38.6.57,1.12.58.76,0,1.81-.55,3.14-1.65,1.33-1.1,2.69-2.92,4.07-5.44l.73.73c-.71,1.64-1.58,3.08-2.6,4.32-1.03,1.24-2.11,2.22-3.24,2.93-1.13.71-2.26,1.06-3.39,1.06-1.22,0-2.11-.39-2.69-1.13-.58-.75-.89-1.56-.95-2.45,0-.09,0-.19.02-.3.02-.11.02-.21.02-.3-1.26,1.55-2.4,2.75-3.44,3.61-1.04.86-2.14,1.29-3.29,1.28Z"/>
          <path class="cls-6" d="m236.29,147.79c-1.13,0-1.98-.3-2.57-.88-.59-.58-.88-1.31-.88-2.2,0-.64.11-1.3.33-1.98.22-.68.43-1.38.65-2.1.22-.71.33-1.41.33-2.08,0-.73-.16-1.23-.49-1.51-.33-.28-.73-.41-1.18-.42-.91,0-1.85.37-2.81,1.13-.96.76-1.9,1.7-2.82,2.84-.92,1.14-1.78,2.33-2.58,3.57-.8,1.24-1.49,2.35-2.07,3.32-.55,0-1.06-.1-1.55-.28-.49-.19-.89-.51-1.23-.97.03-.15.21-.62.53-1.39.32-.77.69-1.72,1.09-2.83.4-1.11.77-2.26,1.09-3.44.33-1.18.49-2.28.5-3.28.21-.21.53-.44.96-.68.43-.24.87-.36,1.33-.36.97,0,1.46.45,1.45,1.33,0,.4-.1,1.03-.28,1.89-.19.87-.44,1.82-.75,2.85.8-1.12,1.69-2.21,2.67-3.25.98-1.05,2-1.9,3.07-2.56,1.07-.66,2.15-.99,3.25-.99,1.25,0,2.17.45,2.76,1.32.59.87.88,1.84.87,2.9,0,.91-.16,1.77-.47,2.58-.31.8-.61,1.56-.9,2.28-.29.71-.44,1.42-.44,2.12,0,.52.11.89.34,1.12.23.23.51.35.84.35.73,0,1.49-.35,2.27-1.06.78-.71,1.53-1.6,2.25-2.68.72-1.08,1.36-2.16,1.91-3.26l.68.6c-.65,1.49-1.37,2.84-2.17,4.05-.8,1.21-1.69,2.18-2.66,2.89-.98.71-2.08,1.06-3.29,1.06Z"/>
          <path class="cls-6" d="m256.79,148.72c-.91,0-1.7-.31-2.37-.9-.67-.6-1.2-1.35-1.59-2.27-.39-.92-.68-1.85-.87-2.79-.19-.94-.29-1.77-.28-2.47.39-.06.91-.18,1.55-.36.64-.18,1.3-.43,1.97-.74.67-.32,1.24-.72,1.7-1.22.46-.5.69-1.1.69-1.8,0-.58-.19-1.04-.59-1.4-.39-.35-.9-.53-1.5-.53-.88,0-1.72.29-2.52.88-.79.59-1.52,1.36-2.18,2.32-.66.95-1.25,1.99-1.77,3.1-.52,1.11-.99,2.17-1.39,3.19-.4,1.02-.74,1.89-1.02,2.62-.28.79-.58,1.32-.9,1.59-.32.27-.74.41-1.26.4-.3,0-.59-.12-.87-.35-.27-.23-.48-.62-.61-1.17-.13-.55-.2-1.28-.19-2.19,0-1.77.28-3.74.81-5.91.53-2.17,1.23-4.4,2.11-6.68.88-2.28,1.84-4.47,2.89-6.56,1.05-2.1,2.1-3.98,3.16-5.65,1.06-1.67,2.05-3,2.97-3.98.92-.98,1.67-1.48,2.25-1.47.49,0,.89.31,1.21.92.32.61.47,1.37.47,2.29,0,1.04-.24,2.19-.7,3.47-.46,1.28-1.12,2.56-1.96,3.85-.84,1.29-1.84,2.51-2.99,3.66-1.15,1.15-2.43,2.13-3.83,2.95-.89,2.16-1.58,4.27-2.07,6.34-.48,2.07-.77,3.86-.87,5.38.52-1.25,1.14-2.54,1.85-3.89.71-1.35,1.5-2.63,2.37-3.85.87-1.21,1.82-2.19,2.82-2.93,1.01-.74,2.08-1.11,3.2-1.1,1.19,0,2.21.42,3.08,1.25.86.83,1.29,1.86,1.29,3.11,0,.91-.26,1.71-.77,2.39-.51.68-1.12,1.23-1.84,1.66-.72.42-1.43.74-2.15.95-.72.21-1.32.31-1.81.31.06.37.16.85.31,1.46.15.61.37,1.23.65,1.85.29.63.64,1.15,1.07,1.58.42.43.92.64,1.5.65.82,0,1.63-.33,2.43-1.01.79-.68,1.58-1.59,2.34-2.73.77-1.14,1.46-2.4,2.08-3.8l.54.69c-.5,1.49-1.19,2.92-2.08,4.3-.89,1.38-1.88,2.49-2.99,3.34s-2.21,1.27-3.34,1.26Zm-6.47-19.85c1.04-.88,2.04-1.91,3.01-3.09.97-1.18,1.76-2.4,2.39-3.66.63-1.26.96-2.39,1-3.4,0-.09-.01-.17-.04-.23-.3.06-.8.57-1.49,1.54-.69.97-1.47,2.22-2.33,3.75-.86,1.53-1.71,3.23-2.54,5.08Z"/>
        </g>
        <g>
          <path class="cls-6" d="m184.29,190.98c-.94,0-1.79-.29-2.56-.86-.77-.57-1.15-1.43-1.14-2.6,0-1.2.35-2.28,1.03-3.24.68-.96,1.57-1.82,2.66-2.61,1.09-.78,2.29-1.51,3.59-2.18,1.3-.67,2.59-1.32,3.87-1.95.46-1.16.95-2.59,1.49-4.28.54-1.69,1.01-3.36,1.44-5.01-1.17,1.72-2.43,3.23-3.77,4.52-1.34,1.29-2.82,1.93-4.44,1.92-.68,0-1.38-.15-2.11-.43-.73-.29-1.34-.78-1.82-1.48-.48-.7-.72-1.61-.72-2.74,0-1.01.19-2.22.56-3.6.36-1.39.82-2.74,1.37-4.05.55-1.31,1.12-2.41,1.71-3.29.59-.88,1.11-1.32,1.56-1.32.19,0,.49.08.9.23.41.15.82.36,1.21.63.39.27.63.55.7.85-.34.45-.72,1.11-1.14,1.97-.42.86-.82,1.82-1.2,2.87-.38,1.05-.7,2.08-.95,3.1-.25,1.01-.38,1.88-.38,2.59,0,.6.12,1.11.36,1.52.24.42.7.62,1.38.63.79,0,1.63-.33,2.51-1,.89-.67,1.76-1.54,2.64-2.61.87-1.07,1.65-2.16,2.33-3.29.11-.34.21-.76.29-1.27.08-.51.19-1.04.35-1.61.15-.6.47-1.19.94-1.77.47-.58,1.14-.87,2.01-.86.26,0,.52.02.76.06.24.04.54.1.87.17,0,.56-.21,1.66-.61,3.29-.4,1.63-.93,3.53-1.58,5.69-.65,2.16-1.4,4.32-2.23,6.5,1.66-.63,3.34-1.7,5.03-3.21,1.7-1.51,3.08-3.6,4.15-6.26l.9.68c-.57,1.88-1.44,3.5-2.59,4.86-1.15,1.37-2.45,2.52-3.88,3.47-1.43.95-2.87,1.74-4.3,2.37-1.03,2.44-2.13,4.7-3.31,6.77-1.18,2.08-2.42,3.74-3.72,4.97-1.3,1.23-2.69,1.85-4.15,1.84Zm-.44-1.98c.68,0,1.67-.74,2.97-2.24,1.3-1.5,2.64-3.86,4.01-7.08-1.32.67-2.6,1.4-3.85,2.21-1.24.8-2.28,1.65-3.11,2.55-.83.9-1.25,1.87-1.26,2.93,0,.34.09.7.28,1.07.19.38.5.57.95.57Z"/>
          <path class="cls-6" d="m207.88,177.13c-1.65,0-2.8-.55-3.43-1.62-.63-1.08-.95-2.29-.94-3.64,0-1.2.2-2.42.58-3.66.38-1.24.89-2.4,1.54-3.49.64-1.09,1.36-1.97,2.16-2.64.79-.67,1.6-1.01,2.43-1,.22,0,.5.05.82.15.32.1.55.22.7.37-.42.45-.86,1.09-1.33,1.91-.48.82-.91,1.71-1.31,2.67-.4.96-.72,1.91-.97,2.87-.25.96-.38,1.83-.38,2.62,0,.87.14,1.54.44,2.03.3.49.79.74,1.46.74.75,0,1.65-.39,2.68-1.2,1.04-.8,2.03-1.78,2.98-2.94-1.16-1.02-2.01-2.2-2.55-3.54-.54-1.34-.8-2.85-.79-4.54,0-.94.22-1.93.64-2.98.42-1.05,1.06-1.93,1.93-2.64.87-.71,2-1.06,3.39-1.05,1.58,0,2.68.46,3.29,1.34.62.89.92,1.95.91,3.19,0,1.39-.38,2.96-1.12,4.7-.74,1.74-1.62,3.4-2.65,4.97.52.3,1.11.46,1.75.46.56,0,1.24-.12,2.03-.38.79-.26,1.55-.7,2.29-1.31.74-.62,1.33-1.43,1.79-2.44l.9.68c-.8,1.84-1.89,3.17-3.26,4.01-1.38.84-2.7,1.25-3.98,1.25-.49,0-.98-.05-1.46-.15-.49-.1-.94-.24-1.35-.43-1.29,1.57-2.73,2.92-4.33,4.04-1.6,1.12-3.21,1.67-4.83,1.67Zm8.73-8.52c.95-1.31,1.73-2.72,2.36-4.24.63-1.52.95-2.92.95-4.2,0-.94-.13-1.63-.41-2.06-.28-.43-.66-.65-1.15-.65-.75,0-1.51.51-2.26,1.54-.76,1.03-1.14,2.33-1.15,3.91,0,.9.13,1.91.41,3.02.28,1.11.69,2,1.25,2.68Z"/>
          <path class="cls-6" d="m229.24,177.13c-1.28,0-2.32-.6-3.12-1.76-.8-1.17-1.2-2.52-1.19-4.07,0-1.05.19-2.29.56-3.72.36-1.43.81-2.82,1.35-4.19.53-1.37,1.09-2.5,1.68-3.4.59-.9,1.11-1.35,1.56-1.34.26,0,.65.14,1.15.4.51.27.95.59,1.32.97-.42.6-.92,1.54-1.51,2.81-.59,1.28-1.11,2.64-1.57,4.08-.46,1.45-.69,2.77-.7,3.97,0,.19.03.57.08,1.16.05.58.2,1.12.44,1.61.24.49.66.74,1.26.74.64,0,1.33-.34,2.09-1.03.76-.69,1.52-1.6,2.3-2.72.78-1.12,1.52-2.34,2.25-3.65.72-1.31,1.39-2.57,1.99-3.77.61-1.2,1.1-2.21,1.48-3.04.3.04.7.13,1.21.26.51.14.96.32,1.35.54.39.23.59.55.59.96,0,.11-.18.58-.54,1.41-.36.83-.79,1.82-1.28,2.98-.5,1.16-.92,2.34-1.29,3.54-.36,1.2-.55,2.25-.55,3.15,0,.56.11,1.05.33,1.47.22.41.65.62,1.29.63.79,0,1.74-.35,2.85-1.06,1.11-.71,2.25-1.74,3.43-3.11,1.17-1.37,2.21-2.99,3.13-4.86l.79.62c-.84,2.03-1.91,3.83-3.21,5.42-1.31,1.59-2.7,2.83-4.19,3.73-1.49.89-2.93,1.34-4.32,1.33-1.05,0-1.86-.25-2.42-.72-.56-.47-.94-1.09-1.15-1.84-.2-.75-.3-1.52-.3-2.31,0-.26.01-.54.03-.85.02-.3.05-.58.09-.84-.65,1.09-1.36,2.13-2.13,3.12-.78.99-1.59,1.8-2.44,2.44-.85.63-1.74.95-2.68.94Z"/>
        </g>
      </g>
      <g>
        <path class="cls-17" d="m328.51,148.5c-.04-.28-.1-.55-.17-.82l-.15-.62-.19-.65-.36-1.28c-.25-.85-.5-1.72-.76-2.58-2.08-6.8-4.52-13.42-7.13-19.97-2.62-6.55-6.99-12.16-10.14-18.54l-11.82,8.89c2.84,6.11,6.73,8.56,9.43,14.81,2.7,6.25,5.31,12.51,7.66,18.79.09.23.18.46.26.69-.27,0-.55.04-.82.03-1.51.01-3.09-.04-4.72-.17-6.49-.49-14.89-3.27-21.59-4.24l-.59,7.8c6.61,2.82,13.7,5.42,20.71,6.98,1.85.4,3.71.7,5.59.91,2.18.27,4.39.27,6.57,0,.74-.11,1.48-.28,2.19-.51,1.01-.32,1.96-.81,2.81-1.44,1.26-.95,2.23-2.24,2.79-3.72.51-1.39.65-2.89.42-4.36Z"/>
        <path class="cls-6" d="m307.23,100.18c4.46,1.67,10.87,18.36,10.87,18.36l-20.36,10.89s-5.87-15.48-3.59-21.24c2.38-6.02,7.98-9.91,13.09-8Z"/>
        <path class="cls-17" d="m287.83,150.58s-5.76,1.05-5.86-1.49c-.11-2.55-.6-8.95-.6-8.95,0,0-7.05.65-6.98,0,.13-1.27,3.84-1.51,3.84-1.51,0,0-4.44-.03-4.63-1.04-.24-1.25,5.48-1.03,5.21-.89-.27.14-5.83-2.14-3.09-2.34s5.66-.55,7.51.89c1.86,1.45,5.98,8.66,5.98,8.66l-1.38,6.67Z"/>
      </g>
    </g>
  </g>
</svg>